<?xml version="1.0" encoding="UTF-8" standalone="no"?>
<svg xmlns:dc="http://purl.org/dc/elements/1.1/" xmlns:cc="http://creativecommons.org/ns#" xmlns:rdf="http://www.w3.org/1999/02/22-rdf-syntax-ns#" xmlns:svg="http://www.w3.org/2000/svg" xmlns="http://www.w3.org/2000/svg" xmlns:sodipodi="http://sodipodi.sourceforge.net/DTD/sodipodi-0.dtd" xmlns:inkscape="http://www.inkscape.org/namespaces/inkscape" width="18.08506mm" height="11.093908mm" viewBox="0 0 18.08506 11.093908" version="1.1" id="svg8" inkscape:version="1.0.2-2 (e86c870879, 2021-01-15)" sodipodi:docname="Logo_EPL.svg">
  <defs id="defs2">
    <clipPath clipPathUnits="userSpaceOnUse" id="clipPath28">
      <path d="M 0,0 H 595 V 830 H 0 Z" id="path26"/>
    </clipPath>
    <clipPath clipPathUnits="userSpaceOnUse" id="clipPath38">
      <path d="M 0,-1.224718e-5 H 595 V 829.99999 H 0 Z" id="path36"/>
    </clipPath>
    <clipPath clipPathUnits="userSpaceOnUse" id="clipPath82">
      <path d="m 503.1666,740.885 h 51.26494 v 31.44752 H 503.1666 Z" id="path80"/>
    </clipPath>
  </defs>
  <sodipodi:namedview id="base" pagecolor="#ffffff" bordercolor="#666666" borderopacity="1.0" inkscape:pageopacity="0.0" inkscape:pageshadow="2" inkscape:zoom="0.98994949" inkscape:cx="238.10133" inkscape:cy="86.232184" inkscape:document-units="mm" inkscape:current-layer="g18" inkscape:document-rotation="0" showgrid="false" inkscape:window-width="1920" inkscape:window-height="1002" inkscape:window-x="-8" inkscape:window-y="-8" inkscape:window-maximized="1"/>
  <metadata id="metadata5">
    <rdf:RDF>
      <cc:Work rdf:about="">
        <dc:format>image/svg+xml</dc:format>
        <dc:type rdf:resource="http://purl.org/dc/dcmitype/StillImage"/>
        <dc:title/>
      </cc:Work>
    </rdf:RDF>
  </metadata>
  <g inkscape:label="Calque 1" inkscape:groupmode="layer" id="layer1" transform="translate(-99.768961,45.171986)">
    <g id="g18" inkscape:label="_frontbanner_EPL-master-thesis" transform="matrix(0.35277777,0,0,-0.35277777,-77.737101,227.28968)">
      <g id="g20"/>
      <g id="g76">
        <g id="g78" clip-path="url(#clipPath82)">
          <path d="m 509.0014,757.9122 h 7.5031 v 1.237 c 0,2.063 -1.6506,3.7502 -3.7516,3.7502 -2.0637,0 -3.7515,-1.6872 -3.7515,-3.7502 z" style="fill:#5a8fd2;fill-opacity:1;fill-rule:nonzero;stroke:none" id="path84"/>
          <path d="m 528.8229,762.8621 h -3.9013 v -12.4867 h 3.9013 c 0.7499,0 1.2375,0.1869 1.7632,0.7115 0.5247,0.5255 0.7127,1.0501 0.7127,1.8007 v 7.4994 c 0,0.7497 -0.188,1.2752 -0.7127,1.7998 -0.5257,0.5255 -1.0133,0.6753 -1.7632,0.6753" style="fill:#1c4f9c;fill-opacity:1;fill-rule:nonzero;stroke:none" id="path86"/>
          <path d="m 554.4317,740.9181 v 27.4169 c 0,2.2109 -1.2699,3.9973 -3.7658,3.9973 h -11.4913 c 0.4323,-0.1946 0.7395,-0.6295 0.7395,-1.1274 v -18.75 c 0,-0.4493 0.1116,-0.9748 0.5247,-1.5747 0.375,-0.5246 0.9007,-0.8994 1.3129,-1.0501 0.7509,-0.3376 0.6755,-1.0491 0.6755,-1.1245 0.0754,-1.2752 -1.351,-1.3124 -1.7632,-1.1254 -1.0877,0.4502 -1.6878,1.0501 -2.1763,1.65 -0.8625,1.0501 -1.0877,2.1374 -1.0877,3.2247 l -0.0372,17.4376 h -3.076 c -0.7872,0 -1.3501,0.3377 -1.5008,0.9376 -0.1718,0.7163 0.2051,1.2771 0.6764,1.5022 h -10.644 v -6.9501 l 6.0042,-0.008 c 1.5008,0 2.5513,-0.3377 3.6008,-1.3878 1.0886,-1.0873 1.3882,-2.0992 1.3882,-3.5995 v -7.5004 c 0,-1.4993 -0.3377,-2.5122 -1.4254,-3.5995 -1.0877,-1.0501 -2.0628,-1.4249 -3.5636,-1.4249 h -3.9013 l -0.0105,-6.9444 h 29.5209 z" style="fill:#5a8fd2;fill-opacity:1;fill-rule:nonzero;stroke:none" id="path88"/>
          <path d="m 522.3101,772.3202 h -19.1393 c 0,0 -0.004,-26.3506 -0.004,-27.4494 0,-2.2413 1.1458,-3.9867 3.7028,-3.9867 h 15.4145 l 0.0258,31.4361 z m -13.3088,-16.9208 v -2.5122 c 0,-0.7497 0.188,-1.237 0.7127,-1.7626 0.5257,-0.5245 1.0505,-0.7124 1.8004,-0.7124 h 6.2647 c 0.6755,0 1.2384,-0.5999 1.2384,-1.2742 0,-0.6753 -0.5629,-1.238 -1.2384,-1.238 h -6.2647 c -1.4998,0 -2.5503,0.3748 -3.6008,1.4621 -1.0132,1.0501 -1.3882,2.063 -1.3882,3.5251 v 5.0254 l 0.0382,1.237 c 0.1126,3.4126 2.7755,6.2252 6.1892,6.2624 3.451,0 6.2647,-2.8126 6.2647,-6.2624 v -1.237 -1.2752 c 0,-0.3376 -0.0754,-0.5999 -0.3006,-0.825 -0.2623,-0.3004 -0.5619,-0.413 -0.9378,-0.413 z" style="fill:#1c4f9c;fill-opacity:1;fill-rule:nonzero;stroke:none" id="path90"/>
        </g>
      </g>
    </g>
  </g>
</svg>