<?xml version="1.0" encoding="utf-8" standalone="no"?>
<!DOCTYPE svg PUBLIC "-//W3C//DTD SVG 1.1//EN"
  "http://www.w3.org/Graphics/SVG/1.1/DTD/svg11.dtd">
<svg xmlns:xlink="http://www.w3.org/1999/xlink" width="512.39952pt" height="260.39952pt" viewBox="0 0 512.39952 260.39952" xmlns="http://www.w3.org/2000/svg" version="1.1">
 <metadata>
  <rdf:RDF xmlns:dc="http://purl.org/dc/elements/1.1/" xmlns:cc="http://creativecommons.org/ns#" xmlns:rdf="http://www.w3.org/1999/02/22-rdf-syntax-ns#">
   <cc:Work>
    <dc:type rdf:resource="http://purl.org/dc/dcmitype/StillImage"/>
    <dc:date>2023-04-28T16:08:53.361372</dc:date>
    <dc:format>image/svg+xml</dc:format>
    <dc:creator>
     <cc:Agent>
      <dc:title>Matplotlib v3.5.1, https://matplotlib.org/</dc:title>
     </cc:Agent>
    </dc:creator>
   </cc:Work>
  </rdf:RDF>
 </metadata>
 <defs>
  <style type="text/css">*{stroke-linejoin: round; stroke-linecap: butt}</style>
 </defs>
 <g id="figure_1">
  <g id="patch_1">
   <path d="M 0 260.39952 
L 512.39952 260.39952 
L 512.39952 -0 
L 0 -0 
z
" style="fill: #ffffff"/>
  </g>
  <g id="axes_1">
   <g id="patch_2">
    <path d="M 44.877775 219.396147 
L 260.902353 219.396147 
L 260.902353 24.269588 
L 44.877775 24.269588 
z
" style="fill: #ffffff"/>
   </g>
   <g id="matplotlib.axis_1">
    <g id="xtick_1">
     <g id="line2d_1">
      <defs>
       <path id="md5e4d98ac7" d="M 0 0 
L 0 3.5 
" style="stroke: #000000; stroke-width: 0.8"/>
      </defs>
      <g>
       <use xlink:href="#md5e4d98ac7" x="49.113551" y="219.396147" style="stroke: #000000; stroke-width: 0.8"/>
      </g>
     </g>
     <g id="text_1">
      <!-- $\mathdefault{0.00}$ -->
      <g transform="translate(40.257844 233.314646)scale(0.1 -0.1)">
       <defs>
        <path id="CMR17-30" d="M 2688 2038 
C 2688 2430 2682 3099 2413 3613 
C 2176 4063 1798 4224 1466 4224 
C 1158 4224 768 4082 525 3620 
C 269 3137 243 2539 243 2038 
C 243 1671 250 1112 448 623 
C 723 -39 1216 -128 1466 -128 
C 1760 -128 2208 -7 2470 604 
C 2662 1048 2688 1568 2688 2038 
z
M 1466 -26 
C 1056 -26 813 328 723 816 
C 653 1196 653 1749 653 2109 
C 653 2604 653 3015 736 3407 
C 858 3954 1216 4121 1466 4121 
C 1728 4121 2067 3947 2189 3420 
C 2272 3054 2278 2623 2278 2109 
C 2278 1691 2278 1176 2202 797 
C 2067 96 1690 -26 1466 -26 
z
" transform="scale(0.015625)"/>
        <path id="CMMI12-3a" d="M 1178 307 
C 1178 492 1024 620 870 620 
C 685 620 557 467 557 313 
C 557 128 710 0 864 0 
C 1050 0 1178 153 1178 307 
z
" transform="scale(0.015625)"/>
       </defs>
       <use xlink:href="#CMR17-30" transform="scale(0.996264)"/>
       <use xlink:href="#CMMI12-3a" transform="translate(45.690477 0)scale(0.996264)"/>
       <use xlink:href="#CMR17-30" transform="translate(72.787654 0)scale(0.996264)"/>
       <use xlink:href="#CMR17-30" transform="translate(118.478131 0)scale(0.996264)"/>
      </g>
     </g>
    </g>
    <g id="xtick_2">
     <g id="line2d_2">
      <g>
       <use xlink:href="#md5e4d98ac7" x="84.411685" y="219.396147" style="stroke: #000000; stroke-width: 0.8"/>
      </g>
     </g>
     <g id="text_2">
      <!-- $\mathdefault{0.25}$ -->
      <g transform="translate(75.555978 233.314646)scale(0.1 -0.1)">
       <defs>
        <path id="CMR17-32" d="M 2669 990 
L 2554 990 
C 2490 537 2438 460 2413 422 
C 2381 371 1920 371 1830 371 
L 602 371 
C 832 620 1280 1073 1824 1596 
C 2214 1966 2669 2400 2669 3033 
C 2669 3788 2067 4224 1395 4224 
C 691 4224 262 3603 262 3027 
C 262 2777 448 2745 525 2745 
C 589 2745 781 2783 781 3007 
C 781 3206 614 3264 525 3264 
C 486 3264 448 3257 422 3244 
C 544 3788 915 4057 1306 4057 
C 1862 4057 2227 3616 2227 3033 
C 2227 2477 1901 1998 1536 1583 
L 262 147 
L 262 0 
L 2515 0 
L 2669 990 
z
" transform="scale(0.015625)"/>
        <path id="CMR17-35" d="M 730 3750 
C 794 3724 1056 3641 1325 3641 
C 1920 3641 2246 3961 2432 4140 
C 2432 4191 2432 4224 2394 4224 
C 2387 4224 2374 4224 2323 4198 
C 2099 4102 1837 4032 1517 4032 
C 1325 4032 1037 4055 723 4191 
C 653 4224 640 4224 634 4224 
C 602 4224 595 4217 595 4090 
L 595 2231 
C 595 2113 595 2080 659 2080 
C 691 2080 704 2093 736 2139 
C 941 2435 1222 2560 1542 2560 
C 1766 2560 2246 2415 2246 1293 
C 2246 1087 2246 716 2054 422 
C 1894 159 1645 25 1370 25 
C 947 25 518 319 403 812 
C 429 806 480 793 506 793 
C 589 793 749 838 749 1036 
C 749 1209 627 1280 506 1280 
C 358 1280 262 1190 262 1011 
C 262 454 704 -128 1382 -128 
C 2042 -128 2669 441 2669 1267 
C 2669 2054 2170 2662 1549 2662 
C 1222 2662 947 2540 730 2304 
L 730 3750 
z
" transform="scale(0.015625)"/>
       </defs>
       <use xlink:href="#CMR17-30" transform="scale(0.996264)"/>
       <use xlink:href="#CMMI12-3a" transform="translate(45.690477 0)scale(0.996264)"/>
       <use xlink:href="#CMR17-32" transform="translate(72.787654 0)scale(0.996264)"/>
       <use xlink:href="#CMR17-35" transform="translate(118.478131 0)scale(0.996264)"/>
      </g>
     </g>
    </g>
    <g id="xtick_3">
     <g id="line2d_3">
      <g>
       <use xlink:href="#md5e4d98ac7" x="119.709818" y="219.396147" style="stroke: #000000; stroke-width: 0.8"/>
      </g>
     </g>
     <g id="text_3">
      <!-- $\mathdefault{0.50}$ -->
      <g transform="translate(110.854111 233.314646)scale(0.1 -0.1)">
       <use xlink:href="#CMR17-30" transform="scale(0.996264)"/>
       <use xlink:href="#CMMI12-3a" transform="translate(45.690477 0)scale(0.996264)"/>
       <use xlink:href="#CMR17-35" transform="translate(72.787654 0)scale(0.996264)"/>
       <use xlink:href="#CMR17-30" transform="translate(118.478131 0)scale(0.996264)"/>
      </g>
     </g>
    </g>
    <g id="xtick_4">
     <g id="line2d_4">
      <g>
       <use xlink:href="#md5e4d98ac7" x="155.007952" y="219.396147" style="stroke: #000000; stroke-width: 0.8"/>
      </g>
     </g>
     <g id="text_4">
      <!-- $\mathdefault{0.75}$ -->
      <g transform="translate(146.152245 233.314646)scale(0.1 -0.1)">
       <defs>
        <path id="CMR17-37" d="M 2886 3955 
L 2886 4096 
L 1382 4096 
C 634 4096 621 4166 595 4288 
L 480 4288 
L 294 3104 
L 410 3104 
C 429 3226 474 3552 550 3673 
C 589 3724 1062 3724 1171 3724 
L 2579 3724 
L 1869 2670 
C 1395 1961 1069 1003 1069 166 
C 1069 89 1069 -128 1299 -128 
C 1530 -128 1530 89 1530 172 
L 1530 466 
C 1530 1514 1709 2204 2003 2644 
L 2886 3955 
z
" transform="scale(0.015625)"/>
       </defs>
       <use xlink:href="#CMR17-30" transform="scale(0.996264)"/>
       <use xlink:href="#CMMI12-3a" transform="translate(45.690477 0)scale(0.996264)"/>
       <use xlink:href="#CMR17-37" transform="translate(72.787654 0)scale(0.996264)"/>
       <use xlink:href="#CMR17-35" transform="translate(118.478131 0)scale(0.996264)"/>
      </g>
     </g>
    </g>
    <g id="xtick_5">
     <g id="line2d_5">
      <g>
       <use xlink:href="#md5e4d98ac7" x="190.306086" y="219.396147" style="stroke: #000000; stroke-width: 0.8"/>
      </g>
     </g>
     <g id="text_5">
      <!-- $\mathdefault{1.00}$ -->
      <g transform="translate(181.450378 233.314646)scale(0.1 -0.1)">
       <defs>
        <path id="CMR17-31" d="M 1702 4083 
C 1702 4217 1696 4224 1606 4224 
C 1357 3927 979 3833 621 3820 
C 602 3820 570 3820 563 3808 
C 557 3795 557 3782 557 3648 
C 755 3648 1088 3686 1344 3839 
L 1344 467 
C 1344 243 1331 166 781 166 
L 589 166 
L 589 0 
C 896 6 1216 12 1523 12 
C 1830 12 2150 6 2458 0 
L 2458 166 
L 2266 166 
C 1715 166 1702 236 1702 467 
L 1702 4083 
z
" transform="scale(0.015625)"/>
       </defs>
       <use xlink:href="#CMR17-31" transform="scale(0.996264)"/>
       <use xlink:href="#CMMI12-3a" transform="translate(45.690477 0)scale(0.996264)"/>
       <use xlink:href="#CMR17-30" transform="translate(72.787654 0)scale(0.996264)"/>
       <use xlink:href="#CMR17-30" transform="translate(118.478131 0)scale(0.996264)"/>
      </g>
     </g>
    </g>
    <g id="xtick_6">
     <g id="line2d_6">
      <g>
       <use xlink:href="#md5e4d98ac7" x="225.604219" y="219.396147" style="stroke: #000000; stroke-width: 0.8"/>
      </g>
     </g>
     <g id="text_6">
      <!-- $\mathdefault{1.25}$ -->
      <g transform="translate(216.748512 233.314646)scale(0.1 -0.1)">
       <use xlink:href="#CMR17-31" transform="scale(0.996264)"/>
       <use xlink:href="#CMMI12-3a" transform="translate(45.690477 0)scale(0.996264)"/>
       <use xlink:href="#CMR17-32" transform="translate(72.787654 0)scale(0.996264)"/>
       <use xlink:href="#CMR17-35" transform="translate(118.478131 0)scale(0.996264)"/>
      </g>
     </g>
    </g>
    <g id="xtick_7">
     <g id="line2d_7">
      <g>
       <use xlink:href="#md5e4d98ac7" x="260.902353" y="219.396147" style="stroke: #000000; stroke-width: 0.8"/>
      </g>
     </g>
     <g id="text_7">
      <!-- $\mathdefault{1.50}$ -->
      <g transform="translate(252.046646 233.314646)scale(0.1 -0.1)">
       <use xlink:href="#CMR17-31" transform="scale(0.996264)"/>
       <use xlink:href="#CMMI12-3a" transform="translate(45.690477 0)scale(0.996264)"/>
       <use xlink:href="#CMR17-35" transform="translate(72.787654 0)scale(0.996264)"/>
       <use xlink:href="#CMR17-30" transform="translate(118.478131 0)scale(0.996264)"/>
      </g>
     </g>
    </g>
    <g id="text_8">
     <!-- Strain rate $\dot\gamma$ \; [1/s] -->
     <g transform="translate(94.68285 249.712596)scale(0.14 -0.14)">
      <defs>
       <path id="CMR17-53" d="M 2803 4351 
C 2803 4467 2797 4473 2758 4473 
C 2720 4473 2707 4447 2682 4390 
L 2490 3965 
C 2246 4320 1875 4480 1472 4480 
C 819 4480 294 3958 294 3301 
C 294 3101 339 2817 557 2546 
C 794 2250 1018 2198 1530 2063 
C 1722 2011 2042 1927 2106 1901 
C 2470 1747 2662 1360 2662 999 
C 2662 534 2336 38 1779 38 
C 1094 38 454 425 410 1328 
C 403 1431 397 1437 352 1437 
C 301 1437 294 1431 294 1302 
L 294 0 
C 294 -116 301 -122 339 -122 
C 384 -122 397 -90 486 109 
C 493 128 493 141 614 386 
C 934 -39 1472 -128 1779 -128 
C 2477 -128 2970 457 2970 1141 
C 2970 1476 2848 1734 2778 1850 
C 2509 2263 2221 2340 1914 2417 
C 1869 2437 1856 2437 1498 2527 
C 1152 2617 1005 2662 845 2836 
C 666 3036 602 3243 602 3449 
C 602 3868 934 4326 1478 4326 
C 2157 4326 2579 3842 2675 3036 
C 2694 2920 2701 2914 2746 2914 
C 2803 2914 2803 2933 2803 3043 
L 2803 4351 
z
" transform="scale(0.015625)"/>
       <path id="CMR17-74" d="M 966 2585 
L 1862 2585 
L 1862 2752 
L 966 2752 
L 966 3968 
L 851 3968 
C 838 3292 614 2700 70 2687 
L 70 2585 
L 627 2585 
L 627 778 
C 627 655 627 -64 1370 -64 
C 1747 -64 1965 308 1965 784 
L 1965 1151 
L 1850 1151 
L 1850 790 
C 1850 347 1677 51 1408 51 
C 1222 51 966 179 966 765 
L 966 2585 
z
" transform="scale(0.015625)"/>
       <path id="CMR17-72" d="M 960 1517 
C 960 2134 1222 2713 1702 2713 
C 1747 2713 1792 2707 1837 2687 
C 1837 2687 1696 2642 1696 2475 
C 1696 2321 1818 2257 1914 2257 
C 1990 2257 2131 2302 2131 2482 
C 2131 2687 1926 2816 1709 2816 
C 1222 2816 1011 2340 947 2115 
L 941 2115 
L 941 2816 
L 198 2745 
L 198 2578 
C 576 2578 634 2540 634 2231 
L 634 443 
C 634 198 608 166 198 166 
L 198 0 
C 352 12 646 12 813 12 
C 998 12 1325 12 1498 0 
L 1498 166 
C 1037 166 960 166 960 455 
L 960 1517 
z
" transform="scale(0.015625)"/>
       <path id="CMR17-61" d="M 2304 1656 
C 2304 2048 2304 2275 2035 2534 
C 1798 2751 1523 2816 1306 2816 
C 800 2816 435 2408 435 1977 
C 435 1740 627 1728 666 1728 
C 749 1728 896 1779 896 1958 
C 896 2118 774 2188 666 2188 
C 640 2188 608 2182 589 2176 
C 723 2594 1069 2713 1293 2713 
C 1613 2713 1965 2421 1965 1875 
L 1965 1632 
C 1587 1619 1133 1568 774 1373 
C 371 1147 256 822 256 576 
C 256 77 832 -64 1171 -64 
C 1523 -64 1850 135 1990 505 
C 2003 219 2182 -39 2464 -39 
C 2598 -39 2938 51 2938 563 
L 2938 926 
L 2822 926 
L 2822 557 
C 2822 161 2650 109 2566 109 
C 2304 109 2304 446 2304 732 
L 2304 1656 
z
M 1965 887 
C 1965 323 1568 38 1216 38 
C 896 38 646 278 646 576 
C 646 771 730 1114 1101 1322 
C 1408 1497 1760 1523 1965 1536 
L 1965 887 
z
" transform="scale(0.015625)"/>
       <path id="CMR17-69" d="M 992 3961 
C 992 4102 877 4224 730 4224 
C 589 4224 467 4108 467 3961 
C 467 3820 582 3699 730 3699 
C 870 3699 992 3814 992 3961 
z
M 243 2745 
L 243 2579 
C 602 2579 653 2540 653 2231 
L 653 443 
C 653 198 627 166 218 166 
L 218 0 
C 371 12 646 12 806 12 
C 960 12 1222 12 1370 0 
L 1370 166 
C 992 166 979 205 979 436 
L 979 2816 
L 243 2745 
z
" transform="scale(0.015625)"/>
       <path id="CMR17-6e" d="M 2656 1954 
C 2656 2282 2592 2816 1837 2816 
C 1331 2816 1069 2424 973 2166 
L 966 2166 
L 966 2816 
L 211 2745 
L 211 2578 
C 589 2578 646 2540 646 2231 
L 646 443 
C 646 198 621 166 211 166 
L 211 0 
C 365 12 646 12 813 12 
C 979 12 1267 12 1421 0 
L 1421 166 
C 1011 166 986 192 986 443 
L 986 1678 
C 986 2269 1344 2713 1792 2713 
C 2266 2713 2317 2289 2317 1980 
L 2317 443 
C 2317 198 2291 166 1882 166 
L 1882 0 
C 2035 12 2317 12 2483 12 
C 2650 12 2938 12 3091 0 
L 3091 166 
C 2682 166 2656 192 2656 443 
L 2656 1954 
z
" transform="scale(0.015625)"/>
       <path id="CMR17-65" d="M 2438 1503 
C 2464 1529 2464 1542 2464 1606 
C 2464 2251 2118 2816 1389 2816 
C 710 2816 173 2175 173 1394 
C 173 554 781 -64 1459 -64 
C 2176 -64 2458 619 2458 755 
C 2458 800 2419 800 2406 800 
C 2362 800 2355 787 2330 709 
C 2189 270 1837 51 1504 51 
C 1229 51 954 206 781 490 
C 582 819 582 1200 582 1503 
L 2438 1503 
z
M 589 1600 
C 634 2511 1126 2713 1382 2713 
C 1818 2713 2112 2308 2118 1600 
L 589 1600 
z
" transform="scale(0.015625)"/>
       <path id="CMR17-5f" d="M 1056 3961 
C 1056 4115 934 4224 800 4224 
C 646 4224 538 4102 538 3961 
C 538 3807 659 3699 794 3699 
C 947 3699 1056 3820 1056 3961 
z
" transform="scale(0.015625)"/>
       <path id="CMMI12-d" d="M 2419 785 
C 2406 1097 2394 1586 2150 2158 
C 2022 2476 1805 2816 1338 2816 
C 550 2816 122 1815 122 1649 
C 122 1592 166 1592 186 1592 
C 243 1592 243 1605 275 1688 
C 410 2081 819 2393 1261 2393 
C 2150 2393 2278 1408 2278 779 
C 2278 378 2234 245 2195 118 
C 2074 -276 1862 -1064 1862 -1242 
C 1862 -1293 1882 -1351 1933 -1351 
C 2029 -1351 2086 -1140 2157 -886 
C 2310 -327 2349 -47 2381 207 
C 2400 360 2765 1409 3270 2407 
C 3315 2509 3405 2681 3405 2700 
C 3405 2707 3398 2752 3341 2752 
C 3328 2752 3296 2752 3283 2726 
C 3270 2713 3046 2280 2854 1848 
C 2758 1630 2630 1344 2419 785 
z
" transform="scale(0.015625)"/>
       <path id="CMR17-5b" d="M 1504 -1600 
L 1504 -1376 
L 902 -1376 
L 902 4575 
L 1504 4575 
L 1504 4800 
L 678 4800 
L 678 -1600 
L 1504 -1600 
z
" transform="scale(0.015625)"/>
       <path id="CMR17-2f" d="M 2605 4575 
C 2637 4658 2637 4671 2637 4684 
C 2637 4761 2579 4800 2528 4800 
C 2451 4800 2426 4748 2400 4671 
L 326 -1376 
C 294 -1460 294 -1472 294 -1485 
C 294 -1562 352 -1600 403 -1600 
C 480 -1600 506 -1549 531 -1472 
L 2605 4575 
z
" transform="scale(0.015625)"/>
       <path id="CMR17-73" d="M 1978 2688 
C 1978 2803 1971 2809 1933 2809 
C 1907 2809 1901 2803 1824 2707 
C 1805 2681 1747 2617 1728 2592 
C 1523 2809 1235 2816 1126 2816 
C 416 2816 160 2444 160 2073 
C 160 1497 813 1363 998 1324 
C 1402 1241 1542 1216 1677 1100 
C 1760 1024 1901 883 1901 652 
C 1901 384 1747 38 1158 38 
C 602 38 403 460 288 1024 
C 269 1113 269 1120 218 1120 
C 166 1120 160 1113 160 985 
L 160 64 
C 160 -52 166 -58 205 -58 
C 237 -58 243 -52 275 0 
C 314 57 410 211 448 275 
C 576 102 800 -64 1158 -64 
C 1792 -64 2131 281 2131 780 
C 2131 1107 1958 1280 1875 1356 
C 1683 1555 1459 1600 1190 1651 
C 838 1728 390 1817 390 2208 
C 390 2374 480 2726 1126 2726 
C 1811 2726 1850 2086 1862 1881 
C 1869 1849 1901 1843 1920 1843 
C 1978 1843 1978 1862 1978 1971 
L 1978 2688 
z
" transform="scale(0.015625)"/>
       <path id="CMR17-5d" d="M 915 4800 
L 90 4800 
L 90 4575 
L 691 4575 
L 691 -1376 
L 90 -1376 
L 90 -1600 
L 915 -1600 
L 915 4800 
z
" transform="scale(0.015625)"/>
      </defs>
      <use xlink:href="#CMR17-53" transform="scale(0.996264)"/>
      <use xlink:href="#CMR17-74" transform="translate(50.89537 0)scale(0.996264)"/>
      <use xlink:href="#CMR17-72" transform="translate(86.176138 0)scale(0.996264)"/>
      <use xlink:href="#CMR17-61" transform="translate(121.456905 0)scale(0.996264)"/>
      <use xlink:href="#CMR17-69" transform="translate(167.147382 0)scale(0.996264)"/>
      <use xlink:href="#CMR17-6e" transform="translate(192.018441 0)scale(0.996264)"/>
      <use xlink:href="#CMR17-72" transform="translate(272.989777 0)scale(0.996264)"/>
      <use xlink:href="#CMR17-61" transform="translate(308.270545 0)scale(0.996264)"/>
      <use xlink:href="#CMR17-74" transform="translate(353.961022 0)scale(0.996264)"/>
      <use xlink:href="#CMR17-65" transform="translate(389.24179 0)scale(0.996264)"/>
      <use xlink:href="#CMR17-5f" transform="translate(475.377171 0.006461)scale(0.996264)"/>
      <use xlink:href="#CMMI12-d" transform="translate(459.803417 0)scale(0.996264)"/>
      <use xlink:href="#CMR17-5b" transform="translate(601.349949 0)scale(0.996264)"/>
      <use xlink:href="#CMR17-31" transform="translate(626.221007 0)scale(0.996264)"/>
      <use xlink:href="#CMR17-2f" transform="translate(671.911484 0)scale(0.996264)"/>
      <use xlink:href="#CMR17-73" transform="translate(717.601961 0)scale(0.996264)"/>
      <use xlink:href="#CMR17-5d" transform="translate(753.403299 0)scale(0.996264)"/>
     </g>
    </g>
   </g>
   <g id="matplotlib.axis_2">
    <g id="ytick_1">
     <g id="line2d_8">
      <defs>
       <path id="m0e5e8810e1" d="M 0 0 
L -3.5 0 
" style="stroke: #000000; stroke-width: 0.8"/>
      </defs>
      <g>
       <use xlink:href="#m0e5e8810e1" x="44.877775" y="215.570136" style="stroke: #000000; stroke-width: 0.8"/>
      </g>
     </g>
     <g id="text_9">
      <!-- $\mathdefault{0.0}$ -->
      <g transform="translate(25.147696 219.029385)scale(0.1 -0.1)">
       <use xlink:href="#CMR17-30" transform="scale(0.996264)"/>
       <use xlink:href="#CMMI12-3a" transform="translate(45.690477 0)scale(0.996264)"/>
       <use xlink:href="#CMR17-30" transform="translate(72.787654 0)scale(0.996264)"/>
      </g>
     </g>
    </g>
    <g id="ytick_2">
     <g id="line2d_9">
      <g>
       <use xlink:href="#m0e5e8810e1" x="44.877775" y="177.310027" style="stroke: #000000; stroke-width: 0.8"/>
      </g>
     </g>
     <g id="text_10">
      <!-- $\mathdefault{0.5}$ -->
      <g transform="translate(25.147696 180.769276)scale(0.1 -0.1)">
       <use xlink:href="#CMR17-30" transform="scale(0.996264)"/>
       <use xlink:href="#CMMI12-3a" transform="translate(45.690477 0)scale(0.996264)"/>
       <use xlink:href="#CMR17-35" transform="translate(72.787654 0)scale(0.996264)"/>
      </g>
     </g>
    </g>
    <g id="ytick_3">
     <g id="line2d_10">
      <g>
       <use xlink:href="#m0e5e8810e1" x="44.877775" y="139.049917" style="stroke: #000000; stroke-width: 0.8"/>
      </g>
     </g>
     <g id="text_11">
      <!-- $\mathdefault{1.0}$ -->
      <g transform="translate(25.147696 142.509166)scale(0.1 -0.1)">
       <use xlink:href="#CMR17-31" transform="scale(0.996264)"/>
       <use xlink:href="#CMMI12-3a" transform="translate(45.690477 0)scale(0.996264)"/>
       <use xlink:href="#CMR17-30" transform="translate(72.787654 0)scale(0.996264)"/>
      </g>
     </g>
    </g>
    <g id="ytick_4">
     <g id="line2d_11">
      <g>
       <use xlink:href="#m0e5e8810e1" x="44.877775" y="100.789807" style="stroke: #000000; stroke-width: 0.8"/>
      </g>
     </g>
     <g id="text_12">
      <!-- $\mathdefault{1.5}$ -->
      <g transform="translate(25.147696 104.249057)scale(0.1 -0.1)">
       <use xlink:href="#CMR17-31" transform="scale(0.996264)"/>
       <use xlink:href="#CMMI12-3a" transform="translate(45.690477 0)scale(0.996264)"/>
       <use xlink:href="#CMR17-35" transform="translate(72.787654 0)scale(0.996264)"/>
      </g>
     </g>
    </g>
    <g id="ytick_5">
     <g id="line2d_12">
      <g>
       <use xlink:href="#m0e5e8810e1" x="44.877775" y="62.529698" style="stroke: #000000; stroke-width: 0.8"/>
      </g>
     </g>
     <g id="text_13">
      <!-- $\mathdefault{2.0}$ -->
      <g transform="translate(25.147696 65.988947)scale(0.1 -0.1)">
       <use xlink:href="#CMR17-32" transform="scale(0.996264)"/>
       <use xlink:href="#CMMI12-3a" transform="translate(45.690477 0)scale(0.996264)"/>
       <use xlink:href="#CMR17-30" transform="translate(72.787654 0)scale(0.996264)"/>
      </g>
     </g>
    </g>
    <g id="ytick_6">
     <g id="line2d_13">
      <g>
       <use xlink:href="#m0e5e8810e1" x="44.877775" y="24.269588" style="stroke: #000000; stroke-width: 0.8"/>
      </g>
     </g>
     <g id="text_14">
      <!-- $\mathdefault{2.5}$ -->
      <g transform="translate(25.147696 27.728837)scale(0.1 -0.1)">
       <use xlink:href="#CMR17-32" transform="scale(0.996264)"/>
       <use xlink:href="#CMMI12-3a" transform="translate(45.690477 0)scale(0.996264)"/>
       <use xlink:href="#CMR17-35" transform="translate(72.787654 0)scale(0.996264)"/>
      </g>
     </g>
    </g>
    <g id="text_15">
     <!-- Shear stress $\tau$ \; [Pa] -->
     <g transform="translate(17.660772 181.360425)rotate(-90)scale(0.14 -0.14)">
      <defs>
       <path id="CMR17-68" d="M 2656 1954 
C 2656 2282 2592 2816 1837 2816 
C 1312 2816 1056 2392 979 2179 
L 973 2179 
L 973 4416 
L 211 4345 
L 211 4179 
C 589 4179 646 4141 646 3843 
L 646 443 
C 646 198 621 166 211 166 
L 211 0 
C 365 12 646 12 813 12 
C 979 12 1267 12 1421 0 
L 1421 166 
C 1011 166 986 192 986 443 
L 986 1678 
C 986 2269 1344 2713 1792 2713 
C 2266 2713 2317 2289 2317 1980 
L 2317 443 
C 2317 198 2291 166 1882 166 
L 1882 0 
C 2035 12 2317 12 2483 12 
C 2650 12 2938 12 3091 0 
L 3091 166 
C 2682 166 2656 192 2656 443 
L 2656 1954 
z
" transform="scale(0.015625)"/>
       <path id="CMMI12-1c" d="M 1837 2406 
L 2899 2406 
C 2982 2406 3194 2406 3194 2611 
C 3194 2752 3072 2752 2957 2752 
L 1197 2752 
C 1050 2752 832 2752 538 2438 
C 371 2253 166 1916 166 1878 
C 166 1839 198 1827 237 1827 
C 282 1827 288 1846 320 1884 
C 653 2406 986 2406 1146 2406 
L 1677 2406 
L 1011 223 
C 979 127 979 114 979 95 
C 979 25 1024 -64 1152 -64 
C 1350 -64 1382 108 1402 204 
L 1837 2406 
z
" transform="scale(0.015625)"/>
       <path id="CMR17-50" d="M 1267 2048 
L 2291 2048 
C 3117 2048 3718 2583 3718 3187 
C 3718 3791 3130 4352 2291 4352 
L 333 4352 
L 333 4185 
C 774 4185 845 4185 845 3899 
L 845 453 
C 845 166 774 166 333 166 
L 333 0 
C 518 12 858 12 1056 12 
C 1254 12 1594 12 1779 0 
L 1779 166 
C 1338 166 1267 166 1267 453 
L 1267 2048 
z
M 1254 2182 
L 1254 3937 
C 1254 4153 1267 4185 1523 4185 
L 2170 4185 
C 2995 4185 3232 3715 3232 3187 
C 3232 2608 2950 2182 2170 2182 
L 1254 2182 
z
" transform="scale(0.015625)"/>
      </defs>
      <use xlink:href="#CMR17-53" transform="scale(0.996264)"/>
      <use xlink:href="#CMR17-68" transform="translate(50.89537 0)scale(0.996264)"/>
      <use xlink:href="#CMR17-65" transform="translate(101.79074 0)scale(0.996264)"/>
      <use xlink:href="#CMR17-61" transform="translate(142.2764 0)scale(0.996264)"/>
      <use xlink:href="#CMR17-72" transform="translate(187.966877 0)scale(0.996264)"/>
      <use xlink:href="#CMR17-73" transform="translate(253.323611 0)scale(0.996264)"/>
      <use xlink:href="#CMR17-74" transform="translate(289.124949 0)scale(0.996264)"/>
      <use xlink:href="#CMR17-72" transform="translate(324.405717 0)scale(0.996264)"/>
      <use xlink:href="#CMR17-65" transform="translate(359.686485 0)scale(0.996264)"/>
      <use xlink:href="#CMR17-73" transform="translate(400.172145 0)scale(0.996264)"/>
      <use xlink:href="#CMR17-73" transform="translate(435.973483 0)scale(0.996264)"/>
      <use xlink:href="#CMMI12-1c" transform="translate(501.850787 0)scale(0.996264)"/>
      <use xlink:href="#CMR17-5b" transform="translate(640.869916 0)scale(0.996264)"/>
      <use xlink:href="#CMR17-50" transform="translate(665.740974 0)scale(0.996264)"/>
      <use xlink:href="#CMR17-61" transform="translate(725.724821 0)scale(0.996264)"/>
      <use xlink:href="#CMR17-5d" transform="translate(771.415298 0)scale(0.996264)"/>
     </g>
    </g>
   </g>
   <g id="line2d_14">
    <path d="M 49.113551 215.570136 
L 49.19912 211.618488 
L 49.455827 208.689918 
L 49.883673 206.05368 
L 50.482656 203.59098 
L 51.252778 201.249766 
L 52.194038 199.001024 
L 53.306436 196.826378 
L 54.937596 194.1934 
L 56.83616 191.639341 
L 59.002127 189.151827 
L 61.435498 186.721636 
L 64.136271 184.341649 
L 67.104449 182.006219 
L 70.340029 179.710764 
L 74.575698 177.003699 
L 79.196428 174.343371 
L 84.202219 171.725319 
L 89.59307 169.145806 
L 95.368983 166.601658 
L 102.594221 163.674571 
L 110.34357 160.788214 
L 118.61703 157.939405 
L 127.4146 155.125392 
L 138.110734 151.948913 
L 149.491421 148.811616 
L 161.55666 145.710769 
L 175.948308 142.262904 
L 191.206343 138.855129 
L 207.330765 135.4848 
L 224.321574 132.149575 
L 244.216384 128.482412 
L 260.902353 125.576312 
L 260.902353 125.576312 
" clip-path="url(#pb5d9e7eebb)" style="fill: none; stroke: #1f77b4; stroke-opacity: 0.75; stroke-width: 1.5; stroke-linecap: square"/>
   </g>
   <g id="line2d_15">
    <path d="M 49.113551 215.570136 
L 54.253044 215.468747 
L 59.467409 215.158648 
L 64.708515 214.636621 
L 70.340029 213.840684 
L 76.073157 212.780293 
L 81.651191 211.506406 
L 86.849512 210.104213 
L 92.432894 208.367086 
L 98.401337 206.245512 
L 103.669183 204.145775 
L 109.204432 201.709924 
L 115.007085 198.903869 
L 121.077141 195.691876 
L 127.4146 192.036562 
L 132.677098 188.766947 
L 138.110734 185.167919 
L 143.715508 181.218061 
L 149.491421 176.895282 
L 155.438471 172.176817 
L 161.55666 167.039227 
L 167.845987 161.458397 
L 174.306452 155.409539 
L 180.938055 148.867188 
L 187.740796 141.805208 
L 194.714675 134.196786 
L 201.859693 126.014436 
L 209.175849 117.229994 
L 216.663142 107.814627 
L 224.321574 97.738823 
L 232.151144 86.972398 
L 240.151853 75.484491 
L 248.323699 63.243569 
L 256.666684 50.217424 
L 260.902353 43.399643 
L 260.902353 43.399643 
" clip-path="url(#pb5d9e7eebb)" style="fill: none; stroke: #ff7f0e; stroke-opacity: 0.75; stroke-width: 1.5; stroke-linecap: square"/>
   </g>
   <g id="line2d_16">
    <path d="M 49.113551 215.570136 
L 260.902353 100.789807 
L 260.902353 100.789807 
" clip-path="url(#pb5d9e7eebb)" style="fill: none; stroke: #2ca02c; stroke-width: 2.5; stroke-linecap: square"/>
   </g>
   <g id="patch_3">
    <path d="M 44.877775 219.396147 
L 44.877775 24.269588 
" style="fill: none; stroke: #000000; stroke-width: 0.8; stroke-linejoin: miter; stroke-linecap: square"/>
   </g>
   <g id="patch_4">
    <path d="M 260.902353 219.396147 
L 260.902353 24.269588 
" style="fill: none; stroke: #000000; stroke-width: 0.8; stroke-linejoin: miter; stroke-linecap: square"/>
   </g>
   <g id="patch_5">
    <path d="M 44.877775 219.396147 
L 260.902353 219.396147 
" style="fill: none; stroke: #000000; stroke-width: 0.8; stroke-linejoin: miter; stroke-linecap: square"/>
   </g>
   <g id="patch_6">
    <path d="M 44.877775 24.269588 
L 260.902353 24.269588 
" style="fill: none; stroke: #000000; stroke-width: 0.8; stroke-linejoin: miter; stroke-linecap: square"/>
   </g>
   <g id="text_16">
    <!-- Power-law $\quad \tau_0 = 0$ -->
    <g transform="translate(86.866055 18.269588)scale(0.16 -0.16)">
     <defs>
      <path id="CMR17-6f" d="M 2758 1356 
C 2758 2176 2163 2816 1466 2816 
C 768 2816 173 2176 173 1356 
C 173 550 768 -64 1466 -64 
C 2163 -64 2758 550 2758 1356 
z
M 1466 51 
C 1165 51 909 230 762 480 
C 602 768 582 1126 582 1408 
C 582 1676 595 2009 762 2297 
C 890 2508 1139 2713 1466 2713 
C 1754 2713 1997 2553 2150 2329 
C 2349 2028 2349 1606 2349 1408 
C 2349 1158 2336 774 2163 467 
C 1984 172 1709 51 1466 51 
z
" transform="scale(0.015625)"/>
      <path id="CMR17-77" d="M 3725 2186 
C 3853 2566 4109 2579 4205 2585 
L 4205 2752 
C 4077 2745 3949 2739 3821 2739 
C 3699 2739 3424 2739 3315 2752 
L 3315 2585 
C 3514 2572 3622 2456 3622 2296 
C 3622 2251 3610 2193 3597 2148 
L 2995 398 
L 2342 2296 
C 2330 2341 2310 2392 2310 2418 
C 2310 2585 2528 2585 2630 2585 
L 2630 2752 
C 2483 2739 2214 2739 2061 2739 
C 1901 2739 1734 2739 1587 2752 
L 1587 2585 
C 1939 2585 1939 2572 2074 2167 
L 1485 443 
L 851 2302 
C 819 2386 819 2399 819 2418 
C 819 2585 1037 2585 1139 2585 
L 1139 2752 
C 986 2739 717 2739 557 2739 
C 416 2739 198 2739 64 2752 
L 64 2585 
C 346 2585 416 2566 486 2353 
L 1274 38 
C 1299 -45 1318 -64 1370 -64 
C 1414 -64 1440 -52 1472 44 
L 2131 1987 
L 2797 44 
C 2829 -52 2854 -64 2899 -64 
C 2950 -64 2970 -45 2995 38 
L 3725 2186 
z
" transform="scale(0.015625)"/>
      <path id="CMR17-2d" d="M 1632 1254 
L 1632 1536 
L 26 1536 
L 26 1254 
L 1632 1254 
z
" transform="scale(0.015625)"/>
      <path id="CMR17-6c" d="M 979 4416 
L 218 4345 
L 218 4179 
C 595 4179 653 4141 653 3835 
L 653 439 
C 653 198 627 166 218 166 
L 218 0 
C 371 12 653 12 813 12 
C 979 12 1261 12 1414 0 
L 1414 166 
C 1005 166 979 191 979 439 
L 979 4416 
z
" transform="scale(0.015625)"/>
      <path id="CMR17-3d" d="M 4115 2048 
C 4211 2048 4307 2048 4307 2156 
C 4307 2272 4198 2272 4090 2272 
L 512 2272 
C 403 2272 294 2272 294 2156 
C 294 2048 390 2048 486 2048 
L 4115 2048 
z
M 4090 927 
C 4198 927 4307 927 4307 1043 
C 4307 1152 4211 1152 4115 1152 
L 486 1152 
C 390 1152 294 1152 294 1043 
C 294 927 403 927 512 927 
L 4090 927 
z
" transform="scale(0.015625)"/>
     </defs>
     <use xlink:href="#CMR17-50" transform="scale(0.996264)"/>
     <use xlink:href="#CMR17-6f" transform="translate(59.983847 0)scale(0.996264)"/>
     <use xlink:href="#CMR17-77" transform="translate(103.07187 0)scale(0.996264)"/>
     <use xlink:href="#CMR17-65" transform="translate(166.979296 0)scale(0.996264)"/>
     <use xlink:href="#CMR17-72" transform="translate(207.464957 0)scale(0.996264)"/>
     <use xlink:href="#CMR17-2d" transform="translate(242.745725 0)scale(0.996264)"/>
     <use xlink:href="#CMR17-6c" transform="translate(272.821691 0)scale(0.996264)"/>
     <use xlink:href="#CMR17-61" transform="translate(297.692749 0)scale(0.996264)"/>
     <use xlink:href="#CMR17-77" transform="translate(340.780773 0)scale(0.996264)"/>
     <use xlink:href="#CMMI12-1c" transform="translate(528.747665 0)scale(0.996264)"/>
     <use xlink:href="#CMR17-30" transform="translate(571.111506 -14.943915)scale(0.697382)"/>
     <use xlink:href="#CMR17-3d" transform="translate(631.266828 0)scale(0.996264)"/>
     <use xlink:href="#CMR17-30" transform="translate(730.655626 0)scale(0.996264)"/>
    </g>
   </g>
   <g id="legend_1">
    <g id="patch_7">
     <path d="M 54.677775 113.517702 
L 198.49086 113.517702 
Q 201.29086 113.517702 201.29086 110.717702 
L 201.29086 34.069588 
Q 201.29086 31.269588 198.49086 31.269588 
L 54.677775 31.269588 
Q 51.877775 31.269588 51.877775 34.069588 
L 51.877775 110.717702 
Q 51.877775 113.517702 54.677775 113.517702 
z
" style="fill: #f5deb3; opacity: 0.25; stroke: #cccccc; stroke-linejoin: miter"/>
    </g>
    <g id="line2d_17">
     <path d="M 57.477775 41.769588 
L 71.477775 41.769588 
L 85.477775 41.769588 
" style="fill: none; stroke: #1f77b4; stroke-opacity: 0.75; stroke-width: 1.5; stroke-linecap: square"/>
    </g>
    <g id="text_17">
     <!-- Shear thinning -->
     <g transform="translate(96.677775 46.669588)scale(0.14 -0.14)">
      <defs>
       <path id="CMR17-67" d="M 710 1165 
C 832 1068 1043 960 1299 960 
C 1805 960 2240 1359 2240 1895 
C 2240 2063 2189 2321 1997 2521 
C 2176 2713 2438 2777 2586 2777 
C 2611 2777 2650 2777 2682 2758 
C 2656 2751 2598 2726 2598 2623 
C 2598 2540 2656 2483 2739 2483 
C 2835 2483 2886 2547 2886 2630 
C 2886 2751 2790 2880 2586 2880 
C 2330 2880 2106 2758 1926 2591 
C 1734 2764 1504 2828 1299 2828 
C 794 2828 358 2431 358 1895 
C 358 1527 570 1294 634 1230 
C 442 1004 442 742 442 710 
C 442 544 506 300 723 166 
C 390 82 128 -184 128 -517 
C 128 -996 736 -1344 1466 -1344 
C 2170 -1344 2803 -1009 2803 -510 
C 2803 384 1856 384 1363 384 
C 1216 384 954 384 922 390 
C 723 422 589 601 589 825 
C 589 883 589 1024 710 1165 
z
M 1299 1068 
C 736 1068 736 1766 736 1895 
C 736 2024 736 2719 1299 2719 
C 1862 2719 1862 2024 1862 1895 
C 1862 1766 1862 1068 1299 1068 
z
M 1466 -1236 
C 826 -1236 384 -883 384 -517 
C 384 -311 493 -118 634 -11 
C 794 102 858 102 1293 102 
C 1818 102 2547 102 2547 -517 
C 2547 -883 2106 -1236 1466 -1236 
z
" transform="scale(0.015625)"/>
      </defs>
      <use xlink:href="#CMR17-53" transform="scale(0.996264)"/>
      <use xlink:href="#CMR17-68" transform="translate(50.89537 0)scale(0.996264)"/>
      <use xlink:href="#CMR17-65" transform="translate(101.79074 0)scale(0.996264)"/>
      <use xlink:href="#CMR17-61" transform="translate(142.2764 0)scale(0.996264)"/>
      <use xlink:href="#CMR17-72" transform="translate(187.966877 0)scale(0.996264)"/>
      <use xlink:href="#CMR17-74" transform="translate(253.323611 0)scale(0.996264)"/>
      <use xlink:href="#CMR17-68" transform="translate(288.604379 0)scale(0.996264)"/>
      <use xlink:href="#CMR17-69" transform="translate(339.499749 0)scale(0.996264)"/>
      <use xlink:href="#CMR17-6e" transform="translate(364.370807 0)scale(0.996264)"/>
      <use xlink:href="#CMR17-6e" transform="translate(415.266177 0)scale(0.996264)"/>
      <use xlink:href="#CMR17-69" transform="translate(466.161547 0)scale(0.996264)"/>
      <use xlink:href="#CMR17-6e" transform="translate(491.032605 0)scale(0.996264)"/>
      <use xlink:href="#CMR17-67" transform="translate(541.927975 0)scale(0.996264)"/>
     </g>
    </g>
    <g id="line2d_18">
     <path d="M 57.477775 61.281617 
L 71.477775 61.281617 
L 85.477775 61.281617 
" style="fill: none; stroke: #ff7f0e; stroke-opacity: 0.75; stroke-width: 1.5; stroke-linecap: square"/>
    </g>
    <g id="text_18">
     <!-- Shear thickening -->
     <g transform="translate(96.677775 66.181617)scale(0.14 -0.14)">
      <defs>
       <path id="CMR17-63" d="M 2234 2240 
C 2112 2240 1933 2240 1933 2015 
C 1933 1836 2080 1785 2163 1785 
C 2208 1785 2394 1804 2394 2028 
C 2394 2476 1958 2816 1466 2816 
C 787 2816 211 2201 211 1379 
C 211 521 813 -64 1466 -64 
C 2259 -64 2458 676 2458 747 
C 2458 773 2451 792 2406 792 
C 2362 792 2355 786 2330 702 
C 2163 180 1798 51 1523 51 
C 1114 51 621 431 621 1385 
C 621 2358 1094 2700 1472 2700 
C 1722 2700 2093 2582 2234 2240 
z
" transform="scale(0.015625)"/>
       <path id="CMR17-6b" d="M 1670 1679 
C 1664 1692 1632 1730 1632 1749 
C 1632 1762 2086 2175 2144 2226 
C 2509 2532 2739 2563 2906 2570 
L 2906 2735 
C 2867 2735 2854 2735 2848 2729 
L 2534 2722 
C 2355 2722 2080 2722 1907 2735 
L 1907 2570 
C 1997 2563 2061 2513 2061 2423 
C 2061 2296 1933 2175 1926 2175 
L 960 1298 
L 960 4416 
L 198 4345 
L 198 4179 
C 576 4179 634 4141 634 3835 
L 634 439 
C 634 198 608 166 198 166 
L 198 0 
C 352 12 634 12 794 12 
C 954 12 1235 12 1389 0 
L 1389 166 
C 979 166 954 191 954 439 
L 954 1139 
L 1395 1540 
L 2042 586 
C 2118 471 2182 382 2182 299 
C 2182 185 2067 166 1990 166 
L 1990 0 
C 2144 12 2419 12 2579 12 
C 2694 12 2931 6 3040 0 
L 3040 166 
C 2739 166 2669 223 2477 503 
L 1670 1679 
z
" transform="scale(0.015625)"/>
      </defs>
      <use xlink:href="#CMR17-53" transform="scale(0.996264)"/>
      <use xlink:href="#CMR17-68" transform="translate(50.89537 0)scale(0.996264)"/>
      <use xlink:href="#CMR17-65" transform="translate(101.79074 0)scale(0.996264)"/>
      <use xlink:href="#CMR17-61" transform="translate(142.2764 0)scale(0.996264)"/>
      <use xlink:href="#CMR17-72" transform="translate(187.966877 0)scale(0.996264)"/>
      <use xlink:href="#CMR17-74" transform="translate(253.323611 0)scale(0.996264)"/>
      <use xlink:href="#CMR17-68" transform="translate(288.604379 0)scale(0.996264)"/>
      <use xlink:href="#CMR17-69" transform="translate(339.499749 0)scale(0.996264)"/>
      <use xlink:href="#CMR17-63" transform="translate(364.370807 0)scale(0.996264)"/>
      <use xlink:href="#CMR17-6b" transform="translate(402.254014 0)scale(0.996264)"/>
      <use xlink:href="#CMR17-65" transform="translate(447.944476 0)scale(0.996264)"/>
      <use xlink:href="#CMR17-6e" transform="translate(488.430136 0)scale(0.996264)"/>
      <use xlink:href="#CMR17-69" transform="translate(539.325506 0)scale(0.996264)"/>
      <use xlink:href="#CMR17-6e" transform="translate(564.196565 0)scale(0.996264)"/>
      <use xlink:href="#CMR17-67" transform="translate(615.091934 0)scale(0.996264)"/>
     </g>
    </g>
    <g id="line2d_19">
     <path d="M 57.477775 80.793645 
L 71.477775 80.793645 
L 85.477775 80.793645 
" style="fill: none; stroke: #2ca02c; stroke-width: 2.5; stroke-linecap: square"/>
    </g>
    <g id="text_19">
     <!-- Newtonian -->
     <g transform="translate(96.677775 85.693645)scale(0.14 -0.14)">
      <defs>
       <path id="CMR17-4e" d="M 1312 4275 
C 1267 4345 1261 4352 1139 4352 
L 326 4352 
L 326 4185 
L 448 4185 
C 704 4185 819 4153 838 4147 
L 838 624 
C 838 465 838 166 326 166 
L 326 0 
C 474 12 742 12 902 12 
C 1062 12 1331 12 1478 0 
L 1478 166 
C 966 166 966 465 966 624 
L 966 4057 
C 1011 4019 1011 4007 1056 3943 
L 3430 76 
C 3475 0 3494 0 3526 0 
C 3590 0 3590 19 3590 140 
L 3590 3726 
C 3590 3885 3590 4185 4102 4185 
L 4102 4352 
C 3955 4339 3686 4339 3526 4339 
C 3366 4339 3098 4339 2950 4352 
L 2950 4185 
C 3462 4185 3462 3885 3462 3726 
L 3462 777 
L 1312 4275 
z
" transform="scale(0.015625)"/>
      </defs>
      <use xlink:href="#CMR17-4e" transform="scale(0.996264)"/>
      <use xlink:href="#CMR17-65" transform="translate(69.07243 0)scale(0.996264)"/>
      <use xlink:href="#CMR17-77" transform="translate(109.55809 0)scale(0.996264)"/>
      <use xlink:href="#CMR17-74" transform="translate(176.067971 0)scale(0.996264)"/>
      <use xlink:href="#CMR17-6f" transform="translate(211.348739 0)scale(0.996264)"/>
      <use xlink:href="#CMR17-6e" transform="translate(257.039216 0)scale(0.996264)"/>
      <use xlink:href="#CMR17-69" transform="translate(307.934586 0)scale(0.996264)"/>
      <use xlink:href="#CMR17-61" transform="translate(332.805644 0)scale(0.996264)"/>
      <use xlink:href="#CMR17-6e" transform="translate(378.496121 0)scale(0.996264)"/>
     </g>
    </g>
    <g id="line2d_20">
     <path d="M 57.477775 100.305673 
L 71.477775 100.305673 
L 85.477775 100.305673 
" style="fill: none; stroke-dasharray: 9.25,4; stroke-dashoffset: 0; stroke: #2ca02c; stroke-width: 2.5"/>
    </g>
    <g id="text_20">
     <!-- Bingham -->
     <g transform="translate(96.677775 105.205673)scale(0.14 -0.14)">
      <defs>
       <path id="CMR17-42" d="M 333 4352 
L 333 4185 
C 774 4185 845 4185 845 3897 
L 845 451 
C 845 166 774 166 333 166 
L 333 0 
L 2534 0 
C 3354 0 3885 578 3885 1155 
C 3885 1726 3360 2214 2675 2259 
C 3290 2380 3718 2790 3718 3276 
C 3718 3808 3194 4352 2368 4352 
L 333 4352 
z
M 1248 2304 
L 1248 3936 
C 1248 4153 1261 4185 1517 4185 
L 2336 4185 
C 2970 4185 3251 3673 3251 3276 
C 3251 2790 2861 2304 2170 2304 
L 1248 2304 
z
M 1517 166 
C 1261 166 1248 198 1248 413 
L 1248 2201 
L 2432 2201 
C 3091 2201 3411 1624 3411 1161 
C 3411 698 3046 166 2349 166 
L 1517 166 
z
" transform="scale(0.015625)"/>
       <path id="CMR17-6d" d="M 4326 1954 
C 4326 2276 4269 2816 3507 2816 
C 3072 2816 2771 2520 2656 2173 
L 2650 2173 
C 2573 2700 2195 2816 1837 2816 
C 1331 2816 1069 2424 973 2166 
L 966 2166 
L 966 2816 
L 211 2745 
L 211 2578 
C 589 2578 646 2540 646 2231 
L 646 443 
C 646 198 621 166 211 166 
L 211 0 
C 365 12 646 12 813 12 
C 979 12 1267 12 1421 0 
L 1421 166 
C 1011 166 986 192 986 443 
L 986 1678 
C 986 2269 1344 2713 1792 2713 
C 2266 2713 2317 2289 2317 1980 
L 2317 443 
C 2317 198 2291 166 1882 166 
L 1882 0 
C 2035 12 2317 12 2483 12 
C 2650 12 2938 12 3091 0 
L 3091 166 
C 2682 166 2656 192 2656 443 
L 2656 1678 
C 2656 2269 3014 2713 3462 2713 
C 3936 2713 3987 2289 3987 1980 
L 3987 443 
C 3987 198 3962 166 3552 166 
L 3552 0 
C 3706 12 3987 12 4154 12 
C 4320 12 4608 12 4762 0 
L 4762 166 
C 4352 166 4326 192 4326 443 
L 4326 1954 
z
" transform="scale(0.015625)"/>
      </defs>
      <use xlink:href="#CMR17-42" transform="scale(0.996264)"/>
      <use xlink:href="#CMR17-69" transform="translate(65.188754 0)scale(0.996264)"/>
      <use xlink:href="#CMR17-6e" transform="translate(90.059813 0)scale(0.996264)"/>
      <use xlink:href="#CMR17-67" transform="translate(140.955183 0)scale(0.996264)"/>
      <use xlink:href="#CMR17-68" transform="translate(186.64566 0)scale(0.996264)"/>
      <use xlink:href="#CMR17-61" transform="translate(237.54103 0)scale(0.996264)"/>
      <use xlink:href="#CMR17-6d" transform="translate(283.231507 0)scale(0.996264)"/>
     </g>
    </g>
   </g>
  </g>
  <g id="axes_2">
   <g id="patch_8">
    <path d="M 280.319235 219.396147 
L 496.343813 219.396147 
L 496.343813 24.269588 
L 280.319235 24.269588 
z
" style="fill: #ffffff"/>
   </g>
   <g id="patch_9">
    <path d="M 298.674265 139.049917 
L 304.321966 148.232343 
L 300.08619 148.232343 
L 300.08619 215.570136 
L 297.262339 215.570136 
L 297.262339 148.232343 
L 293.026563 148.232343 
z
" clip-path="url(#p6c28b28fc6)"/>
   </g>
   <g id="matplotlib.axis_3">
    <g id="xtick_8">
     <g id="line2d_21">
      <g>
       <use xlink:href="#md5e4d98ac7" x="284.555011" y="219.396147" style="stroke: #000000; stroke-width: 0.8"/>
      </g>
     </g>
     <g id="text_21">
      <!-- $\mathdefault{0.00}$ -->
      <g transform="translate(275.699304 233.314646)scale(0.1 -0.1)">
       <use xlink:href="#CMR17-30" transform="scale(0.996264)"/>
       <use xlink:href="#CMMI12-3a" transform="translate(45.690477 0)scale(0.996264)"/>
       <use xlink:href="#CMR17-30" transform="translate(72.787654 0)scale(0.996264)"/>
       <use xlink:href="#CMR17-30" transform="translate(118.478131 0)scale(0.996264)"/>
      </g>
     </g>
    </g>
    <g id="xtick_9">
     <g id="line2d_22">
      <g>
       <use xlink:href="#md5e4d98ac7" x="319.853145" y="219.396147" style="stroke: #000000; stroke-width: 0.8"/>
      </g>
     </g>
     <g id="text_22">
      <!-- $\mathdefault{0.25}$ -->
      <g transform="translate(310.997438 233.314646)scale(0.1 -0.1)">
       <use xlink:href="#CMR17-30" transform="scale(0.996264)"/>
       <use xlink:href="#CMMI12-3a" transform="translate(45.690477 0)scale(0.996264)"/>
       <use xlink:href="#CMR17-32" transform="translate(72.787654 0)scale(0.996264)"/>
       <use xlink:href="#CMR17-35" transform="translate(118.478131 0)scale(0.996264)"/>
      </g>
     </g>
    </g>
    <g id="xtick_10">
     <g id="line2d_23">
      <g>
       <use xlink:href="#md5e4d98ac7" x="355.151279" y="219.396147" style="stroke: #000000; stroke-width: 0.8"/>
      </g>
     </g>
     <g id="text_23">
      <!-- $\mathdefault{0.50}$ -->
      <g transform="translate(346.295571 233.314646)scale(0.1 -0.1)">
       <use xlink:href="#CMR17-30" transform="scale(0.996264)"/>
       <use xlink:href="#CMMI12-3a" transform="translate(45.690477 0)scale(0.996264)"/>
       <use xlink:href="#CMR17-35" transform="translate(72.787654 0)scale(0.996264)"/>
       <use xlink:href="#CMR17-30" transform="translate(118.478131 0)scale(0.996264)"/>
      </g>
     </g>
    </g>
    <g id="xtick_11">
     <g id="line2d_24">
      <g>
       <use xlink:href="#md5e4d98ac7" x="390.449412" y="219.396147" style="stroke: #000000; stroke-width: 0.8"/>
      </g>
     </g>
     <g id="text_24">
      <!-- $\mathdefault{0.75}$ -->
      <g transform="translate(381.593705 233.314646)scale(0.1 -0.1)">
       <use xlink:href="#CMR17-30" transform="scale(0.996264)"/>
       <use xlink:href="#CMMI12-3a" transform="translate(45.690477 0)scale(0.996264)"/>
       <use xlink:href="#CMR17-37" transform="translate(72.787654 0)scale(0.996264)"/>
       <use xlink:href="#CMR17-35" transform="translate(118.478131 0)scale(0.996264)"/>
      </g>
     </g>
    </g>
    <g id="xtick_12">
     <g id="line2d_25">
      <g>
       <use xlink:href="#md5e4d98ac7" x="425.747546" y="219.396147" style="stroke: #000000; stroke-width: 0.8"/>
      </g>
     </g>
     <g id="text_25">
      <!-- $\mathdefault{1.00}$ -->
      <g transform="translate(416.891839 233.314646)scale(0.1 -0.1)">
       <use xlink:href="#CMR17-31" transform="scale(0.996264)"/>
       <use xlink:href="#CMMI12-3a" transform="translate(45.690477 0)scale(0.996264)"/>
       <use xlink:href="#CMR17-30" transform="translate(72.787654 0)scale(0.996264)"/>
       <use xlink:href="#CMR17-30" transform="translate(118.478131 0)scale(0.996264)"/>
      </g>
     </g>
    </g>
    <g id="xtick_13">
     <g id="line2d_26">
      <g>
       <use xlink:href="#md5e4d98ac7" x="461.045679" y="219.396147" style="stroke: #000000; stroke-width: 0.8"/>
      </g>
     </g>
     <g id="text_26">
      <!-- $\mathdefault{1.25}$ -->
      <g transform="translate(452.189972 233.314646)scale(0.1 -0.1)">
       <use xlink:href="#CMR17-31" transform="scale(0.996264)"/>
       <use xlink:href="#CMMI12-3a" transform="translate(45.690477 0)scale(0.996264)"/>
       <use xlink:href="#CMR17-32" transform="translate(72.787654 0)scale(0.996264)"/>
       <use xlink:href="#CMR17-35" transform="translate(118.478131 0)scale(0.996264)"/>
      </g>
     </g>
    </g>
    <g id="xtick_14">
     <g id="line2d_27">
      <g>
       <use xlink:href="#md5e4d98ac7" x="496.343813" y="219.396147" style="stroke: #000000; stroke-width: 0.8"/>
      </g>
     </g>
     <g id="text_27">
      <!-- $\mathdefault{1.50}$ -->
      <g transform="translate(487.488106 233.314646)scale(0.1 -0.1)">
       <use xlink:href="#CMR17-31" transform="scale(0.996264)"/>
       <use xlink:href="#CMMI12-3a" transform="translate(45.690477 0)scale(0.996264)"/>
       <use xlink:href="#CMR17-35" transform="translate(72.787654 0)scale(0.996264)"/>
       <use xlink:href="#CMR17-30" transform="translate(118.478131 0)scale(0.996264)"/>
      </g>
     </g>
    </g>
    <g id="text_28">
     <!-- Strain rate $\dot\gamma$ \; [1/s] -->
     <g transform="translate(330.12431 249.712596)scale(0.14 -0.14)">
      <use xlink:href="#CMR17-53" transform="scale(0.996264)"/>
      <use xlink:href="#CMR17-74" transform="translate(50.89537 0)scale(0.996264)"/>
      <use xlink:href="#CMR17-72" transform="translate(86.176138 0)scale(0.996264)"/>
      <use xlink:href="#CMR17-61" transform="translate(121.456905 0)scale(0.996264)"/>
      <use xlink:href="#CMR17-69" transform="translate(167.147382 0)scale(0.996264)"/>
      <use xlink:href="#CMR17-6e" transform="translate(192.018441 0)scale(0.996264)"/>
      <use xlink:href="#CMR17-72" transform="translate(272.989777 0)scale(0.996264)"/>
      <use xlink:href="#CMR17-61" transform="translate(308.270545 0)scale(0.996264)"/>
      <use xlink:href="#CMR17-74" transform="translate(353.961022 0)scale(0.996264)"/>
      <use xlink:href="#CMR17-65" transform="translate(389.24179 0)scale(0.996264)"/>
      <use xlink:href="#CMR17-5f" transform="translate(475.377171 0.006461)scale(0.996264)"/>
      <use xlink:href="#CMMI12-d" transform="translate(459.803417 0)scale(0.996264)"/>
      <use xlink:href="#CMR17-5b" transform="translate(601.349949 0)scale(0.996264)"/>
      <use xlink:href="#CMR17-31" transform="translate(626.221007 0)scale(0.996264)"/>
      <use xlink:href="#CMR17-2f" transform="translate(671.911484 0)scale(0.996264)"/>
      <use xlink:href="#CMR17-73" transform="translate(717.601961 0)scale(0.996264)"/>
      <use xlink:href="#CMR17-5d" transform="translate(753.403299 0)scale(0.996264)"/>
     </g>
    </g>
   </g>
   <g id="matplotlib.axis_4">
    <g id="ytick_7">
     <g id="line2d_28">
      <g>
       <use xlink:href="#m0e5e8810e1" x="280.319235" y="215.570136" style="stroke: #000000; stroke-width: 0.8"/>
      </g>
     </g>
    </g>
    <g id="ytick_8">
     <g id="line2d_29">
      <g>
       <use xlink:href="#m0e5e8810e1" x="280.319235" y="177.310027" style="stroke: #000000; stroke-width: 0.8"/>
      </g>
     </g>
    </g>
    <g id="ytick_9">
     <g id="line2d_30">
      <g>
       <use xlink:href="#m0e5e8810e1" x="280.319235" y="139.049917" style="stroke: #000000; stroke-width: 0.8"/>
      </g>
     </g>
    </g>
    <g id="ytick_10">
     <g id="line2d_31">
      <g>
       <use xlink:href="#m0e5e8810e1" x="280.319235" y="100.789807" style="stroke: #000000; stroke-width: 0.8"/>
      </g>
     </g>
    </g>
    <g id="ytick_11">
     <g id="line2d_32">
      <g>
       <use xlink:href="#m0e5e8810e1" x="280.319235" y="62.529698" style="stroke: #000000; stroke-width: 0.8"/>
      </g>
     </g>
    </g>
    <g id="ytick_12">
     <g id="line2d_33">
      <g>
       <use xlink:href="#m0e5e8810e1" x="280.319235" y="24.269588" style="stroke: #000000; stroke-width: 0.8"/>
      </g>
     </g>
    </g>
   </g>
   <g id="line2d_34">
    <path d="M 284.555011 215.570136 
L 284.64058 135.098269 
L 284.897288 132.169698 
L 285.325133 129.533461 
L 285.924116 127.070761 
L 286.694238 124.729547 
L 287.635498 122.480805 
L 288.747896 120.306159 
L 290.379056 117.673181 
L 292.27762 115.119122 
L 294.443587 112.631608 
L 296.876958 110.201417 
L 299.577732 107.82143 
L 302.545909 105.486 
L 305.781489 103.190544 
L 310.017158 100.48348 
L 314.637888 97.823152 
L 319.643679 95.2051 
L 325.034531 92.625586 
L 330.810443 90.081439 
L 338.035681 87.154352 
L 345.78503 84.267994 
L 354.05849 81.419186 
L 362.85606 78.605173 
L 373.552194 75.428694 
L 384.932881 72.291397 
L 396.99812 69.190549 
L 411.389768 65.742685 
L 426.647804 62.33491 
L 442.772226 58.96458 
L 459.763035 55.629356 
L 479.657844 51.962193 
L 496.343813 49.056092 
L 496.343813 49.056092 
" clip-path="url(#p6c28b28fc6)" style="fill: none; stroke: #1f77b4; stroke-opacity: 0.75; stroke-width: 1.5; stroke-linecap: square"/>
   </g>
   <g id="line2d_35">
    <path d="M 284.555011 215.570136 
L 284.64058 139.049889 
L 290.031432 138.934798 
L 295.384847 138.599726 
L 300.732914 138.045308 
L 305.781489 137.320465 
L 311.514617 136.260074 
L 317.092651 134.986187 
L 322.290972 133.583993 
L 327.874354 131.846867 
L 333.842797 129.725293 
L 339.110643 127.625556 
L 344.645892 125.189705 
L 350.448545 122.38365 
L 356.518601 119.171657 
L 362.85606 115.516342 
L 368.118558 112.246728 
L 373.552194 108.6477 
L 379.156969 104.697842 
L 384.932881 100.375063 
L 390.879932 95.656598 
L 396.99812 90.519008 
L 403.287447 84.938178 
L 409.747912 78.88932 
L 416.379515 72.346969 
L 423.182256 65.284989 
L 430.156136 57.676567 
L 437.301153 49.494216 
L 444.617309 40.709775 
L 452.104603 31.294408 
L 459.763035 21.218604 
L 467.592605 10.452179 
L 475.568822 -1 
L 475.568822 -1 
" clip-path="url(#p6c28b28fc6)" style="fill: none; stroke: #ff7f0e; stroke-opacity: 0.75; stroke-width: 1.5; stroke-linecap: square"/>
   </g>
   <g id="line2d_36">
    <path d="M 284.555011 215.570136 
L 284.64058 139.003542 
L 496.343813 24.269588 
L 496.343813 24.269588 
" clip-path="url(#p6c28b28fc6)" style="fill: none; stroke-dasharray: 9.25,4; stroke-dashoffset: 0; stroke: #2ca02c; stroke-width: 2.5"/>
   </g>
   <g id="patch_10">
    <path d="M 280.319235 219.396147 
L 280.319235 24.269588 
" style="fill: none; stroke: #000000; stroke-width: 0.8; stroke-linejoin: miter; stroke-linecap: square"/>
   </g>
   <g id="patch_11">
    <path d="M 496.343813 219.396147 
L 496.343813 24.269588 
" style="fill: none; stroke: #000000; stroke-width: 0.8; stroke-linejoin: miter; stroke-linecap: square"/>
   </g>
   <g id="patch_12">
    <path d="M 280.319235 219.396147 
L 496.343813 219.396147 
" style="fill: none; stroke: #000000; stroke-width: 0.8; stroke-linejoin: miter; stroke-linecap: square"/>
   </g>
   <g id="patch_13">
    <path d="M 280.319235 24.269588 
L 496.343813 24.269588 
" style="fill: none; stroke: #000000; stroke-width: 0.8; stroke-linejoin: miter; stroke-linecap: square"/>
   </g>
   <g id="text_29">
    <!-- $\tau_0$ -->
    <g transform="translate(305.733891 182.091481)scale(0.192 -0.192)">
     <use xlink:href="#CMMI12-1c" transform="scale(0.996264)"/>
     <use xlink:href="#CMR17-30" transform="translate(42.363841 -14.943915)scale(0.697382)"/>
    </g>
   </g>
   <g id="text_30">
    <!-- Herschel-Bulkey $ \quad \tau_0 &gt; 0$ -->
    <g transform="translate(302.323397 18.269588)scale(0.16 -0.16)">
     <defs>
      <path id="CMR17-48" d="M 3590 3898 
C 3590 4185 3661 4185 4102 4185 
L 4102 4352 
C 3917 4339 3578 4339 3379 4339 
C 3181 4339 2842 4339 2656 4352 
L 2656 4185 
C 3098 4185 3168 4185 3168 3898 
L 3168 2342 
L 1261 2342 
L 1261 3898 
C 1261 4185 1331 4185 1773 4185 
L 1773 4352 
C 1587 4339 1248 4339 1050 4339 
C 851 4339 512 4339 326 4352 
L 326 4185 
C 768 4185 838 4185 838 3898 
L 838 452 
C 838 166 768 166 326 166 
L 326 0 
C 512 12 851 12 1050 12 
C 1248 12 1587 12 1773 0 
L 1773 166 
C 1331 166 1261 166 1261 452 
L 1261 2176 
L 3168 2176 
L 3168 452 
C 3168 166 3098 166 2656 166 
L 2656 0 
C 2842 12 3181 12 3379 12 
C 3578 12 3917 12 4102 0 
L 4102 166 
C 3661 166 3590 166 3590 452 
L 3590 3898 
z
" transform="scale(0.015625)"/>
      <path id="CMR17-75" d="M 1882 2745 
L 1882 2579 
C 2259 2579 2317 2540 2317 2229 
L 2317 1053 
C 2317 510 2029 38 1555 38 
C 1030 38 986 355 986 691 
L 986 2816 
L 211 2745 
L 211 2579 
C 467 2579 640 2579 646 2320 
L 646 1079 
C 646 646 646 368 813 187 
C 896 103 1056 -64 1517 -64 
C 2061 -64 2272 400 2323 536 
L 2330 536 
L 2330 -64 
L 3091 -13 
L 3091 154 
C 2714 154 2656 193 2656 503 
L 2656 2816 
L 1882 2745 
z
" transform="scale(0.015625)"/>
      <path id="CMR17-79" d="M 2496 2183 
C 2656 2579 2944 2585 3034 2585 
L 3034 2752 
C 2912 2745 2752 2739 2630 2739 
C 2496 2739 2285 2739 2157 2752 
L 2157 2585 
C 2400 2566 2406 2384 2406 2332 
C 2406 2268 2394 2235 2362 2158 
L 1664 409 
L 902 2300 
C 870 2378 870 2423 870 2430 
C 870 2572 1018 2585 1171 2585 
L 1171 2752 
C 1018 2739 742 2739 582 2739 
C 410 2739 205 2739 64 2752 
L 64 2585 
C 410 2585 448 2553 531 2345 
L 1485 -31 
C 1197 -795 1030 -1242 627 -1242 
C 557 -1242 397 -1223 282 -1106 
C 429 -1093 493 -1002 493 -892 
C 493 -782 416 -685 288 -685 
C 147 -685 77 -782 77 -899 
C 77 -1158 339 -1344 627 -1344 
C 998 -1344 1229 -983 1357 -659 
L 2496 2183 
z
" transform="scale(0.015625)"/>
      <path id="CMMI12-3e" d="M 4218 1460 
C 4339 1519 4346 1557 4346 1603 
C 4346 1641 4333 1687 4218 1738 
L 755 3347 
C 672 3385 659 3392 646 3392 
C 570 3392 525 3327 525 3276 
C 525 3199 576 3173 659 3134 
L 3949 1603 
L 653 65 
C 525 7 525 -39 525 -77 
C 525 -128 570 -192 646 -192 
C 659 -192 666 -186 755 -148 
L 4218 1460 
z
" transform="scale(0.015625)"/>
     </defs>
     <use xlink:href="#CMR17-48" transform="scale(0.996264)"/>
     <use xlink:href="#CMR17-65" transform="translate(69.07243 0)scale(0.996264)"/>
     <use xlink:href="#CMR17-72" transform="translate(109.55809 0)scale(0.996264)"/>
     <use xlink:href="#CMR17-73" transform="translate(144.838858 0)scale(0.996264)"/>
     <use xlink:href="#CMR17-63" transform="translate(180.640196 0)scale(0.996264)"/>
     <use xlink:href="#CMR17-68" transform="translate(218.523402 0)scale(0.996264)"/>
     <use xlink:href="#CMR17-65" transform="translate(269.418772 0)scale(0.996264)"/>
     <use xlink:href="#CMR17-6c" transform="translate(309.904432 0)scale(0.996264)"/>
     <use xlink:href="#CMR17-2d" transform="translate(334.775491 0)scale(0.996264)"/>
     <use xlink:href="#CMR17-42" transform="translate(364.851457 0)scale(0.996264)"/>
     <use xlink:href="#CMR17-75" transform="translate(430.040212 0)scale(0.996264)"/>
     <use xlink:href="#CMR17-6c" transform="translate(480.935582 0)scale(0.996264)"/>
     <use xlink:href="#CMR17-6b" transform="translate(505.80664 0)scale(0.996264)"/>
     <use xlink:href="#CMR17-65" transform="translate(551.497102 0)scale(0.996264)"/>
     <use xlink:href="#CMR17-79" transform="translate(591.982762 0)scale(0.996264)"/>
     <use xlink:href="#CMMI12-1c" transform="translate(761.73269 0)scale(0.996264)"/>
     <use xlink:href="#CMR17-30" transform="translate(804.096531 -14.943915)scale(0.697382)"/>
     <use xlink:href="#CMMI12-3e" transform="translate(864.251853 0)scale(0.996264)"/>
     <use xlink:href="#CMR17-30" transform="translate(967.797958 0)scale(0.996264)"/>
    </g>
   </g>
  </g>
 </g>
 <defs>
  <clipPath id="pb5d9e7eebb">
   <rect x="44.877775" y="24.269588" width="216.024578" height="195.126559"/>
  </clipPath>
  <clipPath id="p6c28b28fc6">
   <rect x="280.319235" y="24.269588" width="216.024578" height="195.126559"/>
  </clipPath>
 </defs>
</svg>
