<?xml version="1.0" encoding="utf-8" standalone="no"?>
<!DOCTYPE svg PUBLIC "-//W3C//DTD SVG 1.1//EN"
  "http://www.w3.org/Graphics/SVG/1.1/DTD/svg11.dtd">
<svg xmlns:xlink="http://www.w3.org/1999/xlink" width="432pt" height="288pt" viewBox="0 0 432 288" xmlns="http://www.w3.org/2000/svg" version="1.1">
 <metadata>
  <rdf:RDF xmlns:dc="http://purl.org/dc/elements/1.1/" xmlns:cc="http://creativecommons.org/ns#" xmlns:rdf="http://www.w3.org/1999/02/22-rdf-syntax-ns#">
   <cc:Work>
    <dc:type rdf:resource="http://purl.org/dc/dcmitype/StillImage"/>
    <dc:date>2023-05-29T17:15:06.034999</dc:date>
    <dc:format>image/svg+xml</dc:format>
    <dc:creator>
     <cc:Agent>
      <dc:title>Matplotlib v3.7.1, https://matplotlib.org/</dc:title>
     </cc:Agent>
    </dc:creator>
   </cc:Work>
  </rdf:RDF>
 </metadata>
 <defs>
  <style type="text/css">*{stroke-linejoin: round; stroke-linecap: butt}</style>
 </defs>
 <g id="figure_1">
  <g id="patch_1">
   <path d="M 0 288 
L 432 288 
L 432 0 
L 0 0 
L 0 288 
z
" style="fill: none"/>
  </g>
  <g id="axes_1">
   <g id="patch_2">
    <path d="M 43.376968 256.246178 
L 428.99976 256.246178 
L 428.99976 6.459489 
L 43.376968 6.459489 
L 43.376968 256.246178 
z
" style="fill: none"/>
   </g>
   <g id="matplotlib.axis_1">
    <g id="xtick_1">
     <g id="line2d_1">
      <path d="M 71.374213 256.246178 
L 71.374213 6.459489 
" clip-path="url(#pfc078090de)" style="fill: none; stroke-dasharray: 0.8,1.32; stroke-dashoffset: 0; stroke: #b0b0b0; stroke-width: 0.8"/>
     </g>
     <g id="line2d_2">
      <defs>
       <path id="m782e60c5d3" d="M 0 0 
L 0 -3.5 
" style="stroke: #000000; stroke-width: 0.8"/>
      </defs>
      <g>
       <use xlink:href="#m782e60c5d3" x="71.374213" y="256.246178" style="stroke: #000000; stroke-width: 0.8"/>
      </g>
     </g>
     <g id="line2d_3">
      <defs>
       <path id="m48386c9ad9" d="M 0 0 
L 0 3.5 
" style="stroke: #000000; stroke-width: 0.8"/>
      </defs>
      <g>
       <use xlink:href="#m48386c9ad9" x="71.374213" y="6.459489" style="stroke: #000000; stroke-width: 0.8"/>
      </g>
     </g>
     <g id="text_1">
      <!-- $\mathdefault{−0.2}$ -->
      <g transform="translate(61.134801 266.664677) scale(0.1 -0.1)">
       <defs>
        <path id="CMSY10-0" d="M 4218 1472 
C 4326 1472 4442 1472 4442 1600 
C 4442 1728 4326 1728 4218 1728 
L 755 1728 
C 646 1728 531 1728 531 1600 
C 531 1472 646 1472 755 1472 
L 4218 1472 
z
" transform="scale(0.015625)"/>
        <path id="CMR17-30" d="M 2688 2025 
C 2688 2416 2682 3080 2413 3591 
C 2176 4039 1798 4198 1466 4198 
C 1158 4198 768 4058 525 3597 
C 269 3118 243 2524 243 2025 
C 243 1661 250 1106 448 619 
C 723 -39 1216 -128 1466 -128 
C 1760 -128 2208 -7 2470 600 
C 2662 1042 2688 1559 2688 2025 
z
M 1466 -26 
C 1056 -26 813 325 723 812 
C 653 1188 653 1738 653 2096 
C 653 2588 653 2997 736 3387 
C 858 3929 1216 4096 1466 4096 
C 1728 4096 2067 3923 2189 3400 
C 2272 3036 2278 2607 2278 2096 
C 2278 1680 2278 1169 2202 792 
C 2067 95 1690 -26 1466 -26 
z
" transform="scale(0.015625)"/>
        <path id="CMMI12-3a" d="M 1178 307 
C 1178 492 1024 619 870 619 
C 685 619 557 466 557 313 
C 557 128 710 0 864 0 
C 1050 0 1178 153 1178 307 
z
" transform="scale(0.015625)"/>
        <path id="CMR17-32" d="M 2669 989 
L 2554 989 
C 2490 536 2438 459 2413 420 
C 2381 369 1920 369 1830 369 
L 602 369 
C 832 619 1280 1072 1824 1597 
C 2214 1967 2669 2402 2669 3035 
C 2669 3790 2067 4224 1395 4224 
C 691 4224 262 3604 262 3030 
C 262 2780 448 2748 525 2748 
C 589 2748 781 2787 781 3010 
C 781 3207 614 3264 525 3264 
C 486 3264 448 3258 422 3245 
C 544 3790 915 4058 1306 4058 
C 1862 4058 2227 3617 2227 3035 
C 2227 2479 1901 2000 1536 1584 
L 262 146 
L 262 0 
L 2515 0 
L 2669 989 
z
" transform="scale(0.015625)"/>
       </defs>
       <use xlink:href="#CMSY10-0" transform="scale(0.996264)"/>
       <use xlink:href="#CMR17-30" transform="translate(77.487468 0) scale(0.996264)"/>
       <use xlink:href="#CMMI12-3a" transform="translate(123.177945 0) scale(0.996264)"/>
       <use xlink:href="#CMR17-32" transform="translate(150.275122 0) scale(0.996264)"/>
      </g>
     </g>
    </g>
    <g id="xtick_2">
     <g id="line2d_4">
      <path d="M 155.5214 256.246178 
L 155.5214 6.459489 
" clip-path="url(#pfc078090de)" style="fill: none; stroke-dasharray: 0.8,1.32; stroke-dashoffset: 0; stroke: #b0b0b0; stroke-width: 0.8"/>
     </g>
     <g id="line2d_5">
      <g>
       <use xlink:href="#m782e60c5d3" x="155.5214" y="256.246178" style="stroke: #000000; stroke-width: 0.8"/>
      </g>
     </g>
     <g id="line2d_6">
      <g>
       <use xlink:href="#m48386c9ad9" x="155.5214" y="6.459489" style="stroke: #000000; stroke-width: 0.8"/>
      </g>
     </g>
     <g id="text_2">
      <!-- $\mathdefault{0.0}$ -->
      <g transform="translate(149.156361 266.664677) scale(0.1 -0.1)">
       <use xlink:href="#CMR17-30" transform="scale(0.996264)"/>
       <use xlink:href="#CMMI12-3a" transform="translate(45.690477 0) scale(0.996264)"/>
       <use xlink:href="#CMR17-30" transform="translate(72.787654 0) scale(0.996264)"/>
      </g>
     </g>
    </g>
    <g id="xtick_3">
     <g id="line2d_7">
      <path d="M 239.668588 256.246178 
L 239.668588 6.459489 
" clip-path="url(#pfc078090de)" style="fill: none; stroke-dasharray: 0.8,1.32; stroke-dashoffset: 0; stroke: #b0b0b0; stroke-width: 0.8"/>
     </g>
     <g id="line2d_8">
      <g>
       <use xlink:href="#m782e60c5d3" x="239.668588" y="256.246178" style="stroke: #000000; stroke-width: 0.8"/>
      </g>
     </g>
     <g id="line2d_9">
      <g>
       <use xlink:href="#m48386c9ad9" x="239.668588" y="6.459489" style="stroke: #000000; stroke-width: 0.8"/>
      </g>
     </g>
     <g id="text_3">
      <!-- $\mathdefault{0.2}$ -->
      <g transform="translate(233.303548 266.664677) scale(0.1 -0.1)">
       <use xlink:href="#CMR17-30" transform="scale(0.996264)"/>
       <use xlink:href="#CMMI12-3a" transform="translate(45.690477 0) scale(0.996264)"/>
       <use xlink:href="#CMR17-32" transform="translate(72.787654 0) scale(0.996264)"/>
      </g>
     </g>
    </g>
    <g id="xtick_4">
     <g id="line2d_10">
      <path d="M 323.815775 256.246178 
L 323.815775 6.459489 
" clip-path="url(#pfc078090de)" style="fill: none; stroke-dasharray: 0.8,1.32; stroke-dashoffset: 0; stroke: #b0b0b0; stroke-width: 0.8"/>
     </g>
     <g id="line2d_11">
      <g>
       <use xlink:href="#m782e60c5d3" x="323.815775" y="256.246178" style="stroke: #000000; stroke-width: 0.8"/>
      </g>
     </g>
     <g id="line2d_12">
      <g>
       <use xlink:href="#m48386c9ad9" x="323.815775" y="6.459489" style="stroke: #000000; stroke-width: 0.8"/>
      </g>
     </g>
     <g id="text_4">
      <!-- $\mathdefault{0.4}$ -->
      <g transform="translate(317.450736 266.664677) scale(0.1 -0.1)">
       <defs>
        <path id="CMR17-34" d="M 2150 4122 
C 2150 4256 2144 4256 2029 4256 
L 128 1254 
L 128 1088 
L 1779 1088 
L 1779 457 
C 1779 224 1766 160 1318 160 
L 1197 160 
L 1197 0 
C 1402 0 1747 0 1965 0 
C 2182 0 2528 0 2733 0 
L 2733 160 
L 2611 160 
C 2163 160 2150 224 2150 457 
L 2150 1088 
L 2803 1088 
L 2803 1254 
L 2150 1254 
L 2150 4122 
z
M 1798 3703 
L 1798 1254 
L 256 1254 
L 1798 3703 
z
" transform="scale(0.015625)"/>
       </defs>
       <use xlink:href="#CMR17-30" transform="scale(0.996264)"/>
       <use xlink:href="#CMMI12-3a" transform="translate(45.690477 0) scale(0.996264)"/>
       <use xlink:href="#CMR17-34" transform="translate(72.787654 0) scale(0.996264)"/>
      </g>
     </g>
    </g>
    <g id="xtick_5">
     <g id="line2d_13">
      <path d="M 407.962963 256.246178 
L 407.962963 6.459489 
" clip-path="url(#pfc078090de)" style="fill: none; stroke-dasharray: 0.8,1.32; stroke-dashoffset: 0; stroke: #b0b0b0; stroke-width: 0.8"/>
     </g>
     <g id="line2d_14">
      <g>
       <use xlink:href="#m782e60c5d3" x="407.962963" y="256.246178" style="stroke: #000000; stroke-width: 0.8"/>
      </g>
     </g>
     <g id="line2d_15">
      <g>
       <use xlink:href="#m48386c9ad9" x="407.962963" y="6.459489" style="stroke: #000000; stroke-width: 0.8"/>
      </g>
     </g>
     <g id="text_5">
      <!-- $\mathdefault{0.6}$ -->
      <g transform="translate(401.597924 266.664677) scale(0.1 -0.1)">
       <defs>
        <path id="CMR17-36" d="M 678 2176 
C 678 3690 1395 4032 1811 4032 
C 1946 4032 2272 4009 2400 3776 
C 2298 3776 2106 3776 2106 3553 
C 2106 3381 2246 3323 2336 3323 
C 2394 3323 2566 3348 2566 3560 
C 2566 3954 2246 4179 1805 4179 
C 1043 4179 243 3390 243 1984 
C 243 253 966 -128 1478 -128 
C 2099 -128 2688 427 2688 1283 
C 2688 2081 2170 2662 1517 2662 
C 1126 2662 838 2407 678 1960 
L 678 2176 
z
M 1478 25 
C 691 25 691 1200 691 1436 
C 691 1896 909 2560 1504 2560 
C 1613 2560 1926 2560 2138 2120 
C 2253 1870 2253 1609 2253 1289 
C 2253 944 2253 690 2118 434 
C 1978 171 1773 25 1478 25 
z
" transform="scale(0.015625)"/>
       </defs>
       <use xlink:href="#CMR17-30" transform="scale(0.996264)"/>
       <use xlink:href="#CMMI12-3a" transform="translate(45.690477 0) scale(0.996264)"/>
       <use xlink:href="#CMR17-36" transform="translate(72.787654 0) scale(0.996264)"/>
      </g>
     </g>
    </g>
    <g id="text_6">
     <!-- $u$ -->
     <g transform="translate(232.301944 282.287732) scale(0.14 -0.14)">
      <defs>
       <path id="CMMI12-75" d="M 2182 370 
C 2266 13 2573 -64 2726 -64 
C 2931 -64 3085 70 3187 287 
C 3296 517 3379 894 3379 913 
C 3379 945 3354 971 3315 971 
C 3258 971 3251 939 3226 843 
C 3110 402 2995 64 2739 64 
C 2547 64 2547 275 2547 358 
C 2547 505 2566 568 2630 837 
C 2675 1009 2720 1181 2758 1360 
L 3021 2401 
C 3066 2561 3066 2574 3066 2593 
C 3066 2689 2989 2753 2893 2753 
C 2707 2753 2662 2593 2624 2433 
C 2560 2184 2214 811 2170 588 
C 2163 588 1914 64 1446 64 
C 1114 64 1050 351 1050 588 
C 1050 952 1229 1462 1395 1890 
C 1472 2095 1504 2178 1504 2305 
C 1504 2580 1306 2816 998 2816 
C 410 2816 173 1890 173 1839 
C 173 1814 198 1782 243 1782 
C 301 1782 307 1807 333 1896 
C 486 2441 736 2682 979 2682 
C 1043 2682 1146 2682 1146 2478 
C 1146 2312 1075 2127 979 1884 
C 698 1124 666 881 666 690 
C 666 38 1158 -64 1421 -64 
C 1830 -64 2054 217 2182 370 
z
" transform="scale(0.015625)"/>
      </defs>
      <use xlink:href="#CMMI12-75" transform="scale(0.996264)"/>
     </g>
    </g>
   </g>
   <g id="matplotlib.axis_2">
    <g id="ytick_1">
     <g id="line2d_16">
      <path d="M 43.376968 256.246178 
L 428.99976 256.246178 
" clip-path="url(#pfc078090de)" style="fill: none; stroke-dasharray: 0.8,1.32; stroke-dashoffset: 0; stroke: #b0b0b0; stroke-width: 0.8"/>
     </g>
     <g id="line2d_17">
      <defs>
       <path id="m5c76887ae8" d="M 0 0 
L 3.5 0 
" style="stroke: #000000; stroke-width: 0.8"/>
      </defs>
      <g>
       <use xlink:href="#m5c76887ae8" x="43.376968" y="256.246178" style="stroke: #000000; stroke-width: 0.8"/>
      </g>
     </g>
     <g id="line2d_18">
      <defs>
       <path id="m754080a550" d="M 0 0 
L -3.5 0 
" style="stroke: #000000; stroke-width: 0.8"/>
      </defs>
      <g>
       <use xlink:href="#m754080a550" x="428.99976" y="256.246178" style="stroke: #000000; stroke-width: 0.8"/>
      </g>
     </g>
     <g id="text_7">
      <!-- $\mathdefault{−1.0}$ -->
      <g transform="translate(19.398145 259.705428) scale(0.1 -0.1)">
       <defs>
        <path id="CMR17-31" d="M 1702 4058 
C 1702 4192 1696 4192 1606 4192 
C 1357 3916 979 3827 621 3827 
C 602 3827 570 3827 563 3808 
C 557 3795 557 3782 557 3648 
C 755 3648 1088 3686 1344 3839 
L 1344 461 
C 1344 236 1331 160 781 160 
L 589 160 
L 589 0 
C 896 0 1216 0 1523 0 
C 1830 0 2150 0 2458 0 
L 2458 160 
L 2266 160 
C 1715 160 1702 230 1702 458 
L 1702 4058 
z
" transform="scale(0.015625)"/>
       </defs>
       <use xlink:href="#CMSY10-0" transform="scale(0.996264)"/>
       <use xlink:href="#CMR17-31" transform="translate(77.487468 0) scale(0.996264)"/>
       <use xlink:href="#CMMI12-3a" transform="translate(123.177945 0) scale(0.996264)"/>
       <use xlink:href="#CMR17-30" transform="translate(150.275122 0) scale(0.996264)"/>
      </g>
     </g>
    </g>
    <g id="ytick_2">
     <g id="line2d_19">
      <path d="M 43.376968 206.288841 
L 428.99976 206.288841 
" clip-path="url(#pfc078090de)" style="fill: none; stroke-dasharray: 0.8,1.32; stroke-dashoffset: 0; stroke: #b0b0b0; stroke-width: 0.8"/>
     </g>
     <g id="line2d_20">
      <g>
       <use xlink:href="#m5c76887ae8" x="43.376968" y="206.288841" style="stroke: #000000; stroke-width: 0.8"/>
      </g>
     </g>
     <g id="line2d_21">
      <g>
       <use xlink:href="#m754080a550" x="428.99976" y="206.288841" style="stroke: #000000; stroke-width: 0.8"/>
      </g>
     </g>
     <g id="text_8">
      <!-- $\mathdefault{−0.8}$ -->
      <g transform="translate(19.398145 209.74809) scale(0.1 -0.1)">
       <defs>
        <path id="CMR17-38" d="M 1741 2264 
C 2144 2467 2554 2773 2554 3263 
C 2554 3841 1990 4179 1472 4179 
C 890 4179 378 3759 378 3180 
C 378 3021 416 2747 666 2505 
C 730 2442 998 2251 1171 2130 
C 883 1983 211 1634 211 934 
C 211 279 838 -128 1459 -128 
C 2144 -128 2720 362 2720 1010 
C 2720 1590 2330 1857 2074 2029 
L 1741 2264 
z
M 902 2822 
C 851 2854 595 3051 595 3351 
C 595 3739 998 4032 1459 4032 
C 1965 4032 2336 3676 2336 3262 
C 2336 2669 1670 2331 1638 2331 
C 1632 2331 1626 2331 1574 2370 
L 902 2822 
z
M 2080 1519 
C 2176 1449 2483 1240 2483 851 
C 2483 381 2010 25 1472 25 
C 890 25 448 438 448 940 
C 448 1443 838 1862 1280 2060 
L 2080 1519 
z
" transform="scale(0.015625)"/>
       </defs>
       <use xlink:href="#CMSY10-0" transform="scale(0.996264)"/>
       <use xlink:href="#CMR17-30" transform="translate(77.487468 0) scale(0.996264)"/>
       <use xlink:href="#CMMI12-3a" transform="translate(123.177945 0) scale(0.996264)"/>
       <use xlink:href="#CMR17-38" transform="translate(150.275122 0) scale(0.996264)"/>
      </g>
     </g>
    </g>
    <g id="ytick_3">
     <g id="line2d_22">
      <path d="M 43.376968 156.331503 
L 428.99976 156.331503 
" clip-path="url(#pfc078090de)" style="fill: none; stroke-dasharray: 0.8,1.32; stroke-dashoffset: 0; stroke: #b0b0b0; stroke-width: 0.8"/>
     </g>
     <g id="line2d_23">
      <g>
       <use xlink:href="#m5c76887ae8" x="43.376968" y="156.331503" style="stroke: #000000; stroke-width: 0.8"/>
      </g>
     </g>
     <g id="line2d_24">
      <g>
       <use xlink:href="#m754080a550" x="428.99976" y="156.331503" style="stroke: #000000; stroke-width: 0.8"/>
      </g>
     </g>
     <g id="text_9">
      <!-- $\mathdefault{−0.6}$ -->
      <g transform="translate(19.398145 159.790752) scale(0.1 -0.1)">
       <use xlink:href="#CMSY10-0" transform="scale(0.996264)"/>
       <use xlink:href="#CMR17-30" transform="translate(77.487468 0) scale(0.996264)"/>
       <use xlink:href="#CMMI12-3a" transform="translate(123.177945 0) scale(0.996264)"/>
       <use xlink:href="#CMR17-36" transform="translate(150.275122 0) scale(0.996264)"/>
      </g>
     </g>
    </g>
    <g id="ytick_4">
     <g id="line2d_25">
      <path d="M 43.376968 106.374165 
L 428.99976 106.374165 
" clip-path="url(#pfc078090de)" style="fill: none; stroke-dasharray: 0.8,1.32; stroke-dashoffset: 0; stroke: #b0b0b0; stroke-width: 0.8"/>
     </g>
     <g id="line2d_26">
      <g>
       <use xlink:href="#m5c76887ae8" x="43.376968" y="106.374165" style="stroke: #000000; stroke-width: 0.8"/>
      </g>
     </g>
     <g id="line2d_27">
      <g>
       <use xlink:href="#m754080a550" x="428.99976" y="106.374165" style="stroke: #000000; stroke-width: 0.8"/>
      </g>
     </g>
     <g id="text_10">
      <!-- $\mathdefault{−0.4}$ -->
      <g transform="translate(19.398145 109.833414) scale(0.1 -0.1)">
       <use xlink:href="#CMSY10-0" transform="scale(0.996264)"/>
       <use xlink:href="#CMR17-30" transform="translate(77.487468 0) scale(0.996264)"/>
       <use xlink:href="#CMMI12-3a" transform="translate(123.177945 0) scale(0.996264)"/>
       <use xlink:href="#CMR17-34" transform="translate(150.275122 0) scale(0.996264)"/>
      </g>
     </g>
    </g>
    <g id="ytick_5">
     <g id="line2d_28">
      <path d="M 43.376968 56.416827 
L 428.99976 56.416827 
" clip-path="url(#pfc078090de)" style="fill: none; stroke-dasharray: 0.8,1.32; stroke-dashoffset: 0; stroke: #b0b0b0; stroke-width: 0.8"/>
     </g>
     <g id="line2d_29">
      <g>
       <use xlink:href="#m5c76887ae8" x="43.376968" y="56.416827" style="stroke: #000000; stroke-width: 0.8"/>
      </g>
     </g>
     <g id="line2d_30">
      <g>
       <use xlink:href="#m754080a550" x="428.99976" y="56.416827" style="stroke: #000000; stroke-width: 0.8"/>
      </g>
     </g>
     <g id="text_11">
      <!-- $\mathdefault{−0.2}$ -->
      <g transform="translate(19.398145 59.876076) scale(0.1 -0.1)">
       <use xlink:href="#CMSY10-0" transform="scale(0.996264)"/>
       <use xlink:href="#CMR17-30" transform="translate(77.487468 0) scale(0.996264)"/>
       <use xlink:href="#CMMI12-3a" transform="translate(123.177945 0) scale(0.996264)"/>
       <use xlink:href="#CMR17-32" transform="translate(150.275122 0) scale(0.996264)"/>
      </g>
     </g>
    </g>
    <g id="ytick_6">
     <g id="line2d_31">
      <path d="M 43.376968 6.459489 
L 428.99976 6.459489 
" clip-path="url(#pfc078090de)" style="fill: none; stroke-dasharray: 0.8,1.32; stroke-dashoffset: 0; stroke: #b0b0b0; stroke-width: 0.8"/>
     </g>
     <g id="line2d_32">
      <g>
       <use xlink:href="#m5c76887ae8" x="43.376968" y="6.459489" style="stroke: #000000; stroke-width: 0.8"/>
      </g>
     </g>
     <g id="line2d_33">
      <g>
       <use xlink:href="#m754080a550" x="428.99976" y="6.459489" style="stroke: #000000; stroke-width: 0.8"/>
      </g>
     </g>
     <g id="text_12">
      <!-- $\mathdefault{0.0}$ -->
      <g transform="translate(27.146889 9.918738) scale(0.1 -0.1)">
       <use xlink:href="#CMR17-30" transform="scale(0.996264)"/>
       <use xlink:href="#CMMI12-3a" transform="translate(45.690477 0) scale(0.996264)"/>
       <use xlink:href="#CMR17-30" transform="translate(72.787654 0) scale(0.996264)"/>
      </g>
     </g>
    </g>
    <g id="text_13">
     <!-- $y$ -->
     <g transform="translate(12.686116 134.682321) rotate(-90) scale(0.14 -0.14)">
      <defs>
       <path id="CMMI12-79" d="M 1683 -700 
C 1510 -939 1261 -1152 947 -1152 
C 870 -1152 563 -1152 467 -889 
C 486 -895 518 -895 531 -895 
C 723 -895 851 -729 851 -582 
C 851 -435 730 -384 634 -384 
C 531 -384 307 -458 307 -759 
C 307 -1071 582 -1286 947 -1286 
C 1587 -1286 2234 -700 2413 6 
L 3040 2485 
C 3046 2517 3059 2556 3059 2594 
C 3059 2689 2982 2753 2886 2753 
C 2829 2753 2694 2727 2643 2535 
L 2170 658 
C 2138 543 2138 530 2086 460 
C 1958 281 1747 64 1440 64 
C 1082 64 1050 415 1050 588 
C 1050 952 1222 1443 1395 1903 
C 1466 2088 1504 2178 1504 2305 
C 1504 2574 1312 2816 998 2816 
C 410 2816 173 1890 173 1839 
C 173 1814 198 1782 243 1782 
C 301 1782 307 1807 333 1897 
C 486 2433 730 2689 979 2689 
C 1037 2689 1146 2689 1146 2478 
C 1146 2312 1075 2127 979 1884 
C 666 1047 666 837 666 683 
C 666 77 1101 -64 1421 -64 
C 1606 -64 1837 -6 2061 230 
L 2067 224 
C 1971 -147 1907 -392 1683 -700 
z
" transform="scale(0.015625)"/>
      </defs>
      <use xlink:href="#CMMI12-79" transform="scale(0.996264)"/>
     </g>
    </g>
   </g>
   <g id="line2d_34">
    <path d="M 155.5214 256.246178 
L 150.973604 252.257633 
L 146.772157 248.301188 
L 141.935412 243.400774 
L 137.48018 238.550518 
L 132.544044 232.796419 
L 127.962917 227.114547 
L 122.276663 219.651071 
L 116.303312 211.408143 
L 108.820231 200.670368 
L 99.441526 186.802748 
L 91.207616 174.268322 
L 85.59655 165.363312 
L 81.366463 158.257962 
L 77.957534 152.078525 
L 75.305039 146.776849 
L 73.320925 142.310801 
L 71.901246 138.644269 
L 70.715508 135.027894 
L 69.786664 131.461676 
L 69.141026 127.945617 
L 68.844682 125.168883 
L 68.752223 122.424249 
L 68.883047 119.711717 
L 69.244487 117.031286 
L 69.84733 114.382956 
L 70.707017 111.766727 
L 71.831208 109.182599 
L 73.233421 106.630571 
L 74.91635 104.110645 
L 76.899355 101.62282 
L 79.184201 99.167095 
L 81.779222 96.743472 
L 84.691169 94.35195 
L 87.927942 91.992528 
L 91.494332 89.665208 
L 95.388348 87.369988 
L 99.620861 85.10687 
L 104.185187 82.875852 
L 110.364831 80.132222 
L 117.067098 77.43875 
L 124.282007 74.795436 
L 132.005477 72.202279 
L 140.224322 69.65928 
L 150.717369 66.67389 
L 161.869774 63.760727 
L 173.643175 60.919791 
L 185.995299 58.151082 
L 201.073579 55.012209 
L 216.790762 51.971645 
L 235.42039 48.617093 
L 254.625797 45.390946 
L 276.735881 41.915012 
L 301.677773 38.243464 
L 329.23317 34.436489 
L 359.007355 30.560297 
L 392.77593 26.403221 
L 429.302114 22.133792 
L 433 21.712746 
L 433 21.712746 
" clip-path="url(#pfc078090de)" style="fill: none; stroke: #5e4fa2; stroke-width: 1.5; stroke-linecap: square"/>
   </g>
   <g id="line2d_35">
    <path d="M 155.5214 256.246178 
L 155.447117 159.822885 
L 155.219771 158.257962 
L 154.777566 156.701065 
L 154.133968 155.152193 
L 153.273017 153.611347 
L 152.171524 152.078525 
L 150.861287 150.553729 
L 149.344169 149.036958 
L 146.749584 146.776849 
L 143.836214 144.534797 
L 139.51604 141.573482 
L 134.861471 138.644269 
L 126.29626 133.595388 
L 116.699215 127.945617 
L 112.329577 125.168883 
L 108.398532 122.424249 
L 105.856035 120.386841 
L 103.688209 118.367489 
L 102.509371 117.031286 
L 101.548433 115.703109 
L 100.809013 114.382956 
L 100.33592 113.070829 
L 100.126969 111.766727 
L 100.177354 110.47065 
L 100.477363 109.182599 
L 101.014838 107.902572 
L 108.339599 93.759085 
L 137.835592 36.831021 
L 138.623309 36.136838 
L 139.874703 35.450679 
L 141.572168 34.772546 
L 144.912574 33.770394 
L 149.153563 32.786299 
L 154.233179 31.82026 
L 162.212039 30.560297 
L 171.445435 29.332435 
L 184.55166 27.842749 
L 199.169611 26.403221 
L 218.37834 24.741996 
L 242.609671 22.895187 
L 272.020254 20.904926 
L 306.389225 18.819366 
L 348.875819 16.491043 
L 397.812893 14.052372 
L 433 12.418932 
L 433 12.418932 
" clip-path="url(#pfc078090de)" style="fill: none; stroke: #fee08b; stroke-width: 1.5; stroke-linecap: square"/>
   </g>
   <g id="line2d_36">
    <path d="M 155.5214 256.246178 
L 155.466488 134.310637 
L 155.297935 132.882144 
L 154.888954 131.461676 
L 154.006122 130.049233 
L 152.493912 128.644816 
L 150.461484 127.248424 
L 147.317218 125.168883 
L 145.757399 123.792553 
L 145.216493 123.107398 
L 144.845767 122.424249 
L 144.467105 121.063971 
L 144.394207 119.711717 
L 144.555907 117.031286 
L 154.146449 13.370227 
L 154.439312 13.204706 
L 155.883382 12.879684 
L 158.757426 12.562686 
L 165.510001 12.102238 
L 178.739815 11.516395 
L 198.769082 10.962654 
L 236.312489 10.19223 
L 287.739541 9.38469 
L 359.078112 8.490879 
L 433 7.716283 
L 433 7.716283 
" clip-path="url(#pfc078090de)" style="fill: none; stroke: #9e0142; stroke-width: 1.5; stroke-linecap: square"/>
   </g>
   <g id="line2d_37"/>
   <g id="line2d_38">
    <defs>
     <path id="mcc75fa8e75" d="M 0 -3 
L -3 3 
L 3 3 
z
" style="stroke: #5e4fa2; stroke-linejoin: miter"/>
    </defs>
    <g clip-path="url(#pfc078090de)">
     <use xlink:href="#mcc75fa8e75" x="131.783479" y="232.169239" style="fill: #5e4fa2; stroke: #5e4fa2; stroke-linejoin: miter"/>
     <use xlink:href="#mcc75fa8e75" x="111.142174" y="204.707691" style="fill: #5e4fa2; stroke: #5e4fa2; stroke-linejoin: miter"/>
     <use xlink:href="#mcc75fa8e75" x="94.628288" y="179.881392" style="fill: #5e4fa2; stroke: #5e4fa2; stroke-linejoin: miter"/>
     <use xlink:href="#mcc75fa8e75" x="79.494416" y="156.181631" style="fill: #5e4fa2; stroke: #5e4fa2; stroke-linejoin: miter"/>
     <use xlink:href="#mcc75fa8e75" x="69.173764" y="131.352834" style="fill: #5e4fa2; stroke: #5e4fa2; stroke-linejoin: miter"/>
     <use xlink:href="#mcc75fa8e75" x="72.611176" y="106.524037" style="fill: #5e4fa2; stroke: #5e4fa2; stroke-linejoin: miter"/>
     <use xlink:href="#mcc75fa8e75" x="104.263141" y="82.449596" style="fill: #5e4fa2; stroke: #5e4fa2; stroke-linejoin: miter"/>
     <use xlink:href="#mcc75fa8e75" x="196.459007" y="55.739905" style="fill: #5e4fa2; stroke: #5e4fa2; stroke-linejoin: miter"/>
     <use xlink:href="#mcc75fa8e75" x="315.834415" y="36.179109" style="fill: #5e4fa2; stroke: #5e4fa2; stroke-linejoin: miter"/>
     <use xlink:href="#mcc75fa8e75" x="436.240625" y="21.129461" style="fill: #5e4fa2; stroke: #5e4fa2; stroke-linejoin: miter"/>
    </g>
   </g>
   <g id="line2d_39">
    <defs>
     <path id="mcd649fbdd7" d="M 0 -3 
L -3 3 
L 3 3 
z
" style="stroke: #fee08b; stroke-linejoin: miter"/>
    </defs>
    <g clip-path="url(#pfc078090de)">
     <use xlink:href="#mcd649fbdd7" x="154.831393" y="163.517866" style="fill: #fee08b; stroke: #fee08b; stroke-linejoin: miter"/>
     <use xlink:href="#mcd649fbdd7" x="139.352518" y="140.380125" style="fill: #fee08b; stroke: #fee08b; stroke-linejoin: miter"/>
     <use xlink:href="#mcd649fbdd7" x="102.887334" y="118.186577" style="fill: #fee08b; stroke: #fee08b; stroke-linejoin: miter"/>
     <use xlink:href="#mcd649fbdd7" x="107.014754" y="94.863994" style="fill: #fee08b; stroke: #fee08b; stroke-linejoin: miter"/>
     <use xlink:href="#mcd649fbdd7" x="120.08702" y="68.154304" style="fill: #fee08b; stroke: #fee08b; stroke-linejoin: miter"/>
     <use xlink:href="#mcd649fbdd7" x="133.849292" y="42.196471" style="fill: #fee08b; stroke: #fee08b; stroke-linejoin: miter"/>
     <use xlink:href="#mcd649fbdd7" x="161.36963" y="30.15925" style="fill: #fee08b; stroke: #fee08b; stroke-linejoin: miter"/>
     <use xlink:href="#mcd649fbdd7" x="245.310657" y="22.448335" style="fill: #fee08b; stroke: #fee08b; stroke-linejoin: miter"/>
     <use xlink:href="#mcd649fbdd7" x="348.517182" y="16.241136" style="fill: #fee08b; stroke: #fee08b; stroke-linejoin: miter"/>
     <use xlink:href="#mcd649fbdd7" x="100.821521" y="106.149357" style="fill: #fee08b; stroke: #fee08b; stroke-linejoin: miter"/>
    </g>
   </g>
   <g id="line2d_40">
    <defs>
     <path id="m54cdc96cb7" d="M 0 -3 
L -3 3 
L 3 3 
z
" style="stroke: #9e0142; stroke-linejoin: miter"/>
    </defs>
    <g clip-path="url(#pfc078090de)">
     <use xlink:href="#m54cdc96cb7" x="154.831393" y="142.261019" style="fill: #9e0142; stroke: #9e0142; stroke-linejoin: miter"/>
     <use xlink:href="#m54cdc96cb7" x="151.738984" y="119.315613" style="fill: #9e0142; stroke: #9e0142; stroke-linejoin: miter"/>
     <use xlink:href="#m54cdc96cb7" x="145.545751" y="111.792038" style="fill: #9e0142; stroke: #9e0142; stroke-linejoin: miter"/>
     <use xlink:href="#m54cdc96cb7" x="143.479938" y="94.863994" style="fill: #9e0142; stroke: #9e0142; stroke-linejoin: miter"/>
     <use xlink:href="#m54cdc96cb7" x="144.855744" y="75.677879" style="fill: #9e0142; stroke: #9e0142; stroke-linejoin: miter"/>
     <use xlink:href="#m54cdc96cb7" x="147.607357" y="49.720046" style="fill: #9e0142; stroke: #9e0142; stroke-linejoin: miter"/>
     <use xlink:href="#m54cdc96cb7" x="155.866404" y="13.983064" style="fill: #9e0142; stroke: #9e0142; stroke-linejoin: miter"/>
     <use xlink:href="#m54cdc96cb7" x="150.363178" y="30.15925" style="fill: #9e0142; stroke: #9e0142; stroke-linejoin: miter"/>
     <use xlink:href="#m54cdc96cb7" x="215.724506" y="10.598455" style="fill: #9e0142; stroke: #9e0142; stroke-linejoin: miter"/>
     <use xlink:href="#m54cdc96cb7" x="319.616831" y="9.092241" style="fill: #9e0142; stroke: #9e0142; stroke-linejoin: miter"/>
    </g>
   </g>
   <g id="line2d_41"/>
   <g id="line2d_42">
    <defs>
     <path id="mb208d808e6" d="M 0 3 
C 0.795609 3 1.55874 2.683901 2.12132 2.12132 
C 2.683901 1.55874 3 0.795609 3 0 
C 3 -0.795609 2.683901 -1.55874 2.12132 -2.12132 
C 1.55874 -2.683901 0.795609 -3 0 -3 
C -0.795609 -3 -1.55874 -2.683901 -2.12132 -2.12132 
C -2.683901 -1.55874 -3 -0.795609 -3 0 
C -3 0.795609 -2.683901 1.55874 -2.12132 2.12132 
C -1.55874 2.683901 -0.795609 3 0 3 
z
" style="stroke: #5e4fa2"/>
    </defs>
    <g clip-path="url(#pfc078090de)">
     <use xlink:href="#mb208d808e6" x="131.791893" y="231.784568" style="fill: #ffffff; fill-opacity: 0; stroke: #5e4fa2"/>
     <use xlink:href="#mb208d808e6" x="112.551639" y="206.978252" style="fill: #ffffff; fill-opacity: 0; stroke: #5e4fa2"/>
     <use xlink:href="#mb208d808e6" x="96.517392" y="181.137819" style="fill: #ffffff; fill-opacity: 0; stroke: #5e4fa2"/>
     <use xlink:href="#mb208d808e6" x="80.483146" y="154.607975" style="fill: #ffffff; fill-opacity: 0; stroke: #5e4fa2"/>
     <use xlink:href="#mb208d808e6" x="71.500433" y="131.180481" style="fill: #ffffff; fill-opacity: 0; stroke: #5e4fa2"/>
     <use xlink:href="#mb208d808e6" x="75.350167" y="107.063576" style="fill: #ffffff; fill-opacity: 0; stroke: #5e4fa2"/>
     <use xlink:href="#mb208d808e6" x="110.624668" y="81.223143" style="fill: #ffffff; fill-opacity: 0; stroke: #5e4fa2"/>
     <use xlink:href="#mb208d808e6" x="196.568398" y="56.416827" style="fill: #ffffff; fill-opacity: 0; stroke: #5e4fa2"/>
     <use xlink:href="#mb208d808e6" x="354.344375" y="31.265805" style="fill: #ffffff; fill-opacity: 0; stroke: #5e4fa2"/>
     <use xlink:href="#mb208d808e6" x="155.5214" y="256.246178" style="fill: #ffffff; fill-opacity: 0; stroke: #5e4fa2"/>
    </g>
   </g>
   <g id="line2d_43">
    <defs>
     <path id="m2d753f15b8" d="M 0 3 
C 0.795609 3 1.55874 2.683901 2.12132 2.12132 
C 2.683901 1.55874 3 0.795609 3 0 
C 3 -0.795609 2.683901 -1.55874 2.12132 -2.12132 
C 1.55874 -2.683901 0.795609 -3 0 -3 
C -0.795609 -3 -1.55874 -2.683901 -2.12132 -2.12132 
C -2.683901 -1.55874 -3 -0.795609 -3 0 
C -3 0.795609 -2.683901 1.55874 -2.12132 2.12132 
C -1.55874 2.683901 -0.795609 3 0 3 
z
" style="stroke: #fee08b"/>
    </defs>
    <g clip-path="url(#pfc078090de)">
     <use xlink:href="#m2d753f15b8" x="154.881882" y="163.223118" style="fill: #ffffff; fill-opacity: 0; stroke: #fee08b"/>
     <use xlink:href="#m2d753f15b8" x="143.976406" y="143.584888" style="fill: #ffffff; fill-opacity: 0; stroke: #fee08b"/>
     <use xlink:href="#m2d753f15b8" x="115.757647" y="123.944161" style="fill: #ffffff; fill-opacity: 0; stroke: #fee08b"/>
     <use xlink:href="#m2d753f15b8" x="105.815657" y="111.542251" style="fill: #ffffff; fill-opacity: 0; stroke: #fee08b"/>
     <use xlink:href="#m2d753f15b8" x="113.830676" y="89.146377" style="fill: #ffffff; fill-opacity: 0; stroke: #fee08b"/>
     <use xlink:href="#m2d753f15b8" x="126.019396" y="63.653147" style="fill: #ffffff; fill-opacity: 0; stroke: #fee08b"/>
     <use xlink:href="#m2d753f15b8" x="141.090158" y="36.433892" style="fill: #ffffff; fill-opacity: 0; stroke: #fee08b"/>
     <use xlink:href="#m2d753f15b8" x="190.795901" y="27.131836" style="fill: #ffffff; fill-opacity: 0; stroke: #fee08b"/>
     <use xlink:href="#m2d753f15b8" x="276.739631" y="20.584926" style="fill: #ffffff; fill-opacity: 0; stroke: #fee08b"/>
     <use xlink:href="#m2d753f15b8" x="396.674618" y="14.038017" style="fill: #ffffff; fill-opacity: 0; stroke: #fee08b"/>
    </g>
   </g>
   <g id="line2d_44">
    <defs>
     <path id="mbcad022600" d="M 0 3 
C 0.795609 3 1.55874 2.683901 2.12132 2.12132 
C 2.683901 1.55874 3 0.795609 3 0 
C 3 -0.795609 2.683901 -1.55874 2.12132 -2.12132 
C 1.55874 -2.683901 0.795609 -3 0 -3 
C -0.795609 -3 -1.55874 -2.683901 -2.12132 -2.12132 
C -2.683901 -1.55874 -3 -0.795609 -3 0 
C -3 0.795609 -2.683901 1.55874 -2.12132 2.12132 
C -1.55874 2.683901 -0.795609 3 0 3 
z
" style="stroke: #9e0142"/>
    </defs>
    <g clip-path="url(#pfc078090de)">
     <use xlink:href="#mbcad022600" x="154.557915" y="135.314451" style="fill: #ffffff; fill-opacity: 0; stroke: #9e0142"/>
     <use xlink:href="#mbcad022600" x="150.388422" y="121.361366" style="fill: #ffffff; fill-opacity: 0; stroke: #9e0142"/>
     <use xlink:href="#mbcad022600" x="134.034416" y="105.684754" style="fill: #ffffff; fill-opacity: 0; stroke: #9e0142"/>
     <use xlink:href="#mbcad022600" x="131.472134" y="86.046524" style="fill: #ffffff; fill-opacity: 0; stroke: #9e0142"/>
     <use xlink:href="#mbcad022600" x="135.63742" y="62.619031" style="fill: #ffffff; fill-opacity: 0; stroke: #9e0142"/>
     <use xlink:href="#mbcad022600" x="140.450639" y="38.846831" style="fill: #ffffff; fill-opacity: 0; stroke: #9e0142"/>
     <use xlink:href="#mbcad022600" x="143.336887" y="27.821247" style="fill: #ffffff; fill-opacity: 0; stroke: #9e0142"/>
     <use xlink:href="#mbcad022600" x="168.349639" y="21.101985" style="fill: #ffffff; fill-opacity: 0; stroke: #9e0142"/>
     <use xlink:href="#mbcad022600" x="229.27641" y="16.278604" style="fill: #ffffff; fill-opacity: 0; stroke: #9e0142"/>
     <use xlink:href="#mbcad022600" x="322.919608" y="12.48934" style="fill: #ffffff; fill-opacity: 0; stroke: #9e0142"/>
    </g>
   </g>
   <g id="line2d_45">
    <path d="M 155.5214 256.246178 
L 155.5214 6.459489 
" clip-path="url(#pfc078090de)" style="fill: none; stroke-dasharray: 5.55,2.4; stroke-dashoffset: 0; stroke: #000000; stroke-opacity: 0.75; stroke-width: 1.5"/>
   </g>
   <g id="patch_3">
    <path d="M 43.376968 256.246178 
L 43.376968 6.459489 
" style="fill: none; stroke: #000000; stroke-width: 0.8; stroke-linejoin: miter; stroke-linecap: square"/>
   </g>
   <g id="patch_4">
    <path d="M 428.99976 256.246178 
L 428.99976 6.459489 
" style="fill: none; stroke: #000000; stroke-width: 0.8; stroke-linejoin: miter; stroke-linecap: square"/>
   </g>
   <g id="patch_5">
    <path d="M 43.376968 256.246178 
L 428.99976 256.246178 
" style="fill: none; stroke: #000000; stroke-width: 0.8; stroke-linejoin: miter; stroke-linecap: square"/>
   </g>
   <g id="patch_6">
    <path d="M 43.376968 6.459489 
L 428.99976 6.459489 
" style="fill: none; stroke: #000000; stroke-width: 0.8; stroke-linejoin: miter; stroke-linecap: square"/>
   </g>
   <g id="legend_1">
    <g id="patch_7">
     <path d="M 312.874342 250.246178 
L 420.59976 250.246178 
Q 422.99976 250.246178 422.99976 247.846178 
L 422.99976 165.4232 
Q 422.99976 163.0232 420.59976 163.0232 
L 312.874342 163.0232 
Q 310.474342 163.0232 310.474342 165.4232 
L 310.474342 247.846178 
Q 310.474342 250.246178 312.874342 250.246178 
z
" style="fill: #ffffff; opacity: 0.8; stroke: #cccccc; stroke-linejoin: miter"/>
    </g>
    <g id="line2d_46">
     <path d="M 315.274342 172.0232 
L 327.274342 172.0232 
L 339.274342 172.0232 
" style="fill: none; stroke: #5e4fa2; stroke-width: 1.5; stroke-linecap: square"/>
    </g>
    <g id="text_14">
     <!-- $Bn=0$ -->
     <g transform="translate(348.874342 176.2232) scale(0.12 -0.12)">
      <defs>
       <path id="CMMI12-42" d="M 2342 3921 
C 2400 4160 2426 4160 2675 4160 
L 3507 4160 
C 4230 4160 4230 3544 4230 3485 
C 4230 2966 3712 2304 2867 2304 
L 1946 2304 
L 2342 3921 
z
M 3424 2275 
C 4122 2402 4755 2886 4755 3473 
C 4755 3970 4314 4352 3590 4352 
L 1536 4352 
C 1414 4352 1357 4352 1357 4226 
C 1357 4160 1414 4160 1510 4160 
C 1901 4160 1901 4112 1901 4044 
C 1901 4032 1901 3993 1875 3897 
L 1011 472 
C 954 249 941 185 493 185 
C 371 185 307 185 307 70 
C 307 0 346 0 474 0 
L 2669 0 
C 3648 0 4403 739 4403 1383 
C 4403 1906 3942 2224 3424 2275 
z
M 2515 185 
L 1651 185 
C 1562 185 1549 185 1510 192 
C 1440 198 1434 211 1434 261 
C 1434 305 1446 343 1459 399 
L 1907 2176 
L 3110 2176 
C 3866 2176 3866 1483 3866 1433 
C 3866 828 3309 185 2515 185 
z
" transform="scale(0.015625)"/>
       <path id="CMMI12-6e" d="M 1318 1871 
C 1331 1910 1491 2229 1728 2433 
C 1894 2586 2112 2689 2362 2689 
C 2618 2689 2707 2497 2707 2242 
C 2707 1878 2445 1150 2317 805 
C 2259 651 2227 568 2227 453 
C 2227 166 2426 -64 2733 -64 
C 3328 -64 3552 875 3552 913 
C 3552 945 3526 971 3488 971 
C 3430 971 3424 952 3392 843 
C 3245 319 3002 64 2752 64 
C 2688 64 2586 64 2586 269 
C 2586 429 2656 621 2694 710 
C 2822 1063 3091 1780 3091 2145 
C 3091 2528 2867 2816 2381 2816 
C 1811 2816 1510 2415 1395 2255 
C 1376 2618 1114 2816 832 2816 
C 627 2816 486 2695 378 2478 
C 262 2248 173 1865 173 1839 
C 173 1814 198 1782 243 1782 
C 294 1782 301 1788 339 1935 
C 442 2325 557 2689 813 2689 
C 960 2689 1011 2586 1011 2395 
C 1011 2254 947 2005 902 1807 
L 723 1118 
C 698 996 627 709 595 594 
C 550 428 480 128 480 96 
C 480 6 550 -64 646 -64 
C 723 -64 813 -26 864 70 
C 877 102 934 326 966 453 
L 1107 1028 
L 1318 1871 
z
" transform="scale(0.015625)"/>
       <path id="CMR17-3d" d="M 4115 2017 
C 4211 2017 4307 2017 4307 2125 
C 4307 2240 4198 2240 4090 2240 
L 512 2240 
C 403 2240 294 2240 294 2125 
C 294 2017 390 2017 486 2017 
L 4115 2017 
z
M 4090 896 
C 4198 896 4307 896 4307 1011 
C 4307 1119 4211 1119 4115 1119 
L 486 1119 
C 390 1119 294 1119 294 1011 
C 294 896 403 896 512 896 
L 4090 896 
z
" transform="scale(0.015625)"/>
      </defs>
      <use xlink:href="#CMMI12-42" transform="scale(0.996264)"/>
      <use xlink:href="#CMMI12-6e" transform="translate(79.135523 0) scale(0.996264)"/>
      <use xlink:href="#CMR17-3d" transform="translate(165.039579 0) scale(0.996264)"/>
      <use xlink:href="#CMR17-30" transform="translate(264.428376 0) scale(0.996264)"/>
     </g>
    </g>
    <g id="line2d_47">
     <path d="M 315.274342 188.747795 
L 327.274342 188.747795 
L 339.274342 188.747795 
" style="fill: none; stroke: #fee08b; stroke-width: 1.5; stroke-linecap: square"/>
    </g>
    <g id="text_15">
     <!-- $Bn=20$ -->
     <g transform="translate(348.874342 192.947795) scale(0.12 -0.12)">
      <use xlink:href="#CMMI12-42" transform="scale(0.996264)"/>
      <use xlink:href="#CMMI12-6e" transform="translate(79.135523 0) scale(0.996264)"/>
      <use xlink:href="#CMR17-3d" transform="translate(165.039579 0) scale(0.996264)"/>
      <use xlink:href="#CMR17-32" transform="translate(264.428376 0) scale(0.996264)"/>
      <use xlink:href="#CMR17-30" transform="translate(310.118854 0) scale(0.996264)"/>
     </g>
    </g>
    <g id="line2d_48">
     <path d="M 315.274342 205.472391 
L 327.274342 205.472391 
L 339.274342 205.472391 
" style="fill: none; stroke: #9e0142; stroke-width: 1.5; stroke-linecap: square"/>
    </g>
    <g id="text_16">
     <!-- $Bn=500$ -->
     <g transform="translate(348.874342 209.672391) scale(0.12 -0.12)">
      <defs>
       <path id="CMR17-35" d="M 730 3692 
C 794 3666 1056 3584 1325 3584 
C 1920 3584 2246 3911 2432 4100 
C 2432 4157 2432 4192 2394 4192 
C 2387 4192 2374 4192 2323 4163 
C 2099 4058 1837 3973 1517 3973 
C 1325 3973 1037 3999 723 4139 
C 653 4171 640 4171 634 4171 
C 602 4171 595 4164 595 4037 
L 595 2203 
C 595 2089 595 2057 659 2057 
C 691 2057 704 2070 736 2114 
C 941 2401 1222 2522 1542 2522 
C 1766 2522 2246 2382 2246 1289 
C 2246 1085 2246 715 2054 421 
C 1894 159 1645 25 1370 25 
C 947 25 518 320 403 814 
C 429 807 480 795 506 795 
C 589 795 749 840 749 1038 
C 749 1210 627 1280 506 1280 
C 358 1280 262 1190 262 1011 
C 262 454 704 -128 1382 -128 
C 2042 -128 2669 440 2669 1264 
C 2669 2030 2170 2624 1549 2624 
C 1222 2624 947 2503 730 2274 
L 730 3692 
z
" transform="scale(0.015625)"/>
      </defs>
      <use xlink:href="#CMMI12-42" transform="scale(0.996264)"/>
      <use xlink:href="#CMMI12-6e" transform="translate(79.135523 0) scale(0.996264)"/>
      <use xlink:href="#CMR17-3d" transform="translate(165.039579 0) scale(0.996264)"/>
      <use xlink:href="#CMR17-35" transform="translate(264.428376 0) scale(0.996264)"/>
      <use xlink:href="#CMR17-30" transform="translate(310.118854 0) scale(0.996264)"/>
      <use xlink:href="#CMR17-30" transform="translate(355.809331 0) scale(0.996264)"/>
     </g>
    </g>
    <g id="line2d_49">
     <defs>
      <path id="mee0cc8141a" d="M 0 -3 
L -3 3 
L 3 3 
z
" style="stroke: #000000; stroke-linejoin: miter"/>
     </defs>
     <g>
      <use xlink:href="#mee0cc8141a" x="327.274342" y="222.196987" style="stroke: #000000; stroke-linejoin: miter"/>
     </g>
    </g>
    <g id="text_17">
     <!-- Syrakos et al. -->
     <g transform="translate(348.874342 226.396987) scale(0.12 -0.12)">
      <defs>
       <path id="CMR17-53" d="M 2803 4290 
C 2803 4404 2797 4411 2758 4411 
C 2720 4411 2707 4385 2682 4328 
L 2490 3907 
C 2246 4257 1875 4416 1472 4416 
C 819 4416 294 3901 294 3253 
C 294 3056 339 2776 557 2510 
C 794 2218 1018 2167 1530 2033 
C 1722 1982 2042 1899 2106 1874 
C 2470 1722 2662 1341 2662 985 
C 2662 527 2336 38 1779 38 
C 1094 38 454 419 410 1311 
C 403 1413 397 1419 352 1419 
C 301 1419 294 1413 294 1285 
L 294 -1 
C 294 -115 301 -122 339 -122 
C 384 -122 397 -90 486 108 
C 493 127 493 140 614 381 
C 934 -39 1472 -128 1779 -128 
C 2477 -128 2970 451 2970 1124 
C 2970 1454 2848 1708 2778 1823 
C 2509 2230 2221 2306 1914 2382 
C 1869 2402 1856 2402 1498 2490 
C 1152 2579 1005 2624 845 2796 
C 666 2992 602 3196 602 3399 
C 602 3812 934 4263 1478 4263 
C 2157 4263 2579 3786 2675 2993 
C 2694 2878 2701 2872 2746 2872 
C 2803 2872 2803 2891 2803 2999 
L 2803 4290 
z
" transform="scale(0.015625)"/>
       <path id="CMR17-79" d="M 2496 2197 
C 2656 2586 2944 2586 3034 2586 
L 3034 2752 
C 2912 2752 2752 2752 2630 2752 
C 2496 2752 2285 2752 2157 2758 
L 2157 2592 
C 2400 2573 2406 2394 2406 2343 
C 2406 2280 2394 2248 2362 2171 
L 1664 449 
L 902 2306 
C 870 2382 870 2426 870 2433 
C 870 2573 1018 2586 1171 2586 
L 1171 2758 
C 1018 2752 742 2752 582 2752 
C 410 2752 205 2752 64 2758 
L 64 2586 
C 410 2586 448 2554 531 2350 
L 1485 15 
C 1197 -738 1030 -1178 627 -1178 
C 557 -1178 397 -1159 282 -1044 
C 429 -1031 493 -942 493 -833 
C 493 -725 416 -629 288 -629 
C 147 -629 77 -725 77 -840 
C 77 -1095 339 -1280 627 -1280 
C 998 -1280 1229 -922 1357 -604 
L 2496 2197 
z
" transform="scale(0.015625)"/>
       <path id="CMR17-72" d="M 960 1497 
C 960 2112 1222 2688 1702 2688 
C 1747 2688 1792 2682 1837 2662 
C 1837 2662 1696 2617 1696 2452 
C 1696 2298 1818 2234 1914 2234 
C 1990 2234 2131 2279 2131 2458 
C 2131 2663 1926 2790 1709 2790 
C 1222 2790 1011 2317 947 2093 
L 941 2093 
L 941 2790 
L 198 2720 
L 198 2554 
C 576 2554 634 2515 634 2208 
L 634 428 
C 634 184 608 153 198 153 
L 198 -13 
C 352 0 646 0 813 0 
C 998 0 1325 0 1498 -13 
L 1498 153 
C 1037 153 960 153 960 440 
L 960 1497 
z
" transform="scale(0.015625)"/>
       <path id="CMR17-61" d="M 2304 1653 
C 2304 2072 2304 2294 2035 2543 
C 1798 2752 1523 2816 1306 2816 
C 800 2816 435 2407 435 1971 
C 435 1728 627 1728 666 1728 
C 749 1728 896 1778 896 1954 
C 896 2112 774 2181 666 2181 
C 640 2181 608 2174 589 2168 
C 723 2592 1069 2714 1293 2714 
C 1613 2714 1965 2429 1965 1885 
L 1965 1600 
C 1587 1600 1133 1549 774 1357 
C 371 1133 256 813 256 570 
C 256 77 832 -64 1171 -64 
C 1523 -64 1850 139 1990 511 
C 2003 233 2182 -18 2464 -18 
C 2598 -18 2938 70 2938 567 
L 2938 920 
L 2822 920 
L 2822 562 
C 2822 178 2650 128 2566 128 
C 2304 128 2304 458 2304 738 
L 2304 1653 
z
M 1965 870 
C 1965 317 1568 38 1216 38 
C 896 38 646 275 646 570 
C 646 761 730 1100 1101 1305 
C 1408 1478 1760 1504 1965 1504 
L 1965 870 
z
" transform="scale(0.015625)"/>
       <path id="CMR17-6b" d="M 1670 1673 
C 1664 1686 1632 1724 1632 1743 
C 1632 1756 2086 2171 2144 2222 
C 2509 2528 2739 2560 2906 2560 
L 2906 2733 
C 2867 2733 2854 2733 2848 2720 
L 2534 2720 
C 2355 2720 2080 2720 1907 2733 
L 1907 2566 
C 1997 2559 2061 2508 2061 2419 
C 2061 2291 1933 2170 1926 2170 
L 960 1289 
L 960 4396 
L 198 4326 
L 198 4160 
C 576 4160 634 4122 634 3817 
L 634 426 
C 634 184 608 153 198 153 
L 198 -13 
C 352 0 634 0 794 0 
C 954 0 1235 0 1389 -13 
L 1389 153 
C 979 153 954 178 954 428 
L 954 1130 
L 1395 1532 
L 2042 574 
C 2118 459 2182 369 2182 286 
C 2182 172 2067 153 1990 153 
L 1990 -13 
C 2144 0 2419 0 2579 0 
C 2694 0 2931 0 3040 0 
L 3040 153 
C 2739 153 2669 210 2477 491 
L 1670 1673 
z
" transform="scale(0.015625)"/>
       <path id="CMR17-6f" d="M 2758 1356 
C 2758 2176 2163 2816 1466 2816 
C 768 2816 173 2176 173 1356 
C 173 551 768 -64 1466 -64 
C 2163 -64 2758 551 2758 1356 
z
M 1466 51 
C 1165 51 909 230 762 480 
C 602 767 582 1126 582 1408 
C 582 1677 595 2010 762 2298 
C 890 2509 1139 2714 1466 2714 
C 1754 2714 1997 2554 2150 2330 
C 2349 2029 2349 1607 2349 1408 
C 2349 1158 2336 775 2163 467 
C 1984 173 1709 51 1466 51 
z
" transform="scale(0.015625)"/>
       <path id="CMR17-73" d="M 1978 2697 
C 1978 2813 1971 2819 1933 2819 
C 1907 2819 1901 2813 1824 2717 
C 1805 2691 1747 2626 1728 2601 
C 1523 2819 1235 2819 1126 2819 
C 416 2819 160 2447 160 2076 
C 160 1498 813 1365 998 1325 
C 1402 1243 1542 1217 1677 1101 
C 1760 1025 1901 884 1901 654 
C 1901 384 1747 38 1158 38 
C 602 38 403 460 288 1021 
C 269 1110 269 1117 218 1117 
C 166 1117 160 1110 160 983 
L 160 63 
C 160 -51 166 -58 205 -58 
C 237 -58 243 -51 275 0 
C 314 57 410 211 448 276 
C 576 103 800 -64 1158 -64 
C 1792 -64 2131 283 2131 784 
C 2131 1112 1958 1285 1875 1362 
C 1683 1561 1459 1606 1190 1657 
C 838 1735 390 1825 390 2217 
C 390 2383 480 2737 1126 2737 
C 1811 2737 1850 2094 1862 1888 
C 1869 1856 1901 1849 1920 1849 
C 1978 1849 1978 1869 1978 1978 
L 1978 2697 
z
" transform="scale(0.015625)"/>
       <path id="CMR17-65" d="M 2438 1472 
C 2464 1498 2464 1511 2464 1576 
C 2464 2238 2118 2816 1389 2816 
C 710 2816 173 2169 173 1383 
C 173 551 781 -64 1459 -64 
C 2176 -64 2458 607 2458 740 
C 2458 784 2419 784 2406 784 
C 2362 784 2355 771 2330 696 
C 2189 265 1837 51 1504 51 
C 1229 51 954 203 781 480 
C 582 803 582 1176 582 1472 
L 2438 1472 
z
M 589 1568 
C 634 2505 1126 2714 1382 2714 
C 1818 2714 2112 2297 2118 1568 
L 589 1568 
z
" transform="scale(0.015625)"/>
       <path id="CMR17-74" d="M 966 2560 
L 1862 2560 
L 1862 2725 
L 966 2725 
L 966 3904 
L 851 3904 
C 838 3245 614 2668 70 2668 
L 70 2560 
L 627 2560 
L 627 771 
C 627 650 627 -64 1370 -64 
C 1747 -64 1965 306 1965 777 
L 1965 1140 
L 1850 1140 
L 1850 783 
C 1850 344 1677 51 1408 51 
C 1222 51 966 178 966 758 
L 966 2560 
z
" transform="scale(0.015625)"/>
       <path id="CMR17-6c" d="M 979 4396 
L 218 4326 
L 218 4160 
C 595 4160 653 4122 653 3817 
L 653 426 
C 653 184 627 153 218 153 
L 218 -13 
C 371 0 653 0 813 0 
C 979 0 1261 0 1414 -13 
L 1414 153 
C 1005 153 979 178 979 426 
L 979 4396 
z
" transform="scale(0.015625)"/>
       <path id="CMR17-2e" d="M 1062 261 
C 1062 420 934 522 800 522 
C 672 522 538 420 538 261 
C 538 102 666 0 800 0 
C 928 0 1062 102 1062 261 
z
" transform="scale(0.015625)"/>
      </defs>
      <use xlink:href="#CMR17-53" transform="scale(0.996264)"/>
      <use xlink:href="#CMR17-79" transform="translate(50.89537 0) scale(0.996264)"/>
      <use xlink:href="#CMR17-72" transform="translate(99.188286 0) scale(0.996264)"/>
      <use xlink:href="#CMR17-61" transform="translate(134.469053 0) scale(0.996264)"/>
      <use xlink:href="#CMR17-6b" transform="translate(180.159531 0) scale(0.996264)"/>
      <use xlink:href="#CMR17-6f" transform="translate(225.849992 0) scale(0.996264)"/>
      <use xlink:href="#CMR17-73" transform="translate(271.54047 0) scale(0.996264)"/>
      <use xlink:href="#CMR17-65" transform="translate(337.417774 0) scale(0.996264)"/>
      <use xlink:href="#CMR17-74" transform="translate(377.903434 0) scale(0.996264)"/>
      <use xlink:href="#CMR17-61" transform="translate(443.260168 0) scale(0.996264)"/>
      <use xlink:href="#CMR17-6c" transform="translate(488.950645 0) scale(0.996264)"/>
      <use xlink:href="#CMR17-2e" transform="translate(513.821704 0) scale(0.996264)"/>
     </g>
    </g>
    <g id="line2d_50">
     <defs>
      <path id="m10bb281dd2" d="M 0 3 
C 0.795609 3 1.55874 2.683901 2.12132 2.12132 
C 2.683901 1.55874 3 0.795609 3 0 
C 3 -0.795609 2.683901 -1.55874 2.12132 -2.12132 
C 1.55874 -2.683901 0.795609 -3 0 -3 
C -0.795609 -3 -1.55874 -2.683901 -2.12132 -2.12132 
C -2.683901 -1.55874 -3 -0.795609 -3 0 
C -3 0.795609 -2.683901 1.55874 -2.12132 2.12132 
C -1.55874 2.683901 -0.795609 3 0 3 
z
" style="stroke: #000000"/>
     </defs>
     <g>
      <use xlink:href="#m10bb281dd2" x="327.274342" y="238.921583" style="fill: #ffffff; fill-opacity: 0; stroke: #000000"/>
     </g>
    </g>
    <g id="text_18">
     <!-- Bleyer et al. -->
     <g transform="translate(348.874342 243.121583) scale(0.12 -0.12)">
      <defs>
       <path id="CMR17-42" d="M 333 4352 
L 333 4186 
C 774 4186 845 4186 845 3900 
L 845 452 
C 845 166 774 166 333 166 
L 333 0 
L 2534 0 
C 3354 0 3885 583 3885 1164 
C 3885 1741 3360 2233 2675 2233 
C 3290 2356 3718 2771 3718 3264 
C 3718 3802 3194 4352 2368 4352 
L 333 4352 
z
M 1248 2304 
L 1248 3937 
C 1248 4155 1261 4186 1517 4186 
L 2336 4186 
C 2970 4186 3251 3674 3251 3277 
C 3251 2791 2861 2304 2170 2304 
L 1248 2304 
z
M 1517 166 
C 1261 166 1248 197 1248 413 
L 1248 2202 
L 2432 2202 
C 3091 2202 3411 1625 3411 1162 
C 3411 699 3046 166 2349 166 
L 1517 166 
z
" transform="scale(0.015625)"/>
      </defs>
      <use xlink:href="#CMR17-42" transform="scale(0.996264)"/>
      <use xlink:href="#CMR17-6c" transform="translate(65.188754 0) scale(0.996264)"/>
      <use xlink:href="#CMR17-65" transform="translate(90.059813 0) scale(0.996264)"/>
      <use xlink:href="#CMR17-79" transform="translate(130.545473 0) scale(0.996264)"/>
      <use xlink:href="#CMR17-65" transform="translate(176.235935 0) scale(0.996264)"/>
      <use xlink:href="#CMR17-72" transform="translate(216.721596 0) scale(0.996264)"/>
      <use xlink:href="#CMR17-65" transform="translate(282.07833 0) scale(0.996264)"/>
      <use xlink:href="#CMR17-74" transform="translate(322.56399 0) scale(0.996264)"/>
      <use xlink:href="#CMR17-61" transform="translate(387.920725 0) scale(0.996264)"/>
      <use xlink:href="#CMR17-6c" transform="translate(433.611202 0) scale(0.996264)"/>
      <use xlink:href="#CMR17-2e" transform="translate(458.48226 0) scale(0.996264)"/>
     </g>
    </g>
   </g>
  </g>
 </g>
 <defs>
  <clipPath id="pfc078090de">
   <rect x="43.376968" y="6.459489" width="385.622792" height="249.786689"/>
  </clipPath>
 </defs>
</svg>
