<?xml version="1.0" encoding="utf-8" standalone="no"?>
<!DOCTYPE svg PUBLIC "-//W3C//DTD SVG 1.1//EN"
  "http://www.w3.org/Graphics/SVG/1.1/DTD/svg11.dtd">
<svg xmlns:xlink="http://www.w3.org/1999/xlink" width="504pt" height="432pt" viewBox="0 0 504 432" xmlns="http://www.w3.org/2000/svg" version="1.1">
 <metadata>
  <rdf:RDF xmlns:dc="http://purl.org/dc/elements/1.1/" xmlns:cc="http://creativecommons.org/ns#" xmlns:rdf="http://www.w3.org/1999/02/22-rdf-syntax-ns#">
   <cc:Work>
    <dc:type rdf:resource="http://purl.org/dc/dcmitype/StillImage"/>
    <dc:date>2023-05-13T01:13:42.977006</dc:date>
    <dc:format>image/svg+xml</dc:format>
    <dc:creator>
     <cc:Agent>
      <dc:title>Matplotlib v3.7.1, https://matplotlib.org/</dc:title>
     </cc:Agent>
    </dc:creator>
   </cc:Work>
  </rdf:RDF>
 </metadata>
 <defs>
  <style type="text/css">*{stroke-linejoin: round; stroke-linecap: butt}</style>
 </defs>
 <g id="figure_1">
  <g id="patch_1">
   <path d="M 0 432 
L 504 432 
L 504 0 
L 0 0 
L 0 432 
z
" style="fill: none"/>
  </g>
  <g id="axes_1">
   <g id="patch_2">
    <path d="M 44.926759 398.192737 
L 269.963019 398.192737 
L 269.963019 20.069828 
L 44.926759 20.069828 
L 44.926759 398.192737 
z
" style="fill: none"/>
   </g>
   <g id="line2d_1">
    <defs>
     <path id="m0c766bc141" d="M 0 2.5 
C 0.663008 2.5 1.29895 2.236584 1.767767 1.767767 
C 2.236584 1.29895 2.5 0.663008 2.5 0 
C 2.5 -0.663008 2.236584 -1.29895 1.767767 -1.767767 
C 1.29895 -2.236584 0.663008 -2.5 0 -2.5 
C -0.663008 -2.5 -1.29895 -2.236584 -1.767767 -1.767767 
C -2.236584 -1.29895 -2.5 -0.663008 -2.5 0 
C -2.5 0.663008 -2.236584 1.29895 -1.767767 1.767767 
C -1.29895 2.236584 -0.663008 2.5 0 2.5 
z
" style="stroke: #7a0403"/>
    </defs>
    <g clip-path="url(#pc2dd5494b0)">
     <use xlink:href="#m0c766bc141" x="129.206684" y="29.064932" style="fill: #7a0403; stroke: #7a0403"/>
    </g>
   </g>
   <g id="line2d_2">
    <defs>
     <path id="m3ddfc72a4c" d="M 0 2.5 
C 0.663008 2.5 1.29895 2.236584 1.767767 1.767767 
C 2.236584 1.29895 2.5 0.663008 2.5 0 
C 2.5 -0.663008 2.236584 -1.29895 1.767767 -1.767767 
C 1.29895 -2.236584 0.663008 -2.5 0 -2.5 
C -0.663008 -2.5 -1.29895 -2.236584 -1.767767 -1.767767 
C -2.236584 -1.29895 -2.5 -0.663008 -2.5 0 
C -2.5 0.663008 -2.236584 1.29895 -1.767767 1.767767 
C -1.29895 2.236584 -0.663008 2.5 0 2.5 
z
" style="stroke: #d02f05"/>
    </defs>
    <g clip-path="url(#pc2dd5494b0)">
     <use xlink:href="#m3ddfc72a4c" x="129.206684" y="34.675359" style="fill: #d02f05; stroke: #d02f05"/>
    </g>
   </g>
   <g id="line2d_3">
    <defs>
     <path id="m65d8ed1ba7" d="M 0 2.5 
C 0.663008 2.5 1.29895 2.236584 1.767767 1.767767 
C 2.236584 1.29895 2.5 0.663008 2.5 0 
C 2.5 -0.663008 2.236584 -1.29895 1.767767 -1.767767 
C 1.29895 -2.236584 0.663008 -2.5 0 -2.5 
C -0.663008 -2.5 -1.29895 -2.236584 -1.767767 -1.767767 
C -2.236584 -1.29895 -2.5 -0.663008 -2.5 0 
C -2.5 0.663008 -2.236584 1.29895 -1.767767 1.767767 
C -1.29895 2.236584 -0.663008 2.5 0 2.5 
z
" style="stroke: #fb7e21"/>
    </defs>
    <g clip-path="url(#pc2dd5494b0)">
     <use xlink:href="#m65d8ed1ba7" x="129.206684" y="47.070421" style="fill: #fb7e21; stroke: #fb7e21"/>
    </g>
   </g>
   <g id="line2d_4">
    <defs>
     <path id="me9267fb3be" d="M 0 2.5 
C 0.663008 2.5 1.29895 2.236584 1.767767 1.767767 
C 2.236584 1.29895 2.5 0.663008 2.5 0 
C 2.5 -0.663008 2.236584 -1.29895 1.767767 -1.767767 
C 1.29895 -2.236584 0.663008 -2.5 0 -2.5 
C -0.663008 -2.5 -1.29895 -2.236584 -1.767767 -1.767767 
C -2.236584 -1.29895 -2.5 -0.663008 -2.5 0 
C -2.5 0.663008 -2.236584 1.29895 -1.767767 1.767767 
C -1.29895 2.236584 -0.663008 2.5 0 2.5 
z
" style="stroke: #eecf3a"/>
    </defs>
    <g clip-path="url(#pc2dd5494b0)">
     <use xlink:href="#me9267fb3be" x="129.206684" y="58.185087" style="fill: #eecf3a; stroke: #eecf3a"/>
    </g>
   </g>
   <g id="line2d_5">
    <defs>
     <path id="mdc72fe9e9c" d="M 0 2.5 
C 0.663008 2.5 1.29895 2.236584 1.767767 1.767767 
C 2.236584 1.29895 2.5 0.663008 2.5 0 
C 2.5 -0.663008 2.236584 -1.29895 1.767767 -1.767767 
C 1.29895 -2.236584 0.663008 -2.5 0 -2.5 
C -0.663008 -2.5 -1.29895 -2.236584 -1.767767 -1.767767 
C -2.236584 -1.29895 -2.5 -0.663008 -2.5 0 
C -2.5 0.663008 -2.236584 1.29895 -1.767767 1.767767 
C -1.29895 2.236584 -0.663008 2.5 0 2.5 
z
" style="stroke: #a4fc3c"/>
    </defs>
    <g clip-path="url(#pc2dd5494b0)">
     <use xlink:href="#mdc72fe9e9c" x="129.206684" y="67.86344" style="fill: #a4fc3c; stroke: #a4fc3c"/>
    </g>
   </g>
   <g id="line2d_6">
    <defs>
     <path id="m8d626fbc26" d="M 0 2.5 
C 0.663008 2.5 1.29895 2.236584 1.767767 1.767767 
C 2.236584 1.29895 2.5 0.663008 2.5 0 
C 2.5 -0.663008 2.236584 -1.29895 1.767767 -1.767767 
C 1.29895 -2.236584 0.663008 -2.5 0 -2.5 
C -0.663008 -2.5 -1.29895 -2.236584 -1.767767 -1.767767 
C -2.236584 -1.29895 -2.5 -0.663008 -2.5 0 
C -2.5 0.663008 -2.236584 1.29895 -1.767767 1.767767 
C -1.29895 2.236584 -0.663008 2.5 0 2.5 
z
" style="stroke: #32f298"/>
    </defs>
    <g clip-path="url(#pc2dd5494b0)">
     <use xlink:href="#m8d626fbc26" x="129.206684" y="77.910311" style="fill: #32f298; stroke: #32f298"/>
    </g>
   </g>
   <g id="line2d_7">
    <defs>
     <path id="mf7bc3f4b90" d="M 0 2.5 
C 0.663008 2.5 1.29895 2.236584 1.767767 1.767767 
C 2.236584 1.29895 2.5 0.663008 2.5 0 
C 2.5 -0.663008 2.236584 -1.29895 1.767767 -1.767767 
C 1.29895 -2.236584 0.663008 -2.5 0 -2.5 
C -0.663008 -2.5 -1.29895 -2.236584 -1.767767 -1.767767 
C -2.236584 -1.29895 -2.5 -0.663008 -2.5 0 
C -2.5 0.663008 -2.236584 1.29895 -1.767767 1.767767 
C -1.29895 2.236584 -0.663008 2.5 0 2.5 
z
" style="stroke: #28bceb"/>
    </defs>
    <g clip-path="url(#pc2dd5494b0)">
     <use xlink:href="#mf7bc3f4b90" x="129.206684" y="90.256499" style="fill: #28bceb; stroke: #28bceb"/>
    </g>
   </g>
   <g id="line2d_8">
    <defs>
     <path id="me338b3c2d4" d="M 0 2.5 
C 0.663008 2.5 1.29895 2.236584 1.767767 1.767767 
C 2.236584 1.29895 2.5 0.663008 2.5 0 
C 2.5 -0.663008 2.236584 -1.29895 1.767767 -1.767767 
C 1.29895 -2.236584 0.663008 -2.5 0 -2.5 
C -0.663008 -2.5 -1.29895 -2.236584 -1.767767 -1.767767 
C -2.236584 -1.29895 -2.5 -0.663008 -2.5 0 
C -2.5 0.663008 -2.236584 1.29895 -1.767767 1.767767 
C -1.29895 2.236584 -0.663008 2.5 0 2.5 
z
" style="stroke: #466be3"/>
    </defs>
    <g clip-path="url(#pc2dd5494b0)">
     <use xlink:href="#me338b3c2d4" x="129.206684" y="97.83123" style="fill: #466be3; stroke: #466be3"/>
    </g>
   </g>
   <g id="line2d_9">
    <defs>
     <path id="m36d679a17b" d="M 0 2.5 
C 0.663008 2.5 1.29895 2.236584 1.767767 1.767767 
C 2.236584 1.29895 2.5 0.663008 2.5 0 
C 2.5 -0.663008 2.236584 -1.29895 1.767767 -1.767767 
C 1.29895 -2.236584 0.663008 -2.5 0 -2.5 
C -0.663008 -2.5 -1.29895 -2.236584 -1.767767 -1.767767 
C -2.236584 -1.29895 -2.5 -0.663008 -2.5 0 
C -2.5 0.663008 -2.236584 1.29895 -1.767767 1.767767 
C -1.29895 2.236584 -0.663008 2.5 0 2.5 
z
" style="stroke: #30123b"/>
    </defs>
    <g clip-path="url(#pc2dd5494b0)">
     <use xlink:href="#m36d679a17b" x="129.206684" y="109.565907" style="fill: #30123b; stroke: #30123b"/>
    </g>
   </g>
   <g id="matplotlib.axis_1">
    <g id="xtick_1">
     <g id="line2d_10">
      <path d="M 66.648313 398.192737 
L 66.648313 20.069828 
" clip-path="url(#pc2dd5494b0)" style="fill: none; stroke-dasharray: 0.8,1.32; stroke-dashoffset: 0; stroke: #b0b0b0; stroke-width: 0.8"/>
     </g>
     <g id="line2d_11">
      <defs>
       <path id="md76fe4d20d" d="M 0 0 
L 0 -3.5 
" style="stroke: #000000; stroke-width: 0.8"/>
      </defs>
      <g>
       <use xlink:href="#md76fe4d20d" x="66.648313" y="398.192737" style="stroke: #000000; stroke-width: 0.8"/>
      </g>
     </g>
     <g id="line2d_12">
      <defs>
       <path id="m50108451c6" d="M 0 0 
L 0 3.5 
" style="stroke: #000000; stroke-width: 0.8"/>
      </defs>
      <g>
       <use xlink:href="#m50108451c6" x="66.648313" y="20.069828" style="stroke: #000000; stroke-width: 0.8"/>
      </g>
     </g>
     <g id="text_1">
      <!-- $\mathdefault{−0.2}$ -->
      <g transform="translate(56.408901 408.611235) scale(0.1 -0.1)">
       <defs>
        <path id="CMSY10-0" d="M 4218 1472 
C 4326 1472 4442 1472 4442 1600 
C 4442 1728 4326 1728 4218 1728 
L 755 1728 
C 646 1728 531 1728 531 1600 
C 531 1472 646 1472 755 1472 
L 4218 1472 
z
" transform="scale(0.015625)"/>
        <path id="CMR17-30" d="M 2688 2025 
C 2688 2416 2682 3080 2413 3591 
C 2176 4039 1798 4198 1466 4198 
C 1158 4198 768 4058 525 3597 
C 269 3118 243 2524 243 2025 
C 243 1661 250 1106 448 619 
C 723 -39 1216 -128 1466 -128 
C 1760 -128 2208 -7 2470 600 
C 2662 1042 2688 1559 2688 2025 
z
M 1466 -26 
C 1056 -26 813 325 723 812 
C 653 1188 653 1738 653 2096 
C 653 2588 653 2997 736 3387 
C 858 3929 1216 4096 1466 4096 
C 1728 4096 2067 3923 2189 3400 
C 2272 3036 2278 2607 2278 2096 
C 2278 1680 2278 1169 2202 792 
C 2067 95 1690 -26 1466 -26 
z
" transform="scale(0.015625)"/>
        <path id="CMMI12-3a" d="M 1178 307 
C 1178 492 1024 619 870 619 
C 685 619 557 466 557 313 
C 557 128 710 0 864 0 
C 1050 0 1178 153 1178 307 
z
" transform="scale(0.015625)"/>
        <path id="CMR17-32" d="M 2669 989 
L 2554 989 
C 2490 536 2438 459 2413 420 
C 2381 369 1920 369 1830 369 
L 602 369 
C 832 619 1280 1072 1824 1597 
C 2214 1967 2669 2402 2669 3035 
C 2669 3790 2067 4224 1395 4224 
C 691 4224 262 3604 262 3030 
C 262 2780 448 2748 525 2748 
C 589 2748 781 2787 781 3010 
C 781 3207 614 3264 525 3264 
C 486 3264 448 3258 422 3245 
C 544 3790 915 4058 1306 4058 
C 1862 4058 2227 3617 2227 3035 
C 2227 2479 1901 2000 1536 1584 
L 262 146 
L 262 0 
L 2515 0 
L 2669 989 
z
" transform="scale(0.015625)"/>
       </defs>
       <use xlink:href="#CMSY10-0" transform="scale(0.996264)"/>
       <use xlink:href="#CMR17-30" transform="translate(77.487468 0) scale(0.996264)"/>
       <use xlink:href="#CMMI12-3a" transform="translate(123.177945 0) scale(0.996264)"/>
       <use xlink:href="#CMR17-32" transform="translate(150.275122 0) scale(0.996264)"/>
      </g>
     </g>
    </g>
    <g id="xtick_2">
     <g id="line2d_13">
      <path d="M 129.206684 398.192737 
L 129.206684 20.069828 
" clip-path="url(#pc2dd5494b0)" style="fill: none; stroke-dasharray: 0.8,1.32; stroke-dashoffset: 0; stroke: #b0b0b0; stroke-width: 0.8"/>
     </g>
     <g id="line2d_14">
      <g>
       <use xlink:href="#md76fe4d20d" x="129.206684" y="398.192737" style="stroke: #000000; stroke-width: 0.8"/>
      </g>
     </g>
     <g id="line2d_15">
      <g>
       <use xlink:href="#m50108451c6" x="129.206684" y="20.069828" style="stroke: #000000; stroke-width: 0.8"/>
      </g>
     </g>
     <g id="text_2">
      <!-- $\mathdefault{0.0}$ -->
      <g transform="translate(122.841644 408.611235) scale(0.1 -0.1)">
       <use xlink:href="#CMR17-30" transform="scale(0.996264)"/>
       <use xlink:href="#CMMI12-3a" transform="translate(45.690477 0) scale(0.996264)"/>
       <use xlink:href="#CMR17-30" transform="translate(72.787654 0) scale(0.996264)"/>
      </g>
     </g>
    </g>
    <g id="xtick_3">
     <g id="line2d_16">
      <path d="M 191.765055 398.192737 
L 191.765055 20.069828 
" clip-path="url(#pc2dd5494b0)" style="fill: none; stroke-dasharray: 0.8,1.32; stroke-dashoffset: 0; stroke: #b0b0b0; stroke-width: 0.8"/>
     </g>
     <g id="line2d_17">
      <g>
       <use xlink:href="#md76fe4d20d" x="191.765055" y="398.192737" style="stroke: #000000; stroke-width: 0.8"/>
      </g>
     </g>
     <g id="line2d_18">
      <g>
       <use xlink:href="#m50108451c6" x="191.765055" y="20.069828" style="stroke: #000000; stroke-width: 0.8"/>
      </g>
     </g>
     <g id="text_3">
      <!-- $\mathdefault{0.2}$ -->
      <g transform="translate(185.400016 408.611235) scale(0.1 -0.1)">
       <use xlink:href="#CMR17-30" transform="scale(0.996264)"/>
       <use xlink:href="#CMMI12-3a" transform="translate(45.690477 0) scale(0.996264)"/>
       <use xlink:href="#CMR17-32" transform="translate(72.787654 0) scale(0.996264)"/>
      </g>
     </g>
    </g>
    <g id="xtick_4">
     <g id="line2d_19">
      <path d="M 254.323427 398.192737 
L 254.323427 20.069828 
" clip-path="url(#pc2dd5494b0)" style="fill: none; stroke-dasharray: 0.8,1.32; stroke-dashoffset: 0; stroke: #b0b0b0; stroke-width: 0.8"/>
     </g>
     <g id="line2d_20">
      <g>
       <use xlink:href="#md76fe4d20d" x="254.323427" y="398.192737" style="stroke: #000000; stroke-width: 0.8"/>
      </g>
     </g>
     <g id="line2d_21">
      <g>
       <use xlink:href="#m50108451c6" x="254.323427" y="20.069828" style="stroke: #000000; stroke-width: 0.8"/>
      </g>
     </g>
     <g id="text_4">
      <!-- $\mathdefault{0.4}$ -->
      <g transform="translate(247.958387 408.611235) scale(0.1 -0.1)">
       <defs>
        <path id="CMR17-34" d="M 2150 4122 
C 2150 4256 2144 4256 2029 4256 
L 128 1254 
L 128 1088 
L 1779 1088 
L 1779 457 
C 1779 224 1766 160 1318 160 
L 1197 160 
L 1197 0 
C 1402 0 1747 0 1965 0 
C 2182 0 2528 0 2733 0 
L 2733 160 
L 2611 160 
C 2163 160 2150 224 2150 457 
L 2150 1088 
L 2803 1088 
L 2803 1254 
L 2150 1254 
L 2150 4122 
z
M 1798 3703 
L 1798 1254 
L 256 1254 
L 1798 3703 
z
" transform="scale(0.015625)"/>
       </defs>
       <use xlink:href="#CMR17-30" transform="scale(0.996264)"/>
       <use xlink:href="#CMMI12-3a" transform="translate(45.690477 0) scale(0.996264)"/>
       <use xlink:href="#CMR17-34" transform="translate(72.787654 0) scale(0.996264)"/>
      </g>
     </g>
    </g>
    <g id="text_5">
     <!-- $u/U_{\infty}$ -->
     <g transform="translate(140.489346 425.009186) scale(0.14 -0.14)">
      <defs>
       <path id="CMMI12-75" d="M 2182 370 
C 2266 13 2573 -64 2726 -64 
C 2931 -64 3085 70 3187 287 
C 3296 517 3379 894 3379 913 
C 3379 945 3354 971 3315 971 
C 3258 971 3251 939 3226 843 
C 3110 402 2995 64 2739 64 
C 2547 64 2547 275 2547 358 
C 2547 505 2566 568 2630 837 
C 2675 1009 2720 1181 2758 1360 
L 3021 2401 
C 3066 2561 3066 2574 3066 2593 
C 3066 2689 2989 2753 2893 2753 
C 2707 2753 2662 2593 2624 2433 
C 2560 2184 2214 811 2170 588 
C 2163 588 1914 64 1446 64 
C 1114 64 1050 351 1050 588 
C 1050 952 1229 1462 1395 1890 
C 1472 2095 1504 2178 1504 2305 
C 1504 2580 1306 2816 998 2816 
C 410 2816 173 1890 173 1839 
C 173 1814 198 1782 243 1782 
C 301 1782 307 1807 333 1896 
C 486 2441 736 2682 979 2682 
C 1043 2682 1146 2682 1146 2478 
C 1146 2312 1075 2127 979 1884 
C 698 1124 666 881 666 690 
C 666 38 1158 -64 1421 -64 
C 1830 -64 2054 217 2182 370 
z
" transform="scale(0.015625)"/>
       <path id="CMMI12-3d" d="M 2746 4562 
C 2746 4569 2784 4666 2784 4678 
C 2784 4755 2720 4800 2669 4800 
C 2637 4800 2579 4800 2528 4659 
L 384 -1363 
C 384 -1370 346 -1465 346 -1478 
C 346 -1555 410 -1600 461 -1600 
C 499 -1600 557 -1593 602 -1459 
L 2746 4562 
z
" transform="scale(0.015625)"/>
       <path id="CMMI12-55" d="M 3238 1474 
C 3014 581 2272 57 1670 57 
C 1210 57 896 363 896 891 
C 896 916 896 1107 966 1387 
L 1594 3887 
C 1651 4103 1664 4167 2118 4167 
C 2234 4167 2298 4167 2298 4282 
C 2298 4352 2240 4352 2202 4352 
C 2086 4352 1952 4352 1830 4352 
L 1075 4352 
C 954 4352 819 4352 698 4352 
C 653 4352 576 4352 576 4231 
C 576 4167 621 4167 742 4167 
C 1126 4167 1126 4116 1126 4046 
C 1126 4008 1082 3824 1050 3715 
L 493 1488 
C 474 1418 435 1246 435 1075 
C 435 374 941 -128 1638 -128 
C 2285 -128 3002 384 3328 1197 
C 3373 1305 3430 1530 3469 1702 
C 3533 1933 3667 2496 3712 2662 
L 3955 3623 
C 4038 3956 4090 4167 4653 4167 
C 4704 4173 4730 4224 4730 4282 
C 4730 4352 4672 4352 4646 4352 
C 4557 4352 4442 4352 4352 4352 
L 4051 4352 
C 3654 4352 3450 4352 3443 4352 
C 3405 4352 3328 4352 3328 4231 
C 3328 4167 3379 4167 3424 4167 
C 3808 4167 3834 4020 3834 3905 
C 3834 3848 3834 3828 3808 3739 
L 3238 1474 
z
" transform="scale(0.015625)"/>
       <path id="CMSY10-31" d="M 3251 1730 
C 2906 2166 2829 2262 2630 2422 
C 2272 2710 1914 2825 1587 2825 
C 838 2825 352 2122 352 1374 
C 352 639 826 -70 1562 -70 
C 2298 -70 2829 511 3142 1022 
C 3488 588 3565 492 3763 332 
C 4122 45 4480 -70 4806 -70 
C 5555 -70 6042 633 6042 1380 
C 6042 2115 5568 2825 4832 2825 
C 4096 2825 3565 2242 3251 1730 
z
M 3418 1514 
C 3680 1975 4154 2620 4877 2620 
C 5555 2620 5901 1955 5901 1380 
C 5901 753 5472 236 4909 236 
C 4538 236 4250 505 4115 638 
C 3955 811 3808 1009 3418 1514 
z
M 2976 1240 
C 2714 780 2240 134 1517 134 
C 838 134 493 799 493 1374 
C 493 2000 922 2518 1485 2518 
C 1856 2518 2144 2249 2278 2115 
C 2438 1943 2586 1744 2976 1240 
z
" transform="scale(0.015625)"/>
      </defs>
      <use xlink:href="#CMMI12-75" transform="scale(0.996264)"/>
      <use xlink:href="#CMMI12-3d" transform="translate(55.52033 0) scale(0.996264)"/>
      <use xlink:href="#CMMI12-55" transform="translate(104.295248 0) scale(0.996264)"/>
      <use xlink:href="#CMSY10-31" transform="translate(170.547368 -14.943915) scale(0.697382)"/>
     </g>
    </g>
   </g>
   <g id="matplotlib.axis_2">
    <g id="ytick_1">
     <g id="line2d_22">
      <path d="M 44.926759 398.192737 
L 269.963019 398.192737 
" clip-path="url(#pc2dd5494b0)" style="fill: none; stroke-dasharray: 0.8,1.32; stroke-dashoffset: 0; stroke: #b0b0b0; stroke-width: 0.8"/>
     </g>
     <g id="line2d_23">
      <defs>
       <path id="m820a3bd327" d="M 0 0 
L 3.5 0 
" style="stroke: #000000; stroke-width: 0.8"/>
      </defs>
      <g>
       <use xlink:href="#m820a3bd327" x="44.926759" y="398.192737" style="stroke: #000000; stroke-width: 0.8"/>
      </g>
     </g>
     <g id="line2d_24">
      <defs>
       <path id="ma61074e7dc" d="M 0 0 
L -3.5 0 
" style="stroke: #000000; stroke-width: 0.8"/>
      </defs>
      <g>
       <use xlink:href="#ma61074e7dc" x="269.963019" y="398.192737" style="stroke: #000000; stroke-width: 0.8"/>
      </g>
     </g>
     <g id="text_6">
      <!-- $\mathdefault{−1.0}$ -->
      <g transform="translate(20.947936 401.651986) scale(0.1 -0.1)">
       <defs>
        <path id="CMR17-31" d="M 1702 4058 
C 1702 4192 1696 4192 1606 4192 
C 1357 3916 979 3827 621 3827 
C 602 3827 570 3827 563 3808 
C 557 3795 557 3782 557 3648 
C 755 3648 1088 3686 1344 3839 
L 1344 461 
C 1344 236 1331 160 781 160 
L 589 160 
L 589 0 
C 896 0 1216 0 1523 0 
C 1830 0 2150 0 2458 0 
L 2458 160 
L 2266 160 
C 1715 160 1702 230 1702 458 
L 1702 4058 
z
" transform="scale(0.015625)"/>
       </defs>
       <use xlink:href="#CMSY10-0" transform="scale(0.996264)"/>
       <use xlink:href="#CMR17-31" transform="translate(77.487468 0) scale(0.996264)"/>
       <use xlink:href="#CMMI12-3a" transform="translate(123.177945 0) scale(0.996264)"/>
       <use xlink:href="#CMR17-30" transform="translate(150.275122 0) scale(0.996264)"/>
      </g>
     </g>
    </g>
    <g id="ytick_2">
     <g id="line2d_25">
      <path d="M 44.926759 322.568155 
L 269.963019 322.568155 
" clip-path="url(#pc2dd5494b0)" style="fill: none; stroke-dasharray: 0.8,1.32; stroke-dashoffset: 0; stroke: #b0b0b0; stroke-width: 0.8"/>
     </g>
     <g id="line2d_26">
      <g>
       <use xlink:href="#m820a3bd327" x="44.926759" y="322.568155" style="stroke: #000000; stroke-width: 0.8"/>
      </g>
     </g>
     <g id="line2d_27">
      <g>
       <use xlink:href="#ma61074e7dc" x="269.963019" y="322.568155" style="stroke: #000000; stroke-width: 0.8"/>
      </g>
     </g>
     <g id="text_7">
      <!-- $\mathdefault{−0.8}$ -->
      <g transform="translate(20.947936 326.027404) scale(0.1 -0.1)">
       <defs>
        <path id="CMR17-38" d="M 1741 2264 
C 2144 2467 2554 2773 2554 3263 
C 2554 3841 1990 4179 1472 4179 
C 890 4179 378 3759 378 3180 
C 378 3021 416 2747 666 2505 
C 730 2442 998 2251 1171 2130 
C 883 1983 211 1634 211 934 
C 211 279 838 -128 1459 -128 
C 2144 -128 2720 362 2720 1010 
C 2720 1590 2330 1857 2074 2029 
L 1741 2264 
z
M 902 2822 
C 851 2854 595 3051 595 3351 
C 595 3739 998 4032 1459 4032 
C 1965 4032 2336 3676 2336 3262 
C 2336 2669 1670 2331 1638 2331 
C 1632 2331 1626 2331 1574 2370 
L 902 2822 
z
M 2080 1519 
C 2176 1449 2483 1240 2483 851 
C 2483 381 2010 25 1472 25 
C 890 25 448 438 448 940 
C 448 1443 838 1862 1280 2060 
L 2080 1519 
z
" transform="scale(0.015625)"/>
       </defs>
       <use xlink:href="#CMSY10-0" transform="scale(0.996264)"/>
       <use xlink:href="#CMR17-30" transform="translate(77.487468 0) scale(0.996264)"/>
       <use xlink:href="#CMMI12-3a" transform="translate(123.177945 0) scale(0.996264)"/>
       <use xlink:href="#CMR17-38" transform="translate(150.275122 0) scale(0.996264)"/>
      </g>
     </g>
    </g>
    <g id="ytick_3">
     <g id="line2d_28">
      <path d="M 44.926759 246.943573 
L 269.963019 246.943573 
" clip-path="url(#pc2dd5494b0)" style="fill: none; stroke-dasharray: 0.8,1.32; stroke-dashoffset: 0; stroke: #b0b0b0; stroke-width: 0.8"/>
     </g>
     <g id="line2d_29">
      <g>
       <use xlink:href="#m820a3bd327" x="44.926759" y="246.943573" style="stroke: #000000; stroke-width: 0.8"/>
      </g>
     </g>
     <g id="line2d_30">
      <g>
       <use xlink:href="#ma61074e7dc" x="269.963019" y="246.943573" style="stroke: #000000; stroke-width: 0.8"/>
      </g>
     </g>
     <g id="text_8">
      <!-- $\mathdefault{−0.6}$ -->
      <g transform="translate(20.947936 250.402823) scale(0.1 -0.1)">
       <defs>
        <path id="CMR17-36" d="M 678 2176 
C 678 3690 1395 4032 1811 4032 
C 1946 4032 2272 4009 2400 3776 
C 2298 3776 2106 3776 2106 3553 
C 2106 3381 2246 3323 2336 3323 
C 2394 3323 2566 3348 2566 3560 
C 2566 3954 2246 4179 1805 4179 
C 1043 4179 243 3390 243 1984 
C 243 253 966 -128 1478 -128 
C 2099 -128 2688 427 2688 1283 
C 2688 2081 2170 2662 1517 2662 
C 1126 2662 838 2407 678 1960 
L 678 2176 
z
M 1478 25 
C 691 25 691 1200 691 1436 
C 691 1896 909 2560 1504 2560 
C 1613 2560 1926 2560 2138 2120 
C 2253 1870 2253 1609 2253 1289 
C 2253 944 2253 690 2118 434 
C 1978 171 1773 25 1478 25 
z
" transform="scale(0.015625)"/>
       </defs>
       <use xlink:href="#CMSY10-0" transform="scale(0.996264)"/>
       <use xlink:href="#CMR17-30" transform="translate(77.487468 0) scale(0.996264)"/>
       <use xlink:href="#CMMI12-3a" transform="translate(123.177945 0) scale(0.996264)"/>
       <use xlink:href="#CMR17-36" transform="translate(150.275122 0) scale(0.996264)"/>
      </g>
     </g>
    </g>
    <g id="ytick_4">
     <g id="line2d_31">
      <path d="M 44.926759 171.318992 
L 269.963019 171.318992 
" clip-path="url(#pc2dd5494b0)" style="fill: none; stroke-dasharray: 0.8,1.32; stroke-dashoffset: 0; stroke: #b0b0b0; stroke-width: 0.8"/>
     </g>
     <g id="line2d_32">
      <g>
       <use xlink:href="#m820a3bd327" x="44.926759" y="171.318992" style="stroke: #000000; stroke-width: 0.8"/>
      </g>
     </g>
     <g id="line2d_33">
      <g>
       <use xlink:href="#ma61074e7dc" x="269.963019" y="171.318992" style="stroke: #000000; stroke-width: 0.8"/>
      </g>
     </g>
     <g id="text_9">
      <!-- $\mathdefault{−0.4}$ -->
      <g transform="translate(20.947936 174.778241) scale(0.1 -0.1)">
       <use xlink:href="#CMSY10-0" transform="scale(0.996264)"/>
       <use xlink:href="#CMR17-30" transform="translate(77.487468 0) scale(0.996264)"/>
       <use xlink:href="#CMMI12-3a" transform="translate(123.177945 0) scale(0.996264)"/>
       <use xlink:href="#CMR17-34" transform="translate(150.275122 0) scale(0.996264)"/>
      </g>
     </g>
    </g>
    <g id="ytick_5">
     <g id="line2d_34">
      <path d="M 44.926759 95.69441 
L 269.963019 95.69441 
" clip-path="url(#pc2dd5494b0)" style="fill: none; stroke-dasharray: 0.8,1.32; stroke-dashoffset: 0; stroke: #b0b0b0; stroke-width: 0.8"/>
     </g>
     <g id="line2d_35">
      <g>
       <use xlink:href="#m820a3bd327" x="44.926759" y="95.69441" style="stroke: #000000; stroke-width: 0.8"/>
      </g>
     </g>
     <g id="line2d_36">
      <g>
       <use xlink:href="#ma61074e7dc" x="269.963019" y="95.69441" style="stroke: #000000; stroke-width: 0.8"/>
      </g>
     </g>
     <g id="text_10">
      <!-- $\mathdefault{−0.2}$ -->
      <g transform="translate(20.947936 99.153659) scale(0.1 -0.1)">
       <use xlink:href="#CMSY10-0" transform="scale(0.996264)"/>
       <use xlink:href="#CMR17-30" transform="translate(77.487468 0) scale(0.996264)"/>
       <use xlink:href="#CMMI12-3a" transform="translate(123.177945 0) scale(0.996264)"/>
       <use xlink:href="#CMR17-32" transform="translate(150.275122 0) scale(0.996264)"/>
      </g>
     </g>
    </g>
    <g id="ytick_6">
     <g id="line2d_37">
      <path d="M 44.926759 20.069828 
L 269.963019 20.069828 
" clip-path="url(#pc2dd5494b0)" style="fill: none; stroke-dasharray: 0.8,1.32; stroke-dashoffset: 0; stroke: #b0b0b0; stroke-width: 0.8"/>
     </g>
     <g id="line2d_38">
      <g>
       <use xlink:href="#m820a3bd327" x="44.926759" y="20.069828" style="stroke: #000000; stroke-width: 0.8"/>
      </g>
     </g>
     <g id="line2d_39">
      <g>
       <use xlink:href="#ma61074e7dc" x="269.963019" y="20.069828" style="stroke: #000000; stroke-width: 0.8"/>
      </g>
     </g>
     <g id="text_11">
      <!-- $\mathdefault{0.0}$ -->
      <g transform="translate(28.69668 23.529077) scale(0.1 -0.1)">
       <use xlink:href="#CMR17-30" transform="scale(0.996264)"/>
       <use xlink:href="#CMMI12-3a" transform="translate(45.690477 0) scale(0.996264)"/>
       <use xlink:href="#CMR17-30" transform="translate(72.787654 0) scale(0.996264)"/>
      </g>
     </g>
    </g>
    <g id="text_12">
     <!-- $y/H$ -->
     <g transform="translate(13.461012 221.782974) rotate(-90) scale(0.14 -0.14)">
      <defs>
       <path id="CMMI12-79" d="M 1683 -700 
C 1510 -939 1261 -1152 947 -1152 
C 870 -1152 563 -1152 467 -889 
C 486 -895 518 -895 531 -895 
C 723 -895 851 -729 851 -582 
C 851 -435 730 -384 634 -384 
C 531 -384 307 -458 307 -759 
C 307 -1071 582 -1286 947 -1286 
C 1587 -1286 2234 -700 2413 6 
L 3040 2485 
C 3046 2517 3059 2556 3059 2594 
C 3059 2689 2982 2753 2886 2753 
C 2829 2753 2694 2727 2643 2535 
L 2170 658 
C 2138 543 2138 530 2086 460 
C 1958 281 1747 64 1440 64 
C 1082 64 1050 415 1050 588 
C 1050 952 1222 1443 1395 1903 
C 1466 2088 1504 2178 1504 2305 
C 1504 2574 1312 2816 998 2816 
C 410 2816 173 1890 173 1839 
C 173 1814 198 1782 243 1782 
C 301 1782 307 1807 333 1897 
C 486 2433 730 2689 979 2689 
C 1037 2689 1146 2689 1146 2478 
C 1146 2312 1075 2127 979 1884 
C 666 1047 666 837 666 683 
C 666 77 1101 -64 1421 -64 
C 1606 -64 1837 -6 2061 230 
L 2067 224 
C 1971 -147 1907 -392 1683 -700 
z
" transform="scale(0.015625)"/>
       <path id="CMMI12-48" d="M 4787 3887 
C 4845 4103 4858 4167 5312 4167 
C 5427 4167 5491 4167 5491 4282 
C 5491 4352 5434 4352 5395 4352 
C 5280 4352 5146 4352 5024 4352 
L 4269 4352 
C 4147 4352 4013 4352 3891 4352 
C 3846 4352 3770 4352 3770 4231 
C 3770 4167 3814 4167 3936 4167 
C 4320 4167 4320 4116 4320 4046 
C 4320 4034 4320 3995 4294 3900 
L 3904 2361 
L 1971 2361 
L 2355 3887 
C 2413 4103 2426 4167 2880 4167 
C 2995 4167 3059 4167 3059 4282 
C 3059 4352 3002 4352 2963 4352 
C 2848 4352 2714 4352 2592 4352 
L 1837 4352 
C 1715 4352 1581 4352 1459 4352 
C 1414 4352 1338 4352 1338 4231 
C 1338 4167 1382 4167 1504 4167 
C 1888 4167 1888 4116 1888 4046 
C 1888 4034 1888 3995 1862 3899 
L 998 472 
C 941 249 928 185 486 185 
C 339 185 294 185 294 64 
C 294 0 365 0 384 0 
C 499 0 634 0 755 0 
L 1510 0 
C 1632 0 1766 0 1888 0 
C 1939 0 2010 0 2010 121 
C 2010 185 1952 185 1856 185 
C 1466 185 1466 236 1466 300 
C 1466 307 1466 351 1478 402 
L 1920 2176 
L 3859 2176 
C 3750 1753 3424 416 3411 376 
C 3341 185 3238 185 2861 185 
C 2784 185 2726 185 2726 64 
C 2726 0 2797 0 2816 0 
C 2931 0 3066 0 3187 0 
L 3942 0 
C 4064 0 4198 0 4320 0 
C 4371 0 4442 0 4442 121 
C 4442 185 4384 185 4288 185 
C 3898 185 3898 236 3898 300 
C 3898 307 3898 351 3910 402 
L 4787 3887 
z
" transform="scale(0.015625)"/>
      </defs>
      <use xlink:href="#CMMI12-79" transform="scale(0.996264)"/>
      <use xlink:href="#CMMI12-3d" transform="translate(51.138781 0) scale(0.996264)"/>
      <use xlink:href="#CMMI12-48" transform="translate(99.913699 0) scale(0.996264)"/>
     </g>
    </g>
   </g>
   <g id="line2d_40">
    <path d="M 129.206684 398.192737 
L 125.83221 392.154943 
L 122.715275 386.165743 
L 119.127628 378.747579 
L 115.823758 371.405342 
L 112.162982 362.694883 
L 108.221492 352.67087 
L 104.04467 341.397082 
L 99.176634 327.578188 
L 92.806203 308.741972 
L 85.158939 285.398671 
L 79.637205 267.923085 
L 75.649363 254.609871 
L 72.695655 243.990582 
L 70.367671 234.757738 
L 68.607525 226.838449 
L 67.339192 220.168934 
L 66.32295 213.608756 
L 65.689819 208.225462 
L 65.269721 202.918095 
L 65.080407 197.686657 
L 65.139078 192.531146 
L 65.375939 188.461406 
L 65.791147 184.44026 
L 66.393362 180.467707 
L 67.191452 176.543749 
L 68.192001 172.668384 
L 69.402167 168.841613 
L 70.829896 165.063436 
L 72.481601 161.333854 
L 74.362625 157.652865 
L 76.477261 154.02047 
L 78.8309 150.436669 
L 81.42793 146.901461 
L 84.269717 143.414848 
L 87.358155 139.976829 
L 90.695736 136.587403 
L 94.282378 133.246572 
L 98.116616 129.954334 
L 102.197157 126.71069 
L 106.521383 123.51564 
L 112.2646 119.590163 
L 118.374217 115.740614 
L 124.839117 111.966993 
L 131.645803 108.2693 
L 138.778686 104.647535 
L 146.220229 101.101698 
L 153.951628 97.631789 
L 163.581217 93.568123 
L 173.558644 89.613793 
L 183.841707 85.768799 
L 196.166275 81.421163 
L 208.775142 77.222345 
L 221.594086 73.172346 
L 236.405648 68.726003 
L 253.142094 63.956206 
L 269.807901 59.432417 
L 288.063625 54.69451 
L 309.350471 49.409922 
L 332.96216 43.797325 
L 359.318327 37.78231 
L 388.795048 31.301097 
L 422.282883 24.176014 
L 441.998541 20.069828 
L 441.998541 20.069828 
" clip-path="url(#pc2dd5494b0)" style="fill: none; stroke: #30123b; stroke-width: 1.5; stroke-linecap: square"/>
   </g>
   <g id="line2d_41">
    <path d="M 129.206684 398.192737 
L 128.960838 390.653087 
L 128.590714 384.676036 
L 127.901539 377.273057 
L 126.973174 369.946006 
L 125.81467 362.694883 
L 124.437635 355.519688 
L 122.853299 348.420421 
L 121.074113 341.397082 
L 119.113144 334.449671 
L 116.538526 326.213002 
L 113.74689 318.08567 
L 110.763965 310.067675 
L 107.080005 300.851535 
L 103.221605 291.784215 
L 98.08677 280.344904 
L 91.120584 265.475166 
L 81.023177 243.990582 
L 76.916676 234.757738 
L 73.62825 226.838449 
L 71.092299 220.168934 
L 69.212575 214.694526 
L 67.572243 209.296046 
L 66.19749 203.973494 
L 65.305863 199.770121 
L 64.612443 195.615341 
L 64.131776 191.509155 
L 63.875966 187.451564 
L 63.856009 183.442566 
L 64.083793 179.482162 
L 64.571818 175.570352 
L 65.330979 171.707136 
L 66.370151 167.892513 
L 67.699597 164.126485 
L 69.328459 160.409051 
L 70.752792 157.652865 
L 72.351277 154.924013 
L 74.74618 151.328063 
L 94.562321 122.724471 
L 96.510566 120.369184 
L 98.698306 118.041232 
L 101.120821 115.740614 
L 103.772771 113.46733 
L 107.654612 110.478805 
L 111.918036 107.538873 
L 116.547662 104.647535 
L 121.525841 101.804791 
L 126.837046 99.010641 
L 132.462484 96.265085 
L 139.908428 92.901475 
L 147.781016 89.613793 
L 156.042356 86.402039 
L 164.654205 83.266213 
L 175.39669 79.603447 
L 186.520645 76.050017 
L 199.89096 72.042537 
L 213.582447 68.183877 
L 229.489974 63.956206 
L 245.530557 59.922912 
L 263.556279 55.617795 
L 283.336673 51.122858 
L 304.51505 46.529214 
L 328.384579 41.574154 
L 355.479004 36.180229 
L 386.294149 30.280624 
L 421.812312 23.71589 
L 441.998541 20.069828 
L 441.998541 20.069828 
" clip-path="url(#pc2dd5494b0)" style="fill: none; stroke: #466be3; stroke-width: 1.5; stroke-linecap: square"/>
   </g>
   <g id="line2d_42">
    <path d="M 129.206684 398.192737 
L 129.096045 352.67087 
L 128.746513 347.009679 
L 128.159593 341.397082 
L 127.345186 335.833079 
L 126.313656 330.31767 
L 125.077924 324.850854 
L 123.64921 319.432633 
L 122.039324 314.063005 
L 119.792855 307.419306 
L 117.309513 300.851535 
L 114.616246 294.359692 
L 111.145448 286.669705 
L 107.461091 279.089055 
L 102.961934 270.383151 
L 97.659565 260.615775 
L 79.658639 227.960665 
L 76.31038 221.272927 
L 73.76039 215.783334 
L 71.466582 210.369668 
L 69.466091 205.03193 
L 68.100027 200.816408 
L 66.962647 196.64948 
L 66.073839 192.531146 
L 65.44838 188.461406 
L 65.104505 184.44026 
L 65.042571 181.45629 
L 65.155591 178.499654 
L 65.44998 175.570352 
L 65.934573 172.668384 
L 66.612031 169.79375 
L 67.492787 166.946451 
L 68.579068 164.126485 
L 69.878093 161.333854 
L 71.391882 158.568556 
L 98.417355 111.966993 
L 100.08487 109.739266 
L 102.059611 107.538873 
L 104.333536 105.365814 
L 106.895955 103.220089 
L 109.738285 101.101698 
L 112.849884 99.010641 
L 117.399176 96.265085 
L 122.383223 93.568123 
L 127.777739 90.919754 
L 133.556175 88.31998 
L 139.69286 85.768799 
L 147.827105 82.648159 
L 156.428601 79.603447 
L 165.445747 76.634662 
L 176.743355 73.172346 
L 188.478549 69.819366 
L 202.608695 66.045745 
L 217.085845 62.420943 
L 233.893039 58.460539 
L 252.921117 54.237424 
L 273.932231 49.8336 
L 296.543449 45.340182 
L 322.124826 40.503569 
L 349.500346 35.560657 
L 381.445512 30.033099 
L 417.589368 24.019602 
L 441.998541 20.069828 
L 441.998541 20.069828 
" clip-path="url(#pc2dd5494b0)" style="fill: none; stroke: #28bceb; stroke-width: 1.5; stroke-linecap: square"/>
   </g>
   <g id="line2d_43">
    <path d="M 129.206684 398.192737 
L 129.113377 304.783087 
L 128.812027 300.851535 
L 128.297212 296.947318 
L 127.576314 293.070435 
L 126.659665 289.220886 
L 125.558354 285.398671 
L 123.824961 280.344904 
L 121.812937 275.339731 
L 119.553746 270.383151 
L 117.07702 265.475166 
L 113.721266 259.40852 
L 110.133268 253.417801 
L 105.608734 246.329164 
L 99.38373 237.047727 
L 87.985677 220.168934 
L 83.846958 213.608756 
L 80.707521 208.225462 
L 78.447819 203.973494 
L 76.446404 199.770121 
L 74.735691 195.615341 
L 73.352233 191.509155 
L 72.549382 188.461406 
L 71.958911 185.44099 
L 71.600454 182.447909 
L 71.480438 179.482162 
L 71.617878 176.543749 
L 72.021611 173.632669 
L 72.705626 170.748924 
L 73.66835 167.892513 
L 75.269297 164.126485 
L 105.957498 93.568123 
L 106.813634 92.237864 
L 107.865603 90.919754 
L 109.801344 88.965368 
L 112.149615 87.038315 
L 114.892748 85.138597 
L 118.011604 83.266213 
L 121.487877 81.421163 
L 125.302913 79.603447 
L 130.884405 77.222345 
L 136.991652 74.889837 
L 143.581637 72.605923 
L 152.432731 69.819366 
L 161.889996 67.108737 
L 171.873065 64.474035 
L 184.438948 61.412619 
L 197.521841 58.460539 
L 213.274566 55.154634 
L 229.377475 51.997548 
L 247.987137 48.571677 
L 268.899986 44.949912 
L 291.747702 41.214255 
L 318.11892 37.132366 
L 346.752184 32.922918 
L 380.754303 28.162233 
L 418.259391 23.144912 
L 441.998541 20.069828 
L 441.998541 20.069828 
" clip-path="url(#pc2dd5494b0)" style="fill: none; stroke: #32f298; stroke-width: 1.5; stroke-linecap: square"/>
   </g>
   <g id="line2d_44">
    <path d="M 129.206684 398.192737 
L 129.097262 275.339731 
L 128.764328 271.61774 
L 128.131843 267.923085 
L 127.209661 264.255763 
L 126.025138 260.615775 
L 124.595133 257.003121 
L 122.948841 253.417801 
L 121.104145 249.859816 
L 118.382732 245.158355 
L 115.41234 240.505487 
L 111.431632 234.757738 
L 106.41104 227.960665 
L 92.387691 209.296046 
L 88.786722 203.973494 
L 86.218036 199.770121 
L 83.986025 195.615341 
L 82.573168 192.531146 
L 81.404163 189.474285 
L 80.505996 186.444758 
L 79.904599 183.442566 
L 79.619428 180.467707 
L 79.617532 178.499654 
L 79.76682 176.543749 
L 80.34808 173.632669 
L 81.151652 170.748924 
L 86.133828 155.830593 
L 111.89525 79.003616 
L 112.619628 77.813065 
L 113.602843 76.634662 
L 114.837287 75.468408 
L 116.314165 74.314303 
L 118.963778 72.605923 
L 122.109433 70.924877 
L 125.72179 69.271166 
L 129.773646 67.644788 
L 135.810005 65.518805 
L 142.511858 63.441415 
L 149.81465 61.412619 
L 159.695249 58.944959 
L 170.302697 56.553227 
L 181.52377 54.237424 
L 195.647834 51.558684 
L 210.324247 48.989281 
L 227.924513 46.129833 
L 248.370288 43.044119 
L 271.39639 39.805031 
L 296.515674 36.494571 
L 325.32576 32.922918 
L 358.245903 29.073369 
L 395.001745 25.003629 
L 437.717628 20.508692 
L 441.998541 20.069828 
L 441.998541 20.069828 
" clip-path="url(#pc2dd5494b0)" style="fill: none; stroke: #a4fc3c; stroke-width: 1.5; stroke-linecap: square"/>
   </g>
   <g id="line2d_45">
    <path d="M 129.206684 398.192737 
L 129.113743 252.228769 
L 128.890995 249.859816 
L 128.275799 246.329164 
L 127.650561 243.990582 
L 126.852864 241.664148 
L 125.361336 238.197276 
L 123.570549 234.757738 
L 121.512567 231.345535 
L 119.243714 227.960665 
L 115.955492 223.490025 
L 111.57157 217.97006 
L 99.354406 202.918095 
L 96.333009 198.72687 
L 94.313792 195.615341 
L 92.568262 192.531146 
L 91.128516 189.474285 
L 90.042551 186.444758 
L 89.541805 184.44026 
L 89.23789 182.447909 
L 89.133909 180.467707 
L 89.220873 178.499654 
L 89.479069 176.543749 
L 90.111283 173.632669 
L 117.09313 65.518805 
L 117.769066 64.474035 
L 118.773705 63.441415 
L 120.10433 62.420943 
L 121.747118 61.412619 
L 123.690958 60.416444 
L 127.143863 58.944959 
L 131.204287 57.500809 
L 135.824327 56.083992 
L 142.786142 54.237424 
L 150.572166 52.439449 
L 159.092384 50.690068 
L 170.635252 48.571677 
L 183.013672 46.529214 
L 198.75012 44.178484 
L 215.206072 41.937089 
L 234.994882 39.460318 
L 257.964065 36.81195 
L 283.6974 34.064875 
L 314.175491 31.041423 
L 347.653632 27.942042 
L 387.360455 24.497949 
L 432.664914 20.804811 
L 441.998541 20.069828 
L 441.998541 20.069828 
" clip-path="url(#pc2dd5494b0)" style="fill: none; stroke: #eecf3a; stroke-width: 1.5; stroke-linecap: square"/>
   </g>
   <g id="line2d_46">
    <path d="M 129.206684 398.192737 
L 129.147189 232.479899 
L 128.830652 229.085918 
L 128.441479 226.838449 
L 127.75018 224.603129 
L 126.83519 222.379958 
L 125.694757 220.168934 
L 124.35971 217.97006 
L 122.048208 214.694526 
L 118.591955 210.369668 
L 107.869313 197.686657 
L 105.649559 194.584239 
L 103.799683 191.509155 
L 102.852178 189.474285 
L 102.158656 187.451564 
L 101.739492 185.44099 
L 101.573261 183.442566 
L 101.64132 181.45629 
L 101.960218 178.499654 
L 106.013082 153.119964 
L 122.353825 51.122858 
L 122.908167 50.260316 
L 123.91362 49.409922 
L 125.366531 48.571677 
L 127.280135 47.745581 
L 129.626298 46.931633 
L 133.913859 45.733489 
L 139.05443 44.562679 
L 144.972885 43.419204 
L 153.942084 41.937089 
L 163.996397 40.503569 
L 177.850939 38.780004 
L 192.872904 37.132366 
L 212.054593 35.255426 
L 235.491151 33.203852 
L 262.916674 31.041423 
L 293.607297 28.84103 
L 329.467585 26.485743 
L 372.865524 23.866228 
L 422.601702 21.096375 
L 441.998541 20.069828 
L 441.998541 20.069828 
" clip-path="url(#pc2dd5494b0)" style="fill: none; stroke: #fb7e21; stroke-width: 1.5; stroke-linecap: square"/>
   </g>
   <g id="line2d_47">
    <path d="M 129.206684 398.192737 
L 129.131675 221.272927 
L 128.912837 217.97006 
L 128.382301 214.694526 
L 127.610939 212.526023 
L 126.481624 210.369668 
L 125.038297 208.225462 
L 122.592708 205.03193 
L 120.060179 201.865733 
L 118.690206 199.770121 
L 117.589766 197.686657 
L 116.901573 195.615341 
L 116.532633 193.556174 
L 116.469193 191.509155 
L 116.628488 186.444758 
L 117.253286 177.520183 
L 127.377832 35.868924 
L 127.51825 35.560657 
L 127.88198 35.255426 
L 129.263417 34.654077 
L 131.47239 34.064875 
L 134.456526 33.487823 
L 140.274251 32.645022 
L 147.772143 31.829555 
L 159.937077 30.784786 
L 174.192012 29.788611 
L 194.281698 28.611727 
L 220.802923 27.299691 
L 253.628998 25.907172 
L 296.391295 24.335463 
L 349.740123 22.622527 
L 413.894089 20.804811 
L 441.998541 20.069828 
L 441.998541 20.069828 
" clip-path="url(#pc2dd5494b0)" style="fill: none; stroke: #d02f05; stroke-width: 1.5; stroke-linecap: square"/>
   </g>
   <g id="line2d_48">
    <path d="M 129.206684 398.192737 
L 129.117352 219.067979 
L 128.858868 215.783334 
L 128.518242 213.608756 
L 127.906602 211.446327 
L 127.027775 209.296046 
L 124.073566 202.918095 
L 123.43921 200.816408 
L 123.063185 198.72687 
L 122.860417 195.615341 
L 122.847097 192.531146 
L 124.417293 148.662991 
L 128.752715 29.308746 
L 129.17715 29.073369 
L 131.177308 28.611727 
L 134.610846 28.162233 
L 142.189628 27.510771 
L 152.322929 26.886643 
L 169.132391 26.096992 
L 194.296919 25.178263 
L 228.57829 24.176014 
L 277.325005 23.00976 
L 342.079077 21.72354 
L 422.633461 20.367466 
L 441.998541 20.069828 
L 441.998541 20.069828 
" clip-path="url(#pc2dd5494b0)" style="fill: none; stroke: #7a0403; stroke-width: 1.5; stroke-linecap: square"/>
   </g>
   <g id="line2d_49">
    <path d="M 129.206684 398.192737 
L 129.206684 20.069828 
" clip-path="url(#pc2dd5494b0)" style="fill: none; stroke-dasharray: 5.55,2.4; stroke-dashoffset: 0; stroke: #000000; stroke-opacity: 0.75; stroke-width: 1.5"/>
   </g>
   <g id="patch_3">
    <path d="M 44.926759 398.192737 
L 44.926759 20.069828 
" style="fill: none; stroke: #000000; stroke-width: 0.8; stroke-linejoin: miter; stroke-linecap: square"/>
   </g>
   <g id="patch_4">
    <path d="M 269.963019 398.192737 
L 269.963019 20.069828 
" style="fill: none; stroke: #000000; stroke-width: 0.8; stroke-linejoin: miter; stroke-linecap: square"/>
   </g>
   <g id="patch_5">
    <path d="M 44.926759 398.192737 
L 269.963019 398.192737 
" style="fill: none; stroke: #000000; stroke-width: 0.8; stroke-linejoin: miter; stroke-linecap: square"/>
   </g>
   <g id="patch_6">
    <path d="M 44.926759 20.069828 
L 269.963019 20.069828 
" style="fill: none; stroke: #000000; stroke-width: 0.8; stroke-linejoin: miter; stroke-linecap: square"/>
   </g>
   <g id="text_13">
    <!-- Velocity profile -->
    <g transform="translate(106.0714 14.069828) scale(0.16 -0.16)">
     <defs>
      <path id="CMR17-56" d="M 3776 3745 
C 3834 3886 3936 4160 4365 4160 
L 4365 4332 
C 4218 4319 4051 4319 3891 4319 
C 3738 4319 3475 4319 3328 4332 
L 3328 4160 
C 3648 4160 3661 3936 3661 3898 
C 3661 3827 3642 3783 3622 3732 
L 2362 446 
L 1043 3886 
C 1024 3931 1011 3963 1011 3994 
C 1011 4160 1267 4160 1402 4160 
L 1402 4319 
C 1197 4319 896 4319 685 4319 
C 518 4319 218 4319 64 4332 
L 64 4160 
C 435 4160 506 4135 582 3931 
L 2106 -26 
C 2138 -115 2144 -128 2214 -128 
C 2285 -128 2291 -115 2323 -26 
L 3776 3745 
z
" transform="scale(0.015625)"/>
      <path id="CMR17-65" d="M 2438 1472 
C 2464 1498 2464 1511 2464 1576 
C 2464 2238 2118 2816 1389 2816 
C 710 2816 173 2169 173 1383 
C 173 551 781 -64 1459 -64 
C 2176 -64 2458 607 2458 740 
C 2458 784 2419 784 2406 784 
C 2362 784 2355 771 2330 696 
C 2189 265 1837 51 1504 51 
C 1229 51 954 203 781 480 
C 582 803 582 1176 582 1472 
L 2438 1472 
z
M 589 1568 
C 634 2505 1126 2714 1382 2714 
C 1818 2714 2112 2297 2118 1568 
L 589 1568 
z
" transform="scale(0.015625)"/>
      <path id="CMR17-6c" d="M 979 4396 
L 218 4326 
L 218 4160 
C 595 4160 653 4122 653 3817 
L 653 426 
C 653 184 627 153 218 153 
L 218 -13 
C 371 0 653 0 813 0 
C 979 0 1261 0 1414 -13 
L 1414 153 
C 1005 153 979 178 979 426 
L 979 4396 
z
" transform="scale(0.015625)"/>
      <path id="CMR17-6f" d="M 2758 1356 
C 2758 2176 2163 2816 1466 2816 
C 768 2816 173 2176 173 1356 
C 173 551 768 -64 1466 -64 
C 2163 -64 2758 551 2758 1356 
z
M 1466 51 
C 1165 51 909 230 762 480 
C 602 767 582 1126 582 1408 
C 582 1677 595 2010 762 2298 
C 890 2509 1139 2714 1466 2714 
C 1754 2714 1997 2554 2150 2330 
C 2349 2029 2349 1607 2349 1408 
C 2349 1158 2336 775 2163 467 
C 1984 173 1709 51 1466 51 
z
" transform="scale(0.015625)"/>
      <path id="CMR17-63" d="M 2234 2240 
C 2112 2240 1933 2240 1933 2017 
C 1933 1838 2080 1787 2163 1787 
C 2208 1787 2394 1807 2394 2024 
C 2394 2467 1958 2803 1466 2803 
C 787 2803 211 2178 211 1363 
C 211 516 813 -64 1466 -64 
C 2259 -64 2458 677 2458 748 
C 2458 774 2451 793 2406 793 
C 2362 793 2355 787 2330 703 
C 2163 180 1798 51 1523 51 
C 1114 51 621 427 621 1369 
C 621 2338 1094 2688 1472 2688 
C 1722 2688 2093 2573 2234 2240 
z
" transform="scale(0.015625)"/>
      <path id="CMR17-69" d="M 992 3909 
C 992 4049 877 4170 730 4170 
C 589 4170 467 4056 467 3909 
C 467 3769 582 3648 730 3648 
C 870 3648 992 3763 992 3909 
z
M 243 2706 
L 243 2541 
C 602 2541 653 2502 653 2197 
L 653 427 
C 653 184 627 153 218 153 
L 218 -13 
C 371 0 646 0 806 0 
C 960 0 1222 0 1370 -13 
L 1370 153 
C 992 153 979 191 979 420 
L 979 2776 
L 243 2706 
z
" transform="scale(0.015625)"/>
      <path id="CMR17-74" d="M 966 2560 
L 1862 2560 
L 1862 2725 
L 966 2725 
L 966 3904 
L 851 3904 
C 838 3245 614 2668 70 2668 
L 70 2560 
L 627 2560 
L 627 771 
C 627 650 627 -64 1370 -64 
C 1747 -64 1965 306 1965 777 
L 1965 1140 
L 1850 1140 
L 1850 783 
C 1850 344 1677 51 1408 51 
C 1222 51 966 178 966 758 
L 966 2560 
z
" transform="scale(0.015625)"/>
      <path id="CMR17-79" d="M 2496 2197 
C 2656 2586 2944 2586 3034 2586 
L 3034 2752 
C 2912 2752 2752 2752 2630 2752 
C 2496 2752 2285 2752 2157 2758 
L 2157 2592 
C 2400 2573 2406 2394 2406 2343 
C 2406 2280 2394 2248 2362 2171 
L 1664 449 
L 902 2306 
C 870 2382 870 2426 870 2433 
C 870 2573 1018 2586 1171 2586 
L 1171 2758 
C 1018 2752 742 2752 582 2752 
C 410 2752 205 2752 64 2758 
L 64 2586 
C 410 2586 448 2554 531 2350 
L 1485 15 
C 1197 -738 1030 -1178 627 -1178 
C 557 -1178 397 -1159 282 -1044 
C 429 -1031 493 -942 493 -833 
C 493 -725 416 -629 288 -629 
C 147 -629 77 -725 77 -840 
C 77 -1095 339 -1280 627 -1280 
C 998 -1280 1229 -922 1357 -604 
L 2496 2197 
z
" transform="scale(0.015625)"/>
      <path id="CMR17-70" d="M 1408 -1063 
C 998 -1063 973 -1037 973 -789 
L 973 402 
C 1158 134 1427 -38 1766 -38 
C 2406 -38 3053 523 3053 1388 
C 3053 2191 2496 2802 1837 2802 
C 1453 2802 1139 2592 960 2338 
L 960 2802 
L 198 2732 
L 198 2567 
C 576 2567 634 2528 634 2223 
L 634 -789 
C 634 -1031 608 -1063 198 -1063 
L 198 -1228 
C 352 -1216 634 -1216 800 -1216 
C 966 -1216 1254 -1216 1408 -1228 
L 1408 -1063 
z
M 973 2012 
C 973 2102 973 2235 1222 2471 
C 1254 2497 1472 2688 1792 2688 
C 2259 2688 2643 2108 2643 1382 
C 2643 656 2234 64 1728 64 
C 1498 64 1248 172 1056 472 
C 973 612 973 650 973 752 
L 973 2012 
z
" transform="scale(0.015625)"/>
      <path id="CMR17-72" d="M 960 1497 
C 960 2112 1222 2688 1702 2688 
C 1747 2688 1792 2682 1837 2662 
C 1837 2662 1696 2617 1696 2452 
C 1696 2298 1818 2234 1914 2234 
C 1990 2234 2131 2279 2131 2458 
C 2131 2663 1926 2790 1709 2790 
C 1222 2790 1011 2317 947 2093 
L 941 2093 
L 941 2790 
L 198 2720 
L 198 2554 
C 576 2554 634 2515 634 2208 
L 634 428 
C 634 184 608 153 198 153 
L 198 -13 
C 352 0 646 0 813 0 
C 998 0 1325 0 1498 -13 
L 1498 153 
C 1037 153 960 153 960 440 
L 960 1497 
z
" transform="scale(0.015625)"/>
      <path id="CMR17-c" d="M 2554 2764 
C 2400 2764 1926 2764 1805 2739 
C 1766 2725 1754 2725 1677 2725 
L 947 2725 
L 947 3469 
C 947 4073 1434 4352 1818 4352 
C 1939 4352 2214 4320 2355 4101 
C 2291 4101 2086 4101 2086 3878 
C 2086 3725 2189 3648 2317 3648 
C 2432 3648 2547 3712 2547 3885 
C 2547 4205 2240 4454 1843 4454 
C 1338 4454 634 4168 634 3469 
L 634 2725 
L 122 2725 
L 122 2560 
L 634 2560 
L 634 427 
C 634 184 608 153 198 153 
L 198 -13 
C 352 0 634 0 794 0 
C 960 0 1242 0 1395 -13 
L 1395 153 
C 986 153 960 178 960 427 
L 960 2560 
L 1901 2560 
C 2176 2560 2227 2502 2227 2222 
L 2227 427 
C 2227 184 2202 153 1792 153 
L 1792 -13 
C 1946 0 2227 0 2387 0 
C 2554 0 2835 0 2989 -13 
L 2989 153 
C 2579 153 2554 178 2554 427 
L 2554 2764 
z
" transform="scale(0.015625)"/>
     </defs>
     <use xlink:href="#CMR17-56" transform="scale(0.996264)"/>
     <use xlink:href="#CMR17-65" transform="translate(61.265174 0) scale(0.996264)"/>
     <use xlink:href="#CMR17-6c" transform="translate(101.750835 0) scale(0.996264)"/>
     <use xlink:href="#CMR17-6f" transform="translate(126.621893 0) scale(0.996264)"/>
     <use xlink:href="#CMR17-63" transform="translate(174.914809 0) scale(0.996264)"/>
     <use xlink:href="#CMR17-69" transform="translate(215.40047 0) scale(0.996264)"/>
     <use xlink:href="#CMR17-74" transform="translate(240.271528 0) scale(0.996264)"/>
     <use xlink:href="#CMR17-79" transform="translate(272.949842 0) scale(0.996264)"/>
     <use xlink:href="#CMR17-70" transform="translate(351.318724 0) scale(0.996264)"/>
     <use xlink:href="#CMR17-72" transform="translate(402.214094 0) scale(0.996264)"/>
     <use xlink:href="#CMR17-6f" transform="translate(437.494862 0) scale(0.996264)"/>
     <use xlink:href="#CMR17-c" transform="translate(483.185339 0) scale(0.996264)"/>
     <use xlink:href="#CMR17-6c" transform="translate(532.927562 0) scale(0.996264)"/>
     <use xlink:href="#CMR17-65" transform="translate(557.798621 0) scale(0.996264)"/>
    </g>
   </g>
   <g id="legend_1">
    <g id="patch_7">
     <path d="M 173.373883 392.192737 
L 261.563019 392.192737 
Q 263.963019 392.192737 263.963019 389.792737 
L 263.963019 240.471375 
Q 263.963019 238.071375 261.563019 238.071375 
L 173.373883 238.071375 
Q 170.973883 238.071375 170.973883 240.471375 
L 170.973883 389.792737 
Q 170.973883 392.192737 173.373883 392.192737 
z
" style="fill: #ffffff; opacity: 0.8; stroke: #cccccc; stroke-linejoin: miter"/>
    </g>
    <g id="line2d_50">
     <path d="M 175.773883 247.071375 
L 187.773883 247.071375 
L 199.773883 247.071375 
" style="fill: none; stroke: #30123b; stroke-width: 1.5; stroke-linecap: square"/>
    </g>
    <g id="text_14">
     <!-- $Bn=0$ -->
     <g transform="translate(209.373883 251.271375) scale(0.12 -0.12)">
      <defs>
       <path id="CMMI12-42" d="M 2342 3921 
C 2400 4160 2426 4160 2675 4160 
L 3507 4160 
C 4230 4160 4230 3544 4230 3485 
C 4230 2966 3712 2304 2867 2304 
L 1946 2304 
L 2342 3921 
z
M 3424 2275 
C 4122 2402 4755 2886 4755 3473 
C 4755 3970 4314 4352 3590 4352 
L 1536 4352 
C 1414 4352 1357 4352 1357 4226 
C 1357 4160 1414 4160 1510 4160 
C 1901 4160 1901 4112 1901 4044 
C 1901 4032 1901 3993 1875 3897 
L 1011 472 
C 954 249 941 185 493 185 
C 371 185 307 185 307 70 
C 307 0 346 0 474 0 
L 2669 0 
C 3648 0 4403 739 4403 1383 
C 4403 1906 3942 2224 3424 2275 
z
M 2515 185 
L 1651 185 
C 1562 185 1549 185 1510 192 
C 1440 198 1434 211 1434 261 
C 1434 305 1446 343 1459 399 
L 1907 2176 
L 3110 2176 
C 3866 2176 3866 1483 3866 1433 
C 3866 828 3309 185 2515 185 
z
" transform="scale(0.015625)"/>
       <path id="CMMI12-6e" d="M 1318 1871 
C 1331 1910 1491 2229 1728 2433 
C 1894 2586 2112 2689 2362 2689 
C 2618 2689 2707 2497 2707 2242 
C 2707 1878 2445 1150 2317 805 
C 2259 651 2227 568 2227 453 
C 2227 166 2426 -64 2733 -64 
C 3328 -64 3552 875 3552 913 
C 3552 945 3526 971 3488 971 
C 3430 971 3424 952 3392 843 
C 3245 319 3002 64 2752 64 
C 2688 64 2586 64 2586 269 
C 2586 429 2656 621 2694 710 
C 2822 1063 3091 1780 3091 2145 
C 3091 2528 2867 2816 2381 2816 
C 1811 2816 1510 2415 1395 2255 
C 1376 2618 1114 2816 832 2816 
C 627 2816 486 2695 378 2478 
C 262 2248 173 1865 173 1839 
C 173 1814 198 1782 243 1782 
C 294 1782 301 1788 339 1935 
C 442 2325 557 2689 813 2689 
C 960 2689 1011 2586 1011 2395 
C 1011 2254 947 2005 902 1807 
L 723 1118 
C 698 996 627 709 595 594 
C 550 428 480 128 480 96 
C 480 6 550 -64 646 -64 
C 723 -64 813 -26 864 70 
C 877 102 934 326 966 453 
L 1107 1028 
L 1318 1871 
z
" transform="scale(0.015625)"/>
       <path id="CMR17-3d" d="M 4115 2017 
C 4211 2017 4307 2017 4307 2125 
C 4307 2240 4198 2240 4090 2240 
L 512 2240 
C 403 2240 294 2240 294 2125 
C 294 2017 390 2017 486 2017 
L 4115 2017 
z
M 4090 896 
C 4198 896 4307 896 4307 1011 
C 4307 1119 4211 1119 4115 1119 
L 486 1119 
C 390 1119 294 1119 294 1011 
C 294 896 403 896 512 896 
L 4090 896 
z
" transform="scale(0.015625)"/>
      </defs>
      <use xlink:href="#CMMI12-42" transform="scale(0.996264)"/>
      <use xlink:href="#CMMI12-6e" transform="translate(79.135523 0) scale(0.996264)"/>
      <use xlink:href="#CMR17-3d" transform="translate(165.039579 0) scale(0.996264)"/>
      <use xlink:href="#CMR17-30" transform="translate(264.428376 0) scale(0.996264)"/>
     </g>
    </g>
    <g id="line2d_51">
     <path d="M 175.773883 263.795971 
L 187.773883 263.795971 
L 199.773883 263.795971 
" style="fill: none; stroke: #466be3; stroke-width: 1.5; stroke-linecap: square"/>
    </g>
    <g id="text_15">
     <!-- $Bn=1$ -->
     <g transform="translate(209.373883 267.995971) scale(0.12 -0.12)">
      <use xlink:href="#CMMI12-42" transform="scale(0.996264)"/>
      <use xlink:href="#CMMI12-6e" transform="translate(79.135523 0) scale(0.996264)"/>
      <use xlink:href="#CMR17-3d" transform="translate(165.039579 0) scale(0.996264)"/>
      <use xlink:href="#CMR17-31" transform="translate(264.428376 0) scale(0.996264)"/>
     </g>
    </g>
    <g id="line2d_52">
     <path d="M 175.773883 280.520567 
L 187.773883 280.520567 
L 199.773883 280.520567 
" style="fill: none; stroke: #28bceb; stroke-width: 1.5; stroke-linecap: square"/>
    </g>
    <g id="text_16">
     <!-- $Bn=2$ -->
     <g transform="translate(209.373883 284.720567) scale(0.12 -0.12)">
      <use xlink:href="#CMMI12-42" transform="scale(0.996264)"/>
      <use xlink:href="#CMMI12-6e" transform="translate(79.135523 0) scale(0.996264)"/>
      <use xlink:href="#CMR17-3d" transform="translate(165.039579 0) scale(0.996264)"/>
      <use xlink:href="#CMR17-32" transform="translate(264.428376 0) scale(0.996264)"/>
     </g>
    </g>
    <g id="line2d_53">
     <path d="M 175.773883 297.245162 
L 187.773883 297.245162 
L 199.773883 297.245162 
" style="fill: none; stroke: #32f298; stroke-width: 1.5; stroke-linecap: square"/>
    </g>
    <g id="text_17">
     <!-- $Bn=5$ -->
     <g transform="translate(209.373883 301.445162) scale(0.12 -0.12)">
      <defs>
       <path id="CMR17-35" d="M 730 3692 
C 794 3666 1056 3584 1325 3584 
C 1920 3584 2246 3911 2432 4100 
C 2432 4157 2432 4192 2394 4192 
C 2387 4192 2374 4192 2323 4163 
C 2099 4058 1837 3973 1517 3973 
C 1325 3973 1037 3999 723 4139 
C 653 4171 640 4171 634 4171 
C 602 4171 595 4164 595 4037 
L 595 2203 
C 595 2089 595 2057 659 2057 
C 691 2057 704 2070 736 2114 
C 941 2401 1222 2522 1542 2522 
C 1766 2522 2246 2382 2246 1289 
C 2246 1085 2246 715 2054 421 
C 1894 159 1645 25 1370 25 
C 947 25 518 320 403 814 
C 429 807 480 795 506 795 
C 589 795 749 840 749 1038 
C 749 1210 627 1280 506 1280 
C 358 1280 262 1190 262 1011 
C 262 454 704 -128 1382 -128 
C 2042 -128 2669 440 2669 1264 
C 2669 2030 2170 2624 1549 2624 
C 1222 2624 947 2503 730 2274 
L 730 3692 
z
" transform="scale(0.015625)"/>
      </defs>
      <use xlink:href="#CMMI12-42" transform="scale(0.996264)"/>
      <use xlink:href="#CMMI12-6e" transform="translate(79.135523 0) scale(0.996264)"/>
      <use xlink:href="#CMR17-3d" transform="translate(165.039579 0) scale(0.996264)"/>
      <use xlink:href="#CMR17-35" transform="translate(264.428376 0) scale(0.996264)"/>
     </g>
    </g>
    <g id="line2d_54">
     <path d="M 175.773883 313.969758 
L 187.773883 313.969758 
L 199.773883 313.969758 
" style="fill: none; stroke: #a4fc3c; stroke-width: 1.5; stroke-linecap: square"/>
    </g>
    <g id="text_18">
     <!-- $Bn=10$ -->
     <g transform="translate(209.373883 318.169758) scale(0.12 -0.12)">
      <use xlink:href="#CMMI12-42" transform="scale(0.996264)"/>
      <use xlink:href="#CMMI12-6e" transform="translate(79.135523 0) scale(0.996264)"/>
      <use xlink:href="#CMR17-3d" transform="translate(165.039579 0) scale(0.996264)"/>
      <use xlink:href="#CMR17-31" transform="translate(264.428376 0) scale(0.996264)"/>
      <use xlink:href="#CMR17-30" transform="translate(310.118854 0) scale(0.996264)"/>
     </g>
    </g>
    <g id="line2d_55">
     <path d="M 175.773883 330.694354 
L 187.773883 330.694354 
L 199.773883 330.694354 
" style="fill: none; stroke: #eecf3a; stroke-width: 1.5; stroke-linecap: square"/>
    </g>
    <g id="text_19">
     <!-- $Bn=20$ -->
     <g transform="translate(209.373883 334.894354) scale(0.12 -0.12)">
      <use xlink:href="#CMMI12-42" transform="scale(0.996264)"/>
      <use xlink:href="#CMMI12-6e" transform="translate(79.135523 0) scale(0.996264)"/>
      <use xlink:href="#CMR17-3d" transform="translate(165.039579 0) scale(0.996264)"/>
      <use xlink:href="#CMR17-32" transform="translate(264.428376 0) scale(0.996264)"/>
      <use xlink:href="#CMR17-30" transform="translate(310.118854 0) scale(0.996264)"/>
     </g>
    </g>
    <g id="line2d_56">
     <path d="M 175.773883 347.41895 
L 187.773883 347.41895 
L 199.773883 347.41895 
" style="fill: none; stroke: #fb7e21; stroke-width: 1.5; stroke-linecap: square"/>
    </g>
    <g id="text_20">
     <!-- $Bn=50$ -->
     <g transform="translate(209.373883 351.61895) scale(0.12 -0.12)">
      <use xlink:href="#CMMI12-42" transform="scale(0.996264)"/>
      <use xlink:href="#CMMI12-6e" transform="translate(79.135523 0) scale(0.996264)"/>
      <use xlink:href="#CMR17-3d" transform="translate(165.039579 0) scale(0.996264)"/>
      <use xlink:href="#CMR17-35" transform="translate(264.428376 0) scale(0.996264)"/>
      <use xlink:href="#CMR17-30" transform="translate(310.118854 0) scale(0.996264)"/>
     </g>
    </g>
    <g id="line2d_57">
     <path d="M 175.773883 364.143545 
L 187.773883 364.143545 
L 199.773883 364.143545 
" style="fill: none; stroke: #d02f05; stroke-width: 1.5; stroke-linecap: square"/>
    </g>
    <g id="text_21">
     <!-- $Bn=200$ -->
     <g transform="translate(209.373883 368.343545) scale(0.12 -0.12)">
      <use xlink:href="#CMMI12-42" transform="scale(0.996264)"/>
      <use xlink:href="#CMMI12-6e" transform="translate(79.135523 0) scale(0.996264)"/>
      <use xlink:href="#CMR17-3d" transform="translate(165.039579 0) scale(0.996264)"/>
      <use xlink:href="#CMR17-32" transform="translate(264.428376 0) scale(0.996264)"/>
      <use xlink:href="#CMR17-30" transform="translate(310.118854 0) scale(0.996264)"/>
      <use xlink:href="#CMR17-30" transform="translate(355.809331 0) scale(0.996264)"/>
     </g>
    </g>
    <g id="line2d_58">
     <path d="M 175.773883 380.868141 
L 187.773883 380.868141 
L 199.773883 380.868141 
" style="fill: none; stroke: #7a0403; stroke-width: 1.5; stroke-linecap: square"/>
    </g>
    <g id="text_22">
     <!-- $Bn=500$ -->
     <g transform="translate(209.373883 385.068141) scale(0.12 -0.12)">
      <use xlink:href="#CMMI12-42" transform="scale(0.996264)"/>
      <use xlink:href="#CMMI12-6e" transform="translate(79.135523 0) scale(0.996264)"/>
      <use xlink:href="#CMR17-3d" transform="translate(165.039579 0) scale(0.996264)"/>
      <use xlink:href="#CMR17-35" transform="translate(264.428376 0) scale(0.996264)"/>
      <use xlink:href="#CMR17-30" transform="translate(310.118854 0) scale(0.996264)"/>
      <use xlink:href="#CMR17-30" transform="translate(355.809331 0) scale(0.996264)"/>
     </g>
    </g>
   </g>
  </g>
  <g id="axes_2">
   <g id="patch_8">
    <path d="M 275.963499 398.192737 
L 500.99976 398.192737 
L 500.99976 20.069828 
L 275.963499 20.069828 
L 275.963499 398.192737 
z
" style="fill: none"/>
   </g>
   <g id="line2d_59">
    <path d="M 309.718938 398.192737 
L 309.639841 223.490025 
L 309.257028 221.272927 
L 308.346185 219.067979 
L 306.745488 215.783334 
L 305.455011 214.694526 
L 302.022072 212.526023 
L 298.598102 210.369668 
L 297.26552 209.296046 
L 296.852158 208.225462 
L 296.870019 205.03193 
L 297.611968 203.973494 
L 303.190589 200.816408 
L 306.438919 198.72687 
L 307.640207 197.686657 
L 308.826967 195.615341 
L 310.369365 192.531146 
L 310.664832 191.509155 
L 310.694003 187.451564 
L 310.694057 29.788611 
L 313.983044 29.54716 
L 338.13512 29.308746 
L 505 28.450404 
L 505 28.450404 
" clip-path="url(#p21943326eb)" style="fill: none; stroke: #7a0403; stroke-width: 1.5; stroke-linecap: square"/>
   </g>
   <g id="line2d_60">
    <path d="M 309.718938 398.192737 
L 309.615779 225.719271 
L 308.854402 221.272927 
L 308.322504 220.168934 
L 305.807198 216.875178 
L 304.847038 215.783334 
L 302.749612 214.694526 
L 300.038997 213.608756 
L 293.241264 210.369668 
L 291.405133 209.296046 
L 290.217229 208.225462 
L 287.520771 205.03193 
L 287.248499 203.973494 
L 288.412804 202.918095 
L 293.649004 199.770121 
L 295.352952 198.72687 
L 302.774412 195.615341 
L 308.878557 192.531146 
L 309.934716 191.509155 
L 311.442184 185.44099 
L 311.656628 184.44026 
L 311.663727 182.447909 
L 311.664111 36.494571 
L 311.498684 36.180229 
L 316.749048 35.868924 
L 352.262585 35.255426 
L 505 32.953429 
L 505 32.953429 
" clip-path="url(#p21943326eb)" style="fill: none; stroke: #d02f05; stroke-width: 1.5; stroke-linecap: square"/>
   </g>
   <g id="line2d_61">
    <path d="M 309.718938 398.192737 
L 309.653146 235.901214 
L 309.460793 234.757738 
L 309.073767 233.6173 
L 307.570441 231.345535 
L 306.011519 229.085918 
L 305.006632 227.960665 
L 301.30394 225.719271 
L 294.331132 220.168934 
L 291.045135 216.875178 
L 289.988236 215.783334 
L 289.15332 214.694526 
L 286.844436 210.369668 
L 286.452974 209.296046 
L 286.211578 207.157914 
L 286.048033 203.973494 
L 286.326782 202.918095 
L 288.107111 198.72687 
L 288.777486 197.686657 
L 291.798243 194.584239 
L 293.880953 192.531146 
L 295.334725 191.509155 
L 304.050578 186.444758 
L 307.458495 184.44026 
L 310.65352 182.447909 
L 311.746459 181.45629 
L 312.9618 179.482162 
L 313.627745 178.499654 
L 314.005164 177.520183 
L 314.067685 175.570352 
L 314.068065 51.997548 
L 315.14912 51.558684 
L 319.883714 51.122858 
L 364.94734 48.571677 
L 481.082746 42.303062 
L 505 40.970613 
L 505 40.970613 
" clip-path="url(#p21943326eb)" style="fill: none; stroke: #fb7e21; stroke-width: 1.5; stroke-linecap: square"/>
   </g>
   <g id="line2d_62">
    <path d="M 309.718938 398.192737 
L 309.6231 255.804977 
L 309.268116 254.609871 
L 308.752747 253.417801 
L 308.047899 252.228769 
L 303.566876 246.329164 
L 301.374532 243.990582 
L 297.55465 239.349863 
L 293.62724 233.6173 
L 291.778097 230.214208 
L 290.112277 226.838449 
L 288.172734 221.272927 
L 287.751643 219.067979 
L 287.152311 214.694526 
L 287.288737 210.369668 
L 287.618646 208.225462 
L 288.692365 203.973494 
L 289.608422 201.865733 
L 291.699149 197.686657 
L 293.947887 194.584239 
L 295.476306 192.531146 
L 297.426398 190.490202 
L 301.62647 186.444758 
L 306.87956 182.447909 
L 310.922884 179.482162 
L 314.383396 176.543749 
L 316.011916 174.599992 
L 316.451636 173.632669 
L 316.485486 169.79375 
L 316.485676 67.108737 
L 316.702453 66.575722 
L 318.812334 66.045745 
L 331.72207 64.474035 
L 438.679222 51.997548 
L 482.69029 46.529214 
L 505 43.646906 
L 505 43.646906 
" clip-path="url(#p21943326eb)" style="fill: none; stroke: #eecf3a; stroke-width: 1.5; stroke-linecap: square"/>
   </g>
   <g id="line2d_63">
    <path d="M 309.718938 398.192737 
L 309.611407 279.089055 
L 308.63403 276.586468 
L 306.996949 272.855367 
L 303.228831 266.697607 
L 301.190035 263.039396 
L 298.071755 257.003121 
L 295.364879 251.042774 
L 293.098208 245.158355 
L 291.285365 239.349863 
L 289.962786 233.6173 
L 289.452786 230.214208 
L 289.046816 226.838449 
L 288.862849 221.272927 
L 289.080969 217.97006 
L 289.399253 214.694526 
L 290.487845 209.296046 
L 291.827786 205.03193 
L 292.615068 202.918095 
L 295.067566 197.686657 
L 297.573986 193.556174 
L 298.926786 191.509155 
L 302.881392 186.444758 
L 307.598903 181.45629 
L 311.796967 177.520183 
L 314.744238 175.570352 
L 315.671059 174.599992 
L 317.647634 171.707136 
L 318.297004 170.748924 
L 318.71307 169.79375 
L 318.821456 168.841613 
L 318.817273 140.831778 
L 318.928859 80.206315 
L 320.320176 79.603447 
L 326.278693 78.406822 
L 384.317176 67.108737 
L 422.260428 59.432417 
L 449.059876 53.783374 
L 472.728242 48.571677 
L 496.476975 43.044119 
L 505 40.966524 
L 505 40.966524 
" clip-path="url(#p21943326eb)" style="fill: none; stroke: #a4fc3c; stroke-width: 1.5; stroke-linecap: square"/>
   </g>
   <g id="line2d_64">
    <path d="M 309.718936 398.192737 
L 309.646616 308.741972 
L 309.309057 307.419306 
L 304.903493 295.651986 
L 302.101313 287.943777 
L 299.553251 280.344904 
L 297.672259 274.09603 
L 296.312651 269.151599 
L 294.803406 263.039396 
L 293.530817 257.003121 
L 292.5068 251.042774 
L 291.649508 243.990582 
L 291.231773 238.197276 
L 291.113032 232.479899 
L 291.409009 225.719271 
L 291.999795 220.168934 
L 292.945291 214.694526 
L 294.260082 209.296046 
L 295.949047 203.973494 
L 297.620079 199.770121 
L 298.994602 196.64948 
L 301.639707 191.509155 
L 304.717949 186.444758 
L 308.228123 181.45629 
L 312.190835 176.543749 
L 315.718851 172.668384 
L 321.034261 166.946451 
L 321.50427 166.003425 
L 321.522874 162.261694 
L 321.522911 95.586289 
L 321.743224 94.910529 
L 322.993636 94.237807 
L 343.909315 87.677629 
L 386.439394 74.314303 
L 412.024755 66.045745 
L 431.754841 59.432417 
L 446.636629 54.237424 
L 462.08504 48.571677 
L 476.225516 43.044119 
L 487.955502 38.111837 
L 495.599021 34.654077 
L 504.583724 30.280624 
L 505 30.069544 
L 505 30.069544 
" clip-path="url(#p21943326eb)" style="fill: none; stroke: #32f298; stroke-width: 1.5; stroke-linecap: square"/>
   </g>
   <g id="line2d_65">
    <path d="M 309.718919 398.192737 
L 309.682461 358.380655 
L 309.182364 355.519688 
L 302.047168 319.432633 
L 299.961924 307.419306 
L 298.145245 295.651986 
L 296.941895 286.669705 
L 295.83023 276.586468 
L 295.010717 266.697607 
L 294.621491 259.40852 
L 294.435395 252.228769 
L 294.477007 245.158355 
L 294.83658 237.047727 
L 295.412443 230.214208 
L 296.099181 224.603129 
L 296.980525 219.067979 
L 298.317317 212.526023 
L 299.671081 207.157914 
L 301.243346 201.865733 
L 303.040456 196.64948 
L 305.539388 190.490202 
L 307.88301 185.44099 
L 311.044196 179.482162 
L 313.953977 174.599992 
L 317.124156 169.79375 
L 320.561991 165.063436 
L 324.981043 159.487285 
L 325.398398 158.568556 
L 325.456593 156.74021 
L 325.444666 114.222054 
L 325.708625 113.46733 
L 326.671656 112.715643 
L 345.556831 102.510921 
L 370.195425 89.613793 
L 407.044079 70.370603 
L 421.6425 62.420943 
L 431.945472 56.553227 
L 440.310641 51.558684 
L 448.872058 46.129833 
L 456.062336 41.214255 
L 460.316317 38.111837 
L 464.730755 34.654077 
L 469.854442 30.280624 
L 473.014171 27.299691 
L 477.157327 22.877645 
L 478.748642 20.944519 
L 479.452476 20.069828 
L 479.452476 20.069828 
" clip-path="url(#p21943326eb)" style="fill: none; stroke: #28bceb; stroke-width: 1.5; stroke-linecap: square"/>
   </g>
   <g id="line2d_66">
    <path d="M 309.130263 398.192737 
L 308.905663 395.167766 
L 308.240032 389.154269 
L 307.644309 384.676036 
L 302.427952 341.397082 
L 300.506938 323.491743 
L 299.005311 307.419306 
L 297.914196 293.070435 
L 297.213536 280.344904 
L 296.89469 270.383151 
L 296.804425 260.615775 
L 296.90344 253.417801 
L 297.164731 246.329164 
L 297.695871 238.197276 
L 298.486159 230.214208 
L 299.375489 223.490025 
L 300.281145 217.97006 
L 301.339012 212.526023 
L 302.56306 207.157914 
L 304.252589 200.816408 
L 305.849355 195.615341 
L 308.006292 189.474285 
L 310.006406 184.44026 
L 312.190301 179.482162 
L 315.069242 173.632669 
L 317.131377 169.79375 
L 320.477733 164.126485 
L 323.468358 159.487285 
L 327.295207 154.02047 
L 327.944706 153.119964 
L 328.38336 152.222495 
L 328.500523 151.328063 
L 328.504857 125.107091 
L 328.831502 124.309847 
L 329.668485 123.51564 
L 340.939335 114.979816 
L 353.28791 106.08713 
L 365.466399 97.631789 
L 379.225868 88.31998 
L 405.872701 70.370603 
L 417.240581 62.420943 
L 425.260608 56.553227 
L 431.760163 51.558684 
L 438.84999 45.733489 
L 444.698896 40.503569 
L 449.691712 35.560657 
L 452.621043 32.370163 
L 456.421837 27.724888 
L 458.255105 25.178263 
L 460.000667 22.499524 
L 461.383757 20.069828 
L 461.383757 20.069828 
" clip-path="url(#p21943326eb)" style="fill: none; stroke: #466be3; stroke-width: 1.5; stroke-linecap: square"/>
   </g>
   <g id="line2d_67">
    <path d="M 294.111768 398.192737 
L 294.2467 396.678733 
L 296.029019 386.165743 
L 297.044012 378.747579 
L 298.153817 368.489707 
L 298.765105 361.25377 
L 299.424906 351.251016 
L 299.902105 341.397082 
L 300.263842 330.31767 
L 300.629906 311.396414 
L 301.448578 264.255763 
L 302.040644 251.042774 
L 302.847553 239.349863 
L 303.857982 229.085918 
L 304.69063 222.379958 
L 305.670928 215.783334 
L 306.813039 209.296046 
L 308.370602 201.865733 
L 310.16931 194.584239 
L 311.606688 189.474285 
L 313.513032 183.442566 
L 315.254859 178.499654 
L 317.136479 173.632669 
L 319.158131 168.841613 
L 321.770417 163.192571 
L 323.623874 159.487285 
L 326.572948 154.02047 
L 329.708903 148.662991 
L 332.460759 144.281946 
L 335.922056 139.124917 
L 339.535706 134.077224 
L 342.672591 129.954334 
L 346.537669 125.107091 
L 350.522144 120.369184 
L 355.987822 114.222054 
L 362.241709 107.538873 
L 370.691711 99.010641 
L 379.751324 90.265255 
L 391.751354 79.003616 
L 405.48072 66.045745 
L 412.694637 58.944959 
L 418.114994 53.332362 
L 422.8284 48.15711 
L 427.452673 42.672072 
L 431.443763 37.455819 
L 434.900198 32.370163 
L 437.86628 27.299691 
L 440.253322 22.379558 
L 441.190066 20.069828 
L 441.190066 20.069828 
" clip-path="url(#p21943326eb)" style="fill: none; stroke: #30123b; stroke-width: 1.5; stroke-linecap: square"/>
   </g>
   <g id="matplotlib.axis_3">
    <g id="xtick_5">
     <g id="line2d_68">
      <path d="M 309.718939 398.192737 
L 309.718939 20.069828 
" clip-path="url(#p21943326eb)" style="fill: none; stroke-dasharray: 0.8,1.32; stroke-dashoffset: 0; stroke: #b0b0b0; stroke-width: 0.8"/>
     </g>
     <g id="line2d_69">
      <g>
       <use xlink:href="#md76fe4d20d" x="309.718939" y="398.192737" style="stroke: #000000; stroke-width: 0.8"/>
      </g>
     </g>
     <g id="line2d_70">
      <g>
       <use xlink:href="#m50108451c6" x="309.718939" y="20.069828" style="stroke: #000000; stroke-width: 0.8"/>
      </g>
     </g>
     <g id="text_23">
      <!-- $\mathdefault{0}$ -->
      <g transform="translate(307.228271 408.611235) scale(0.1 -0.1)">
       <use xlink:href="#CMR17-30" transform="scale(0.996264)"/>
      </g>
     </g>
    </g>
    <g id="xtick_6">
     <g id="line2d_71">
      <path d="M 354.726191 398.192737 
L 354.726191 20.069828 
" clip-path="url(#p21943326eb)" style="fill: none; stroke-dasharray: 0.8,1.32; stroke-dashoffset: 0; stroke: #b0b0b0; stroke-width: 0.8"/>
     </g>
     <g id="line2d_72">
      <g>
       <use xlink:href="#md76fe4d20d" x="354.726191" y="398.192737" style="stroke: #000000; stroke-width: 0.8"/>
      </g>
     </g>
     <g id="line2d_73">
      <g>
       <use xlink:href="#m50108451c6" x="354.726191" y="20.069828" style="stroke: #000000; stroke-width: 0.8"/>
      </g>
     </g>
     <g id="text_24">
      <!-- $\mathdefault{2}$ -->
      <g transform="translate(352.235523 408.611235) scale(0.1 -0.1)">
       <use xlink:href="#CMR17-32" transform="scale(0.996264)"/>
      </g>
     </g>
    </g>
    <g id="xtick_7">
     <g id="line2d_74">
      <path d="M 399.733443 398.192737 
L 399.733443 20.069828 
" clip-path="url(#p21943326eb)" style="fill: none; stroke-dasharray: 0.8,1.32; stroke-dashoffset: 0; stroke: #b0b0b0; stroke-width: 0.8"/>
     </g>
     <g id="line2d_75">
      <g>
       <use xlink:href="#md76fe4d20d" x="399.733443" y="398.192737" style="stroke: #000000; stroke-width: 0.8"/>
      </g>
     </g>
     <g id="line2d_76">
      <g>
       <use xlink:href="#m50108451c6" x="399.733443" y="20.069828" style="stroke: #000000; stroke-width: 0.8"/>
      </g>
     </g>
     <g id="text_25">
      <!-- $\mathdefault{4}$ -->
      <g transform="translate(397.242775 408.611235) scale(0.1 -0.1)">
       <use xlink:href="#CMR17-34" transform="scale(0.996264)"/>
      </g>
     </g>
    </g>
    <g id="xtick_8">
     <g id="line2d_77">
      <path d="M 444.740695 398.192737 
L 444.740695 20.069828 
" clip-path="url(#p21943326eb)" style="fill: none; stroke-dasharray: 0.8,1.32; stroke-dashoffset: 0; stroke: #b0b0b0; stroke-width: 0.8"/>
     </g>
     <g id="line2d_78">
      <g>
       <use xlink:href="#md76fe4d20d" x="444.740695" y="398.192737" style="stroke: #000000; stroke-width: 0.8"/>
      </g>
     </g>
     <g id="line2d_79">
      <g>
       <use xlink:href="#m50108451c6" x="444.740695" y="20.069828" style="stroke: #000000; stroke-width: 0.8"/>
      </g>
     </g>
     <g id="text_26">
      <!-- $\mathdefault{6}$ -->
      <g transform="translate(442.250027 408.611235) scale(0.1 -0.1)">
       <use xlink:href="#CMR17-36" transform="scale(0.996264)"/>
      </g>
     </g>
    </g>
    <g id="xtick_9">
     <g id="line2d_80">
      <path d="M 489.747947 398.192737 
L 489.747947 20.069828 
" clip-path="url(#p21943326eb)" style="fill: none; stroke-dasharray: 0.8,1.32; stroke-dashoffset: 0; stroke: #b0b0b0; stroke-width: 0.8"/>
     </g>
     <g id="line2d_81">
      <g>
       <use xlink:href="#md76fe4d20d" x="489.747947" y="398.192737" style="stroke: #000000; stroke-width: 0.8"/>
      </g>
     </g>
     <g id="line2d_82">
      <g>
       <use xlink:href="#m50108451c6" x="489.747947" y="20.069828" style="stroke: #000000; stroke-width: 0.8"/>
      </g>
     </g>
     <g id="text_27">
      <!-- $\mathdefault{8}$ -->
      <g transform="translate(487.257279 408.611235) scale(0.1 -0.1)">
       <use xlink:href="#CMR17-38" transform="scale(0.996264)"/>
      </g>
     </g>
    </g>
    <g id="text_28">
     <!-- $H/U_{\infty} \partial_y u$ -->
     <g transform="translate(358.959974 425.009186) scale(0.14 -0.14)">
      <defs>
       <path id="CMMI12-40" d="M 2906 2145 
C 2867 2504 2643 2935 2067 2935 
C 1165 2935 243 2017 243 996 
C 243 604 512 -134 1382 -134 
C 2893 -134 3539 2067 3539 2944 
C 3539 3866 3021 4576 2202 4576 
C 1274 4576 998 3763 998 3590 
C 998 3533 1037 3392 1216 3392 
C 1440 3392 1536 3597 1536 3706 
C 1536 3904 1338 3904 1254 3904 
C 1517 4378 2003 4422 2176 4422 
C 2739 4422 3098 3975 3098 3262 
C 3098 2853 2976 2380 2912 2145 
L 2906 2145 
z
M 1402 38 
C 800 38 698 514 698 784 
C 698 1066 877 1728 973 1965 
C 1056 2158 1421 2807 2086 2807 
C 2669 2807 2803 2299 2803 1953 
C 2803 1477 2387 38 1402 38 
z
" transform="scale(0.015625)"/>
      </defs>
      <use xlink:href="#CMMI12-48" transform="scale(0.996264)"/>
      <use xlink:href="#CMMI12-3d" transform="translate(83.102337 0) scale(0.996264)"/>
      <use xlink:href="#CMMI12-55" transform="translate(131.877256 0) scale(0.996264)"/>
      <use xlink:href="#CMSY10-31" transform="translate(198.129375 -14.943915) scale(0.697382)"/>
      <use xlink:href="#CMMI12-40" transform="translate(268.365881 0) scale(0.996264)"/>
      <use xlink:href="#CMMI12-79" transform="translate(319.86201 -14.943915) scale(0.697382)"/>
      <use xlink:href="#CMMI12-75" transform="translate(356.157117 0) scale(0.996264)"/>
     </g>
    </g>
   </g>
   <g id="matplotlib.axis_4">
    <g id="ytick_7">
     <g id="line2d_83">
      <path d="M 275.963499 398.192737 
L 500.99976 398.192737 
" clip-path="url(#p21943326eb)" style="fill: none; stroke-dasharray: 0.8,1.32; stroke-dashoffset: 0; stroke: #b0b0b0; stroke-width: 0.8"/>
     </g>
     <g id="line2d_84">
      <g>
       <use xlink:href="#m820a3bd327" x="275.963499" y="398.192737" style="stroke: #000000; stroke-width: 0.8"/>
      </g>
     </g>
     <g id="line2d_85">
      <g>
       <use xlink:href="#ma61074e7dc" x="500.99976" y="398.192737" style="stroke: #000000; stroke-width: 0.8"/>
      </g>
     </g>
    </g>
    <g id="ytick_8">
     <g id="line2d_86">
      <path d="M 275.963499 322.568155 
L 500.99976 322.568155 
" clip-path="url(#p21943326eb)" style="fill: none; stroke-dasharray: 0.8,1.32; stroke-dashoffset: 0; stroke: #b0b0b0; stroke-width: 0.8"/>
     </g>
     <g id="line2d_87">
      <g>
       <use xlink:href="#m820a3bd327" x="275.963499" y="322.568155" style="stroke: #000000; stroke-width: 0.8"/>
      </g>
     </g>
     <g id="line2d_88">
      <g>
       <use xlink:href="#ma61074e7dc" x="500.99976" y="322.568155" style="stroke: #000000; stroke-width: 0.8"/>
      </g>
     </g>
    </g>
    <g id="ytick_9">
     <g id="line2d_89">
      <path d="M 275.963499 246.943573 
L 500.99976 246.943573 
" clip-path="url(#p21943326eb)" style="fill: none; stroke-dasharray: 0.8,1.32; stroke-dashoffset: 0; stroke: #b0b0b0; stroke-width: 0.8"/>
     </g>
     <g id="line2d_90">
      <g>
       <use xlink:href="#m820a3bd327" x="275.963499" y="246.943573" style="stroke: #000000; stroke-width: 0.8"/>
      </g>
     </g>
     <g id="line2d_91">
      <g>
       <use xlink:href="#ma61074e7dc" x="500.99976" y="246.943573" style="stroke: #000000; stroke-width: 0.8"/>
      </g>
     </g>
    </g>
    <g id="ytick_10">
     <g id="line2d_92">
      <path d="M 275.963499 171.318992 
L 500.99976 171.318992 
" clip-path="url(#p21943326eb)" style="fill: none; stroke-dasharray: 0.8,1.32; stroke-dashoffset: 0; stroke: #b0b0b0; stroke-width: 0.8"/>
     </g>
     <g id="line2d_93">
      <g>
       <use xlink:href="#m820a3bd327" x="275.963499" y="171.318992" style="stroke: #000000; stroke-width: 0.8"/>
      </g>
     </g>
     <g id="line2d_94">
      <g>
       <use xlink:href="#ma61074e7dc" x="500.99976" y="171.318992" style="stroke: #000000; stroke-width: 0.8"/>
      </g>
     </g>
    </g>
    <g id="ytick_11">
     <g id="line2d_95">
      <path d="M 275.963499 95.69441 
L 500.99976 95.69441 
" clip-path="url(#p21943326eb)" style="fill: none; stroke-dasharray: 0.8,1.32; stroke-dashoffset: 0; stroke: #b0b0b0; stroke-width: 0.8"/>
     </g>
     <g id="line2d_96">
      <g>
       <use xlink:href="#m820a3bd327" x="275.963499" y="95.69441" style="stroke: #000000; stroke-width: 0.8"/>
      </g>
     </g>
     <g id="line2d_97">
      <g>
       <use xlink:href="#ma61074e7dc" x="500.99976" y="95.69441" style="stroke: #000000; stroke-width: 0.8"/>
      </g>
     </g>
    </g>
    <g id="ytick_12">
     <g id="line2d_98">
      <path d="M 275.963499 20.069828 
L 500.99976 20.069828 
" clip-path="url(#p21943326eb)" style="fill: none; stroke-dasharray: 0.8,1.32; stroke-dashoffset: 0; stroke: #b0b0b0; stroke-width: 0.8"/>
     </g>
     <g id="line2d_99">
      <g>
       <use xlink:href="#m820a3bd327" x="275.963499" y="20.069828" style="stroke: #000000; stroke-width: 0.8"/>
      </g>
     </g>
     <g id="line2d_100">
      <g>
       <use xlink:href="#ma61074e7dc" x="500.99976" y="20.069828" style="stroke: #000000; stroke-width: 0.8"/>
      </g>
     </g>
    </g>
   </g>
   <g id="line2d_101">
    <path d="M 309.718939 398.192737 
L 309.718939 20.069828 
" clip-path="url(#p21943326eb)" style="fill: none; stroke-dasharray: 5.55,2.4; stroke-dashoffset: 0; stroke: #000000; stroke-opacity: 0.75; stroke-width: 1.5"/>
   </g>
   <g id="patch_9">
    <path d="M 275.963499 398.192737 
L 275.963499 20.069828 
" style="fill: none; stroke: #000000; stroke-width: 0.8; stroke-linejoin: miter; stroke-linecap: square"/>
   </g>
   <g id="patch_10">
    <path d="M 500.99976 398.192737 
L 500.99976 20.069828 
" style="fill: none; stroke: #000000; stroke-width: 0.8; stroke-linejoin: miter; stroke-linecap: square"/>
   </g>
   <g id="patch_11">
    <path d="M 275.963499 398.192737 
L 500.99976 398.192737 
" style="fill: none; stroke: #000000; stroke-width: 0.8; stroke-linejoin: miter; stroke-linecap: square"/>
   </g>
   <g id="patch_12">
    <path d="M 275.963499 20.069828 
L 500.99976 20.069828 
" style="fill: none; stroke: #000000; stroke-width: 0.8; stroke-linejoin: miter; stroke-linecap: square"/>
   </g>
   <g id="text_29">
    <!-- Strain rate profile -->
    <g transform="translate(327.783953 14.069828) scale(0.16 -0.16)">
     <defs>
      <path id="CMR17-53" d="M 2803 4290 
C 2803 4404 2797 4411 2758 4411 
C 2720 4411 2707 4385 2682 4328 
L 2490 3907 
C 2246 4257 1875 4416 1472 4416 
C 819 4416 294 3901 294 3253 
C 294 3056 339 2776 557 2510 
C 794 2218 1018 2167 1530 2033 
C 1722 1982 2042 1899 2106 1874 
C 2470 1722 2662 1341 2662 985 
C 2662 527 2336 38 1779 38 
C 1094 38 454 419 410 1311 
C 403 1413 397 1419 352 1419 
C 301 1419 294 1413 294 1285 
L 294 -1 
C 294 -115 301 -122 339 -122 
C 384 -122 397 -90 486 108 
C 493 127 493 140 614 381 
C 934 -39 1472 -128 1779 -128 
C 2477 -128 2970 451 2970 1124 
C 2970 1454 2848 1708 2778 1823 
C 2509 2230 2221 2306 1914 2382 
C 1869 2402 1856 2402 1498 2490 
C 1152 2579 1005 2624 845 2796 
C 666 2992 602 3196 602 3399 
C 602 3812 934 4263 1478 4263 
C 2157 4263 2579 3786 2675 2993 
C 2694 2878 2701 2872 2746 2872 
C 2803 2872 2803 2891 2803 2999 
L 2803 4290 
z
" transform="scale(0.015625)"/>
      <path id="CMR17-61" d="M 2304 1653 
C 2304 2072 2304 2294 2035 2543 
C 1798 2752 1523 2816 1306 2816 
C 800 2816 435 2407 435 1971 
C 435 1728 627 1728 666 1728 
C 749 1728 896 1778 896 1954 
C 896 2112 774 2181 666 2181 
C 640 2181 608 2174 589 2168 
C 723 2592 1069 2714 1293 2714 
C 1613 2714 1965 2429 1965 1885 
L 1965 1600 
C 1587 1600 1133 1549 774 1357 
C 371 1133 256 813 256 570 
C 256 77 832 -64 1171 -64 
C 1523 -64 1850 139 1990 511 
C 2003 233 2182 -18 2464 -18 
C 2598 -18 2938 70 2938 567 
L 2938 920 
L 2822 920 
L 2822 562 
C 2822 178 2650 128 2566 128 
C 2304 128 2304 458 2304 738 
L 2304 1653 
z
M 1965 870 
C 1965 317 1568 38 1216 38 
C 896 38 646 275 646 570 
C 646 761 730 1100 1101 1305 
C 1408 1478 1760 1504 1965 1504 
L 1965 870 
z
" transform="scale(0.015625)"/>
      <path id="CMR17-6e" d="M 2656 1933 
C 2656 2259 2592 2790 1837 2790 
C 1331 2790 1069 2400 973 2144 
L 966 2144 
L 966 2790 
L 211 2720 
L 211 2554 
C 589 2554 646 2515 646 2208 
L 646 428 
C 646 184 621 153 211 153 
L 211 -13 
C 365 0 646 0 813 0 
C 979 0 1267 0 1421 -13 
L 1421 153 
C 1011 153 986 178 986 428 
L 986 1658 
C 986 2247 1344 2688 1792 2688 
C 2266 2688 2317 2266 2317 1958 
L 2317 428 
C 2317 184 2291 153 1882 153 
L 1882 -13 
C 2035 0 2317 0 2483 0 
C 2650 0 2938 0 3091 -13 
L 3091 153 
C 2682 153 2656 178 2656 428 
L 2656 1933 
z
" transform="scale(0.015625)"/>
     </defs>
     <use xlink:href="#CMR17-53" transform="scale(0.996264)"/>
     <use xlink:href="#CMR17-74" transform="translate(50.89537 0) scale(0.996264)"/>
     <use xlink:href="#CMR17-72" transform="translate(86.176138 0) scale(0.996264)"/>
     <use xlink:href="#CMR17-61" transform="translate(121.456905 0) scale(0.996264)"/>
     <use xlink:href="#CMR17-69" transform="translate(167.147382 0) scale(0.996264)"/>
     <use xlink:href="#CMR17-6e" transform="translate(192.018441 0) scale(0.996264)"/>
     <use xlink:href="#CMR17-72" transform="translate(272.989777 0) scale(0.996264)"/>
     <use xlink:href="#CMR17-61" transform="translate(308.270545 0) scale(0.996264)"/>
     <use xlink:href="#CMR17-74" transform="translate(353.961022 0) scale(0.996264)"/>
     <use xlink:href="#CMR17-65" transform="translate(389.24179 0) scale(0.996264)"/>
     <use xlink:href="#CMR17-70" transform="translate(459.803417 0) scale(0.996264)"/>
     <use xlink:href="#CMR17-72" transform="translate(510.698786 0) scale(0.996264)"/>
     <use xlink:href="#CMR17-6f" transform="translate(545.979554 0) scale(0.996264)"/>
     <use xlink:href="#CMR17-c" transform="translate(591.670031 0) scale(0.996264)"/>
     <use xlink:href="#CMR17-6c" transform="translate(641.412255 0) scale(0.996264)"/>
     <use xlink:href="#CMR17-65" transform="translate(666.283313 0) scale(0.996264)"/>
    </g>
   </g>
  </g>
 </g>
 <defs>
  <clipPath id="pc2dd5494b0">
   <rect x="44.926759" y="20.069828" width="225.036261" height="378.122909"/>
  </clipPath>
  <clipPath id="p21943326eb">
   <rect x="275.963499" y="20.069828" width="225.036261" height="378.122909"/>
  </clipPath>
 </defs>
</svg>
