<?xml version="1.0" encoding="utf-8" standalone="no"?>
<!DOCTYPE svg PUBLIC "-//W3C//DTD SVG 1.1//EN"
  "http://www.w3.org/Graphics/SVG/1.1/DTD/svg11.dtd">
<svg xmlns:xlink="http://www.w3.org/1999/xlink" width="504pt" height="336pt" viewBox="0 0 504 336" xmlns="http://www.w3.org/2000/svg" version="1.1">
 <metadata>
  <rdf:RDF xmlns:dc="http://purl.org/dc/elements/1.1/" xmlns:cc="http://creativecommons.org/ns#" xmlns:rdf="http://www.w3.org/1999/02/22-rdf-syntax-ns#">
   <cc:Work>
    <dc:type rdf:resource="http://purl.org/dc/dcmitype/StillImage"/>
    <dc:date>2023-05-29T13:39:26.453431</dc:date>
    <dc:format>image/svg+xml</dc:format>
    <dc:creator>
     <cc:Agent>
      <dc:title>Matplotlib v3.7.1, https://matplotlib.org/</dc:title>
     </cc:Agent>
    </dc:creator>
   </cc:Work>
  </rdf:RDF>
 </metadata>
 <defs>
  <style type="text/css">*{stroke-linejoin: round; stroke-linecap: butt}</style>
 </defs>
 <g id="figure_1">
  <g id="patch_1">
   <path d="M 0 336 
L 504 336 
L 504 0 
L 0 0 
L 0 336 
z
" style="fill: none"/>
  </g>
  <g id="axes_1">
   <g id="patch_2">
    <path d="M 44.926759 302.192737 
L 269.963019 302.192737 
L 269.963019 20.069828 
L 44.926759 20.069828 
L 44.926759 302.192737 
z
" style="fill: none"/>
   </g>
   <g id="line2d_1">
    <defs>
     <path id="m93c93cf271" d="M 0 2.5 
C 0.663008 2.5 1.29895 2.236584 1.767767 1.767767 
C 2.236584 1.29895 2.5 0.663008 2.5 0 
C 2.5 -0.663008 2.236584 -1.29895 1.767767 -1.767767 
C 1.29895 -2.236584 0.663008 -2.5 0 -2.5 
C -0.663008 -2.5 -1.29895 -2.236584 -1.767767 -1.767767 
C -2.236584 -1.29895 -2.5 -0.663008 -2.5 0 
C -2.5 0.663008 -2.236584 1.29895 -1.767767 1.767767 
C -1.29895 2.236584 -0.663008 2.5 0 2.5 
z
" style="stroke: #9e0142"/>
    </defs>
    <g clip-path="url(#p6ab85aad4b)">
     <use xlink:href="#m93c93cf271" x="129.533695" y="27.393892" style="fill: #9e0142; stroke: #9e0142"/>
    </g>
   </g>
   <g id="line2d_2">
    <defs>
     <path id="m5a6d07a41f" d="M 0 2.5 
C 0.663008 2.5 1.29895 2.236584 1.767767 1.767767 
C 2.236584 1.29895 2.5 0.663008 2.5 0 
C 2.5 -0.663008 2.236584 -1.29895 1.767767 -1.767767 
C 1.29895 -2.236584 0.663008 -2.5 0 -2.5 
C -0.663008 -2.5 -1.29895 -2.236584 -1.767767 -1.767767 
C -2.236584 -1.29895 -2.5 -0.663008 -2.5 0 
C -2.5 0.663008 -2.236584 1.29895 -1.767767 1.767767 
C -1.29895 2.236584 -0.663008 2.5 0 2.5 
z
" style="stroke: #f46d43"/>
    </defs>
    <g clip-path="url(#p6ab85aad4b)">
     <use xlink:href="#m5a6d07a41f" x="129.533695" y="35.21518" style="fill: #f46d43; stroke: #f46d43"/>
    </g>
   </g>
   <g id="line2d_3">
    <defs>
     <path id="m287093af9a" d="M 0 2.5 
C 0.663008 2.5 1.29895 2.236584 1.767767 1.767767 
C 2.236584 1.29895 2.5 0.663008 2.5 0 
C 2.5 -0.663008 2.236584 -1.29895 1.767767 -1.767767 
C 1.29895 -2.236584 0.663008 -2.5 0 -2.5 
C -0.663008 -2.5 -1.29895 -2.236584 -1.767767 -1.767767 
C -2.236584 -1.29895 -2.5 -0.663008 -2.5 0 
C -2.5 0.663008 -2.236584 1.29895 -1.767767 1.767767 
C -1.29895 2.236584 -0.663008 2.5 0 2.5 
z
" style="stroke: #fee08b"/>
    </defs>
    <g clip-path="url(#p6ab85aad4b)">
     <use xlink:href="#m287093af9a" x="129.533695" y="48.466245" style="fill: #fee08b; stroke: #fee08b"/>
    </g>
   </g>
   <g id="line2d_4">
    <defs>
     <path id="m77112f60ad" d="M 0 2.5 
C 0.663008 2.5 1.29895 2.236584 1.767767 1.767767 
C 2.236584 1.29895 2.5 0.663008 2.5 0 
C 2.5 -0.663008 2.236584 -1.29895 1.767767 -1.767767 
C 1.29895 -2.236584 0.663008 -2.5 0 -2.5 
C -0.663008 -2.5 -1.29895 -2.236584 -1.767767 -1.767767 
C -2.236584 -1.29895 -2.5 -0.663008 -2.5 0 
C -2.5 0.663008 -2.236584 1.29895 -1.767767 1.767767 
C -1.29895 2.236584 -0.663008 2.5 0 2.5 
z
" style="stroke: #e6f598"/>
    </defs>
    <g clip-path="url(#p6ab85aad4b)">
     <use xlink:href="#m77112f60ad" x="129.533695" y="63.111599" style="fill: #e6f598; stroke: #e6f598"/>
    </g>
   </g>
   <g id="line2d_5">
    <defs>
     <path id="m0f22dc83fa" d="M 0 2.5 
C 0.663008 2.5 1.29895 2.236584 1.767767 1.767767 
C 2.236584 1.29895 2.5 0.663008 2.5 0 
C 2.5 -0.663008 2.236584 -1.29895 1.767767 -1.767767 
C 1.29895 -2.236584 0.663008 -2.5 0 -2.5 
C -0.663008 -2.5 -1.29895 -2.236584 -1.767767 -1.767767 
C -2.236584 -1.29895 -2.5 -0.663008 -2.5 0 
C -2.5 0.663008 -2.236584 1.29895 -1.767767 1.767767 
C -1.29895 2.236584 -0.663008 2.5 0 2.5 
z
" style="stroke: #66c2a5"/>
    </defs>
    <g clip-path="url(#p6ab85aad4b)">
     <use xlink:href="#m0f22dc83fa" x="129.533695" y="77.925914" style="fill: #66c2a5; stroke: #66c2a5"/>
    </g>
   </g>
   <g id="line2d_6">
    <defs>
     <path id="mb6c834d463" d="M 0 2.5 
C 0.663008 2.5 1.29895 2.236584 1.767767 1.767767 
C 2.236584 1.29895 2.5 0.663008 2.5 0 
C 2.5 -0.663008 2.236584 -1.29895 1.767767 -1.767767 
C 1.29895 -2.236584 0.663008 -2.5 0 -2.5 
C -0.663008 -2.5 -1.29895 -2.236584 -1.767767 -1.767767 
C -2.236584 -1.29895 -2.5 -0.663008 -2.5 0 
C -2.5 0.663008 -2.236584 1.29895 -1.767767 1.767767 
C -1.29895 2.236584 -0.663008 2.5 0 2.5 
z
" style="stroke: #5e4fa2"/>
    </defs>
    <g clip-path="url(#p6ab85aad4b)">
     <use xlink:href="#mb6c834d463" x="129.533695" y="86.629303" style="fill: #5e4fa2; stroke: #5e4fa2"/>
    </g>
   </g>
   <g id="matplotlib.axis_1">
    <g id="xtick_1">
     <g id="line2d_7">
      <path d="M 67.120662 302.192737 
L 67.120662 20.069828 
" clip-path="url(#p6ab85aad4b)" style="fill: none; stroke-dasharray: 0.8,1.32; stroke-dashoffset: 0; stroke: #b0b0b0; stroke-width: 0.8"/>
     </g>
     <g id="line2d_8">
      <defs>
       <path id="m8125c78ff7" d="M 0 0 
L 0 -3.5 
" style="stroke: #000000; stroke-width: 0.8"/>
      </defs>
      <g>
       <use xlink:href="#m8125c78ff7" x="67.120662" y="302.192737" style="stroke: #000000; stroke-width: 0.8"/>
      </g>
     </g>
     <g id="line2d_9">
      <defs>
       <path id="m7e6028fc31" d="M 0 0 
L 0 3.5 
" style="stroke: #000000; stroke-width: 0.8"/>
      </defs>
      <g>
       <use xlink:href="#m7e6028fc31" x="67.120662" y="20.069828" style="stroke: #000000; stroke-width: 0.8"/>
      </g>
     </g>
     <g id="text_1">
      <!-- $\mathdefault{−0.2}$ -->
      <g transform="translate(56.88125 312.611235) scale(0.1 -0.1)">
       <defs>
        <path id="CMSY10-0" d="M 4218 1472 
C 4326 1472 4442 1472 4442 1600 
C 4442 1728 4326 1728 4218 1728 
L 755 1728 
C 646 1728 531 1728 531 1600 
C 531 1472 646 1472 755 1472 
L 4218 1472 
z
" transform="scale(0.015625)"/>
        <path id="CMR17-30" d="M 2688 2025 
C 2688 2416 2682 3080 2413 3591 
C 2176 4039 1798 4198 1466 4198 
C 1158 4198 768 4058 525 3597 
C 269 3118 243 2524 243 2025 
C 243 1661 250 1106 448 619 
C 723 -39 1216 -128 1466 -128 
C 1760 -128 2208 -7 2470 600 
C 2662 1042 2688 1559 2688 2025 
z
M 1466 -26 
C 1056 -26 813 325 723 812 
C 653 1188 653 1738 653 2096 
C 653 2588 653 2997 736 3387 
C 858 3929 1216 4096 1466 4096 
C 1728 4096 2067 3923 2189 3400 
C 2272 3036 2278 2607 2278 2096 
C 2278 1680 2278 1169 2202 792 
C 2067 95 1690 -26 1466 -26 
z
" transform="scale(0.015625)"/>
        <path id="CMMI12-3a" d="M 1178 307 
C 1178 492 1024 619 870 619 
C 685 619 557 466 557 313 
C 557 128 710 0 864 0 
C 1050 0 1178 153 1178 307 
z
" transform="scale(0.015625)"/>
        <path id="CMR17-32" d="M 2669 989 
L 2554 989 
C 2490 536 2438 459 2413 420 
C 2381 369 1920 369 1830 369 
L 602 369 
C 832 619 1280 1072 1824 1597 
C 2214 1967 2669 2402 2669 3035 
C 2669 3790 2067 4224 1395 4224 
C 691 4224 262 3604 262 3030 
C 262 2780 448 2748 525 2748 
C 589 2748 781 2787 781 3010 
C 781 3207 614 3264 525 3264 
C 486 3264 448 3258 422 3245 
C 544 3790 915 4058 1306 4058 
C 1862 4058 2227 3617 2227 3035 
C 2227 2479 1901 2000 1536 1584 
L 262 146 
L 262 0 
L 2515 0 
L 2669 989 
z
" transform="scale(0.015625)"/>
       </defs>
       <use xlink:href="#CMSY10-0" transform="scale(0.996264)"/>
       <use xlink:href="#CMR17-30" transform="translate(77.487468 0) scale(0.996264)"/>
       <use xlink:href="#CMMI12-3a" transform="translate(123.177945 0) scale(0.996264)"/>
       <use xlink:href="#CMR17-32" transform="translate(150.275122 0) scale(0.996264)"/>
      </g>
     </g>
    </g>
    <g id="xtick_2">
     <g id="line2d_10">
      <path d="M 129.533695 302.192737 
L 129.533695 20.069828 
" clip-path="url(#p6ab85aad4b)" style="fill: none; stroke-dasharray: 0.8,1.32; stroke-dashoffset: 0; stroke: #b0b0b0; stroke-width: 0.8"/>
     </g>
     <g id="line2d_11">
      <g>
       <use xlink:href="#m8125c78ff7" x="129.533695" y="302.192737" style="stroke: #000000; stroke-width: 0.8"/>
      </g>
     </g>
     <g id="line2d_12">
      <g>
       <use xlink:href="#m7e6028fc31" x="129.533695" y="20.069828" style="stroke: #000000; stroke-width: 0.8"/>
      </g>
     </g>
     <g id="text_2">
      <!-- $\mathdefault{0.0}$ -->
      <g transform="translate(123.168655 312.611235) scale(0.1 -0.1)">
       <use xlink:href="#CMR17-30" transform="scale(0.996264)"/>
       <use xlink:href="#CMMI12-3a" transform="translate(45.690477 0) scale(0.996264)"/>
       <use xlink:href="#CMR17-30" transform="translate(72.787654 0) scale(0.996264)"/>
      </g>
     </g>
    </g>
    <g id="xtick_3">
     <g id="line2d_13">
      <path d="M 191.946728 302.192737 
L 191.946728 20.069828 
" clip-path="url(#p6ab85aad4b)" style="fill: none; stroke-dasharray: 0.8,1.32; stroke-dashoffset: 0; stroke: #b0b0b0; stroke-width: 0.8"/>
     </g>
     <g id="line2d_14">
      <g>
       <use xlink:href="#m8125c78ff7" x="191.946728" y="302.192737" style="stroke: #000000; stroke-width: 0.8"/>
      </g>
     </g>
     <g id="line2d_15">
      <g>
       <use xlink:href="#m7e6028fc31" x="191.946728" y="20.069828" style="stroke: #000000; stroke-width: 0.8"/>
      </g>
     </g>
     <g id="text_3">
      <!-- $\mathdefault{0.2}$ -->
      <g transform="translate(185.581689 312.611235) scale(0.1 -0.1)">
       <use xlink:href="#CMR17-30" transform="scale(0.996264)"/>
       <use xlink:href="#CMMI12-3a" transform="translate(45.690477 0) scale(0.996264)"/>
       <use xlink:href="#CMR17-32" transform="translate(72.787654 0) scale(0.996264)"/>
      </g>
     </g>
    </g>
    <g id="xtick_4">
     <g id="line2d_16">
      <path d="M 254.359761 302.192737 
L 254.359761 20.069828 
" clip-path="url(#p6ab85aad4b)" style="fill: none; stroke-dasharray: 0.8,1.32; stroke-dashoffset: 0; stroke: #b0b0b0; stroke-width: 0.8"/>
     </g>
     <g id="line2d_17">
      <g>
       <use xlink:href="#m8125c78ff7" x="254.359761" y="302.192737" style="stroke: #000000; stroke-width: 0.8"/>
      </g>
     </g>
     <g id="line2d_18">
      <g>
       <use xlink:href="#m7e6028fc31" x="254.359761" y="20.069828" style="stroke: #000000; stroke-width: 0.8"/>
      </g>
     </g>
     <g id="text_4">
      <!-- $\mathdefault{0.4}$ -->
      <g transform="translate(247.994722 312.611235) scale(0.1 -0.1)">
       <defs>
        <path id="CMR17-34" d="M 2150 4122 
C 2150 4256 2144 4256 2029 4256 
L 128 1254 
L 128 1088 
L 1779 1088 
L 1779 457 
C 1779 224 1766 160 1318 160 
L 1197 160 
L 1197 0 
C 1402 0 1747 0 1965 0 
C 2182 0 2528 0 2733 0 
L 2733 160 
L 2611 160 
C 2163 160 2150 224 2150 457 
L 2150 1088 
L 2803 1088 
L 2803 1254 
L 2150 1254 
L 2150 4122 
z
M 1798 3703 
L 1798 1254 
L 256 1254 
L 1798 3703 
z
" transform="scale(0.015625)"/>
       </defs>
       <use xlink:href="#CMR17-30" transform="scale(0.996264)"/>
       <use xlink:href="#CMMI12-3a" transform="translate(45.690477 0) scale(0.996264)"/>
       <use xlink:href="#CMR17-34" transform="translate(72.787654 0) scale(0.996264)"/>
      </g>
     </g>
    </g>
    <g id="text_5">
     <!-- $u/U_{\infty}$ -->
     <g transform="translate(140.489346 329.009186) scale(0.14 -0.14)">
      <defs>
       <path id="CMMI12-75" d="M 2182 370 
C 2266 13 2573 -64 2726 -64 
C 2931 -64 3085 70 3187 287 
C 3296 517 3379 894 3379 913 
C 3379 945 3354 971 3315 971 
C 3258 971 3251 939 3226 843 
C 3110 402 2995 64 2739 64 
C 2547 64 2547 275 2547 358 
C 2547 505 2566 568 2630 837 
C 2675 1009 2720 1181 2758 1360 
L 3021 2401 
C 3066 2561 3066 2574 3066 2593 
C 3066 2689 2989 2753 2893 2753 
C 2707 2753 2662 2593 2624 2433 
C 2560 2184 2214 811 2170 588 
C 2163 588 1914 64 1446 64 
C 1114 64 1050 351 1050 588 
C 1050 952 1229 1462 1395 1890 
C 1472 2095 1504 2178 1504 2305 
C 1504 2580 1306 2816 998 2816 
C 410 2816 173 1890 173 1839 
C 173 1814 198 1782 243 1782 
C 301 1782 307 1807 333 1896 
C 486 2441 736 2682 979 2682 
C 1043 2682 1146 2682 1146 2478 
C 1146 2312 1075 2127 979 1884 
C 698 1124 666 881 666 690 
C 666 38 1158 -64 1421 -64 
C 1830 -64 2054 217 2182 370 
z
" transform="scale(0.015625)"/>
       <path id="CMMI12-3d" d="M 2746 4562 
C 2746 4569 2784 4666 2784 4678 
C 2784 4755 2720 4800 2669 4800 
C 2637 4800 2579 4800 2528 4659 
L 384 -1363 
C 384 -1370 346 -1465 346 -1478 
C 346 -1555 410 -1600 461 -1600 
C 499 -1600 557 -1593 602 -1459 
L 2746 4562 
z
" transform="scale(0.015625)"/>
       <path id="CMMI12-55" d="M 3238 1474 
C 3014 581 2272 57 1670 57 
C 1210 57 896 363 896 891 
C 896 916 896 1107 966 1387 
L 1594 3887 
C 1651 4103 1664 4167 2118 4167 
C 2234 4167 2298 4167 2298 4282 
C 2298 4352 2240 4352 2202 4352 
C 2086 4352 1952 4352 1830 4352 
L 1075 4352 
C 954 4352 819 4352 698 4352 
C 653 4352 576 4352 576 4231 
C 576 4167 621 4167 742 4167 
C 1126 4167 1126 4116 1126 4046 
C 1126 4008 1082 3824 1050 3715 
L 493 1488 
C 474 1418 435 1246 435 1075 
C 435 374 941 -128 1638 -128 
C 2285 -128 3002 384 3328 1197 
C 3373 1305 3430 1530 3469 1702 
C 3533 1933 3667 2496 3712 2662 
L 3955 3623 
C 4038 3956 4090 4167 4653 4167 
C 4704 4173 4730 4224 4730 4282 
C 4730 4352 4672 4352 4646 4352 
C 4557 4352 4442 4352 4352 4352 
L 4051 4352 
C 3654 4352 3450 4352 3443 4352 
C 3405 4352 3328 4352 3328 4231 
C 3328 4167 3379 4167 3424 4167 
C 3808 4167 3834 4020 3834 3905 
C 3834 3848 3834 3828 3808 3739 
L 3238 1474 
z
" transform="scale(0.015625)"/>
       <path id="CMSY10-31" d="M 3251 1730 
C 2906 2166 2829 2262 2630 2422 
C 2272 2710 1914 2825 1587 2825 
C 838 2825 352 2122 352 1374 
C 352 639 826 -70 1562 -70 
C 2298 -70 2829 511 3142 1022 
C 3488 588 3565 492 3763 332 
C 4122 45 4480 -70 4806 -70 
C 5555 -70 6042 633 6042 1380 
C 6042 2115 5568 2825 4832 2825 
C 4096 2825 3565 2242 3251 1730 
z
M 3418 1514 
C 3680 1975 4154 2620 4877 2620 
C 5555 2620 5901 1955 5901 1380 
C 5901 753 5472 236 4909 236 
C 4538 236 4250 505 4115 638 
C 3955 811 3808 1009 3418 1514 
z
M 2976 1240 
C 2714 780 2240 134 1517 134 
C 838 134 493 799 493 1374 
C 493 2000 922 2518 1485 2518 
C 1856 2518 2144 2249 2278 2115 
C 2438 1943 2586 1744 2976 1240 
z
" transform="scale(0.015625)"/>
      </defs>
      <use xlink:href="#CMMI12-75" transform="scale(0.996264)"/>
      <use xlink:href="#CMMI12-3d" transform="translate(55.52033 0) scale(0.996264)"/>
      <use xlink:href="#CMMI12-55" transform="translate(104.295248 0) scale(0.996264)"/>
      <use xlink:href="#CMSY10-31" transform="translate(170.547368 -14.943915) scale(0.697382)"/>
     </g>
    </g>
   </g>
   <g id="matplotlib.axis_2">
    <g id="ytick_1">
     <g id="line2d_19">
      <path d="M 44.926759 302.192737 
L 269.963019 302.192737 
" clip-path="url(#p6ab85aad4b)" style="fill: none; stroke-dasharray: 0.8,1.32; stroke-dashoffset: 0; stroke: #b0b0b0; stroke-width: 0.8"/>
     </g>
     <g id="line2d_20">
      <defs>
       <path id="m666b43f18d" d="M 0 0 
L 3.5 0 
" style="stroke: #000000; stroke-width: 0.8"/>
      </defs>
      <g>
       <use xlink:href="#m666b43f18d" x="44.926759" y="302.192737" style="stroke: #000000; stroke-width: 0.8"/>
      </g>
     </g>
     <g id="line2d_21">
      <defs>
       <path id="m7480e4adad" d="M 0 0 
L -3.5 0 
" style="stroke: #000000; stroke-width: 0.8"/>
      </defs>
      <g>
       <use xlink:href="#m7480e4adad" x="269.963019" y="302.192737" style="stroke: #000000; stroke-width: 0.8"/>
      </g>
     </g>
     <g id="text_6">
      <!-- $\mathdefault{−1.0}$ -->
      <g transform="translate(20.947936 305.651986) scale(0.1 -0.1)">
       <defs>
        <path id="CMR17-31" d="M 1702 4058 
C 1702 4192 1696 4192 1606 4192 
C 1357 3916 979 3827 621 3827 
C 602 3827 570 3827 563 3808 
C 557 3795 557 3782 557 3648 
C 755 3648 1088 3686 1344 3839 
L 1344 461 
C 1344 236 1331 160 781 160 
L 589 160 
L 589 0 
C 896 0 1216 0 1523 0 
C 1830 0 2150 0 2458 0 
L 2458 160 
L 2266 160 
C 1715 160 1702 230 1702 458 
L 1702 4058 
z
" transform="scale(0.015625)"/>
       </defs>
       <use xlink:href="#CMSY10-0" transform="scale(0.996264)"/>
       <use xlink:href="#CMR17-31" transform="translate(77.487468 0) scale(0.996264)"/>
       <use xlink:href="#CMMI12-3a" transform="translate(123.177945 0) scale(0.996264)"/>
       <use xlink:href="#CMR17-30" transform="translate(150.275122 0) scale(0.996264)"/>
      </g>
     </g>
    </g>
    <g id="ytick_2">
     <g id="line2d_22">
      <path d="M 44.926759 245.768155 
L 269.963019 245.768155 
" clip-path="url(#p6ab85aad4b)" style="fill: none; stroke-dasharray: 0.8,1.32; stroke-dashoffset: 0; stroke: #b0b0b0; stroke-width: 0.8"/>
     </g>
     <g id="line2d_23">
      <g>
       <use xlink:href="#m666b43f18d" x="44.926759" y="245.768155" style="stroke: #000000; stroke-width: 0.8"/>
      </g>
     </g>
     <g id="line2d_24">
      <g>
       <use xlink:href="#m7480e4adad" x="269.963019" y="245.768155" style="stroke: #000000; stroke-width: 0.8"/>
      </g>
     </g>
     <g id="text_7">
      <!-- $\mathdefault{−0.8}$ -->
      <g transform="translate(20.947936 249.227404) scale(0.1 -0.1)">
       <defs>
        <path id="CMR17-38" d="M 1741 2264 
C 2144 2467 2554 2773 2554 3263 
C 2554 3841 1990 4179 1472 4179 
C 890 4179 378 3759 378 3180 
C 378 3021 416 2747 666 2505 
C 730 2442 998 2251 1171 2130 
C 883 1983 211 1634 211 934 
C 211 279 838 -128 1459 -128 
C 2144 -128 2720 362 2720 1010 
C 2720 1590 2330 1857 2074 2029 
L 1741 2264 
z
M 902 2822 
C 851 2854 595 3051 595 3351 
C 595 3739 998 4032 1459 4032 
C 1965 4032 2336 3676 2336 3262 
C 2336 2669 1670 2331 1638 2331 
C 1632 2331 1626 2331 1574 2370 
L 902 2822 
z
M 2080 1519 
C 2176 1449 2483 1240 2483 851 
C 2483 381 2010 25 1472 25 
C 890 25 448 438 448 940 
C 448 1443 838 1862 1280 2060 
L 2080 1519 
z
" transform="scale(0.015625)"/>
       </defs>
       <use xlink:href="#CMSY10-0" transform="scale(0.996264)"/>
       <use xlink:href="#CMR17-30" transform="translate(77.487468 0) scale(0.996264)"/>
       <use xlink:href="#CMMI12-3a" transform="translate(123.177945 0) scale(0.996264)"/>
       <use xlink:href="#CMR17-38" transform="translate(150.275122 0) scale(0.996264)"/>
      </g>
     </g>
    </g>
    <g id="ytick_3">
     <g id="line2d_25">
      <path d="M 44.926759 189.343573 
L 269.963019 189.343573 
" clip-path="url(#p6ab85aad4b)" style="fill: none; stroke-dasharray: 0.8,1.32; stroke-dashoffset: 0; stroke: #b0b0b0; stroke-width: 0.8"/>
     </g>
     <g id="line2d_26">
      <g>
       <use xlink:href="#m666b43f18d" x="44.926759" y="189.343573" style="stroke: #000000; stroke-width: 0.8"/>
      </g>
     </g>
     <g id="line2d_27">
      <g>
       <use xlink:href="#m7480e4adad" x="269.963019" y="189.343573" style="stroke: #000000; stroke-width: 0.8"/>
      </g>
     </g>
     <g id="text_8">
      <!-- $\mathdefault{−0.6}$ -->
      <g transform="translate(20.947936 192.802823) scale(0.1 -0.1)">
       <defs>
        <path id="CMR17-36" d="M 678 2176 
C 678 3690 1395 4032 1811 4032 
C 1946 4032 2272 4009 2400 3776 
C 2298 3776 2106 3776 2106 3553 
C 2106 3381 2246 3323 2336 3323 
C 2394 3323 2566 3348 2566 3560 
C 2566 3954 2246 4179 1805 4179 
C 1043 4179 243 3390 243 1984 
C 243 253 966 -128 1478 -128 
C 2099 -128 2688 427 2688 1283 
C 2688 2081 2170 2662 1517 2662 
C 1126 2662 838 2407 678 1960 
L 678 2176 
z
M 1478 25 
C 691 25 691 1200 691 1436 
C 691 1896 909 2560 1504 2560 
C 1613 2560 1926 2560 2138 2120 
C 2253 1870 2253 1609 2253 1289 
C 2253 944 2253 690 2118 434 
C 1978 171 1773 25 1478 25 
z
" transform="scale(0.015625)"/>
       </defs>
       <use xlink:href="#CMSY10-0" transform="scale(0.996264)"/>
       <use xlink:href="#CMR17-30" transform="translate(77.487468 0) scale(0.996264)"/>
       <use xlink:href="#CMMI12-3a" transform="translate(123.177945 0) scale(0.996264)"/>
       <use xlink:href="#CMR17-36" transform="translate(150.275122 0) scale(0.996264)"/>
      </g>
     </g>
    </g>
    <g id="ytick_4">
     <g id="line2d_28">
      <path d="M 44.926759 132.918992 
L 269.963019 132.918992 
" clip-path="url(#p6ab85aad4b)" style="fill: none; stroke-dasharray: 0.8,1.32; stroke-dashoffset: 0; stroke: #b0b0b0; stroke-width: 0.8"/>
     </g>
     <g id="line2d_29">
      <g>
       <use xlink:href="#m666b43f18d" x="44.926759" y="132.918992" style="stroke: #000000; stroke-width: 0.8"/>
      </g>
     </g>
     <g id="line2d_30">
      <g>
       <use xlink:href="#m7480e4adad" x="269.963019" y="132.918992" style="stroke: #000000; stroke-width: 0.8"/>
      </g>
     </g>
     <g id="text_9">
      <!-- $\mathdefault{−0.4}$ -->
      <g transform="translate(20.947936 136.378241) scale(0.1 -0.1)">
       <use xlink:href="#CMSY10-0" transform="scale(0.996264)"/>
       <use xlink:href="#CMR17-30" transform="translate(77.487468 0) scale(0.996264)"/>
       <use xlink:href="#CMMI12-3a" transform="translate(123.177945 0) scale(0.996264)"/>
       <use xlink:href="#CMR17-34" transform="translate(150.275122 0) scale(0.996264)"/>
      </g>
     </g>
    </g>
    <g id="ytick_5">
     <g id="line2d_31">
      <path d="M 44.926759 76.49441 
L 269.963019 76.49441 
" clip-path="url(#p6ab85aad4b)" style="fill: none; stroke-dasharray: 0.8,1.32; stroke-dashoffset: 0; stroke: #b0b0b0; stroke-width: 0.8"/>
     </g>
     <g id="line2d_32">
      <g>
       <use xlink:href="#m666b43f18d" x="44.926759" y="76.49441" style="stroke: #000000; stroke-width: 0.8"/>
      </g>
     </g>
     <g id="line2d_33">
      <g>
       <use xlink:href="#m7480e4adad" x="269.963019" y="76.49441" style="stroke: #000000; stroke-width: 0.8"/>
      </g>
     </g>
     <g id="text_10">
      <!-- $\mathdefault{−0.2}$ -->
      <g transform="translate(20.947936 79.953659) scale(0.1 -0.1)">
       <use xlink:href="#CMSY10-0" transform="scale(0.996264)"/>
       <use xlink:href="#CMR17-30" transform="translate(77.487468 0) scale(0.996264)"/>
       <use xlink:href="#CMMI12-3a" transform="translate(123.177945 0) scale(0.996264)"/>
       <use xlink:href="#CMR17-32" transform="translate(150.275122 0) scale(0.996264)"/>
      </g>
     </g>
    </g>
    <g id="ytick_6">
     <g id="line2d_34">
      <path d="M 44.926759 20.069828 
L 269.963019 20.069828 
" clip-path="url(#p6ab85aad4b)" style="fill: none; stroke-dasharray: 0.8,1.32; stroke-dashoffset: 0; stroke: #b0b0b0; stroke-width: 0.8"/>
     </g>
     <g id="line2d_35">
      <g>
       <use xlink:href="#m666b43f18d" x="44.926759" y="20.069828" style="stroke: #000000; stroke-width: 0.8"/>
      </g>
     </g>
     <g id="line2d_36">
      <g>
       <use xlink:href="#m7480e4adad" x="269.963019" y="20.069828" style="stroke: #000000; stroke-width: 0.8"/>
      </g>
     </g>
     <g id="text_11">
      <!-- $\mathdefault{0.0}$ -->
      <g transform="translate(28.69668 23.529077) scale(0.1 -0.1)">
       <use xlink:href="#CMR17-30" transform="scale(0.996264)"/>
       <use xlink:href="#CMMI12-3a" transform="translate(45.690477 0) scale(0.996264)"/>
       <use xlink:href="#CMR17-30" transform="translate(72.787654 0) scale(0.996264)"/>
      </g>
     </g>
    </g>
    <g id="text_12">
     <!-- $y/H$ -->
     <g transform="translate(13.461012 173.782974) rotate(-90) scale(0.14 -0.14)">
      <defs>
       <path id="CMMI12-79" d="M 1683 -700 
C 1510 -939 1261 -1152 947 -1152 
C 870 -1152 563 -1152 467 -889 
C 486 -895 518 -895 531 -895 
C 723 -895 851 -729 851 -582 
C 851 -435 730 -384 634 -384 
C 531 -384 307 -458 307 -759 
C 307 -1071 582 -1286 947 -1286 
C 1587 -1286 2234 -700 2413 6 
L 3040 2485 
C 3046 2517 3059 2556 3059 2594 
C 3059 2689 2982 2753 2886 2753 
C 2829 2753 2694 2727 2643 2535 
L 2170 658 
C 2138 543 2138 530 2086 460 
C 1958 281 1747 64 1440 64 
C 1082 64 1050 415 1050 588 
C 1050 952 1222 1443 1395 1903 
C 1466 2088 1504 2178 1504 2305 
C 1504 2574 1312 2816 998 2816 
C 410 2816 173 1890 173 1839 
C 173 1814 198 1782 243 1782 
C 301 1782 307 1807 333 1897 
C 486 2433 730 2689 979 2689 
C 1037 2689 1146 2689 1146 2478 
C 1146 2312 1075 2127 979 1884 
C 666 1047 666 837 666 683 
C 666 77 1101 -64 1421 -64 
C 1606 -64 1837 -6 2061 230 
L 2067 224 
C 1971 -147 1907 -392 1683 -700 
z
" transform="scale(0.015625)"/>
       <path id="CMMI12-48" d="M 4787 3887 
C 4845 4103 4858 4167 5312 4167 
C 5427 4167 5491 4167 5491 4282 
C 5491 4352 5434 4352 5395 4352 
C 5280 4352 5146 4352 5024 4352 
L 4269 4352 
C 4147 4352 4013 4352 3891 4352 
C 3846 4352 3770 4352 3770 4231 
C 3770 4167 3814 4167 3936 4167 
C 4320 4167 4320 4116 4320 4046 
C 4320 4034 4320 3995 4294 3900 
L 3904 2361 
L 1971 2361 
L 2355 3887 
C 2413 4103 2426 4167 2880 4167 
C 2995 4167 3059 4167 3059 4282 
C 3059 4352 3002 4352 2963 4352 
C 2848 4352 2714 4352 2592 4352 
L 1837 4352 
C 1715 4352 1581 4352 1459 4352 
C 1414 4352 1338 4352 1338 4231 
C 1338 4167 1382 4167 1504 4167 
C 1888 4167 1888 4116 1888 4046 
C 1888 4034 1888 3995 1862 3899 
L 998 472 
C 941 249 928 185 486 185 
C 339 185 294 185 294 64 
C 294 0 365 0 384 0 
C 499 0 634 0 755 0 
L 1510 0 
C 1632 0 1766 0 1888 0 
C 1939 0 2010 0 2010 121 
C 2010 185 1952 185 1856 185 
C 1466 185 1466 236 1466 300 
C 1466 307 1466 351 1478 402 
L 1920 2176 
L 3859 2176 
C 3750 1753 3424 416 3411 376 
C 3341 185 3238 185 2861 185 
C 2784 185 2726 185 2726 64 
C 2726 0 2797 0 2816 0 
C 2931 0 3066 0 3187 0 
L 3942 0 
C 4064 0 4198 0 4320 0 
C 4371 0 4442 0 4442 121 
C 4442 185 4384 185 4288 185 
C 3898 185 3898 236 3898 300 
C 3898 307 3898 351 3910 402 
L 4787 3887 
z
" transform="scale(0.015625)"/>
      </defs>
      <use xlink:href="#CMMI12-79" transform="scale(0.996264)"/>
      <use xlink:href="#CMMI12-3d" transform="translate(51.138781 0) scale(0.996264)"/>
      <use xlink:href="#CMMI12-48" transform="translate(99.913699 0) scale(0.996264)"/>
     </g>
    </g>
   </g>
   <g id="line2d_37">
    <path d="M 129.533695 302.192737 
L 126.160537 297.687853 
L 122.300958 292.107733 
L 118.775087 286.584265 
L 115.521774 281.117447 
L 111.908362 274.632045 
L 108.009794 267.168848 
L 103.366506 257.736463 
L 98.090208 246.457257 
L 91.3604 231.5184 
L 83.818416 214.264784 
L 78.401939 201.352897 
L 74.866669 192.402045 
L 72.003595 184.540025 
L 70.036205 178.552019 
L 68.340781 172.675048 
L 67.13698 167.726021 
L 66.194486 162.85857 
L 65.630319 158.864678 
L 65.28541 154.927436 
L 65.175899 151.046845 
L 65.322928 147.222906 
L 65.636227 144.204543 
L 66.128942 141.222436 
L 66.815847 138.276586 
L 67.700226 135.366993 
L 68.791582 132.493656 
L 70.094898 129.656576 
L 71.620524 126.855753 
L 73.373408 124.091186 
L 75.354948 121.362876 
L 77.576065 118.670822 
L 80.036698 116.015025 
L 82.743417 113.395485 
L 85.693629 110.812201 
L 88.894539 108.265174 
L 92.343007 105.754404 
L 97.003342 102.666926 
L 102.051543 99.6361 
L 107.479369 96.661925 
L 113.281852 93.7444 
L 119.449237 90.883527 
L 125.970484 88.079305 
L 134.242364 84.789017 
L 142.974844 81.580307 
L 152.136571 78.453174 
L 161.69211 75.407618 
L 173.286003 71.957575 
L 185.297186 68.618567 
L 199.445382 64.938521 
L 213.938716 61.403501 
L 230.517738 57.599956 
L 249.093371 53.589068 
L 269.468121 49.438818 
L 291.31727 45.223987 
L 315.891409 40.719103 
L 343.788291 35.845987 
L 374.388034 30.730406 
L 410.930001 24.856834 
L 441.598861 20.069828 
L 441.598861 20.069828 
" clip-path="url(#p6ab85aad4b)" style="fill: none; stroke: #5e4fa2; stroke-width: 1.5; stroke-linecap: square"/>
   </g>
   <g id="line2d_38">
    <path d="M 129.533695 302.192737 
L 129.276331 296.567297 
L 128.907513 292.107733 
L 128.216535 286.584265 
L 127.286776 281.117447 
L 126.126644 275.707281 
L 124.747215 270.353765 
L 123.161219 265.0569 
L 121.378422 259.816687 
L 119.0014 253.603209 
L 116.383731 247.47131 
L 113.553428 241.420987 
L 110.535374 235.452242 
L 106.815407 228.591811 
L 102.360363 220.887281 
L 97.180579 212.393036 
L 89.036844 199.544598 
L 80.677772 186.271279 
L 76.587853 179.40065 
L 73.32424 173.507818 
L 70.815954 168.545194 
L 68.964136 164.47199 
L 67.354339 160.455437 
L 66.014466 156.495535 
L 64.970369 152.592284 
L 64.364651 149.510471 
L 63.975451 146.464916 
L 63.818744 143.455617 
L 63.900095 140.482575 
L 64.238555 137.545789 
L 64.840898 134.64526 
L 65.716736 131.780987 
L 66.880298 128.952971 
L 68.337326 126.161212 
L 70.099751 123.405709 
L 72.166696 120.686463 
L 74.54062 118.003474 
L 95.06403 96.073888 
L 97.093828 94.323373 
L 100.171427 92.021078 
L 103.656848 89.75504 
L 107.54023 87.525258 
L 111.804409 85.331733 
L 116.432897 83.174464 
L 122.708436 80.528865 
L 129.494907 77.939916 
L 136.758027 75.407618 
L 144.461125 72.931971 
L 154.234625 70.035974 
L 164.522777 67.221554 
L 177.087791 64.04117 
L 190.15588 60.971821 
L 205.569836 57.599956 
L 221.343737 54.373117 
L 239.329256 50.916275 
L 259.366515 47.290614 
L 281.16352 43.564114 
L 306.1645 39.51357 
L 335.151621 35.054007 
L 367.602915 30.295326 
L 405.25837 25.00526 
L 441.598861 20.069828 
L 441.598861 20.069828 
" clip-path="url(#p6ab85aad4b)" style="fill: none; stroke: #66c2a5; stroke-width: 1.5; stroke-linecap: square"/>
   </g>
   <g id="line2d_39">
    <path d="M 129.533695 302.192737 
L 129.46633 233.480789 
L 129.137046 229.565074 
L 128.635644 226.652082 
L 127.923938 223.759484 
L 127.017164 220.887281 
L 125.926466 218.035471 
L 124.202235 214.264784 
L 122.197648 210.530352 
L 119.943629 206.832178 
L 117.466019 203.17026 
L 114.106907 198.643848 
L 110.511565 194.174087 
L 105.969623 188.885154 
L 99.711686 181.960141 
L 87.487534 168.545194 
L 83.354932 163.664147 
L 80.22793 159.658924 
L 77.45939 155.710352 
L 75.548291 152.592284 
L 73.943966 149.510471 
L 72.674879 146.464916 
L 71.969758 144.204543 
L 71.479695 141.964564 
L 71.229041 139.744979 
L 71.2267 137.545789 
L 71.484148 135.366993 
L 72.017433 133.208591 
L 72.825696 131.070584 
L 73.909283 128.952971 
L 88.598922 103.895119 
L 105.678681 74.907957 
L 106.554996 73.915432 
L 108.240245 72.44364 
L 110.349944 70.992242 
L 112.863218 69.561239 
L 115.762342 68.15063 
L 120.19687 66.301543 
L 125.240905 64.488712 
L 130.850758 62.712138 
L 138.592259 60.542406 
L 147.065939 58.429326 
L 156.189532 56.372896 
L 167.88236 53.979959 
L 180.259464 51.6686 
L 195.390437 49.075119 
L 213.353491 46.247103 
L 234.08599 43.238937 
L 257.347858 40.111805 
L 282.692381 36.933686 
L 311.621495 33.531229 
L 344.685472 29.869311 
L 383.743293 25.781378 
L 428.810429 21.303686 
L 441.598861 20.069828 
L 441.598861 20.069828 
" clip-path="url(#p6ab85aad4b)" style="fill: none; stroke: #e6f598; stroke-width: 1.5; stroke-linecap: square"/>
   </g>
   <g id="line2d_40">
    <path d="M 129.533695 302.192737 
L 129.478598 193.286933 
L 129.309973 191.519423 
L 128.981983 189.760978 
L 128.21076 187.140304 
L 127.477055 185.404519 
L 126.07723 182.817836 
L 124.337123 180.251548 
L 122.333207 177.705654 
L 120.09485 175.180154 
L 116.821191 171.844545 
L 112.410124 167.726021 
L 97.497773 154.146786 
L 94.582068 151.046845 
L 92.696265 148.745683 
L 91.088362 146.464916 
L 89.837607 144.204543 
L 88.952825 141.964564 
L 88.601926 140.482575 
L 88.446945 139.00965 
L 88.484316 137.545789 
L 88.706836 136.090992 
L 89.105488 134.64526 
L 96.109701 114.046971 
L 116.415907 54.373117 
L 117.000167 53.589068 
L 117.928342 52.814083 
L 119.187373 52.048162 
L 121.664994 50.916275 
L 124.81059 49.804784 
L 128.578205 48.713686 
L 134.496226 47.290614 
L 141.344753 45.903799 
L 149.026278 44.55324 
L 159.658436 42.916027 
L 173.698378 41.026151 
L 188.867755 39.217852 
L 207.637536 37.211275 
L 230.024915 35.054007 
L 255.772739 32.800432 
L 287.111264 30.295326 
L 322.613302 27.688249 
L 364.312925 24.856834 
L 412.850721 21.79315 
L 441.598861 20.069828 
L 441.598861 20.069828 
" clip-path="url(#p6ab85aad4b)" style="fill: none; stroke: #fee08b; stroke-width: 1.5; stroke-linecap: square"/>
   </g>
   <g id="line2d_41">
    <path d="M 129.533695 302.192737 
L 129.457681 169.366632 
L 129.287224 167.726021 
L 128.932257 166.094473 
L 128.394491 164.47199 
L 127.644428 162.85857 
L 126.518424 161.254215 
L 125.138777 159.658924 
L 123.510794 158.072697 
L 119.893475 154.927436 
L 114.310298 150.277525 
L 111.968325 147.983162 
L 110.693383 146.464916 
L 109.733551 144.955734 
L 109.070481 143.455617 
L 108.700148 141.964564 
L 108.540875 140.482575 
L 108.542431 139.00965 
L 108.818253 136.817258 
L 124.438243 37.211275 
L 124.599966 36.933686 
L 125.437938 36.385304 
L 126.932912 35.845987 
L 129.043751 35.315734 
L 133.289018 34.53735 
L 138.725495 33.77936 
L 147.618471 32.800432 
L 158.160009 31.85776 
L 173.271294 30.730406 
L 193.644821 29.45236 
L 219.598645 28.064412 
L 250.871996 26.614147 
L 290.395009 25.00526 
L 339.049556 23.252479 
L 399.731691 21.303686 
L 441.598861 20.069828 
L 441.598861 20.069828 
" clip-path="url(#p6ab85aad4b)" style="fill: none; stroke: #f46d43; stroke-width: 1.5; stroke-linecap: square"/>
   </g>
   <g id="line2d_42">
    <path d="M 129.533695 302.192737 
L 129.445504 163.664147 
L 129.253931 162.05526 
L 128.782884 160.455437 
L 128.409794 159.658924 
L 127.288168 158.072697 
L 125.780691 156.495535 
L 123.448549 154.146786 
L 122.291612 152.592284 
L 121.615442 151.046845 
L 121.334584 149.510471 
L 121.29064 147.222906 
L 121.581443 141.964564 
L 128.513876 27.875197 
L 128.731096 27.688249 
L 129.128884 27.503567 
L 130.740604 27.141001 
L 133.371931 26.787499 
L 139.055158 26.274241 
L 146.755087 25.781378 
L 161.611047 25.155951 
L 184.441256 24.425154 
L 216.259555 23.622976 
L 262.742086 22.680304 
L 326.567569 21.620932 
L 412.064105 20.436927 
L 441.598861 20.069828 
L 441.598861 20.069828 
" clip-path="url(#p6ab85aad4b)" style="fill: none; stroke: #9e0142; stroke-width: 1.5; stroke-linecap: square"/>
   </g>
   <g id="line2d_43">
    <path d="M 129.533695 302.192737 
L 129.533695 20.069828 
" clip-path="url(#p6ab85aad4b)" style="fill: none; stroke-dasharray: 5.55,2.4; stroke-dashoffset: 0; stroke: #000000; stroke-opacity: 0.75; stroke-width: 1.5"/>
   </g>
   <g id="patch_3">
    <path d="M 44.926759 302.192737 
L 44.926759 20.069828 
" style="fill: none; stroke: #000000; stroke-width: 0.8; stroke-linejoin: miter; stroke-linecap: square"/>
   </g>
   <g id="patch_4">
    <path d="M 269.963019 302.192737 
L 269.963019 20.069828 
" style="fill: none; stroke: #000000; stroke-width: 0.8; stroke-linejoin: miter; stroke-linecap: square"/>
   </g>
   <g id="patch_5">
    <path d="M 44.926759 302.192737 
L 269.963019 302.192737 
" style="fill: none; stroke: #000000; stroke-width: 0.8; stroke-linejoin: miter; stroke-linecap: square"/>
   </g>
   <g id="patch_6">
    <path d="M 44.926759 20.069828 
L 269.963019 20.069828 
" style="fill: none; stroke: #000000; stroke-width: 0.8; stroke-linejoin: miter; stroke-linecap: square"/>
   </g>
   <g id="text_13">
    <!-- Velocity profile -->
    <g transform="translate(106.0714 14.069828) scale(0.16 -0.16)">
     <defs>
      <path id="CMR17-56" d="M 3776 3745 
C 3834 3886 3936 4160 4365 4160 
L 4365 4332 
C 4218 4319 4051 4319 3891 4319 
C 3738 4319 3475 4319 3328 4332 
L 3328 4160 
C 3648 4160 3661 3936 3661 3898 
C 3661 3827 3642 3783 3622 3732 
L 2362 446 
L 1043 3886 
C 1024 3931 1011 3963 1011 3994 
C 1011 4160 1267 4160 1402 4160 
L 1402 4319 
C 1197 4319 896 4319 685 4319 
C 518 4319 218 4319 64 4332 
L 64 4160 
C 435 4160 506 4135 582 3931 
L 2106 -26 
C 2138 -115 2144 -128 2214 -128 
C 2285 -128 2291 -115 2323 -26 
L 3776 3745 
z
" transform="scale(0.015625)"/>
      <path id="CMR17-65" d="M 2438 1472 
C 2464 1498 2464 1511 2464 1576 
C 2464 2238 2118 2816 1389 2816 
C 710 2816 173 2169 173 1383 
C 173 551 781 -64 1459 -64 
C 2176 -64 2458 607 2458 740 
C 2458 784 2419 784 2406 784 
C 2362 784 2355 771 2330 696 
C 2189 265 1837 51 1504 51 
C 1229 51 954 203 781 480 
C 582 803 582 1176 582 1472 
L 2438 1472 
z
M 589 1568 
C 634 2505 1126 2714 1382 2714 
C 1818 2714 2112 2297 2118 1568 
L 589 1568 
z
" transform="scale(0.015625)"/>
      <path id="CMR17-6c" d="M 979 4396 
L 218 4326 
L 218 4160 
C 595 4160 653 4122 653 3817 
L 653 426 
C 653 184 627 153 218 153 
L 218 -13 
C 371 0 653 0 813 0 
C 979 0 1261 0 1414 -13 
L 1414 153 
C 1005 153 979 178 979 426 
L 979 4396 
z
" transform="scale(0.015625)"/>
      <path id="CMR17-6f" d="M 2758 1356 
C 2758 2176 2163 2816 1466 2816 
C 768 2816 173 2176 173 1356 
C 173 551 768 -64 1466 -64 
C 2163 -64 2758 551 2758 1356 
z
M 1466 51 
C 1165 51 909 230 762 480 
C 602 767 582 1126 582 1408 
C 582 1677 595 2010 762 2298 
C 890 2509 1139 2714 1466 2714 
C 1754 2714 1997 2554 2150 2330 
C 2349 2029 2349 1607 2349 1408 
C 2349 1158 2336 775 2163 467 
C 1984 173 1709 51 1466 51 
z
" transform="scale(0.015625)"/>
      <path id="CMR17-63" d="M 2234 2240 
C 2112 2240 1933 2240 1933 2017 
C 1933 1838 2080 1787 2163 1787 
C 2208 1787 2394 1807 2394 2024 
C 2394 2467 1958 2803 1466 2803 
C 787 2803 211 2178 211 1363 
C 211 516 813 -64 1466 -64 
C 2259 -64 2458 677 2458 748 
C 2458 774 2451 793 2406 793 
C 2362 793 2355 787 2330 703 
C 2163 180 1798 51 1523 51 
C 1114 51 621 427 621 1369 
C 621 2338 1094 2688 1472 2688 
C 1722 2688 2093 2573 2234 2240 
z
" transform="scale(0.015625)"/>
      <path id="CMR17-69" d="M 992 3909 
C 992 4049 877 4170 730 4170 
C 589 4170 467 4056 467 3909 
C 467 3769 582 3648 730 3648 
C 870 3648 992 3763 992 3909 
z
M 243 2706 
L 243 2541 
C 602 2541 653 2502 653 2197 
L 653 427 
C 653 184 627 153 218 153 
L 218 -13 
C 371 0 646 0 806 0 
C 960 0 1222 0 1370 -13 
L 1370 153 
C 992 153 979 191 979 420 
L 979 2776 
L 243 2706 
z
" transform="scale(0.015625)"/>
      <path id="CMR17-74" d="M 966 2560 
L 1862 2560 
L 1862 2725 
L 966 2725 
L 966 3904 
L 851 3904 
C 838 3245 614 2668 70 2668 
L 70 2560 
L 627 2560 
L 627 771 
C 627 650 627 -64 1370 -64 
C 1747 -64 1965 306 1965 777 
L 1965 1140 
L 1850 1140 
L 1850 783 
C 1850 344 1677 51 1408 51 
C 1222 51 966 178 966 758 
L 966 2560 
z
" transform="scale(0.015625)"/>
      <path id="CMR17-79" d="M 2496 2197 
C 2656 2586 2944 2586 3034 2586 
L 3034 2752 
C 2912 2752 2752 2752 2630 2752 
C 2496 2752 2285 2752 2157 2758 
L 2157 2592 
C 2400 2573 2406 2394 2406 2343 
C 2406 2280 2394 2248 2362 2171 
L 1664 449 
L 902 2306 
C 870 2382 870 2426 870 2433 
C 870 2573 1018 2586 1171 2586 
L 1171 2758 
C 1018 2752 742 2752 582 2752 
C 410 2752 205 2752 64 2758 
L 64 2586 
C 410 2586 448 2554 531 2350 
L 1485 15 
C 1197 -738 1030 -1178 627 -1178 
C 557 -1178 397 -1159 282 -1044 
C 429 -1031 493 -942 493 -833 
C 493 -725 416 -629 288 -629 
C 147 -629 77 -725 77 -840 
C 77 -1095 339 -1280 627 -1280 
C 998 -1280 1229 -922 1357 -604 
L 2496 2197 
z
" transform="scale(0.015625)"/>
      <path id="CMR17-70" d="M 1408 -1063 
C 998 -1063 973 -1037 973 -789 
L 973 402 
C 1158 134 1427 -38 1766 -38 
C 2406 -38 3053 523 3053 1388 
C 3053 2191 2496 2802 1837 2802 
C 1453 2802 1139 2592 960 2338 
L 960 2802 
L 198 2732 
L 198 2567 
C 576 2567 634 2528 634 2223 
L 634 -789 
C 634 -1031 608 -1063 198 -1063 
L 198 -1228 
C 352 -1216 634 -1216 800 -1216 
C 966 -1216 1254 -1216 1408 -1228 
L 1408 -1063 
z
M 973 2012 
C 973 2102 973 2235 1222 2471 
C 1254 2497 1472 2688 1792 2688 
C 2259 2688 2643 2108 2643 1382 
C 2643 656 2234 64 1728 64 
C 1498 64 1248 172 1056 472 
C 973 612 973 650 973 752 
L 973 2012 
z
" transform="scale(0.015625)"/>
      <path id="CMR17-72" d="M 960 1497 
C 960 2112 1222 2688 1702 2688 
C 1747 2688 1792 2682 1837 2662 
C 1837 2662 1696 2617 1696 2452 
C 1696 2298 1818 2234 1914 2234 
C 1990 2234 2131 2279 2131 2458 
C 2131 2663 1926 2790 1709 2790 
C 1222 2790 1011 2317 947 2093 
L 941 2093 
L 941 2790 
L 198 2720 
L 198 2554 
C 576 2554 634 2515 634 2208 
L 634 428 
C 634 184 608 153 198 153 
L 198 -13 
C 352 0 646 0 813 0 
C 998 0 1325 0 1498 -13 
L 1498 153 
C 1037 153 960 153 960 440 
L 960 1497 
z
" transform="scale(0.015625)"/>
      <path id="CMR17-c" d="M 2554 2764 
C 2400 2764 1926 2764 1805 2739 
C 1766 2725 1754 2725 1677 2725 
L 947 2725 
L 947 3469 
C 947 4073 1434 4352 1818 4352 
C 1939 4352 2214 4320 2355 4101 
C 2291 4101 2086 4101 2086 3878 
C 2086 3725 2189 3648 2317 3648 
C 2432 3648 2547 3712 2547 3885 
C 2547 4205 2240 4454 1843 4454 
C 1338 4454 634 4168 634 3469 
L 634 2725 
L 122 2725 
L 122 2560 
L 634 2560 
L 634 427 
C 634 184 608 153 198 153 
L 198 -13 
C 352 0 634 0 794 0 
C 960 0 1242 0 1395 -13 
L 1395 153 
C 986 153 960 178 960 427 
L 960 2560 
L 1901 2560 
C 2176 2560 2227 2502 2227 2222 
L 2227 427 
C 2227 184 2202 153 1792 153 
L 1792 -13 
C 1946 0 2227 0 2387 0 
C 2554 0 2835 0 2989 -13 
L 2989 153 
C 2579 153 2554 178 2554 427 
L 2554 2764 
z
" transform="scale(0.015625)"/>
     </defs>
     <use xlink:href="#CMR17-56" transform="scale(0.996264)"/>
     <use xlink:href="#CMR17-65" transform="translate(61.265174 0) scale(0.996264)"/>
     <use xlink:href="#CMR17-6c" transform="translate(101.750835 0) scale(0.996264)"/>
     <use xlink:href="#CMR17-6f" transform="translate(126.621893 0) scale(0.996264)"/>
     <use xlink:href="#CMR17-63" transform="translate(174.914809 0) scale(0.996264)"/>
     <use xlink:href="#CMR17-69" transform="translate(215.40047 0) scale(0.996264)"/>
     <use xlink:href="#CMR17-74" transform="translate(240.271528 0) scale(0.996264)"/>
     <use xlink:href="#CMR17-79" transform="translate(272.949842 0) scale(0.996264)"/>
     <use xlink:href="#CMR17-70" transform="translate(351.318724 0) scale(0.996264)"/>
     <use xlink:href="#CMR17-72" transform="translate(402.214094 0) scale(0.996264)"/>
     <use xlink:href="#CMR17-6f" transform="translate(437.494862 0) scale(0.996264)"/>
     <use xlink:href="#CMR17-c" transform="translate(483.185339 0) scale(0.996264)"/>
     <use xlink:href="#CMR17-6c" transform="translate(532.927562 0) scale(0.996264)"/>
     <use xlink:href="#CMR17-65" transform="translate(557.798621 0) scale(0.996264)"/>
    </g>
   </g>
   <g id="legend_1">
    <g id="patch_7">
     <path d="M 173.373883 296.192737 
L 261.563019 296.192737 
Q 263.963019 296.192737 263.963019 293.792737 
L 263.963019 194.645162 
Q 263.963019 192.245162 261.563019 192.245162 
L 173.373883 192.245162 
Q 170.973883 192.245162 170.973883 194.645162 
L 170.973883 293.792737 
Q 170.973883 296.192737 173.373883 296.192737 
z
" style="fill: #ffffff; opacity: 0.8; stroke: #cccccc; stroke-linejoin: miter"/>
    </g>
    <g id="line2d_44">
     <path d="M 175.773883 201.245162 
L 187.773883 201.245162 
L 199.773883 201.245162 
" style="fill: none; stroke: #5e4fa2; stroke-width: 1.5; stroke-linecap: square"/>
    </g>
    <g id="text_14">
     <!-- $Bn=0$ -->
     <g transform="translate(209.373883 205.445162) scale(0.12 -0.12)">
      <defs>
       <path id="CMMI12-42" d="M 2342 3921 
C 2400 4160 2426 4160 2675 4160 
L 3507 4160 
C 4230 4160 4230 3544 4230 3485 
C 4230 2966 3712 2304 2867 2304 
L 1946 2304 
L 2342 3921 
z
M 3424 2275 
C 4122 2402 4755 2886 4755 3473 
C 4755 3970 4314 4352 3590 4352 
L 1536 4352 
C 1414 4352 1357 4352 1357 4226 
C 1357 4160 1414 4160 1510 4160 
C 1901 4160 1901 4112 1901 4044 
C 1901 4032 1901 3993 1875 3897 
L 1011 472 
C 954 249 941 185 493 185 
C 371 185 307 185 307 70 
C 307 0 346 0 474 0 
L 2669 0 
C 3648 0 4403 739 4403 1383 
C 4403 1906 3942 2224 3424 2275 
z
M 2515 185 
L 1651 185 
C 1562 185 1549 185 1510 192 
C 1440 198 1434 211 1434 261 
C 1434 305 1446 343 1459 399 
L 1907 2176 
L 3110 2176 
C 3866 2176 3866 1483 3866 1433 
C 3866 828 3309 185 2515 185 
z
" transform="scale(0.015625)"/>
       <path id="CMMI12-6e" d="M 1318 1871 
C 1331 1910 1491 2229 1728 2433 
C 1894 2586 2112 2689 2362 2689 
C 2618 2689 2707 2497 2707 2242 
C 2707 1878 2445 1150 2317 805 
C 2259 651 2227 568 2227 453 
C 2227 166 2426 -64 2733 -64 
C 3328 -64 3552 875 3552 913 
C 3552 945 3526 971 3488 971 
C 3430 971 3424 952 3392 843 
C 3245 319 3002 64 2752 64 
C 2688 64 2586 64 2586 269 
C 2586 429 2656 621 2694 710 
C 2822 1063 3091 1780 3091 2145 
C 3091 2528 2867 2816 2381 2816 
C 1811 2816 1510 2415 1395 2255 
C 1376 2618 1114 2816 832 2816 
C 627 2816 486 2695 378 2478 
C 262 2248 173 1865 173 1839 
C 173 1814 198 1782 243 1782 
C 294 1782 301 1788 339 1935 
C 442 2325 557 2689 813 2689 
C 960 2689 1011 2586 1011 2395 
C 1011 2254 947 2005 902 1807 
L 723 1118 
C 698 996 627 709 595 594 
C 550 428 480 128 480 96 
C 480 6 550 -64 646 -64 
C 723 -64 813 -26 864 70 
C 877 102 934 326 966 453 
L 1107 1028 
L 1318 1871 
z
" transform="scale(0.015625)"/>
       <path id="CMR17-3d" d="M 4115 2017 
C 4211 2017 4307 2017 4307 2125 
C 4307 2240 4198 2240 4090 2240 
L 512 2240 
C 403 2240 294 2240 294 2125 
C 294 2017 390 2017 486 2017 
L 4115 2017 
z
M 4090 896 
C 4198 896 4307 896 4307 1011 
C 4307 1119 4211 1119 4115 1119 
L 486 1119 
C 390 1119 294 1119 294 1011 
C 294 896 403 896 512 896 
L 4090 896 
z
" transform="scale(0.015625)"/>
      </defs>
      <use xlink:href="#CMMI12-42" transform="scale(0.996264)"/>
      <use xlink:href="#CMMI12-6e" transform="translate(79.135523 0) scale(0.996264)"/>
      <use xlink:href="#CMR17-3d" transform="translate(165.039579 0) scale(0.996264)"/>
      <use xlink:href="#CMR17-30" transform="translate(264.428376 0) scale(0.996264)"/>
     </g>
    </g>
    <g id="line2d_45">
     <path d="M 175.773883 217.969758 
L 187.773883 217.969758 
L 199.773883 217.969758 
" style="fill: none; stroke: #66c2a5; stroke-width: 1.5; stroke-linecap: square"/>
    </g>
    <g id="text_15">
     <!-- $Bn=1$ -->
     <g transform="translate(209.373883 222.169758) scale(0.12 -0.12)">
      <use xlink:href="#CMMI12-42" transform="scale(0.996264)"/>
      <use xlink:href="#CMMI12-6e" transform="translate(79.135523 0) scale(0.996264)"/>
      <use xlink:href="#CMR17-3d" transform="translate(165.039579 0) scale(0.996264)"/>
      <use xlink:href="#CMR17-31" transform="translate(264.428376 0) scale(0.996264)"/>
     </g>
    </g>
    <g id="line2d_46">
     <path d="M 175.773883 234.694354 
L 187.773883 234.694354 
L 199.773883 234.694354 
" style="fill: none; stroke: #e6f598; stroke-width: 1.5; stroke-linecap: square"/>
    </g>
    <g id="text_16">
     <!-- $Bn=5$ -->
     <g transform="translate(209.373883 238.894354) scale(0.12 -0.12)">
      <defs>
       <path id="CMR17-35" d="M 730 3692 
C 794 3666 1056 3584 1325 3584 
C 1920 3584 2246 3911 2432 4100 
C 2432 4157 2432 4192 2394 4192 
C 2387 4192 2374 4192 2323 4163 
C 2099 4058 1837 3973 1517 3973 
C 1325 3973 1037 3999 723 4139 
C 653 4171 640 4171 634 4171 
C 602 4171 595 4164 595 4037 
L 595 2203 
C 595 2089 595 2057 659 2057 
C 691 2057 704 2070 736 2114 
C 941 2401 1222 2522 1542 2522 
C 1766 2522 2246 2382 2246 1289 
C 2246 1085 2246 715 2054 421 
C 1894 159 1645 25 1370 25 
C 947 25 518 320 403 814 
C 429 807 480 795 506 795 
C 589 795 749 840 749 1038 
C 749 1210 627 1280 506 1280 
C 358 1280 262 1190 262 1011 
C 262 454 704 -128 1382 -128 
C 2042 -128 2669 440 2669 1264 
C 2669 2030 2170 2624 1549 2624 
C 1222 2624 947 2503 730 2274 
L 730 3692 
z
" transform="scale(0.015625)"/>
      </defs>
      <use xlink:href="#CMMI12-42" transform="scale(0.996264)"/>
      <use xlink:href="#CMMI12-6e" transform="translate(79.135523 0) scale(0.996264)"/>
      <use xlink:href="#CMR17-3d" transform="translate(165.039579 0) scale(0.996264)"/>
      <use xlink:href="#CMR17-35" transform="translate(264.428376 0) scale(0.996264)"/>
     </g>
    </g>
    <g id="line2d_47">
     <path d="M 175.773883 251.41895 
L 187.773883 251.41895 
L 199.773883 251.41895 
" style="fill: none; stroke: #fee08b; stroke-width: 1.5; stroke-linecap: square"/>
    </g>
    <g id="text_17">
     <!-- $Bn=20$ -->
     <g transform="translate(209.373883 255.61895) scale(0.12 -0.12)">
      <use xlink:href="#CMMI12-42" transform="scale(0.996264)"/>
      <use xlink:href="#CMMI12-6e" transform="translate(79.135523 0) scale(0.996264)"/>
      <use xlink:href="#CMR17-3d" transform="translate(165.039579 0) scale(0.996264)"/>
      <use xlink:href="#CMR17-32" transform="translate(264.428376 0) scale(0.996264)"/>
      <use xlink:href="#CMR17-30" transform="translate(310.118854 0) scale(0.996264)"/>
     </g>
    </g>
    <g id="line2d_48">
     <path d="M 175.773883 268.143545 
L 187.773883 268.143545 
L 199.773883 268.143545 
" style="fill: none; stroke: #f46d43; stroke-width: 1.5; stroke-linecap: square"/>
    </g>
    <g id="text_18">
     <!-- $Bn=100$ -->
     <g transform="translate(209.373883 272.343545) scale(0.12 -0.12)">
      <use xlink:href="#CMMI12-42" transform="scale(0.996264)"/>
      <use xlink:href="#CMMI12-6e" transform="translate(79.135523 0) scale(0.996264)"/>
      <use xlink:href="#CMR17-3d" transform="translate(165.039579 0) scale(0.996264)"/>
      <use xlink:href="#CMR17-31" transform="translate(264.428376 0) scale(0.996264)"/>
      <use xlink:href="#CMR17-30" transform="translate(310.118854 0) scale(0.996264)"/>
      <use xlink:href="#CMR17-30" transform="translate(355.809331 0) scale(0.996264)"/>
     </g>
    </g>
    <g id="line2d_49">
     <path d="M 175.773883 284.868141 
L 187.773883 284.868141 
L 199.773883 284.868141 
" style="fill: none; stroke: #9e0142; stroke-width: 1.5; stroke-linecap: square"/>
    </g>
    <g id="text_19">
     <!-- $Bn=500$ -->
     <g transform="translate(209.373883 289.068141) scale(0.12 -0.12)">
      <use xlink:href="#CMMI12-42" transform="scale(0.996264)"/>
      <use xlink:href="#CMMI12-6e" transform="translate(79.135523 0) scale(0.996264)"/>
      <use xlink:href="#CMR17-3d" transform="translate(165.039579 0) scale(0.996264)"/>
      <use xlink:href="#CMR17-35" transform="translate(264.428376 0) scale(0.996264)"/>
      <use xlink:href="#CMR17-30" transform="translate(310.118854 0) scale(0.996264)"/>
      <use xlink:href="#CMR17-30" transform="translate(355.809331 0) scale(0.996264)"/>
     </g>
    </g>
   </g>
  </g>
  <g id="axes_2">
   <g id="patch_8">
    <path d="M 275.963499 302.192737 
L 500.99976 302.192737 
L 500.99976 20.069828 
L 275.963499 20.069828 
L 275.963499 302.192737 
z
" style="fill: none"/>
   </g>
   <g id="line2d_50">
    <path d="M 309.718938 302.192737 
L 309.70933 166.909114 
L 309.534267 166.094473 
L 308.794973 164.47199 
L 308.141459 163.664147 
L 307.295175 162.85857 
L 305.86956 162.05526 
L 301.364963 160.455437 
L 292.698246 158.072697 
L 290.270163 157.282983 
L 289.009928 156.495535 
L 289.114331 155.710352 
L 289.842443 154.927436 
L 291.701185 154.146786 
L 297.634294 152.592284 
L 303.749871 151.046845 
L 306.002727 150.277525 
L 307.768744 149.510471 
L 309.000023 148.745683 
L 309.714805 147.983162 
L 310.587029 146.464916 
L 310.838887 145.709192 
L 310.94993 144.204543 
L 310.950111 28.449638 
L 308.81194 28.255892 
L 312.532466 28.064412 
L 343.509798 27.688249 
L 431.041604 27.141001 
L 505 26.706897 
L 505 26.706897 
" clip-path="url(#p948777dfeb)" style="fill: none; stroke: #9e0142; stroke-width: 1.5; stroke-linecap: square"/>
   </g>
   <g id="line2d_51">
    <path d="M 309.718938 302.192737 
L 309.656248 171.844545 
L 309.33342 171.016308 
L 308.348635 169.366632 
L 307.603821 168.545194 
L 304.131056 166.094473 
L 301.820658 164.47199 
L 300.258242 163.664147 
L 295.438013 162.05526 
L 288.836638 158.864678 
L 287.562038 158.072697 
L 286.844461 157.282983 
L 284.278852 153.368402 
L 284.598376 152.592284 
L 289.435897 148.745683 
L 290.695386 147.983162 
L 296.782954 145.709192 
L 306.321303 141.964564 
L 309.742109 139.744979 
L 311.888331 138.276586 
L 312.743074 137.545789 
L 312.986853 136.817258 
L 312.908567 135.366993 
L 312.996382 37.491131 
L 317.344576 37.211275 
L 340.859721 36.658362 
L 505 33.056067 
L 505 33.056067 
" clip-path="url(#p948777dfeb)" style="fill: none; stroke: #f46d43; stroke-width: 1.5; stroke-linecap: square"/>
   </g>
   <g id="line2d_52">
    <path d="M 309.718938 302.192737 
L 309.706206 195.955194 
L 309.494559 195.063507 
L 308.599498 193.286933 
L 306.812049 191.519423 
L 302.252336 187.140304 
L 300.11702 185.404519 
L 295.465973 181.104711 
L 293.366026 178.552019 
L 290.705193 175.180154 
L 289.747144 173.507818 
L 287.68056 169.366632 
L 287.399734 168.545194 
L 286.591858 163.664147 
L 286.607922 162.85857 
L 287.487923 158.072697 
L 288.27431 156.495535 
L 289.963445 153.368402 
L 290.509139 152.592284 
L 293.41548 149.510471 
L 294.90481 147.983162 
L 296.864556 146.464916 
L 302.237702 142.708957 
L 307.580347 139.744979 
L 315.330745 135.366993 
L 316.351985 134.64526 
L 316.692338 133.925793 
L 316.632503 132.493656 
L 316.632815 55.16623 
L 317.328709 54.768541 
L 320.29835 54.373117 
L 414.116687 46.247103 
L 470.911678 41.026151 
L 505 37.727174 
L 505 37.727174 
" clip-path="url(#p948777dfeb)" style="fill: none; stroke: #fee08b; stroke-width: 1.5; stroke-linecap: square"/>
   </g>
   <g id="line2d_53">
    <path d="M 309.718933 302.192737 
L 309.701312 236.441368 
L 308.693491 233.480789 
L 307.664497 230.540604 
L 307.135375 229.565074 
L 305.935275 227.620814 
L 302.611237 220.887281 
L 299.594095 214.264784 
L 297.317085 208.676733 
L 295.3364 203.17026 
L 293.691586 197.745364 
L 292.232064 191.519423 
L 291.386665 186.271279 
L 290.92784 180.251548 
L 291.083864 174.342853 
L 291.878682 168.545194 
L 293.123302 163.664147 
L 293.989221 161.254215 
L 295.616459 157.282983 
L 298.103152 152.592284 
L 301.219143 147.983162 
L 303.058239 145.709192 
L 306.285659 141.964564 
L 311.686303 136.817258 
L 318.797152 131.070584 
L 321.382882 128.952971 
L 321.695965 128.251633 
L 321.642394 126.161212 
L 321.642683 76.920199 
L 321.499729 76.413739 
L 321.992521 75.909546 
L 325.649426 74.907957 
L 336.1782 72.44364 
L 388.666971 60.115258 
L 417.148912 53.200442 
L 437.667384 47.997618 
L 455.47148 43.238937 
L 469.629795 39.217852 
L 482.455968 35.315734 
L 492.30973 32.090029 
L 501.985991 28.64565 
L 505 27.504259 
L 505 27.504259 
" clip-path="url(#p948777dfeb)" style="fill: none; stroke: #e6f598; stroke-width: 1.5; stroke-linecap: square"/>
   </g>
   <g id="line2d_54">
    <path d="M 309.083942 302.192737 
L 308.8613 299.935763 
L 308.037414 294.332983 
L 307.448274 290.998507 
L 302.399458 259.816687 
L 300.199859 244.435951 
L 298.955084 234.465382 
L 297.857312 223.759484 
L 297.210515 215.204056 
L 296.821331 206.832178 
L 296.72196 200.447615 
L 296.796086 195.063507 
L 297.029958 189.760978 
L 297.433047 184.540025 
L 298.013772 179.40065 
L 299.106721 172.675048 
L 300.155487 167.726021 
L 301.936204 161.254215 
L 303.538268 156.495535 
L 305.373734 151.818431 
L 307.871856 146.464916 
L 310.713926 141.222436 
L 313.946093 136.090992 
L 317.53064 131.070584 
L 321.518032 126.161212 
L 326.476696 120.686463 
L 328.325743 118.670822 
L 328.603749 118.003474 
L 328.626953 114.700723 
L 328.629235 98.439632 
L 328.933423 97.844797 
L 329.749168 97.252228 
L 341.010142 90.883527 
L 355.427387 83.174464 
L 374.507421 73.422568 
L 410.759216 55.16623 
L 420.878052 49.804784 
L 430.248327 44.55324 
L 437.61152 40.111805 
L 442.503871 36.933686 
L 447.005915 33.77936 
L 451.254475 30.511733 
L 455.146947 27.141001 
L 458.522647 23.751008 
L 460.972802 20.777965 
L 461.514453 20.069828 
L 461.514453 20.069828 
" clip-path="url(#p948777dfeb)" style="fill: none; stroke: #66c2a5; stroke-width: 1.5; stroke-linecap: square"/>
   </g>
   <g id="line2d_55">
    <path d="M 294.087051 302.192737 
L 294.220395 301.063117 
L 296.00251 293.219225 
L 297.194989 286.584265 
L 298.25909 278.946582 
L 299.049706 271.419936 
L 299.471615 266.111741 
L 300.077585 255.665304 
L 300.533475 240.420531 
L 301.271159 204.996687 
L 301.734748 195.955194 
L 302.340972 188.011596 
L 302.972442 181.960141 
L 303.660981 176.861554 
L 304.473233 171.844545 
L 305.60495 166.094473 
L 306.742207 161.254215 
L 308.294471 155.710352 
L 309.809877 151.046845 
L 311.83283 145.709192 
L 313.756416 141.222436 
L 316.674413 135.366993 
L 319.065789 131.070584 
L 322.621491 125.468937 
L 325.989898 120.686463 
L 330.197802 115.356741 
L 334.125327 110.812201 
L 338.901372 105.754404 
L 343.295092 101.447798 
L 347.858678 97.252228 
L 353.922184 92.021078 
L 358.083633 88.635617 
L 363.676282 84.248567 
L 370.750408 78.968697 
L 379.838151 72.44364 
L 394.422271 62.27366 
L 407.819157 52.814083 
L 414.323035 47.997618 
L 420.783724 42.916027 
L 426.138353 38.344295 
L 429.39909 35.315734 
L 432.593461 32.090029 
L 435.64534 28.64565 
L 438.222004 25.308909 
L 440.499987 21.79315 
L 441.451437 20.069828 
L 441.451437 20.069828 
" clip-path="url(#p948777dfeb)" style="fill: none; stroke: #5e4fa2; stroke-width: 1.5; stroke-linecap: square"/>
   </g>
   <g id="matplotlib.axis_3">
    <g id="xtick_5">
     <g id="line2d_56">
      <path d="M 309.718939 302.192737 
L 309.718939 20.069828 
" clip-path="url(#p948777dfeb)" style="fill: none; stroke-dasharray: 0.8,1.32; stroke-dashoffset: 0; stroke: #b0b0b0; stroke-width: 0.8"/>
     </g>
     <g id="line2d_57">
      <g>
       <use xlink:href="#m8125c78ff7" x="309.718939" y="302.192737" style="stroke: #000000; stroke-width: 0.8"/>
      </g>
     </g>
     <g id="line2d_58">
      <g>
       <use xlink:href="#m7e6028fc31" x="309.718939" y="20.069828" style="stroke: #000000; stroke-width: 0.8"/>
      </g>
     </g>
     <g id="text_20">
      <!-- $\mathdefault{0}$ -->
      <g transform="translate(307.228271 312.611235) scale(0.1 -0.1)">
       <use xlink:href="#CMR17-30" transform="scale(0.996264)"/>
      </g>
     </g>
    </g>
    <g id="xtick_6">
     <g id="line2d_59">
      <path d="M 354.726191 302.192737 
L 354.726191 20.069828 
" clip-path="url(#p948777dfeb)" style="fill: none; stroke-dasharray: 0.8,1.32; stroke-dashoffset: 0; stroke: #b0b0b0; stroke-width: 0.8"/>
     </g>
     <g id="line2d_60">
      <g>
       <use xlink:href="#m8125c78ff7" x="354.726191" y="302.192737" style="stroke: #000000; stroke-width: 0.8"/>
      </g>
     </g>
     <g id="line2d_61">
      <g>
       <use xlink:href="#m7e6028fc31" x="354.726191" y="20.069828" style="stroke: #000000; stroke-width: 0.8"/>
      </g>
     </g>
     <g id="text_21">
      <!-- $\mathdefault{2}$ -->
      <g transform="translate(352.235523 312.611235) scale(0.1 -0.1)">
       <use xlink:href="#CMR17-32" transform="scale(0.996264)"/>
      </g>
     </g>
    </g>
    <g id="xtick_7">
     <g id="line2d_62">
      <path d="M 399.733443 302.192737 
L 399.733443 20.069828 
" clip-path="url(#p948777dfeb)" style="fill: none; stroke-dasharray: 0.8,1.32; stroke-dashoffset: 0; stroke: #b0b0b0; stroke-width: 0.8"/>
     </g>
     <g id="line2d_63">
      <g>
       <use xlink:href="#m8125c78ff7" x="399.733443" y="302.192737" style="stroke: #000000; stroke-width: 0.8"/>
      </g>
     </g>
     <g id="line2d_64">
      <g>
       <use xlink:href="#m7e6028fc31" x="399.733443" y="20.069828" style="stroke: #000000; stroke-width: 0.8"/>
      </g>
     </g>
     <g id="text_22">
      <!-- $\mathdefault{4}$ -->
      <g transform="translate(397.242775 312.611235) scale(0.1 -0.1)">
       <use xlink:href="#CMR17-34" transform="scale(0.996264)"/>
      </g>
     </g>
    </g>
    <g id="xtick_8">
     <g id="line2d_65">
      <path d="M 444.740695 302.192737 
L 444.740695 20.069828 
" clip-path="url(#p948777dfeb)" style="fill: none; stroke-dasharray: 0.8,1.32; stroke-dashoffset: 0; stroke: #b0b0b0; stroke-width: 0.8"/>
     </g>
     <g id="line2d_66">
      <g>
       <use xlink:href="#m8125c78ff7" x="444.740695" y="302.192737" style="stroke: #000000; stroke-width: 0.8"/>
      </g>
     </g>
     <g id="line2d_67">
      <g>
       <use xlink:href="#m7e6028fc31" x="444.740695" y="20.069828" style="stroke: #000000; stroke-width: 0.8"/>
      </g>
     </g>
     <g id="text_23">
      <!-- $\mathdefault{6}$ -->
      <g transform="translate(442.250027 312.611235) scale(0.1 -0.1)">
       <use xlink:href="#CMR17-36" transform="scale(0.996264)"/>
      </g>
     </g>
    </g>
    <g id="xtick_9">
     <g id="line2d_68">
      <path d="M 489.747947 302.192737 
L 489.747947 20.069828 
" clip-path="url(#p948777dfeb)" style="fill: none; stroke-dasharray: 0.8,1.32; stroke-dashoffset: 0; stroke: #b0b0b0; stroke-width: 0.8"/>
     </g>
     <g id="line2d_69">
      <g>
       <use xlink:href="#m8125c78ff7" x="489.747947" y="302.192737" style="stroke: #000000; stroke-width: 0.8"/>
      </g>
     </g>
     <g id="line2d_70">
      <g>
       <use xlink:href="#m7e6028fc31" x="489.747947" y="20.069828" style="stroke: #000000; stroke-width: 0.8"/>
      </g>
     </g>
     <g id="text_24">
      <!-- $\mathdefault{8}$ -->
      <g transform="translate(487.257279 312.611235) scale(0.1 -0.1)">
       <use xlink:href="#CMR17-38" transform="scale(0.996264)"/>
      </g>
     </g>
    </g>
    <g id="text_25">
     <!-- $H/U_{\infty} \partial_y u$ -->
     <g transform="translate(358.959974 329.009186) scale(0.14 -0.14)">
      <defs>
       <path id="CMMI12-40" d="M 2906 2145 
C 2867 2504 2643 2935 2067 2935 
C 1165 2935 243 2017 243 996 
C 243 604 512 -134 1382 -134 
C 2893 -134 3539 2067 3539 2944 
C 3539 3866 3021 4576 2202 4576 
C 1274 4576 998 3763 998 3590 
C 998 3533 1037 3392 1216 3392 
C 1440 3392 1536 3597 1536 3706 
C 1536 3904 1338 3904 1254 3904 
C 1517 4378 2003 4422 2176 4422 
C 2739 4422 3098 3975 3098 3262 
C 3098 2853 2976 2380 2912 2145 
L 2906 2145 
z
M 1402 38 
C 800 38 698 514 698 784 
C 698 1066 877 1728 973 1965 
C 1056 2158 1421 2807 2086 2807 
C 2669 2807 2803 2299 2803 1953 
C 2803 1477 2387 38 1402 38 
z
" transform="scale(0.015625)"/>
      </defs>
      <use xlink:href="#CMMI12-48" transform="scale(0.996264)"/>
      <use xlink:href="#CMMI12-3d" transform="translate(83.102337 0) scale(0.996264)"/>
      <use xlink:href="#CMMI12-55" transform="translate(131.877256 0) scale(0.996264)"/>
      <use xlink:href="#CMSY10-31" transform="translate(198.129375 -14.943915) scale(0.697382)"/>
      <use xlink:href="#CMMI12-40" transform="translate(268.365881 0) scale(0.996264)"/>
      <use xlink:href="#CMMI12-79" transform="translate(319.86201 -14.943915) scale(0.697382)"/>
      <use xlink:href="#CMMI12-75" transform="translate(356.157117 0) scale(0.996264)"/>
     </g>
    </g>
   </g>
   <g id="matplotlib.axis_4">
    <g id="ytick_7">
     <g id="line2d_71">
      <path d="M 275.963499 302.192737 
L 500.99976 302.192737 
" clip-path="url(#p948777dfeb)" style="fill: none; stroke-dasharray: 0.8,1.32; stroke-dashoffset: 0; stroke: #b0b0b0; stroke-width: 0.8"/>
     </g>
     <g id="line2d_72">
      <g>
       <use xlink:href="#m666b43f18d" x="275.963499" y="302.192737" style="stroke: #000000; stroke-width: 0.8"/>
      </g>
     </g>
     <g id="line2d_73">
      <g>
       <use xlink:href="#m7480e4adad" x="500.99976" y="302.192737" style="stroke: #000000; stroke-width: 0.8"/>
      </g>
     </g>
    </g>
    <g id="ytick_8">
     <g id="line2d_74">
      <path d="M 275.963499 245.768155 
L 500.99976 245.768155 
" clip-path="url(#p948777dfeb)" style="fill: none; stroke-dasharray: 0.8,1.32; stroke-dashoffset: 0; stroke: #b0b0b0; stroke-width: 0.8"/>
     </g>
     <g id="line2d_75">
      <g>
       <use xlink:href="#m666b43f18d" x="275.963499" y="245.768155" style="stroke: #000000; stroke-width: 0.8"/>
      </g>
     </g>
     <g id="line2d_76">
      <g>
       <use xlink:href="#m7480e4adad" x="500.99976" y="245.768155" style="stroke: #000000; stroke-width: 0.8"/>
      </g>
     </g>
    </g>
    <g id="ytick_9">
     <g id="line2d_77">
      <path d="M 275.963499 189.343573 
L 500.99976 189.343573 
" clip-path="url(#p948777dfeb)" style="fill: none; stroke-dasharray: 0.8,1.32; stroke-dashoffset: 0; stroke: #b0b0b0; stroke-width: 0.8"/>
     </g>
     <g id="line2d_78">
      <g>
       <use xlink:href="#m666b43f18d" x="275.963499" y="189.343573" style="stroke: #000000; stroke-width: 0.8"/>
      </g>
     </g>
     <g id="line2d_79">
      <g>
       <use xlink:href="#m7480e4adad" x="500.99976" y="189.343573" style="stroke: #000000; stroke-width: 0.8"/>
      </g>
     </g>
    </g>
    <g id="ytick_10">
     <g id="line2d_80">
      <path d="M 275.963499 132.918992 
L 500.99976 132.918992 
" clip-path="url(#p948777dfeb)" style="fill: none; stroke-dasharray: 0.8,1.32; stroke-dashoffset: 0; stroke: #b0b0b0; stroke-width: 0.8"/>
     </g>
     <g id="line2d_81">
      <g>
       <use xlink:href="#m666b43f18d" x="275.963499" y="132.918992" style="stroke: #000000; stroke-width: 0.8"/>
      </g>
     </g>
     <g id="line2d_82">
      <g>
       <use xlink:href="#m7480e4adad" x="500.99976" y="132.918992" style="stroke: #000000; stroke-width: 0.8"/>
      </g>
     </g>
    </g>
    <g id="ytick_11">
     <g id="line2d_83">
      <path d="M 275.963499 76.49441 
L 500.99976 76.49441 
" clip-path="url(#p948777dfeb)" style="fill: none; stroke-dasharray: 0.8,1.32; stroke-dashoffset: 0; stroke: #b0b0b0; stroke-width: 0.8"/>
     </g>
     <g id="line2d_84">
      <g>
       <use xlink:href="#m666b43f18d" x="275.963499" y="76.49441" style="stroke: #000000; stroke-width: 0.8"/>
      </g>
     </g>
     <g id="line2d_85">
      <g>
       <use xlink:href="#m7480e4adad" x="500.99976" y="76.49441" style="stroke: #000000; stroke-width: 0.8"/>
      </g>
     </g>
    </g>
    <g id="ytick_12">
     <g id="line2d_86">
      <path d="M 275.963499 20.069828 
L 500.99976 20.069828 
" clip-path="url(#p948777dfeb)" style="fill: none; stroke-dasharray: 0.8,1.32; stroke-dashoffset: 0; stroke: #b0b0b0; stroke-width: 0.8"/>
     </g>
     <g id="line2d_87">
      <g>
       <use xlink:href="#m666b43f18d" x="275.963499" y="20.069828" style="stroke: #000000; stroke-width: 0.8"/>
      </g>
     </g>
     <g id="line2d_88">
      <g>
       <use xlink:href="#m7480e4adad" x="500.99976" y="20.069828" style="stroke: #000000; stroke-width: 0.8"/>
      </g>
     </g>
    </g>
   </g>
   <g id="line2d_89">
    <path d="M 309.718939 302.192737 
L 309.718939 20.069828 
" clip-path="url(#p948777dfeb)" style="fill: none; stroke-dasharray: 5.55,2.4; stroke-dashoffset: 0; stroke: #000000; stroke-opacity: 0.75; stroke-width: 1.5"/>
   </g>
   <g id="patch_9">
    <path d="M 275.963499 302.192737 
L 275.963499 20.069828 
" style="fill: none; stroke: #000000; stroke-width: 0.8; stroke-linejoin: miter; stroke-linecap: square"/>
   </g>
   <g id="patch_10">
    <path d="M 500.99976 302.192737 
L 500.99976 20.069828 
" style="fill: none; stroke: #000000; stroke-width: 0.8; stroke-linejoin: miter; stroke-linecap: square"/>
   </g>
   <g id="patch_11">
    <path d="M 275.963499 302.192737 
L 500.99976 302.192737 
" style="fill: none; stroke: #000000; stroke-width: 0.8; stroke-linejoin: miter; stroke-linecap: square"/>
   </g>
   <g id="patch_12">
    <path d="M 275.963499 20.069828 
L 500.99976 20.069828 
" style="fill: none; stroke: #000000; stroke-width: 0.8; stroke-linejoin: miter; stroke-linecap: square"/>
   </g>
   <g id="text_26">
    <!-- Velocity gradient profile -->
    <g transform="translate(306.542525 14.069828) scale(0.16 -0.16)">
     <defs>
      <path id="CMR17-67" d="M 710 1164 
C 832 1068 1043 960 1299 960 
C 1805 960 2240 1357 2240 1888 
C 2240 2054 2189 2310 1997 2509 
C 2176 2692 2438 2752 2586 2752 
C 2611 2752 2650 2752 2682 2734 
C 2656 2728 2598 2703 2598 2605 
C 2598 2527 2656 2471 2739 2471 
C 2835 2471 2886 2533 2886 2614 
C 2886 2731 2790 2854 2586 2854 
C 2330 2854 2106 2738 1926 2580 
C 1734 2753 1504 2816 1299 2816 
C 794 2816 358 2419 358 1888 
C 358 1522 570 1292 634 1228 
C 442 1004 442 743 442 711 
C 442 545 506 302 723 168 
C 390 85 128 -169 128 -486 
C 128 -943 736 -1280 1466 -1280 
C 2170 -1280 2803 -956 2803 -479 
C 2803 384 1856 384 1363 384 
C 1216 384 954 384 922 391 
C 723 423 589 602 589 826 
C 589 883 589 1024 710 1164 
z
M 1299 1068 
C 736 1068 736 1760 736 1889 
C 736 2016 736 2708 1299 2708 
C 1862 2708 1862 2016 1862 1889 
C 1862 1760 1862 1068 1299 1068 
z
M 1466 -1171 
C 826 -1171 384 -835 384 -486 
C 384 -289 493 -105 634 -4 
C 794 104 858 104 1293 104 
C 1818 104 2547 104 2547 -486 
C 2547 -835 2106 -1171 1466 -1171 
z
" transform="scale(0.015625)"/>
      <path id="CMR17-61" d="M 2304 1653 
C 2304 2072 2304 2294 2035 2543 
C 1798 2752 1523 2816 1306 2816 
C 800 2816 435 2407 435 1971 
C 435 1728 627 1728 666 1728 
C 749 1728 896 1778 896 1954 
C 896 2112 774 2181 666 2181 
C 640 2181 608 2174 589 2168 
C 723 2592 1069 2714 1293 2714 
C 1613 2714 1965 2429 1965 1885 
L 1965 1600 
C 1587 1600 1133 1549 774 1357 
C 371 1133 256 813 256 570 
C 256 77 832 -64 1171 -64 
C 1523 -64 1850 139 1990 511 
C 2003 233 2182 -18 2464 -18 
C 2598 -18 2938 70 2938 567 
L 2938 920 
L 2822 920 
L 2822 562 
C 2822 178 2650 128 2566 128 
C 2304 128 2304 458 2304 738 
L 2304 1653 
z
M 1965 870 
C 1965 317 1568 38 1216 38 
C 896 38 646 275 646 570 
C 646 761 730 1100 1101 1305 
C 1408 1478 1760 1504 1965 1504 
L 1965 870 
z
" transform="scale(0.015625)"/>
      <path id="CMR17-64" d="M 1869 4326 
L 1869 4160 
C 2246 4160 2304 4122 2304 3820 
L 2304 2345 
C 2278 2377 2016 2790 1498 2790 
C 845 2790 211 2208 211 1364 
C 211 525 806 -64 1434 -64 
C 1978 -64 2259 337 2291 380 
L 2291 -63 
L 3066 -63 
L 3066 128 
C 2688 128 2630 166 2630 473 
L 2630 4396 
L 1869 4326 
z
M 2291 755 
C 2291 563 2176 390 2029 262 
C 1811 70 1594 38 1472 38 
C 1286 38 621 134 621 1356 
C 621 2612 1363 2688 1530 2688 
C 1824 2688 2061 2522 2208 2291 
C 2291 2157 2291 2138 2291 2023 
L 2291 755 
z
" transform="scale(0.015625)"/>
      <path id="CMR17-6e" d="M 2656 1933 
C 2656 2259 2592 2790 1837 2790 
C 1331 2790 1069 2400 973 2144 
L 966 2144 
L 966 2790 
L 211 2720 
L 211 2554 
C 589 2554 646 2515 646 2208 
L 646 428 
C 646 184 621 153 211 153 
L 211 -13 
C 365 0 646 0 813 0 
C 979 0 1267 0 1421 -13 
L 1421 153 
C 1011 153 986 178 986 428 
L 986 1658 
C 986 2247 1344 2688 1792 2688 
C 2266 2688 2317 2266 2317 1958 
L 2317 428 
C 2317 184 2291 153 1882 153 
L 1882 -13 
C 2035 0 2317 0 2483 0 
C 2650 0 2938 0 3091 -13 
L 3091 153 
C 2682 153 2656 178 2656 428 
L 2656 1933 
z
" transform="scale(0.015625)"/>
     </defs>
     <use xlink:href="#CMR17-56" transform="scale(0.996264)"/>
     <use xlink:href="#CMR17-65" transform="translate(61.265174 0) scale(0.996264)"/>
     <use xlink:href="#CMR17-6c" transform="translate(101.750835 0) scale(0.996264)"/>
     <use xlink:href="#CMR17-6f" transform="translate(126.621893 0) scale(0.996264)"/>
     <use xlink:href="#CMR17-63" transform="translate(174.914809 0) scale(0.996264)"/>
     <use xlink:href="#CMR17-69" transform="translate(215.40047 0) scale(0.996264)"/>
     <use xlink:href="#CMR17-74" transform="translate(240.271528 0) scale(0.996264)"/>
     <use xlink:href="#CMR17-79" transform="translate(272.949842 0) scale(0.996264)"/>
     <use xlink:href="#CMR17-67" transform="translate(351.318724 0) scale(0.996264)"/>
     <use xlink:href="#CMR17-72" transform="translate(397.009201 0) scale(0.996264)"/>
     <use xlink:href="#CMR17-61" transform="translate(432.289969 0) scale(0.996264)"/>
     <use xlink:href="#CMR17-64" transform="translate(477.980446 0) scale(0.996264)"/>
     <use xlink:href="#CMR17-69" transform="translate(528.875816 0) scale(0.996264)"/>
     <use xlink:href="#CMR17-65" transform="translate(553.746875 0) scale(0.996264)"/>
     <use xlink:href="#CMR17-6e" transform="translate(594.232535 0) scale(0.996264)"/>
     <use xlink:href="#CMR17-74" transform="translate(642.525451 0) scale(0.996264)"/>
     <use xlink:href="#CMR17-70" transform="translate(707.882185 0) scale(0.996264)"/>
     <use xlink:href="#CMR17-72" transform="translate(758.777555 0) scale(0.996264)"/>
     <use xlink:href="#CMR17-6f" transform="translate(794.058323 0) scale(0.996264)"/>
     <use xlink:href="#CMR17-c" transform="translate(839.7488 0) scale(0.996264)"/>
     <use xlink:href="#CMR17-6c" transform="translate(889.491023 0) scale(0.996264)"/>
     <use xlink:href="#CMR17-65" transform="translate(914.362082 0) scale(0.996264)"/>
    </g>
   </g>
  </g>
 </g>
 <defs>
  <clipPath id="p6ab85aad4b">
   <rect x="44.926759" y="20.069828" width="225.036261" height="282.122909"/>
  </clipPath>
  <clipPath id="p948777dfeb">
   <rect x="275.963499" y="20.069828" width="225.036261" height="282.122909"/>
  </clipPath>
 </defs>
</svg>
