<?xml version="1.0" encoding="utf-8" standalone="no"?>
<!DOCTYPE svg PUBLIC "-//W3C//DTD SVG 1.1//EN"
  "http://www.w3.org/Graphics/SVG/1.1/DTD/svg11.dtd">
<svg xmlns:xlink="http://www.w3.org/1999/xlink" width="504pt" height="336pt" viewBox="0 0 504 336" xmlns="http://www.w3.org/2000/svg" version="1.1">
 <metadata>
  <rdf:RDF xmlns:dc="http://purl.org/dc/elements/1.1/" xmlns:cc="http://creativecommons.org/ns#" xmlns:rdf="http://www.w3.org/1999/02/22-rdf-syntax-ns#">
   <cc:Work>
    <dc:type rdf:resource="http://purl.org/dc/dcmitype/StillImage"/>
    <dc:date>2023-05-29T17:15:02.982742</dc:date>
    <dc:format>image/svg+xml</dc:format>
    <dc:creator>
     <cc:Agent>
      <dc:title>Matplotlib v3.7.1, https://matplotlib.org/</dc:title>
     </cc:Agent>
    </dc:creator>
   </cc:Work>
  </rdf:RDF>
 </metadata>
 <defs>
  <style type="text/css">*{stroke-linejoin: round; stroke-linecap: butt}</style>
 </defs>
 <g id="figure_1">
  <g id="patch_1">
   <path d="M 0 336 
L 504 336 
L 504 0 
L 0 0 
L 0 336 
z
" style="fill: none"/>
  </g>
  <g id="axes_1">
   <g id="patch_2">
    <path d="M 43.376968 302.967633 
L 269.188124 302.967633 
L 269.188124 20.069828 
L 43.376968 20.069828 
L 43.376968 302.967633 
z
" style="fill: none"/>
   </g>
   <g id="line2d_1">
    <defs>
     <path id="m53871b3b00" d="M 0 2.5 
C 0.663008 2.5 1.29895 2.236584 1.767767 1.767767 
C 2.236584 1.29895 2.5 0.663008 2.5 0 
C 2.5 -0.663008 2.236584 -1.29895 1.767767 -1.767767 
C 1.29895 -2.236584 0.663008 -2.5 0 -2.5 
C -0.663008 -2.5 -1.29895 -2.236584 -1.767767 -1.767767 
C -2.236584 -1.29895 -2.5 -0.663008 -2.5 0 
C -2.5 0.663008 -2.236584 1.29895 -1.767767 1.767767 
C -1.29895 2.236584 -0.663008 2.5 0 2.5 
z
" style="stroke: #9e0142"/>
    </defs>
    <g clip-path="url(#p9de70228c2)">
     <use xlink:href="#m53871b3b00" x="128.275241" y="27.414009" style="fill: #9e0142; stroke: #9e0142"/>
    </g>
   </g>
   <g id="line2d_2">
    <defs>
     <path id="m2b857499fc" d="M 0 2.5 
C 0.663008 2.5 1.29895 2.236584 1.767767 1.767767 
C 2.236584 1.29895 2.5 0.663008 2.5 0 
C 2.5 -0.663008 2.236584 -1.29895 1.767767 -1.767767 
C 1.29895 -2.236584 0.663008 -2.5 0 -2.5 
C -0.663008 -2.5 -1.29895 -2.236584 -1.767767 -1.767767 
C -2.236584 -1.29895 -2.5 -0.663008 -2.5 0 
C -2.5 0.663008 -2.236584 1.29895 -1.767767 1.767767 
C -1.29895 2.236584 -0.663008 2.5 0 2.5 
z
" style="stroke: #f46d43"/>
    </defs>
    <g clip-path="url(#p9de70228c2)">
     <use xlink:href="#m2b857499fc" x="128.275241" y="35.256779" style="fill: #f46d43; stroke: #f46d43"/>
    </g>
   </g>
   <g id="line2d_3">
    <defs>
     <path id="ma2a3a28372" d="M 0 2.5 
C 0.663008 2.5 1.29895 2.236584 1.767767 1.767767 
C 2.236584 1.29895 2.5 0.663008 2.5 0 
C 2.5 -0.663008 2.236584 -1.29895 1.767767 -1.767767 
C 1.29895 -2.236584 0.663008 -2.5 0 -2.5 
C -0.663008 -2.5 -1.29895 -2.236584 -1.767767 -1.767767 
C -2.236584 -1.29895 -2.5 -0.663008 -2.5 0 
C -2.5 0.663008 -2.236584 1.29895 -1.767767 1.767767 
C -1.29895 2.236584 -0.663008 2.5 0 2.5 
z
" style="stroke: #fee08b"/>
    </defs>
    <g clip-path="url(#p9de70228c2)">
     <use xlink:href="#ma2a3a28372" x="128.275241" y="48.54424" style="fill: #fee08b; stroke: #fee08b"/>
    </g>
   </g>
   <g id="line2d_4">
    <defs>
     <path id="m139bdf9abc" d="M 0 2.5 
C 0.663008 2.5 1.29895 2.236584 1.767767 1.767767 
C 2.236584 1.29895 2.5 0.663008 2.5 0 
C 2.5 -0.663008 2.236584 -1.29895 1.767767 -1.767767 
C 1.29895 -2.236584 0.663008 -2.5 0 -2.5 
C -0.663008 -2.5 -1.29895 -2.236584 -1.767767 -1.767767 
C -2.236584 -1.29895 -2.5 -0.663008 -2.5 0 
C -2.5 0.663008 -2.236584 1.29895 -1.767767 1.767767 
C -1.29895 2.236584 -0.663008 2.5 0 2.5 
z
" style="stroke: #e6f598"/>
    </defs>
    <g clip-path="url(#p9de70228c2)">
     <use xlink:href="#m139bdf9abc" x="128.275241" y="63.22982" style="fill: #e6f598; stroke: #e6f598"/>
    </g>
   </g>
   <g id="line2d_5">
    <defs>
     <path id="m806a03f0c8" d="M 0 2.5 
C 0.663008 2.5 1.29895 2.236584 1.767767 1.767767 
C 2.236584 1.29895 2.5 0.663008 2.5 0 
C 2.5 -0.663008 2.236584 -1.29895 1.767767 -1.767767 
C 1.29895 -2.236584 0.663008 -2.5 0 -2.5 
C -0.663008 -2.5 -1.29895 -2.236584 -1.767767 -1.767767 
C -2.236584 -1.29895 -2.5 -0.663008 -2.5 0 
C -2.5 0.663008 -2.236584 1.29895 -1.767767 1.767767 
C -1.29895 2.236584 -0.663008 2.5 0 2.5 
z
" style="stroke: #66c2a5"/>
    </defs>
    <g clip-path="url(#p9de70228c2)">
     <use xlink:href="#m806a03f0c8" x="128.275241" y="78.084825" style="fill: #66c2a5; stroke: #66c2a5"/>
    </g>
   </g>
   <g id="line2d_6">
    <defs>
     <path id="m9d30bfc735" d="M 0 2.5 
C 0.663008 2.5 1.29895 2.236584 1.767767 1.767767 
C 2.236584 1.29895 2.5 0.663008 2.5 0 
C 2.5 -0.663008 2.236584 -1.29895 1.767767 -1.767767 
C 1.29895 -2.236584 0.663008 -2.5 0 -2.5 
C -0.663008 -2.5 -1.29895 -2.236584 -1.767767 -1.767767 
C -2.236584 -1.29895 -2.5 -0.663008 -2.5 0 
C -2.5 0.663008 -2.236584 1.29895 -1.767767 1.767767 
C -1.29895 2.236584 -0.663008 2.5 0 2.5 
z
" style="stroke: #5e4fa2"/>
    </defs>
    <g clip-path="url(#p9de70228c2)">
     <use xlink:href="#m9d30bfc735" x="128.275241" y="86.81212" style="fill: #5e4fa2; stroke: #5e4fa2"/>
    </g>
   </g>
   <g id="matplotlib.axis_1">
    <g id="xtick_1">
     <g id="line2d_7">
      <path d="M 65.647293 302.967633 
L 65.647293 20.069828 
" clip-path="url(#p9de70228c2)" style="fill: none; stroke-dasharray: 0.8,1.32; stroke-dashoffset: 0; stroke: #b0b0b0; stroke-width: 0.8"/>
     </g>
     <g id="line2d_8">
      <defs>
       <path id="m31edc084b7" d="M 0 0 
L 0 -3.5 
" style="stroke: #000000; stroke-width: 0.8"/>
      </defs>
      <g>
       <use xlink:href="#m31edc084b7" x="65.647293" y="302.967633" style="stroke: #000000; stroke-width: 0.8"/>
      </g>
     </g>
     <g id="line2d_9">
      <defs>
       <path id="m1963c8f6eb" d="M 0 0 
L 0 3.5 
" style="stroke: #000000; stroke-width: 0.8"/>
      </defs>
      <g>
       <use xlink:href="#m1963c8f6eb" x="65.647293" y="20.069828" style="stroke: #000000; stroke-width: 0.8"/>
      </g>
     </g>
     <g id="text_1">
      <!-- $\mathdefault{−0.2}$ -->
      <g transform="translate(55.407882 313.386131) scale(0.1 -0.1)">
       <defs>
        <path id="CMSY10-0" d="M 4218 1472 
C 4326 1472 4442 1472 4442 1600 
C 4442 1728 4326 1728 4218 1728 
L 755 1728 
C 646 1728 531 1728 531 1600 
C 531 1472 646 1472 755 1472 
L 4218 1472 
z
" transform="scale(0.015625)"/>
        <path id="CMR17-30" d="M 2688 2025 
C 2688 2416 2682 3080 2413 3591 
C 2176 4039 1798 4198 1466 4198 
C 1158 4198 768 4058 525 3597 
C 269 3118 243 2524 243 2025 
C 243 1661 250 1106 448 619 
C 723 -39 1216 -128 1466 -128 
C 1760 -128 2208 -7 2470 600 
C 2662 1042 2688 1559 2688 2025 
z
M 1466 -26 
C 1056 -26 813 325 723 812 
C 653 1188 653 1738 653 2096 
C 653 2588 653 2997 736 3387 
C 858 3929 1216 4096 1466 4096 
C 1728 4096 2067 3923 2189 3400 
C 2272 3036 2278 2607 2278 2096 
C 2278 1680 2278 1169 2202 792 
C 2067 95 1690 -26 1466 -26 
z
" transform="scale(0.015625)"/>
        <path id="CMMI12-3a" d="M 1178 307 
C 1178 492 1024 619 870 619 
C 685 619 557 466 557 313 
C 557 128 710 0 864 0 
C 1050 0 1178 153 1178 307 
z
" transform="scale(0.015625)"/>
        <path id="CMR17-32" d="M 2669 989 
L 2554 989 
C 2490 536 2438 459 2413 420 
C 2381 369 1920 369 1830 369 
L 602 369 
C 832 619 1280 1072 1824 1597 
C 2214 1967 2669 2402 2669 3035 
C 2669 3790 2067 4224 1395 4224 
C 691 4224 262 3604 262 3030 
C 262 2780 448 2748 525 2748 
C 589 2748 781 2787 781 3010 
C 781 3207 614 3264 525 3264 
C 486 3264 448 3258 422 3245 
C 544 3790 915 4058 1306 4058 
C 1862 4058 2227 3617 2227 3035 
C 2227 2479 1901 2000 1536 1584 
L 262 146 
L 262 0 
L 2515 0 
L 2669 989 
z
" transform="scale(0.015625)"/>
       </defs>
       <use xlink:href="#CMSY10-0" transform="scale(0.996264)"/>
       <use xlink:href="#CMR17-30" transform="translate(77.487468 0) scale(0.996264)"/>
       <use xlink:href="#CMMI12-3a" transform="translate(123.177945 0) scale(0.996264)"/>
       <use xlink:href="#CMR17-32" transform="translate(150.275122 0) scale(0.996264)"/>
      </g>
     </g>
    </g>
    <g id="xtick_2">
     <g id="line2d_10">
      <path d="M 128.275241 302.967633 
L 128.275241 20.069828 
" clip-path="url(#p9de70228c2)" style="fill: none; stroke-dasharray: 0.8,1.32; stroke-dashoffset: 0; stroke: #b0b0b0; stroke-width: 0.8"/>
     </g>
     <g id="line2d_11">
      <g>
       <use xlink:href="#m31edc084b7" x="128.275241" y="302.967633" style="stroke: #000000; stroke-width: 0.8"/>
      </g>
     </g>
     <g id="line2d_12">
      <g>
       <use xlink:href="#m1963c8f6eb" x="128.275241" y="20.069828" style="stroke: #000000; stroke-width: 0.8"/>
      </g>
     </g>
     <g id="text_2">
      <!-- $\mathdefault{0.0}$ -->
      <g transform="translate(121.910202 313.386131) scale(0.1 -0.1)">
       <use xlink:href="#CMR17-30" transform="scale(0.996264)"/>
       <use xlink:href="#CMMI12-3a" transform="translate(45.690477 0) scale(0.996264)"/>
       <use xlink:href="#CMR17-30" transform="translate(72.787654 0) scale(0.996264)"/>
      </g>
     </g>
    </g>
    <g id="xtick_3">
     <g id="line2d_13">
      <path d="M 190.903189 302.967633 
L 190.903189 20.069828 
" clip-path="url(#p9de70228c2)" style="fill: none; stroke-dasharray: 0.8,1.32; stroke-dashoffset: 0; stroke: #b0b0b0; stroke-width: 0.8"/>
     </g>
     <g id="line2d_14">
      <g>
       <use xlink:href="#m31edc084b7" x="190.903189" y="302.967633" style="stroke: #000000; stroke-width: 0.8"/>
      </g>
     </g>
     <g id="line2d_15">
      <g>
       <use xlink:href="#m1963c8f6eb" x="190.903189" y="20.069828" style="stroke: #000000; stroke-width: 0.8"/>
      </g>
     </g>
     <g id="text_3">
      <!-- $\mathdefault{0.2}$ -->
      <g transform="translate(184.53815 313.386131) scale(0.1 -0.1)">
       <use xlink:href="#CMR17-30" transform="scale(0.996264)"/>
       <use xlink:href="#CMMI12-3a" transform="translate(45.690477 0) scale(0.996264)"/>
       <use xlink:href="#CMR17-32" transform="translate(72.787654 0) scale(0.996264)"/>
      </g>
     </g>
    </g>
    <g id="xtick_4">
     <g id="line2d_16">
      <path d="M 253.531137 302.967633 
L 253.531137 20.069828 
" clip-path="url(#p9de70228c2)" style="fill: none; stroke-dasharray: 0.8,1.32; stroke-dashoffset: 0; stroke: #b0b0b0; stroke-width: 0.8"/>
     </g>
     <g id="line2d_17">
      <g>
       <use xlink:href="#m31edc084b7" x="253.531137" y="302.967633" style="stroke: #000000; stroke-width: 0.8"/>
      </g>
     </g>
     <g id="line2d_18">
      <g>
       <use xlink:href="#m1963c8f6eb" x="253.531137" y="20.069828" style="stroke: #000000; stroke-width: 0.8"/>
      </g>
     </g>
     <g id="text_4">
      <!-- $\mathdefault{0.4}$ -->
      <g transform="translate(247.166097 313.386131) scale(0.1 -0.1)">
       <defs>
        <path id="CMR17-34" d="M 2150 4122 
C 2150 4256 2144 4256 2029 4256 
L 128 1254 
L 128 1088 
L 1779 1088 
L 1779 457 
C 1779 224 1766 160 1318 160 
L 1197 160 
L 1197 0 
C 1402 0 1747 0 1965 0 
C 2182 0 2528 0 2733 0 
L 2733 160 
L 2611 160 
C 2163 160 2150 224 2150 457 
L 2150 1088 
L 2803 1088 
L 2803 1254 
L 2150 1254 
L 2150 4122 
z
M 1798 3703 
L 1798 1254 
L 256 1254 
L 1798 3703 
z
" transform="scale(0.015625)"/>
       </defs>
       <use xlink:href="#CMR17-30" transform="scale(0.996264)"/>
       <use xlink:href="#CMMI12-3a" transform="translate(45.690477 0) scale(0.996264)"/>
       <use xlink:href="#CMR17-34" transform="translate(72.787654 0) scale(0.996264)"/>
      </g>
     </g>
    </g>
    <g id="text_5">
     <!-- $u$ -->
     <g transform="translate(152.396126 329.009186) scale(0.14 -0.14)">
      <defs>
       <path id="CMMI12-75" d="M 2182 370 
C 2266 13 2573 -64 2726 -64 
C 2931 -64 3085 70 3187 287 
C 3296 517 3379 894 3379 913 
C 3379 945 3354 971 3315 971 
C 3258 971 3251 939 3226 843 
C 3110 402 2995 64 2739 64 
C 2547 64 2547 275 2547 358 
C 2547 505 2566 568 2630 837 
C 2675 1009 2720 1181 2758 1360 
L 3021 2401 
C 3066 2561 3066 2574 3066 2593 
C 3066 2689 2989 2753 2893 2753 
C 2707 2753 2662 2593 2624 2433 
C 2560 2184 2214 811 2170 588 
C 2163 588 1914 64 1446 64 
C 1114 64 1050 351 1050 588 
C 1050 952 1229 1462 1395 1890 
C 1472 2095 1504 2178 1504 2305 
C 1504 2580 1306 2816 998 2816 
C 410 2816 173 1890 173 1839 
C 173 1814 198 1782 243 1782 
C 301 1782 307 1807 333 1896 
C 486 2441 736 2682 979 2682 
C 1043 2682 1146 2682 1146 2478 
C 1146 2312 1075 2127 979 1884 
C 698 1124 666 881 666 690 
C 666 38 1158 -64 1421 -64 
C 1830 -64 2054 217 2182 370 
z
" transform="scale(0.015625)"/>
      </defs>
      <use xlink:href="#CMMI12-75" transform="scale(0.996264)"/>
     </g>
    </g>
   </g>
   <g id="matplotlib.axis_2">
    <g id="ytick_1">
     <g id="line2d_19">
      <path d="M 43.376968 302.967633 
L 269.188124 302.967633 
" clip-path="url(#p9de70228c2)" style="fill: none; stroke-dasharray: 0.8,1.32; stroke-dashoffset: 0; stroke: #b0b0b0; stroke-width: 0.8"/>
     </g>
     <g id="line2d_20">
      <defs>
       <path id="m06f2369f15" d="M 0 0 
L 3.5 0 
" style="stroke: #000000; stroke-width: 0.8"/>
      </defs>
      <g>
       <use xlink:href="#m06f2369f15" x="43.376968" y="302.967633" style="stroke: #000000; stroke-width: 0.8"/>
      </g>
     </g>
     <g id="line2d_21">
      <defs>
       <path id="ma3daab7660" d="M 0 0 
L -3.5 0 
" style="stroke: #000000; stroke-width: 0.8"/>
      </defs>
      <g>
       <use xlink:href="#ma3daab7660" x="269.188124" y="302.967633" style="stroke: #000000; stroke-width: 0.8"/>
      </g>
     </g>
     <g id="text_6">
      <!-- $\mathdefault{−1.0}$ -->
      <g transform="translate(19.398145 306.426882) scale(0.1 -0.1)">
       <defs>
        <path id="CMR17-31" d="M 1702 4058 
C 1702 4192 1696 4192 1606 4192 
C 1357 3916 979 3827 621 3827 
C 602 3827 570 3827 563 3808 
C 557 3795 557 3782 557 3648 
C 755 3648 1088 3686 1344 3839 
L 1344 461 
C 1344 236 1331 160 781 160 
L 589 160 
L 589 0 
C 896 0 1216 0 1523 0 
C 1830 0 2150 0 2458 0 
L 2458 160 
L 2266 160 
C 1715 160 1702 230 1702 458 
L 1702 4058 
z
" transform="scale(0.015625)"/>
       </defs>
       <use xlink:href="#CMSY10-0" transform="scale(0.996264)"/>
       <use xlink:href="#CMR17-31" transform="translate(77.487468 0) scale(0.996264)"/>
       <use xlink:href="#CMMI12-3a" transform="translate(123.177945 0) scale(0.996264)"/>
       <use xlink:href="#CMR17-30" transform="translate(150.275122 0) scale(0.996264)"/>
      </g>
     </g>
    </g>
    <g id="ytick_2">
     <g id="line2d_22">
      <path d="M 43.376968 246.388072 
L 269.188124 246.388072 
" clip-path="url(#p9de70228c2)" style="fill: none; stroke-dasharray: 0.8,1.32; stroke-dashoffset: 0; stroke: #b0b0b0; stroke-width: 0.8"/>
     </g>
     <g id="line2d_23">
      <g>
       <use xlink:href="#m06f2369f15" x="43.376968" y="246.388072" style="stroke: #000000; stroke-width: 0.8"/>
      </g>
     </g>
     <g id="line2d_24">
      <g>
       <use xlink:href="#ma3daab7660" x="269.188124" y="246.388072" style="stroke: #000000; stroke-width: 0.8"/>
      </g>
     </g>
     <g id="text_7">
      <!-- $\mathdefault{−0.8}$ -->
      <g transform="translate(19.398145 249.847321) scale(0.1 -0.1)">
       <defs>
        <path id="CMR17-38" d="M 1741 2264 
C 2144 2467 2554 2773 2554 3263 
C 2554 3841 1990 4179 1472 4179 
C 890 4179 378 3759 378 3180 
C 378 3021 416 2747 666 2505 
C 730 2442 998 2251 1171 2130 
C 883 1983 211 1634 211 934 
C 211 279 838 -128 1459 -128 
C 2144 -128 2720 362 2720 1010 
C 2720 1590 2330 1857 2074 2029 
L 1741 2264 
z
M 902 2822 
C 851 2854 595 3051 595 3351 
C 595 3739 998 4032 1459 4032 
C 1965 4032 2336 3676 2336 3262 
C 2336 2669 1670 2331 1638 2331 
C 1632 2331 1626 2331 1574 2370 
L 902 2822 
z
M 2080 1519 
C 2176 1449 2483 1240 2483 851 
C 2483 381 2010 25 1472 25 
C 890 25 448 438 448 940 
C 448 1443 838 1862 1280 2060 
L 2080 1519 
z
" transform="scale(0.015625)"/>
       </defs>
       <use xlink:href="#CMSY10-0" transform="scale(0.996264)"/>
       <use xlink:href="#CMR17-30" transform="translate(77.487468 0) scale(0.996264)"/>
       <use xlink:href="#CMMI12-3a" transform="translate(123.177945 0) scale(0.996264)"/>
       <use xlink:href="#CMR17-38" transform="translate(150.275122 0) scale(0.996264)"/>
      </g>
     </g>
    </g>
    <g id="ytick_3">
     <g id="line2d_25">
      <path d="M 43.376968 189.808511 
L 269.188124 189.808511 
" clip-path="url(#p9de70228c2)" style="fill: none; stroke-dasharray: 0.8,1.32; stroke-dashoffset: 0; stroke: #b0b0b0; stroke-width: 0.8"/>
     </g>
     <g id="line2d_26">
      <g>
       <use xlink:href="#m06f2369f15" x="43.376968" y="189.808511" style="stroke: #000000; stroke-width: 0.8"/>
      </g>
     </g>
     <g id="line2d_27">
      <g>
       <use xlink:href="#ma3daab7660" x="269.188124" y="189.808511" style="stroke: #000000; stroke-width: 0.8"/>
      </g>
     </g>
     <g id="text_8">
      <!-- $\mathdefault{−0.6}$ -->
      <g transform="translate(19.398145 193.26776) scale(0.1 -0.1)">
       <defs>
        <path id="CMR17-36" d="M 678 2176 
C 678 3690 1395 4032 1811 4032 
C 1946 4032 2272 4009 2400 3776 
C 2298 3776 2106 3776 2106 3553 
C 2106 3381 2246 3323 2336 3323 
C 2394 3323 2566 3348 2566 3560 
C 2566 3954 2246 4179 1805 4179 
C 1043 4179 243 3390 243 1984 
C 243 253 966 -128 1478 -128 
C 2099 -128 2688 427 2688 1283 
C 2688 2081 2170 2662 1517 2662 
C 1126 2662 838 2407 678 1960 
L 678 2176 
z
M 1478 25 
C 691 25 691 1200 691 1436 
C 691 1896 909 2560 1504 2560 
C 1613 2560 1926 2560 2138 2120 
C 2253 1870 2253 1609 2253 1289 
C 2253 944 2253 690 2118 434 
C 1978 171 1773 25 1478 25 
z
" transform="scale(0.015625)"/>
       </defs>
       <use xlink:href="#CMSY10-0" transform="scale(0.996264)"/>
       <use xlink:href="#CMR17-30" transform="translate(77.487468 0) scale(0.996264)"/>
       <use xlink:href="#CMMI12-3a" transform="translate(123.177945 0) scale(0.996264)"/>
       <use xlink:href="#CMR17-36" transform="translate(150.275122 0) scale(0.996264)"/>
      </g>
     </g>
    </g>
    <g id="ytick_4">
     <g id="line2d_28">
      <path d="M 43.376968 133.22895 
L 269.188124 133.22895 
" clip-path="url(#p9de70228c2)" style="fill: none; stroke-dasharray: 0.8,1.32; stroke-dashoffset: 0; stroke: #b0b0b0; stroke-width: 0.8"/>
     </g>
     <g id="line2d_29">
      <g>
       <use xlink:href="#m06f2369f15" x="43.376968" y="133.22895" style="stroke: #000000; stroke-width: 0.8"/>
      </g>
     </g>
     <g id="line2d_30">
      <g>
       <use xlink:href="#ma3daab7660" x="269.188124" y="133.22895" style="stroke: #000000; stroke-width: 0.8"/>
      </g>
     </g>
     <g id="text_9">
      <!-- $\mathdefault{−0.4}$ -->
      <g transform="translate(19.398145 136.688199) scale(0.1 -0.1)">
       <use xlink:href="#CMSY10-0" transform="scale(0.996264)"/>
       <use xlink:href="#CMR17-30" transform="translate(77.487468 0) scale(0.996264)"/>
       <use xlink:href="#CMMI12-3a" transform="translate(123.177945 0) scale(0.996264)"/>
       <use xlink:href="#CMR17-34" transform="translate(150.275122 0) scale(0.996264)"/>
      </g>
     </g>
    </g>
    <g id="ytick_5">
     <g id="line2d_31">
      <path d="M 43.376968 76.649389 
L 269.188124 76.649389 
" clip-path="url(#p9de70228c2)" style="fill: none; stroke-dasharray: 0.8,1.32; stroke-dashoffset: 0; stroke: #b0b0b0; stroke-width: 0.8"/>
     </g>
     <g id="line2d_32">
      <g>
       <use xlink:href="#m06f2369f15" x="43.376968" y="76.649389" style="stroke: #000000; stroke-width: 0.8"/>
      </g>
     </g>
     <g id="line2d_33">
      <g>
       <use xlink:href="#ma3daab7660" x="269.188124" y="76.649389" style="stroke: #000000; stroke-width: 0.8"/>
      </g>
     </g>
     <g id="text_10">
      <!-- $\mathdefault{−0.2}$ -->
      <g transform="translate(19.398145 80.108638) scale(0.1 -0.1)">
       <use xlink:href="#CMSY10-0" transform="scale(0.996264)"/>
       <use xlink:href="#CMR17-30" transform="translate(77.487468 0) scale(0.996264)"/>
       <use xlink:href="#CMMI12-3a" transform="translate(123.177945 0) scale(0.996264)"/>
       <use xlink:href="#CMR17-32" transform="translate(150.275122 0) scale(0.996264)"/>
      </g>
     </g>
    </g>
    <g id="ytick_6">
     <g id="line2d_34">
      <path d="M 43.376968 20.069828 
L 269.188124 20.069828 
" clip-path="url(#p9de70228c2)" style="fill: none; stroke-dasharray: 0.8,1.32; stroke-dashoffset: 0; stroke: #b0b0b0; stroke-width: 0.8"/>
     </g>
     <g id="line2d_35">
      <g>
       <use xlink:href="#m06f2369f15" x="43.376968" y="20.069828" style="stroke: #000000; stroke-width: 0.8"/>
      </g>
     </g>
     <g id="line2d_36">
      <g>
       <use xlink:href="#ma3daab7660" x="269.188124" y="20.069828" style="stroke: #000000; stroke-width: 0.8"/>
      </g>
     </g>
     <g id="text_11">
      <!-- $\mathdefault{0.0}$ -->
      <g transform="translate(27.146889 23.529077) scale(0.1 -0.1)">
       <use xlink:href="#CMR17-30" transform="scale(0.996264)"/>
       <use xlink:href="#CMMI12-3a" transform="translate(45.690477 0) scale(0.996264)"/>
       <use xlink:href="#CMR17-30" transform="translate(72.787654 0) scale(0.996264)"/>
      </g>
     </g>
    </g>
    <g id="text_12">
     <!-- $y$ -->
     <g transform="translate(12.686116 164.848217) rotate(-90) scale(0.14 -0.14)">
      <defs>
       <path id="CMMI12-79" d="M 1683 -700 
C 1510 -939 1261 -1152 947 -1152 
C 870 -1152 563 -1152 467 -889 
C 486 -895 518 -895 531 -895 
C 723 -895 851 -729 851 -582 
C 851 -435 730 -384 634 -384 
C 531 -384 307 -458 307 -759 
C 307 -1071 582 -1286 947 -1286 
C 1587 -1286 2234 -700 2413 6 
L 3040 2485 
C 3046 2517 3059 2556 3059 2594 
C 3059 2689 2982 2753 2886 2753 
C 2829 2753 2694 2727 2643 2535 
L 2170 658 
C 2138 543 2138 530 2086 460 
C 1958 281 1747 64 1440 64 
C 1082 64 1050 415 1050 588 
C 1050 952 1222 1443 1395 1903 
C 1466 2088 1504 2178 1504 2305 
C 1504 2574 1312 2816 998 2816 
C 410 2816 173 1890 173 1839 
C 173 1814 198 1782 243 1782 
C 301 1782 307 1807 333 1897 
C 486 2433 730 2689 979 2689 
C 1037 2689 1146 2689 1146 2478 
C 1146 2312 1075 2127 979 1884 
C 666 1047 666 837 666 683 
C 666 77 1101 -64 1421 -64 
C 1606 -64 1837 -6 2061 230 
L 2067 224 
C 1971 -147 1907 -392 1683 -700 
z
" transform="scale(0.015625)"/>
      </defs>
      <use xlink:href="#CMMI12-79" transform="scale(0.996264)"/>
     </g>
    </g>
   </g>
   <g id="line2d_37">
    <path d="M 128.275241 302.967633 
L 124.890468 298.450375 
L 121.763471 293.969473 
L 118.163643 288.419473 
L 114.847762 282.926278 
L 111.173961 276.40943 
L 107.218326 268.909828 
L 103.023502 260.47519 
L 98.133225 250.136396 
L 91.729168 236.043824 
L 84.034156 218.579216 
L 78.091199 204.58776 
L 74.102832 194.652293 
L 71.155126 186.727777 
L 68.838874 179.838278 
L 67.096167 173.92926 
L 65.847982 168.953005 
L 64.856838 164.058552 
L 64.247967 160.042328 
L 63.856119 156.082911 
L 63.697675 152.1803 
L 63.793202 148.334496 
L 64.06221 145.298753 
L 64.510886 142.299367 
L 65.150722 139.336337 
L 65.98742 136.409663 
L 67.03104 133.519345 
L 68.283588 130.665384 
L 69.759473 127.847778 
L 71.460008 125.066529 
L 73.391395 122.321636 
L 75.55866 119.613099 
L 77.967682 116.940919 
L 80.622028 114.305094 
L 83.520214 111.705626 
L 86.670333 109.142514 
L 90.067408 106.615758 
L 94.666711 103.50844 
L 99.654985 100.457927 
L 105.024802 97.464222 
L 110.773123 94.527322 
L 116.890135 91.64723 
L 123.363236 88.823944 
L 131.583724 85.510985 
L 140.271176 82.279828 
L 149.395119 79.130472 
L 158.920414 76.062918 
L 170.488903 72.587493 
L 182.48597 69.223408 
L 196.631864 65.515076 
L 211.137881 61.952169 
L 227.748838 58.117726 
L 246.381159 54.073099 
L 266.842373 49.886455 
L 288.811777 45.63278 
L 313.555524 41.083711 
L 340.1061 36.430118 
L 371.257845 31.20505 
L 406.788333 25.478949 
L 441.41498 20.069828 
L 441.41498 20.069828 
" clip-path="url(#p9de70228c2)" style="fill: none; stroke: #5e4fa2; stroke-width: 1.5; stroke-linecap: square"/>
   </g>
   <g id="line2d_38">
    <path d="M 128.275241 302.967633 
L 128.016991 297.326741 
L 127.646903 292.854929 
L 126.953546 287.316289 
L 126.020585 281.834456 
L 124.856459 276.40943 
L 123.472279 271.04121 
L 121.880822 265.729796 
L 120.091886 260.47519 
L 117.706679 254.244646 
L 115.079997 248.095904 
L 112.239948 242.028964 
L 109.211501 236.043824 
L 105.478725 229.16455 
L 101.00834 221.438858 
L 95.81072 212.921282 
L 87.638943 200.037554 
L 79.251087 186.727777 
L 75.147084 179.838278 
L 71.872234 173.92926 
L 69.35531 168.953005 
L 67.497115 164.868613 
L 65.881776 160.841028 
L 64.537289 156.87025 
L 63.489596 152.956278 
L 62.881793 149.866001 
L 62.491253 146.81208 
L 62.334005 143.794516 
L 62.415637 140.813307 
L 62.755263 137.868455 
L 63.359679 134.959959 
L 64.238533 132.08782 
L 65.406102 129.252036 
L 66.868148 126.452609 
L 68.636641 123.689538 
L 70.710703 120.962823 
L 73.092802 118.272464 
L 93.686883 96.282645 
L 95.72367 94.527322 
L 98.811866 92.218704 
L 102.309289 89.946441 
L 106.206043 87.710535 
L 110.484906 85.510985 
L 115.129331 83.347791 
L 121.42648 80.694925 
L 128.23632 78.098865 
L 135.52445 75.559612 
L 143.254073 73.077165 
L 153.061227 70.173214 
L 163.384805 67.351064 
L 175.993086 64.161944 
L 189.106174 61.084165 
L 204.573207 57.703038 
L 220.401425 54.467336 
L 238.448875 51.001 
L 258.555131 47.36538 
L 280.427193 43.628645 
L 305.514261 39.566976 
L 334.601198 35.095163 
L 367.164235 30.323412 
L 404.949354 25.018816 
L 441.41498 20.069828 
L 441.41498 20.069828 
" clip-path="url(#p9de70228c2)" style="fill: none; stroke: #66c2a5; stroke-width: 1.5; stroke-linecap: square"/>
   </g>
   <g id="line2d_39">
    <path d="M 128.275241 302.967633 
L 128.207645 234.066956 
L 127.877227 230.140487 
L 127.374098 227.219493 
L 126.659941 224.31895 
L 125.750045 221.438858 
L 124.655592 218.579216 
L 122.925423 214.798171 
L 120.913933 211.053483 
L 118.652153 207.34515 
L 116.166011 203.673174 
L 112.795332 199.13433 
L 109.18761 194.652293 
L 104.630028 189.348832 
L 98.350542 182.404798 
L 86.084297 168.953005 
L 81.937466 164.058552 
L 78.799695 160.042328 
L 76.021623 156.082911 
L 74.103943 152.956278 
L 72.494094 149.866001 
L 71.220637 146.81208 
L 70.513087 144.545498 
L 70.021337 142.299367 
L 69.76982 140.073686 
L 69.76747 137.868455 
L 70.025805 135.683675 
L 70.560926 133.519345 
L 71.371972 131.375466 
L 72.459291 129.252036 
L 87.199513 104.125359 
L 104.338084 75.058578 
L 105.217417 74.063327 
L 106.908469 72.587493 
L 109.025433 71.132109 
L 111.547361 69.697175 
L 114.456468 68.282692 
L 118.906266 66.428526 
L 123.967669 64.610716 
L 129.596839 62.829262 
L 137.364997 60.653571 
L 145.867856 58.534686 
L 155.022865 56.472608 
L 166.755957 54.073099 
L 179.17568 51.755391 
L 194.358756 49.154787 
L 212.383664 46.319003 
L 233.187555 43.302575 
L 256.529523 40.166853 
L 281.961318 36.980005 
L 310.990047 33.568203 
L 344.167877 29.896227 
L 381.766681 25.959532 
L 426.160356 21.542254 
L 441.41498 20.069828 
L 441.41498 20.069828 
" clip-path="url(#p9de70228c2)" style="fill: none; stroke: #e6f598; stroke-width: 1.5; stroke-linecap: square"/>
   </g>
   <g id="line2d_40">
    <path d="M 128.275241 302.967633 
L 128.219955 193.762702 
L 128.050749 191.990337 
L 127.72163 190.227062 
L 126.947751 187.59919 
L 126.21152 185.858637 
L 124.806875 183.26485 
L 123.060775 180.691512 
L 121.049959 178.138626 
L 118.803895 175.606189 
L 115.518963 172.261419 
L 111.092706 168.131582 
L 96.129006 154.51505 
L 93.203261 151.406595 
L 91.310965 149.099112 
L 89.697524 146.81208 
L 88.442463 144.545498 
L 87.554634 142.299367 
L 87.202527 140.813307 
L 87.047012 139.336337 
L 87.084512 137.868455 
L 87.307798 136.409663 
L 87.707823 134.959959 
L 94.736154 114.305094 
L 115.112284 54.467336 
L 115.698555 53.681134 
L 116.629926 52.90402 
L 117.893293 52.135995 
L 120.379445 51.001 
L 123.535872 49.886455 
L 127.316461 48.792361 
L 133.25486 47.36538 
L 140.126969 45.974756 
L 147.834946 44.620487 
L 158.503715 42.978778 
L 172.592002 41.083711 
L 187.813614 39.270446 
L 206.648027 37.258357 
L 229.112495 35.095163 
L 254.94898 32.835398 
L 286.395417 30.323412 
L 322.019704 27.709174 
L 363.862916 24.869983 
L 412.567849 21.797884 
L 441.41498 20.069828 
L 441.41498 20.069828 
" clip-path="url(#p9de70228c2)" style="fill: none; stroke: #fee08b; stroke-width: 1.5; stroke-linecap: square"/>
   </g>
   <g id="line2d_41">
    <path d="M 128.275241 302.967633 
L 128.198965 169.7767 
L 128.027922 168.131582 
L 127.671732 166.495553 
L 127.132115 164.868613 
L 126.379469 163.250762 
L 125.249588 161.642001 
L 123.86519 160.042328 
L 122.231601 158.451744 
L 118.601826 155.297844 
L 112.999424 150.635162 
L 110.649386 148.334496 
L 109.370054 146.81208 
L 108.406917 145.298753 
L 107.741564 143.794516 
L 107.369956 142.299367 
L 107.210134 140.813307 
L 107.211695 139.336337 
L 107.488468 137.137923 
L 123.162243 37.258357 
L 123.324523 36.980005 
L 124.165381 36.430118 
L 125.665503 35.889319 
L 127.78361 35.35761 
L 132.043496 34.577088 
L 137.498693 33.817016 
L 146.422291 32.835398 
L 157.000128 31.890137 
L 172.163448 30.759687 
L 192.60713 29.478131 
L 218.650323 28.08637 
L 250.031362 26.632122 
L 289.69047 25.018816 
L 338.512555 23.261221 
L 399.403645 21.307075 
L 441.41498 20.069828 
L 441.41498 20.069828 
" clip-path="url(#p9de70228c2)" style="fill: none; stroke: #f46d43; stroke-width: 1.5; stroke-linecap: square"/>
   </g>
   <g id="line2d_42">
    <path d="M 128.275241 302.967633 
L 128.186747 164.058552 
L 127.994514 162.445245 
L 127.521845 160.841028 
L 127.14747 160.042328 
L 126.021982 158.451744 
L 124.509314 156.87025 
L 122.169142 154.51505 
L 121.008221 152.956278 
L 120.605642 152.1803 
L 120.151697 150.635162 
L 120.004174 149.099112 
L 120.06858 146.054281 
L 127.251911 27.896636 
L 127.469879 27.709174 
L 127.869036 27.523985 
L 129.486306 27.160423 
L 132.126694 26.80595 
L 137.829491 26.291283 
L 145.555934 25.797066 
L 160.46305 25.169921 
L 183.371872 24.437117 
L 215.299736 23.632736 
L 261.942326 22.687475 
L 325.987587 21.625192 
L 411.778524 20.437935 
L 441.41498 20.069828 
L 441.41498 20.069828 
" clip-path="url(#p9de70228c2)" style="fill: none; stroke: #9e0142; stroke-width: 1.5; stroke-linecap: square"/>
   </g>
   <g id="line2d_43">
    <path d="M 128.275241 302.967633 
L 128.275241 20.069828 
" clip-path="url(#p9de70228c2)" style="fill: none; stroke-dasharray: 5.55,2.4; stroke-dashoffset: 0; stroke: #000000; stroke-opacity: 0.75; stroke-width: 1.5"/>
   </g>
   <g id="patch_3">
    <path d="M 43.376968 302.967633 
L 43.376968 20.069828 
" style="fill: none; stroke: #000000; stroke-width: 0.8; stroke-linejoin: miter; stroke-linecap: square"/>
   </g>
   <g id="patch_4">
    <path d="M 269.188124 302.967633 
L 269.188124 20.069828 
" style="fill: none; stroke: #000000; stroke-width: 0.8; stroke-linejoin: miter; stroke-linecap: square"/>
   </g>
   <g id="patch_5">
    <path d="M 43.376968 302.967633 
L 269.188124 302.967633 
" style="fill: none; stroke: #000000; stroke-width: 0.8; stroke-linejoin: miter; stroke-linecap: square"/>
   </g>
   <g id="patch_6">
    <path d="M 43.376968 20.069828 
L 269.188124 20.069828 
" style="fill: none; stroke: #000000; stroke-width: 0.8; stroke-linejoin: miter; stroke-linecap: square"/>
   </g>
   <g id="text_13">
    <!-- Velocity profile -->
    <g transform="translate(104.909057 14.069828) scale(0.16 -0.16)">
     <defs>
      <path id="CMR17-56" d="M 3776 3745 
C 3834 3886 3936 4160 4365 4160 
L 4365 4332 
C 4218 4319 4051 4319 3891 4319 
C 3738 4319 3475 4319 3328 4332 
L 3328 4160 
C 3648 4160 3661 3936 3661 3898 
C 3661 3827 3642 3783 3622 3732 
L 2362 446 
L 1043 3886 
C 1024 3931 1011 3963 1011 3994 
C 1011 4160 1267 4160 1402 4160 
L 1402 4319 
C 1197 4319 896 4319 685 4319 
C 518 4319 218 4319 64 4332 
L 64 4160 
C 435 4160 506 4135 582 3931 
L 2106 -26 
C 2138 -115 2144 -128 2214 -128 
C 2285 -128 2291 -115 2323 -26 
L 3776 3745 
z
" transform="scale(0.015625)"/>
      <path id="CMR17-65" d="M 2438 1472 
C 2464 1498 2464 1511 2464 1576 
C 2464 2238 2118 2816 1389 2816 
C 710 2816 173 2169 173 1383 
C 173 551 781 -64 1459 -64 
C 2176 -64 2458 607 2458 740 
C 2458 784 2419 784 2406 784 
C 2362 784 2355 771 2330 696 
C 2189 265 1837 51 1504 51 
C 1229 51 954 203 781 480 
C 582 803 582 1176 582 1472 
L 2438 1472 
z
M 589 1568 
C 634 2505 1126 2714 1382 2714 
C 1818 2714 2112 2297 2118 1568 
L 589 1568 
z
" transform="scale(0.015625)"/>
      <path id="CMR17-6c" d="M 979 4396 
L 218 4326 
L 218 4160 
C 595 4160 653 4122 653 3817 
L 653 426 
C 653 184 627 153 218 153 
L 218 -13 
C 371 0 653 0 813 0 
C 979 0 1261 0 1414 -13 
L 1414 153 
C 1005 153 979 178 979 426 
L 979 4396 
z
" transform="scale(0.015625)"/>
      <path id="CMR17-6f" d="M 2758 1356 
C 2758 2176 2163 2816 1466 2816 
C 768 2816 173 2176 173 1356 
C 173 551 768 -64 1466 -64 
C 2163 -64 2758 551 2758 1356 
z
M 1466 51 
C 1165 51 909 230 762 480 
C 602 767 582 1126 582 1408 
C 582 1677 595 2010 762 2298 
C 890 2509 1139 2714 1466 2714 
C 1754 2714 1997 2554 2150 2330 
C 2349 2029 2349 1607 2349 1408 
C 2349 1158 2336 775 2163 467 
C 1984 173 1709 51 1466 51 
z
" transform="scale(0.015625)"/>
      <path id="CMR17-63" d="M 2234 2240 
C 2112 2240 1933 2240 1933 2017 
C 1933 1838 2080 1787 2163 1787 
C 2208 1787 2394 1807 2394 2024 
C 2394 2467 1958 2803 1466 2803 
C 787 2803 211 2178 211 1363 
C 211 516 813 -64 1466 -64 
C 2259 -64 2458 677 2458 748 
C 2458 774 2451 793 2406 793 
C 2362 793 2355 787 2330 703 
C 2163 180 1798 51 1523 51 
C 1114 51 621 427 621 1369 
C 621 2338 1094 2688 1472 2688 
C 1722 2688 2093 2573 2234 2240 
z
" transform="scale(0.015625)"/>
      <path id="CMR17-69" d="M 992 3909 
C 992 4049 877 4170 730 4170 
C 589 4170 467 4056 467 3909 
C 467 3769 582 3648 730 3648 
C 870 3648 992 3763 992 3909 
z
M 243 2706 
L 243 2541 
C 602 2541 653 2502 653 2197 
L 653 427 
C 653 184 627 153 218 153 
L 218 -13 
C 371 0 646 0 806 0 
C 960 0 1222 0 1370 -13 
L 1370 153 
C 992 153 979 191 979 420 
L 979 2776 
L 243 2706 
z
" transform="scale(0.015625)"/>
      <path id="CMR17-74" d="M 966 2560 
L 1862 2560 
L 1862 2725 
L 966 2725 
L 966 3904 
L 851 3904 
C 838 3245 614 2668 70 2668 
L 70 2560 
L 627 2560 
L 627 771 
C 627 650 627 -64 1370 -64 
C 1747 -64 1965 306 1965 777 
L 1965 1140 
L 1850 1140 
L 1850 783 
C 1850 344 1677 51 1408 51 
C 1222 51 966 178 966 758 
L 966 2560 
z
" transform="scale(0.015625)"/>
      <path id="CMR17-79" d="M 2496 2197 
C 2656 2586 2944 2586 3034 2586 
L 3034 2752 
C 2912 2752 2752 2752 2630 2752 
C 2496 2752 2285 2752 2157 2758 
L 2157 2592 
C 2400 2573 2406 2394 2406 2343 
C 2406 2280 2394 2248 2362 2171 
L 1664 449 
L 902 2306 
C 870 2382 870 2426 870 2433 
C 870 2573 1018 2586 1171 2586 
L 1171 2758 
C 1018 2752 742 2752 582 2752 
C 410 2752 205 2752 64 2758 
L 64 2586 
C 410 2586 448 2554 531 2350 
L 1485 15 
C 1197 -738 1030 -1178 627 -1178 
C 557 -1178 397 -1159 282 -1044 
C 429 -1031 493 -942 493 -833 
C 493 -725 416 -629 288 -629 
C 147 -629 77 -725 77 -840 
C 77 -1095 339 -1280 627 -1280 
C 998 -1280 1229 -922 1357 -604 
L 2496 2197 
z
" transform="scale(0.015625)"/>
      <path id="CMR17-70" d="M 1408 -1063 
C 998 -1063 973 -1037 973 -789 
L 973 402 
C 1158 134 1427 -38 1766 -38 
C 2406 -38 3053 523 3053 1388 
C 3053 2191 2496 2802 1837 2802 
C 1453 2802 1139 2592 960 2338 
L 960 2802 
L 198 2732 
L 198 2567 
C 576 2567 634 2528 634 2223 
L 634 -789 
C 634 -1031 608 -1063 198 -1063 
L 198 -1228 
C 352 -1216 634 -1216 800 -1216 
C 966 -1216 1254 -1216 1408 -1228 
L 1408 -1063 
z
M 973 2012 
C 973 2102 973 2235 1222 2471 
C 1254 2497 1472 2688 1792 2688 
C 2259 2688 2643 2108 2643 1382 
C 2643 656 2234 64 1728 64 
C 1498 64 1248 172 1056 472 
C 973 612 973 650 973 752 
L 973 2012 
z
" transform="scale(0.015625)"/>
      <path id="CMR17-72" d="M 960 1497 
C 960 2112 1222 2688 1702 2688 
C 1747 2688 1792 2682 1837 2662 
C 1837 2662 1696 2617 1696 2452 
C 1696 2298 1818 2234 1914 2234 
C 1990 2234 2131 2279 2131 2458 
C 2131 2663 1926 2790 1709 2790 
C 1222 2790 1011 2317 947 2093 
L 941 2093 
L 941 2790 
L 198 2720 
L 198 2554 
C 576 2554 634 2515 634 2208 
L 634 428 
C 634 184 608 153 198 153 
L 198 -13 
C 352 0 646 0 813 0 
C 998 0 1325 0 1498 -13 
L 1498 153 
C 1037 153 960 153 960 440 
L 960 1497 
z
" transform="scale(0.015625)"/>
      <path id="CMR17-c" d="M 2554 2764 
C 2400 2764 1926 2764 1805 2739 
C 1766 2725 1754 2725 1677 2725 
L 947 2725 
L 947 3469 
C 947 4073 1434 4352 1818 4352 
C 1939 4352 2214 4320 2355 4101 
C 2291 4101 2086 4101 2086 3878 
C 2086 3725 2189 3648 2317 3648 
C 2432 3648 2547 3712 2547 3885 
C 2547 4205 2240 4454 1843 4454 
C 1338 4454 634 4168 634 3469 
L 634 2725 
L 122 2725 
L 122 2560 
L 634 2560 
L 634 427 
C 634 184 608 153 198 153 
L 198 -13 
C 352 0 634 0 794 0 
C 960 0 1242 0 1395 -13 
L 1395 153 
C 986 153 960 178 960 427 
L 960 2560 
L 1901 2560 
C 2176 2560 2227 2502 2227 2222 
L 2227 427 
C 2227 184 2202 153 1792 153 
L 1792 -13 
C 1946 0 2227 0 2387 0 
C 2554 0 2835 0 2989 -13 
L 2989 153 
C 2579 153 2554 178 2554 427 
L 2554 2764 
z
" transform="scale(0.015625)"/>
     </defs>
     <use xlink:href="#CMR17-56" transform="scale(0.996264)"/>
     <use xlink:href="#CMR17-65" transform="translate(61.265174 0) scale(0.996264)"/>
     <use xlink:href="#CMR17-6c" transform="translate(101.750835 0) scale(0.996264)"/>
     <use xlink:href="#CMR17-6f" transform="translate(126.621893 0) scale(0.996264)"/>
     <use xlink:href="#CMR17-63" transform="translate(174.914809 0) scale(0.996264)"/>
     <use xlink:href="#CMR17-69" transform="translate(215.40047 0) scale(0.996264)"/>
     <use xlink:href="#CMR17-74" transform="translate(240.271528 0) scale(0.996264)"/>
     <use xlink:href="#CMR17-79" transform="translate(272.949842 0) scale(0.996264)"/>
     <use xlink:href="#CMR17-70" transform="translate(351.318724 0) scale(0.996264)"/>
     <use xlink:href="#CMR17-72" transform="translate(402.214094 0) scale(0.996264)"/>
     <use xlink:href="#CMR17-6f" transform="translate(437.494862 0) scale(0.996264)"/>
     <use xlink:href="#CMR17-c" transform="translate(483.185339 0) scale(0.996264)"/>
     <use xlink:href="#CMR17-6c" transform="translate(532.927562 0) scale(0.996264)"/>
     <use xlink:href="#CMR17-65" transform="translate(557.798621 0) scale(0.996264)"/>
    </g>
   </g>
   <g id="legend_1">
    <g id="patch_7">
     <path d="M 172.598988 296.967633 
L 260.788124 296.967633 
Q 263.188124 296.967633 263.188124 294.567633 
L 263.188124 195.420058 
Q 263.188124 193.020058 260.788124 193.020058 
L 172.598988 193.020058 
Q 170.198988 193.020058 170.198988 195.420058 
L 170.198988 294.567633 
Q 170.198988 296.967633 172.598988 296.967633 
z
" style="fill: #ffffff; opacity: 0.8; stroke: #cccccc; stroke-linejoin: miter"/>
    </g>
    <g id="line2d_44">
     <path d="M 174.998988 202.020058 
L 186.998988 202.020058 
L 198.998988 202.020058 
" style="fill: none; stroke: #5e4fa2; stroke-width: 1.5; stroke-linecap: square"/>
    </g>
    <g id="text_14">
     <!-- $Bn=0$ -->
     <g transform="translate(208.598988 206.220058) scale(0.12 -0.12)">
      <defs>
       <path id="CMMI12-42" d="M 2342 3921 
C 2400 4160 2426 4160 2675 4160 
L 3507 4160 
C 4230 4160 4230 3544 4230 3485 
C 4230 2966 3712 2304 2867 2304 
L 1946 2304 
L 2342 3921 
z
M 3424 2275 
C 4122 2402 4755 2886 4755 3473 
C 4755 3970 4314 4352 3590 4352 
L 1536 4352 
C 1414 4352 1357 4352 1357 4226 
C 1357 4160 1414 4160 1510 4160 
C 1901 4160 1901 4112 1901 4044 
C 1901 4032 1901 3993 1875 3897 
L 1011 472 
C 954 249 941 185 493 185 
C 371 185 307 185 307 70 
C 307 0 346 0 474 0 
L 2669 0 
C 3648 0 4403 739 4403 1383 
C 4403 1906 3942 2224 3424 2275 
z
M 2515 185 
L 1651 185 
C 1562 185 1549 185 1510 192 
C 1440 198 1434 211 1434 261 
C 1434 305 1446 343 1459 399 
L 1907 2176 
L 3110 2176 
C 3866 2176 3866 1483 3866 1433 
C 3866 828 3309 185 2515 185 
z
" transform="scale(0.015625)"/>
       <path id="CMMI12-6e" d="M 1318 1871 
C 1331 1910 1491 2229 1728 2433 
C 1894 2586 2112 2689 2362 2689 
C 2618 2689 2707 2497 2707 2242 
C 2707 1878 2445 1150 2317 805 
C 2259 651 2227 568 2227 453 
C 2227 166 2426 -64 2733 -64 
C 3328 -64 3552 875 3552 913 
C 3552 945 3526 971 3488 971 
C 3430 971 3424 952 3392 843 
C 3245 319 3002 64 2752 64 
C 2688 64 2586 64 2586 269 
C 2586 429 2656 621 2694 710 
C 2822 1063 3091 1780 3091 2145 
C 3091 2528 2867 2816 2381 2816 
C 1811 2816 1510 2415 1395 2255 
C 1376 2618 1114 2816 832 2816 
C 627 2816 486 2695 378 2478 
C 262 2248 173 1865 173 1839 
C 173 1814 198 1782 243 1782 
C 294 1782 301 1788 339 1935 
C 442 2325 557 2689 813 2689 
C 960 2689 1011 2586 1011 2395 
C 1011 2254 947 2005 902 1807 
L 723 1118 
C 698 996 627 709 595 594 
C 550 428 480 128 480 96 
C 480 6 550 -64 646 -64 
C 723 -64 813 -26 864 70 
C 877 102 934 326 966 453 
L 1107 1028 
L 1318 1871 
z
" transform="scale(0.015625)"/>
       <path id="CMR17-3d" d="M 4115 2017 
C 4211 2017 4307 2017 4307 2125 
C 4307 2240 4198 2240 4090 2240 
L 512 2240 
C 403 2240 294 2240 294 2125 
C 294 2017 390 2017 486 2017 
L 4115 2017 
z
M 4090 896 
C 4198 896 4307 896 4307 1011 
C 4307 1119 4211 1119 4115 1119 
L 486 1119 
C 390 1119 294 1119 294 1011 
C 294 896 403 896 512 896 
L 4090 896 
z
" transform="scale(0.015625)"/>
      </defs>
      <use xlink:href="#CMMI12-42" transform="scale(0.996264)"/>
      <use xlink:href="#CMMI12-6e" transform="translate(79.135523 0) scale(0.996264)"/>
      <use xlink:href="#CMR17-3d" transform="translate(165.039579 0) scale(0.996264)"/>
      <use xlink:href="#CMR17-30" transform="translate(264.428376 0) scale(0.996264)"/>
     </g>
    </g>
    <g id="line2d_45">
     <path d="M 174.998988 218.744654 
L 186.998988 218.744654 
L 198.998988 218.744654 
" style="fill: none; stroke: #66c2a5; stroke-width: 1.5; stroke-linecap: square"/>
    </g>
    <g id="text_15">
     <!-- $Bn=1$ -->
     <g transform="translate(208.598988 222.944654) scale(0.12 -0.12)">
      <use xlink:href="#CMMI12-42" transform="scale(0.996264)"/>
      <use xlink:href="#CMMI12-6e" transform="translate(79.135523 0) scale(0.996264)"/>
      <use xlink:href="#CMR17-3d" transform="translate(165.039579 0) scale(0.996264)"/>
      <use xlink:href="#CMR17-31" transform="translate(264.428376 0) scale(0.996264)"/>
     </g>
    </g>
    <g id="line2d_46">
     <path d="M 174.998988 235.46925 
L 186.998988 235.46925 
L 198.998988 235.46925 
" style="fill: none; stroke: #e6f598; stroke-width: 1.5; stroke-linecap: square"/>
    </g>
    <g id="text_16">
     <!-- $Bn=5$ -->
     <g transform="translate(208.598988 239.66925) scale(0.12 -0.12)">
      <defs>
       <path id="CMR17-35" d="M 730 3692 
C 794 3666 1056 3584 1325 3584 
C 1920 3584 2246 3911 2432 4100 
C 2432 4157 2432 4192 2394 4192 
C 2387 4192 2374 4192 2323 4163 
C 2099 4058 1837 3973 1517 3973 
C 1325 3973 1037 3999 723 4139 
C 653 4171 640 4171 634 4171 
C 602 4171 595 4164 595 4037 
L 595 2203 
C 595 2089 595 2057 659 2057 
C 691 2057 704 2070 736 2114 
C 941 2401 1222 2522 1542 2522 
C 1766 2522 2246 2382 2246 1289 
C 2246 1085 2246 715 2054 421 
C 1894 159 1645 25 1370 25 
C 947 25 518 320 403 814 
C 429 807 480 795 506 795 
C 589 795 749 840 749 1038 
C 749 1210 627 1280 506 1280 
C 358 1280 262 1190 262 1011 
C 262 454 704 -128 1382 -128 
C 2042 -128 2669 440 2669 1264 
C 2669 2030 2170 2624 1549 2624 
C 1222 2624 947 2503 730 2274 
L 730 3692 
z
" transform="scale(0.015625)"/>
      </defs>
      <use xlink:href="#CMMI12-42" transform="scale(0.996264)"/>
      <use xlink:href="#CMMI12-6e" transform="translate(79.135523 0) scale(0.996264)"/>
      <use xlink:href="#CMR17-3d" transform="translate(165.039579 0) scale(0.996264)"/>
      <use xlink:href="#CMR17-35" transform="translate(264.428376 0) scale(0.996264)"/>
     </g>
    </g>
    <g id="line2d_47">
     <path d="M 174.998988 252.193845 
L 186.998988 252.193845 
L 198.998988 252.193845 
" style="fill: none; stroke: #fee08b; stroke-width: 1.5; stroke-linecap: square"/>
    </g>
    <g id="text_17">
     <!-- $Bn=20$ -->
     <g transform="translate(208.598988 256.393845) scale(0.12 -0.12)">
      <use xlink:href="#CMMI12-42" transform="scale(0.996264)"/>
      <use xlink:href="#CMMI12-6e" transform="translate(79.135523 0) scale(0.996264)"/>
      <use xlink:href="#CMR17-3d" transform="translate(165.039579 0) scale(0.996264)"/>
      <use xlink:href="#CMR17-32" transform="translate(264.428376 0) scale(0.996264)"/>
      <use xlink:href="#CMR17-30" transform="translate(310.118854 0) scale(0.996264)"/>
     </g>
    </g>
    <g id="line2d_48">
     <path d="M 174.998988 268.918441 
L 186.998988 268.918441 
L 198.998988 268.918441 
" style="fill: none; stroke: #f46d43; stroke-width: 1.5; stroke-linecap: square"/>
    </g>
    <g id="text_18">
     <!-- $Bn=100$ -->
     <g transform="translate(208.598988 273.118441) scale(0.12 -0.12)">
      <use xlink:href="#CMMI12-42" transform="scale(0.996264)"/>
      <use xlink:href="#CMMI12-6e" transform="translate(79.135523 0) scale(0.996264)"/>
      <use xlink:href="#CMR17-3d" transform="translate(165.039579 0) scale(0.996264)"/>
      <use xlink:href="#CMR17-31" transform="translate(264.428376 0) scale(0.996264)"/>
      <use xlink:href="#CMR17-30" transform="translate(310.118854 0) scale(0.996264)"/>
      <use xlink:href="#CMR17-30" transform="translate(355.809331 0) scale(0.996264)"/>
     </g>
    </g>
    <g id="line2d_49">
     <path d="M 174.998988 285.643037 
L 186.998988 285.643037 
L 198.998988 285.643037 
" style="fill: none; stroke: #9e0142; stroke-width: 1.5; stroke-linecap: square"/>
    </g>
    <g id="text_19">
     <!-- $Bn=500$ -->
     <g transform="translate(208.598988 289.843037) scale(0.12 -0.12)">
      <use xlink:href="#CMMI12-42" transform="scale(0.996264)"/>
      <use xlink:href="#CMMI12-6e" transform="translate(79.135523 0) scale(0.996264)"/>
      <use xlink:href="#CMR17-3d" transform="translate(165.039579 0) scale(0.996264)"/>
      <use xlink:href="#CMR17-35" transform="translate(264.428376 0) scale(0.996264)"/>
      <use xlink:href="#CMR17-30" transform="translate(310.118854 0) scale(0.996264)"/>
      <use xlink:href="#CMR17-30" transform="translate(355.809331 0) scale(0.996264)"/>
     </g>
    </g>
   </g>
  </g>
  <g id="axes_2">
   <g id="patch_8">
    <path d="M 275.188604 302.967633 
L 500.99976 302.967633 
L 500.99976 20.069828 
L 275.188604 20.069828 
L 275.188604 302.967633 
z
" style="fill: none"/>
   </g>
   <g id="line2d_50">
    <path d="M 309.060277 302.967633 
L 309.050636 167.312431 
L 308.87497 166.495553 
L 308.13313 164.868613 
L 307.477366 164.058552 
L 306.628167 163.250762 
L 305.197643 162.445245 
L 300.677535 160.841028 
L 291.980975 158.451744 
L 289.544531 157.659861 
L 288.279957 156.87025 
L 288.38472 156.082911 
L 289.115338 155.297844 
L 290.980481 154.51505 
L 296.93402 152.956278 
L 303.070656 151.406595 
L 305.331269 150.635162 
L 307.103368 149.866001 
L 308.338886 149.099112 
L 309.05613 148.334496 
L 309.931357 146.81208 
L 310.184082 146.054281 
L 310.295508 144.545498 
L 310.29569 28.472655 
L 308.150156 28.278376 
L 311.883493 28.08637 
L 342.967493 27.709174 
L 430.800708 27.160423 
L 505 26.725208 
L 505 26.725208 
" clip-path="url(#pe8c4f98d23)" style="fill: none; stroke: #9e0142; stroke-width: 1.5; stroke-linecap: square"/>
   </g>
   <g id="line2d_51">
    <path d="M 309.060277 302.967633 
L 308.997371 172.261419 
L 308.673431 171.430907 
L 307.685255 169.7767 
L 306.937876 168.953005 
L 303.453153 166.495553 
L 301.1348 164.868613 
L 299.567004 164.058552 
L 294.730176 162.445245 
L 288.10607 159.2459 
L 286.827081 158.451744 
L 286.107033 157.659861 
L 283.53259 153.734528 
L 283.853214 152.956278 
L 288.707393 149.099112 
L 289.971219 148.334496 
L 296.079748 146.054281 
L 305.650943 142.299367 
L 309.083527 140.073686 
L 311.23714 138.60126 
L 312.094826 137.868455 
L 312.339445 137.137923 
L 312.260889 135.683675 
L 312.349007 37.538982 
L 316.712173 37.258357 
L 340.308291 36.703925 
L 505 33.092044 
L 505 33.092044 
" clip-path="url(#pe8c4f98d23)" style="fill: none; stroke: #f46d43; stroke-width: 1.5; stroke-linecap: square"/>
   </g>
   <g id="line2d_52">
    <path d="M 309.060277 302.967633 
L 309.047501 196.438291 
L 308.835125 195.544156 
L 307.936982 193.762702 
L 306.143378 191.990337 
L 301.567964 187.59919 
L 299.425295 185.858637 
L 294.758233 181.547019 
L 292.651055 178.987316 
L 289.981059 175.606189 
L 289.019712 173.92926 
L 286.946011 169.7767 
L 286.664218 168.953005 
L 285.85356 164.058552 
L 285.869679 163.250762 
L 286.752711 158.451744 
L 287.541806 156.87025 
L 289.236757 153.734528 
L 289.78433 152.956278 
L 292.700679 149.866001 
L 294.195138 148.334496 
L 296.161631 146.81208 
L 301.55328 143.045805 
L 306.914322 140.073686 
L 314.691407 135.683675 
L 315.716164 134.959959 
L 316.057689 134.238516 
L 315.997648 132.802446 
L 315.997961 55.262628 
L 316.696252 54.863846 
L 319.676118 54.467336 
L 413.817511 46.319003 
L 467.539333 41.393875 
L 505 37.777046 
L 505 37.777046 
" clip-path="url(#pe8c4f98d23)" style="fill: none; stroke: #fee08b; stroke-width: 1.5; stroke-linecap: square"/>
   </g>
   <g id="line2d_53">
    <path d="M 309.060272 302.967633 
L 309.04259 237.035667 
L 308.031299 234.066956 
L 306.998761 231.118696 
L 306.467818 230.140487 
L 305.263585 228.190886 
L 301.928101 221.438858 
L 298.900569 214.798171 
L 296.615719 209.194772 
L 294.628213 203.673174 
L 292.977735 198.233378 
L 291.673478 192.875383 
L 290.664878 186.727777 
L 290.204473 180.691512 
L 290.361034 174.766588 
L 291.158589 168.953005 
L 292.407495 164.058552 
L 293.276396 161.642001 
L 294.909237 157.659861 
L 297.404493 152.956278 
L 300.531213 148.334496 
L 302.376642 146.054281 
L 305.615176 142.299367 
L 311.034416 137.137923 
L 318.16975 131.375466 
L 320.764385 129.252036 
L 321.078545 128.548771 
L 321.02479 126.452609 
L 321.025081 77.076347 
L 320.881634 76.568497 
L 321.376123 76.062918 
L 325.045621 75.058578 
L 335.61065 72.587493 
L 388.280162 60.225249 
L 416.860177 53.291441 
L 437.449304 48.074326 
L 455.314707 43.302575 
L 469.521775 39.270446 
L 482.392114 35.35761 
L 492.279806 32.123044 
L 501.989387 28.669205 
L 505 27.529881 
L 505 27.529881 
" clip-path="url(#pe8c4f98d23)" style="fill: none; stroke: #e6f598; stroke-width: 1.5; stroke-linecap: square"/>
   </g>
   <g id="line2d_54">
    <path d="M 308.423094 302.967633 
L 308.199685 300.704459 
L 307.372963 295.08629 
L 306.781793 291.742656 
L 301.715592 260.47519 
L 299.50842 245.052209 
L 298.259358 235.054254 
L 297.157807 224.31895 
L 296.508782 215.740024 
L 296.118258 207.34515 
L 296.018545 200.943051 
L 296.092926 195.544156 
L 296.327603 190.227062 
L 296.73208 184.991769 
L 297.314805 179.838278 
L 298.411517 173.094203 
L 299.463894 168.131582 
L 301.250744 161.642001 
L 302.858324 156.87025 
L 304.70011 152.1803 
L 307.206834 146.81208 
L 310.058691 141.555201 
L 313.301987 136.409663 
L 316.898878 131.375466 
L 320.9 126.452609 
L 325.875739 120.962823 
L 327.731152 118.941646 
L 328.010116 118.272464 
L 328.0334 114.960642 
L 328.035689 98.654887 
L 328.340925 98.058418 
L 329.159479 97.464222 
L 340.45923 91.078028 
L 354.92612 83.347791 
L 374.071854 73.56911 
L 410.44848 55.262628 
L 420.602159 49.886455 
L 430.0047 44.620487 
L 437.393247 40.166853 
L 442.302444 36.980005 
L 446.819992 33.817016 
L 451.083181 30.540413 
L 454.989057 27.160423 
L 458.376381 23.761119 
L 460.834973 20.77991 
L 461.378488 20.069828 
L 461.378488 20.069828 
" clip-path="url(#pe8c4f98d23)" style="fill: none; stroke: #66c2a5; stroke-width: 1.5; stroke-linecap: square"/>
   </g>
   <g id="line2d_55">
    <path d="M 293.374562 302.967633 
L 293.508366 301.83491 
L 295.296617 293.969473 
L 296.493202 287.316289 
L 297.560967 279.657629 
L 298.354306 272.110309 
L 298.777668 266.787535 
L 299.385724 256.312405 
L 299.843184 241.02576 
L 300.583408 205.504618 
L 301.048594 196.438291 
L 301.656905 188.472875 
L 302.29055 182.404798 
L 302.98146 177.292208 
L 303.796508 172.261419 
L 304.932122 166.495553 
L 306.073296 161.642001 
L 307.630905 156.082911 
L 309.151529 151.406595 
L 311.181447 146.054281 
L 313.111657 141.555201 
L 316.039702 135.683675 
L 318.439313 131.375466 
L 322.007258 125.758433 
L 325.387264 120.962823 
L 329.609658 115.618462 
L 333.550707 111.06144 
L 338.343198 105.98975 
L 342.752048 101.671315 
L 347.331348 97.464222 
L 353.415733 92.218704 
L 357.591511 88.823944 
L 363.203418 84.424844 
L 370.301905 79.130472 
L 379.42094 72.587493 
L 394.055279 62.389579 
L 407.498297 52.90402 
L 414.02457 48.074326 
L 420.507506 42.978778 
L 425.880573 38.394488 
L 429.152539 35.35761 
L 432.357909 32.123044 
L 435.420296 28.669205 
L 438.005833 25.323299 
L 440.29166 21.797884 
L 441.246387 20.069828 
L 441.246387 20.069828 
" clip-path="url(#pe8c4f98d23)" style="fill: none; stroke: #5e4fa2; stroke-width: 1.5; stroke-linecap: square"/>
   </g>
   <g id="matplotlib.axis_3">
    <g id="xtick_5">
     <g id="line2d_56">
      <path d="M 309.060277 302.967633 
L 309.060277 20.069828 
" clip-path="url(#pe8c4f98d23)" style="fill: none; stroke-dasharray: 0.8,1.32; stroke-dashoffset: 0; stroke: #b0b0b0; stroke-width: 0.8"/>
     </g>
     <g id="line2d_57">
      <g>
       <use xlink:href="#m31edc084b7" x="309.060277" y="302.967633" style="stroke: #000000; stroke-width: 0.8"/>
      </g>
     </g>
     <g id="line2d_58">
      <g>
       <use xlink:href="#m1963c8f6eb" x="309.060277" y="20.069828" style="stroke: #000000; stroke-width: 0.8"/>
      </g>
     </g>
     <g id="text_20">
      <!-- $\mathdefault{0}$ -->
      <g transform="translate(306.56961 313.386131) scale(0.1 -0.1)">
       <use xlink:href="#CMR17-30" transform="scale(0.996264)"/>
      </g>
     </g>
    </g>
    <g id="xtick_6">
     <g id="line2d_59">
      <path d="M 354.222508 302.967633 
L 354.222508 20.069828 
" clip-path="url(#pe8c4f98d23)" style="fill: none; stroke-dasharray: 0.8,1.32; stroke-dashoffset: 0; stroke: #b0b0b0; stroke-width: 0.8"/>
     </g>
     <g id="line2d_60">
      <g>
       <use xlink:href="#m31edc084b7" x="354.222508" y="302.967633" style="stroke: #000000; stroke-width: 0.8"/>
      </g>
     </g>
     <g id="line2d_61">
      <g>
       <use xlink:href="#m1963c8f6eb" x="354.222508" y="20.069828" style="stroke: #000000; stroke-width: 0.8"/>
      </g>
     </g>
     <g id="text_21">
      <!-- $\mathdefault{2}$ -->
      <g transform="translate(351.731841 313.386131) scale(0.1 -0.1)">
       <use xlink:href="#CMR17-32" transform="scale(0.996264)"/>
      </g>
     </g>
    </g>
    <g id="xtick_7">
     <g id="line2d_62">
      <path d="M 399.38474 302.967633 
L 399.38474 20.069828 
" clip-path="url(#pe8c4f98d23)" style="fill: none; stroke-dasharray: 0.8,1.32; stroke-dashoffset: 0; stroke: #b0b0b0; stroke-width: 0.8"/>
     </g>
     <g id="line2d_63">
      <g>
       <use xlink:href="#m31edc084b7" x="399.38474" y="302.967633" style="stroke: #000000; stroke-width: 0.8"/>
      </g>
     </g>
     <g id="line2d_64">
      <g>
       <use xlink:href="#m1963c8f6eb" x="399.38474" y="20.069828" style="stroke: #000000; stroke-width: 0.8"/>
      </g>
     </g>
     <g id="text_22">
      <!-- $\mathdefault{4}$ -->
      <g transform="translate(396.894072 313.386131) scale(0.1 -0.1)">
       <use xlink:href="#CMR17-34" transform="scale(0.996264)"/>
      </g>
     </g>
    </g>
    <g id="xtick_8">
     <g id="line2d_65">
      <path d="M 444.546971 302.967633 
L 444.546971 20.069828 
" clip-path="url(#pe8c4f98d23)" style="fill: none; stroke-dasharray: 0.8,1.32; stroke-dashoffset: 0; stroke: #b0b0b0; stroke-width: 0.8"/>
     </g>
     <g id="line2d_66">
      <g>
       <use xlink:href="#m31edc084b7" x="444.546971" y="302.967633" style="stroke: #000000; stroke-width: 0.8"/>
      </g>
     </g>
     <g id="line2d_67">
      <g>
       <use xlink:href="#m1963c8f6eb" x="444.546971" y="20.069828" style="stroke: #000000; stroke-width: 0.8"/>
      </g>
     </g>
     <g id="text_23">
      <!-- $\mathdefault{6}$ -->
      <g transform="translate(442.056303 313.386131) scale(0.1 -0.1)">
       <use xlink:href="#CMR17-36" transform="scale(0.996264)"/>
      </g>
     </g>
    </g>
    <g id="xtick_9">
     <g id="line2d_68">
      <path d="M 489.709202 302.967633 
L 489.709202 20.069828 
" clip-path="url(#pe8c4f98d23)" style="fill: none; stroke-dasharray: 0.8,1.32; stroke-dashoffset: 0; stroke: #b0b0b0; stroke-width: 0.8"/>
     </g>
     <g id="line2d_69">
      <g>
       <use xlink:href="#m31edc084b7" x="489.709202" y="302.967633" style="stroke: #000000; stroke-width: 0.8"/>
      </g>
     </g>
     <g id="line2d_70">
      <g>
       <use xlink:href="#m1963c8f6eb" x="489.709202" y="20.069828" style="stroke: #000000; stroke-width: 0.8"/>
      </g>
     </g>
     <g id="text_24">
      <!-- $\mathdefault{8}$ -->
      <g transform="translate(487.218535 313.386131) scale(0.1 -0.1)">
       <use xlink:href="#CMR17-38" transform="scale(0.996264)"/>
      </g>
     </g>
    </g>
    <g id="text_25">
     <!-- $\partial_y u$ -->
     <g transform="translate(377.707876 329.009186) scale(0.14 -0.14)">
      <defs>
       <path id="CMMI12-40" d="M 2906 2145 
C 2867 2504 2643 2935 2067 2935 
C 1165 2935 243 2017 243 996 
C 243 604 512 -134 1382 -134 
C 2893 -134 3539 2067 3539 2944 
C 3539 3866 3021 4576 2202 4576 
C 1274 4576 998 3763 998 3590 
C 998 3533 1037 3392 1216 3392 
C 1440 3392 1536 3597 1536 3706 
C 1536 3904 1338 3904 1254 3904 
C 1517 4378 2003 4422 2176 4422 
C 2739 4422 3098 3975 3098 3262 
C 3098 2853 2976 2380 2912 2145 
L 2906 2145 
z
M 1402 38 
C 800 38 698 514 698 784 
C 698 1066 877 1728 973 1965 
C 1056 2158 1421 2807 2086 2807 
C 2669 2807 2803 2299 2803 1953 
C 2803 1477 2387 38 1402 38 
z
" transform="scale(0.015625)"/>
      </defs>
      <use xlink:href="#CMMI12-40" transform="scale(0.996264)"/>
      <use xlink:href="#CMMI12-79" transform="translate(51.496129 -14.943915) scale(0.697382)"/>
      <use xlink:href="#CMMI12-75" transform="translate(87.791236 0) scale(0.996264)"/>
     </g>
    </g>
   </g>
   <g id="matplotlib.axis_4">
    <g id="ytick_7">
     <g id="line2d_71">
      <path d="M 275.188604 302.967633 
L 500.99976 302.967633 
" clip-path="url(#pe8c4f98d23)" style="fill: none; stroke-dasharray: 0.8,1.32; stroke-dashoffset: 0; stroke: #b0b0b0; stroke-width: 0.8"/>
     </g>
     <g id="line2d_72">
      <g>
       <use xlink:href="#m06f2369f15" x="275.188604" y="302.967633" style="stroke: #000000; stroke-width: 0.8"/>
      </g>
     </g>
     <g id="line2d_73">
      <g>
       <use xlink:href="#ma3daab7660" x="500.99976" y="302.967633" style="stroke: #000000; stroke-width: 0.8"/>
      </g>
     </g>
    </g>
    <g id="ytick_8">
     <g id="line2d_74">
      <path d="M 275.188604 246.388072 
L 500.99976 246.388072 
" clip-path="url(#pe8c4f98d23)" style="fill: none; stroke-dasharray: 0.8,1.32; stroke-dashoffset: 0; stroke: #b0b0b0; stroke-width: 0.8"/>
     </g>
     <g id="line2d_75">
      <g>
       <use xlink:href="#m06f2369f15" x="275.188604" y="246.388072" style="stroke: #000000; stroke-width: 0.8"/>
      </g>
     </g>
     <g id="line2d_76">
      <g>
       <use xlink:href="#ma3daab7660" x="500.99976" y="246.388072" style="stroke: #000000; stroke-width: 0.8"/>
      </g>
     </g>
    </g>
    <g id="ytick_9">
     <g id="line2d_77">
      <path d="M 275.188604 189.808511 
L 500.99976 189.808511 
" clip-path="url(#pe8c4f98d23)" style="fill: none; stroke-dasharray: 0.8,1.32; stroke-dashoffset: 0; stroke: #b0b0b0; stroke-width: 0.8"/>
     </g>
     <g id="line2d_78">
      <g>
       <use xlink:href="#m06f2369f15" x="275.188604" y="189.808511" style="stroke: #000000; stroke-width: 0.8"/>
      </g>
     </g>
     <g id="line2d_79">
      <g>
       <use xlink:href="#ma3daab7660" x="500.99976" y="189.808511" style="stroke: #000000; stroke-width: 0.8"/>
      </g>
     </g>
    </g>
    <g id="ytick_10">
     <g id="line2d_80">
      <path d="M 275.188604 133.22895 
L 500.99976 133.22895 
" clip-path="url(#pe8c4f98d23)" style="fill: none; stroke-dasharray: 0.8,1.32; stroke-dashoffset: 0; stroke: #b0b0b0; stroke-width: 0.8"/>
     </g>
     <g id="line2d_81">
      <g>
       <use xlink:href="#m06f2369f15" x="275.188604" y="133.22895" style="stroke: #000000; stroke-width: 0.8"/>
      </g>
     </g>
     <g id="line2d_82">
      <g>
       <use xlink:href="#ma3daab7660" x="500.99976" y="133.22895" style="stroke: #000000; stroke-width: 0.8"/>
      </g>
     </g>
    </g>
    <g id="ytick_11">
     <g id="line2d_83">
      <path d="M 275.188604 76.649389 
L 500.99976 76.649389 
" clip-path="url(#pe8c4f98d23)" style="fill: none; stroke-dasharray: 0.8,1.32; stroke-dashoffset: 0; stroke: #b0b0b0; stroke-width: 0.8"/>
     </g>
     <g id="line2d_84">
      <g>
       <use xlink:href="#m06f2369f15" x="275.188604" y="76.649389" style="stroke: #000000; stroke-width: 0.8"/>
      </g>
     </g>
     <g id="line2d_85">
      <g>
       <use xlink:href="#ma3daab7660" x="500.99976" y="76.649389" style="stroke: #000000; stroke-width: 0.8"/>
      </g>
     </g>
    </g>
    <g id="ytick_12">
     <g id="line2d_86">
      <path d="M 275.188604 20.069828 
L 500.99976 20.069828 
" clip-path="url(#pe8c4f98d23)" style="fill: none; stroke-dasharray: 0.8,1.32; stroke-dashoffset: 0; stroke: #b0b0b0; stroke-width: 0.8"/>
     </g>
     <g id="line2d_87">
      <g>
       <use xlink:href="#m06f2369f15" x="275.188604" y="20.069828" style="stroke: #000000; stroke-width: 0.8"/>
      </g>
     </g>
     <g id="line2d_88">
      <g>
       <use xlink:href="#ma3daab7660" x="500.99976" y="20.069828" style="stroke: #000000; stroke-width: 0.8"/>
      </g>
     </g>
    </g>
   </g>
   <g id="line2d_89">
    <path d="M 309.060277 302.967633 
L 309.060277 20.069828 
" clip-path="url(#pe8c4f98d23)" style="fill: none; stroke-dasharray: 5.55,2.4; stroke-dashoffset: 0; stroke: #000000; stroke-opacity: 0.75; stroke-width: 1.5"/>
   </g>
   <g id="patch_9">
    <path d="M 275.188604 302.967633 
L 275.188604 20.069828 
" style="fill: none; stroke: #000000; stroke-width: 0.8; stroke-linejoin: miter; stroke-linecap: square"/>
   </g>
   <g id="patch_10">
    <path d="M 500.99976 302.967633 
L 500.99976 20.069828 
" style="fill: none; stroke: #000000; stroke-width: 0.8; stroke-linejoin: miter; stroke-linecap: square"/>
   </g>
   <g id="patch_11">
    <path d="M 275.188604 302.967633 
L 500.99976 302.967633 
" style="fill: none; stroke: #000000; stroke-width: 0.8; stroke-linejoin: miter; stroke-linecap: square"/>
   </g>
   <g id="patch_12">
    <path d="M 275.188604 20.069828 
L 500.99976 20.069828 
" style="fill: none; stroke: #000000; stroke-width: 0.8; stroke-linejoin: miter; stroke-linecap: square"/>
   </g>
   <g id="text_26">
    <!-- Velocity gradient profile -->
    <g transform="translate(306.155077 14.069828) scale(0.16 -0.16)">
     <defs>
      <path id="CMR17-67" d="M 710 1164 
C 832 1068 1043 960 1299 960 
C 1805 960 2240 1357 2240 1888 
C 2240 2054 2189 2310 1997 2509 
C 2176 2692 2438 2752 2586 2752 
C 2611 2752 2650 2752 2682 2734 
C 2656 2728 2598 2703 2598 2605 
C 2598 2527 2656 2471 2739 2471 
C 2835 2471 2886 2533 2886 2614 
C 2886 2731 2790 2854 2586 2854 
C 2330 2854 2106 2738 1926 2580 
C 1734 2753 1504 2816 1299 2816 
C 794 2816 358 2419 358 1888 
C 358 1522 570 1292 634 1228 
C 442 1004 442 743 442 711 
C 442 545 506 302 723 168 
C 390 85 128 -169 128 -486 
C 128 -943 736 -1280 1466 -1280 
C 2170 -1280 2803 -956 2803 -479 
C 2803 384 1856 384 1363 384 
C 1216 384 954 384 922 391 
C 723 423 589 602 589 826 
C 589 883 589 1024 710 1164 
z
M 1299 1068 
C 736 1068 736 1760 736 1889 
C 736 2016 736 2708 1299 2708 
C 1862 2708 1862 2016 1862 1889 
C 1862 1760 1862 1068 1299 1068 
z
M 1466 -1171 
C 826 -1171 384 -835 384 -486 
C 384 -289 493 -105 634 -4 
C 794 104 858 104 1293 104 
C 1818 104 2547 104 2547 -486 
C 2547 -835 2106 -1171 1466 -1171 
z
" transform="scale(0.015625)"/>
      <path id="CMR17-61" d="M 2304 1653 
C 2304 2072 2304 2294 2035 2543 
C 1798 2752 1523 2816 1306 2816 
C 800 2816 435 2407 435 1971 
C 435 1728 627 1728 666 1728 
C 749 1728 896 1778 896 1954 
C 896 2112 774 2181 666 2181 
C 640 2181 608 2174 589 2168 
C 723 2592 1069 2714 1293 2714 
C 1613 2714 1965 2429 1965 1885 
L 1965 1600 
C 1587 1600 1133 1549 774 1357 
C 371 1133 256 813 256 570 
C 256 77 832 -64 1171 -64 
C 1523 -64 1850 139 1990 511 
C 2003 233 2182 -18 2464 -18 
C 2598 -18 2938 70 2938 567 
L 2938 920 
L 2822 920 
L 2822 562 
C 2822 178 2650 128 2566 128 
C 2304 128 2304 458 2304 738 
L 2304 1653 
z
M 1965 870 
C 1965 317 1568 38 1216 38 
C 896 38 646 275 646 570 
C 646 761 730 1100 1101 1305 
C 1408 1478 1760 1504 1965 1504 
L 1965 870 
z
" transform="scale(0.015625)"/>
      <path id="CMR17-64" d="M 1869 4326 
L 1869 4160 
C 2246 4160 2304 4122 2304 3820 
L 2304 2345 
C 2278 2377 2016 2790 1498 2790 
C 845 2790 211 2208 211 1364 
C 211 525 806 -64 1434 -64 
C 1978 -64 2259 337 2291 380 
L 2291 -63 
L 3066 -63 
L 3066 128 
C 2688 128 2630 166 2630 473 
L 2630 4396 
L 1869 4326 
z
M 2291 755 
C 2291 563 2176 390 2029 262 
C 1811 70 1594 38 1472 38 
C 1286 38 621 134 621 1356 
C 621 2612 1363 2688 1530 2688 
C 1824 2688 2061 2522 2208 2291 
C 2291 2157 2291 2138 2291 2023 
L 2291 755 
z
" transform="scale(0.015625)"/>
      <path id="CMR17-6e" d="M 2656 1933 
C 2656 2259 2592 2790 1837 2790 
C 1331 2790 1069 2400 973 2144 
L 966 2144 
L 966 2790 
L 211 2720 
L 211 2554 
C 589 2554 646 2515 646 2208 
L 646 428 
C 646 184 621 153 211 153 
L 211 -13 
C 365 0 646 0 813 0 
C 979 0 1267 0 1421 -13 
L 1421 153 
C 1011 153 986 178 986 428 
L 986 1658 
C 986 2247 1344 2688 1792 2688 
C 2266 2688 2317 2266 2317 1958 
L 2317 428 
C 2317 184 2291 153 1882 153 
L 1882 -13 
C 2035 0 2317 0 2483 0 
C 2650 0 2938 0 3091 -13 
L 3091 153 
C 2682 153 2656 178 2656 428 
L 2656 1933 
z
" transform="scale(0.015625)"/>
     </defs>
     <use xlink:href="#CMR17-56" transform="scale(0.996264)"/>
     <use xlink:href="#CMR17-65" transform="translate(61.265174 0) scale(0.996264)"/>
     <use xlink:href="#CMR17-6c" transform="translate(101.750835 0) scale(0.996264)"/>
     <use xlink:href="#CMR17-6f" transform="translate(126.621893 0) scale(0.996264)"/>
     <use xlink:href="#CMR17-63" transform="translate(174.914809 0) scale(0.996264)"/>
     <use xlink:href="#CMR17-69" transform="translate(215.40047 0) scale(0.996264)"/>
     <use xlink:href="#CMR17-74" transform="translate(240.271528 0) scale(0.996264)"/>
     <use xlink:href="#CMR17-79" transform="translate(272.949842 0) scale(0.996264)"/>
     <use xlink:href="#CMR17-67" transform="translate(351.318724 0) scale(0.996264)"/>
     <use xlink:href="#CMR17-72" transform="translate(397.009201 0) scale(0.996264)"/>
     <use xlink:href="#CMR17-61" transform="translate(432.289969 0) scale(0.996264)"/>
     <use xlink:href="#CMR17-64" transform="translate(477.980446 0) scale(0.996264)"/>
     <use xlink:href="#CMR17-69" transform="translate(528.875816 0) scale(0.996264)"/>
     <use xlink:href="#CMR17-65" transform="translate(553.746875 0) scale(0.996264)"/>
     <use xlink:href="#CMR17-6e" transform="translate(594.232535 0) scale(0.996264)"/>
     <use xlink:href="#CMR17-74" transform="translate(642.525451 0) scale(0.996264)"/>
     <use xlink:href="#CMR17-70" transform="translate(707.882185 0) scale(0.996264)"/>
     <use xlink:href="#CMR17-72" transform="translate(758.777555 0) scale(0.996264)"/>
     <use xlink:href="#CMR17-6f" transform="translate(794.058323 0) scale(0.996264)"/>
     <use xlink:href="#CMR17-c" transform="translate(839.7488 0) scale(0.996264)"/>
     <use xlink:href="#CMR17-6c" transform="translate(889.491023 0) scale(0.996264)"/>
     <use xlink:href="#CMR17-65" transform="translate(914.362082 0) scale(0.996264)"/>
    </g>
   </g>
  </g>
 </g>
 <defs>
  <clipPath id="p9de70228c2">
   <rect x="43.376968" y="20.069828" width="225.811156" height="282.897804"/>
  </clipPath>
  <clipPath id="pe8c4f98d23">
   <rect x="275.188604" y="20.069828" width="225.811156" height="282.897804"/>
  </clipPath>
 </defs>
</svg>
