<?xml version="1.0" encoding="utf-8" standalone="no"?>
<!DOCTYPE svg PUBLIC "-//W3C//DTD SVG 1.1//EN"
  "http://www.w3.org/Graphics/SVG/1.1/DTD/svg11.dtd">
<svg xmlns:xlink="http://www.w3.org/1999/xlink" width="584.39952pt" height="260.39952pt" viewBox="0 0 584.39952 260.39952" xmlns="http://www.w3.org/2000/svg" version="1.1">
 <metadata>
  <rdf:RDF xmlns:dc="http://purl.org/dc/elements/1.1/" xmlns:cc="http://creativecommons.org/ns#" xmlns:rdf="http://www.w3.org/1999/02/22-rdf-syntax-ns#">
   <cc:Work>
    <dc:type rdf:resource="http://purl.org/dc/dcmitype/StillImage"/>
    <dc:date>2023-06-21T12:42:42.501177</dc:date>
    <dc:format>image/svg+xml</dc:format>
    <dc:creator>
     <cc:Agent>
      <dc:title>Matplotlib v3.7.1, https://matplotlib.org/</dc:title>
     </cc:Agent>
    </dc:creator>
   </cc:Work>
  </rdf:RDF>
 </metadata>
 <defs>
  <style type="text/css">*{stroke-linejoin: round; stroke-linecap: butt}</style>
 </defs>
 <g id="figure_1">
  <g id="patch_1">
   <path d="M 0 260.39952 
L 584.39952 260.39952 
L 584.39952 -0 
L 0 -0 
z
" style="fill: #ffffff"/>
  </g>
  <g id="axes_1">
   <g id="patch_2">
    <path d="M 51.630255 219.924759 
L 309.664647 219.924759 
L 309.664647 7.2 
L 51.630255 7.2 
z
" style="fill: #ffffff"/>
   </g>
   <g id="matplotlib.axis_1">
    <g id="xtick_1">
     <g id="line2d_1">
      <path d="M 80.114577 219.924759 
L 80.114577 7.2 
" clip-path="url(#p2480d63d8f)" style="fill: none; stroke-dasharray: 0.8,1.32; stroke-dashoffset: 0; stroke: #b0b0b0; stroke-width: 0.8"/>
     </g>
     <g id="line2d_2">
      <defs>
       <path id="mce131f881e" d="M 0 0 
L 0 3.5 
" style="stroke: #000000; stroke-width: 0.8"/>
      </defs>
      <g>
       <use xlink:href="#mce131f881e" x="80.114577" y="219.924759" style="stroke: #000000; stroke-width: 0.8"/>
      </g>
     </g>
     <g id="text_1">
      <!-- $\mathdefault{−2}$ -->
      <g transform="translate(73.749538 233.843257) scale(0.1 -0.1)">
       <defs>
        <path id="CMSY10-0" d="M 4218 1472 
C 4326 1472 4442 1472 4442 1600 
C 4442 1728 4326 1728 4218 1728 
L 755 1728 
C 646 1728 531 1728 531 1600 
C 531 1472 646 1472 755 1472 
L 4218 1472 
z
" transform="scale(0.015625)"/>
        <path id="CMR17-32" d="M 2669 989 
L 2554 989 
C 2490 536 2438 459 2413 420 
C 2381 369 1920 369 1830 369 
L 602 369 
C 832 619 1280 1072 1824 1597 
C 2214 1967 2669 2402 2669 3035 
C 2669 3790 2067 4224 1395 4224 
C 691 4224 262 3604 262 3030 
C 262 2780 448 2748 525 2748 
C 589 2748 781 2787 781 3010 
C 781 3207 614 3264 525 3264 
C 486 3264 448 3258 422 3245 
C 544 3790 915 4058 1306 4058 
C 1862 4058 2227 3617 2227 3035 
C 2227 2479 1901 2000 1536 1584 
L 262 146 
L 262 0 
L 2515 0 
L 2669 989 
z
" transform="scale(0.015625)"/>
       </defs>
       <use xlink:href="#CMSY10-0" transform="scale(0.996264)"/>
       <use xlink:href="#CMR17-32" transform="translate(77.487468 0) scale(0.996264)"/>
      </g>
     </g>
    </g>
    <g id="xtick_2">
     <g id="line2d_3">
      <path d="M 130.381 219.924759 
L 130.381 7.2 
" clip-path="url(#p2480d63d8f)" style="fill: none; stroke-dasharray: 0.8,1.32; stroke-dashoffset: 0; stroke: #b0b0b0; stroke-width: 0.8"/>
     </g>
     <g id="line2d_4">
      <g>
       <use xlink:href="#mce131f881e" x="130.381" y="219.924759" style="stroke: #000000; stroke-width: 0.8"/>
      </g>
     </g>
     <g id="text_2">
      <!-- $\mathdefault{−1}$ -->
      <g transform="translate(124.015961 233.843257) scale(0.1 -0.1)">
       <defs>
        <path id="CMR17-31" d="M 1702 4058 
C 1702 4192 1696 4192 1606 4192 
C 1357 3916 979 3827 621 3827 
C 602 3827 570 3827 563 3808 
C 557 3795 557 3782 557 3648 
C 755 3648 1088 3686 1344 3839 
L 1344 461 
C 1344 236 1331 160 781 160 
L 589 160 
L 589 0 
C 896 0 1216 0 1523 0 
C 1830 0 2150 0 2458 0 
L 2458 160 
L 2266 160 
C 1715 160 1702 230 1702 458 
L 1702 4058 
z
" transform="scale(0.015625)"/>
       </defs>
       <use xlink:href="#CMSY10-0" transform="scale(0.996264)"/>
       <use xlink:href="#CMR17-31" transform="translate(77.487468 0) scale(0.996264)"/>
      </g>
     </g>
    </g>
    <g id="xtick_3">
     <g id="line2d_5">
      <path d="M 180.647423 219.924759 
L 180.647423 7.2 
" clip-path="url(#p2480d63d8f)" style="fill: none; stroke-dasharray: 0.8,1.32; stroke-dashoffset: 0; stroke: #b0b0b0; stroke-width: 0.8"/>
     </g>
     <g id="line2d_6">
      <g>
       <use xlink:href="#mce131f881e" x="180.647423" y="219.924759" style="stroke: #000000; stroke-width: 0.8"/>
      </g>
     </g>
     <g id="text_3">
      <!-- $\mathdefault{0}$ -->
      <g transform="translate(178.156755 233.843257) scale(0.1 -0.1)">
       <defs>
        <path id="CMR17-30" d="M 2688 2025 
C 2688 2416 2682 3080 2413 3591 
C 2176 4039 1798 4198 1466 4198 
C 1158 4198 768 4058 525 3597 
C 269 3118 243 2524 243 2025 
C 243 1661 250 1106 448 619 
C 723 -39 1216 -128 1466 -128 
C 1760 -128 2208 -7 2470 600 
C 2662 1042 2688 1559 2688 2025 
z
M 1466 -26 
C 1056 -26 813 325 723 812 
C 653 1188 653 1738 653 2096 
C 653 2588 653 2997 736 3387 
C 858 3929 1216 4096 1466 4096 
C 1728 4096 2067 3923 2189 3400 
C 2272 3036 2278 2607 2278 2096 
C 2278 1680 2278 1169 2202 792 
C 2067 95 1690 -26 1466 -26 
z
" transform="scale(0.015625)"/>
       </defs>
       <use xlink:href="#CMR17-30" transform="scale(0.996264)"/>
      </g>
     </g>
    </g>
    <g id="xtick_4">
     <g id="line2d_7">
      <path d="M 230.913845 219.924759 
L 230.913845 7.2 
" clip-path="url(#p2480d63d8f)" style="fill: none; stroke-dasharray: 0.8,1.32; stroke-dashoffset: 0; stroke: #b0b0b0; stroke-width: 0.8"/>
     </g>
     <g id="line2d_8">
      <g>
       <use xlink:href="#mce131f881e" x="230.913845" y="219.924759" style="stroke: #000000; stroke-width: 0.8"/>
      </g>
     </g>
     <g id="text_4">
      <!-- $\mathdefault{1}$ -->
      <g transform="translate(228.423178 233.843257) scale(0.1 -0.1)">
       <use xlink:href="#CMR17-31" transform="scale(0.996264)"/>
      </g>
     </g>
    </g>
    <g id="xtick_5">
     <g id="line2d_9">
      <path d="M 281.180268 219.924759 
L 281.180268 7.2 
" clip-path="url(#p2480d63d8f)" style="fill: none; stroke-dasharray: 0.8,1.32; stroke-dashoffset: 0; stroke: #b0b0b0; stroke-width: 0.8"/>
     </g>
     <g id="line2d_10">
      <g>
       <use xlink:href="#mce131f881e" x="281.180268" y="219.924759" style="stroke: #000000; stroke-width: 0.8"/>
      </g>
     </g>
     <g id="text_5">
      <!-- $\mathdefault{2}$ -->
      <g transform="translate(278.6896 233.843257) scale(0.1 -0.1)">
       <use xlink:href="#CMR17-32" transform="scale(0.996264)"/>
      </g>
     </g>
    </g>
    <g id="text_6">
     <!-- $h / U_{\infty} \partial_y u $ -->
     <g transform="translate(154.95051 249.49401) scale(0.13 -0.13)">
      <defs>
       <path id="CMMI12-68" d="M 1798 4257 
C 1805 4283 1818 4321 1818 4352 
C 1818 4416 1754 4416 1741 4416 
C 1734 4416 1421 4388 1389 4380 
C 1280 4373 1184 4358 1069 4358 
C 909 4345 864 4339 864 4224 
C 864 4160 915 4160 1005 4160 
C 1318 4160 1325 4103 1325 4040 
C 1325 4002 1312 3951 1306 3932 
L 378 248 
C 352 152 352 140 352 101 
C 352 -38 461 -64 525 -64 
C 634 -64 717 19 749 89 
L 1037 1245 
C 1069 1386 1107 1520 1139 1660 
C 1210 1929 1210 1935 1331 2120 
C 1453 2305 1741 2689 2234 2689 
C 2490 2689 2579 2497 2579 2242 
C 2579 1884 2330 1188 2189 805 
C 2131 651 2099 568 2099 453 
C 2099 166 2298 -64 2605 -64 
C 3200 -64 3424 875 3424 913 
C 3424 945 3398 971 3360 971 
C 3302 971 3296 952 3264 843 
C 3117 332 2880 64 2624 64 
C 2560 64 2458 64 2458 269 
C 2458 436 2534 640 2560 710 
C 2675 1018 2963 1773 2963 2145 
C 2963 2528 2739 2816 2253 2816 
C 1888 2816 1568 2644 1306 2312 
L 1798 4257 
z
" transform="scale(0.015625)"/>
       <path id="CMMI12-3d" d="M 2746 4562 
C 2746 4569 2784 4666 2784 4678 
C 2784 4755 2720 4800 2669 4800 
C 2637 4800 2579 4800 2528 4659 
L 384 -1363 
C 384 -1370 346 -1465 346 -1478 
C 346 -1555 410 -1600 461 -1600 
C 499 -1600 557 -1593 602 -1459 
L 2746 4562 
z
" transform="scale(0.015625)"/>
       <path id="CMMI12-55" d="M 3238 1474 
C 3014 581 2272 57 1670 57 
C 1210 57 896 363 896 891 
C 896 916 896 1107 966 1387 
L 1594 3887 
C 1651 4103 1664 4167 2118 4167 
C 2234 4167 2298 4167 2298 4282 
C 2298 4352 2240 4352 2202 4352 
C 2086 4352 1952 4352 1830 4352 
L 1075 4352 
C 954 4352 819 4352 698 4352 
C 653 4352 576 4352 576 4231 
C 576 4167 621 4167 742 4167 
C 1126 4167 1126 4116 1126 4046 
C 1126 4008 1082 3824 1050 3715 
L 493 1488 
C 474 1418 435 1246 435 1075 
C 435 374 941 -128 1638 -128 
C 2285 -128 3002 384 3328 1197 
C 3373 1305 3430 1530 3469 1702 
C 3533 1933 3667 2496 3712 2662 
L 3955 3623 
C 4038 3956 4090 4167 4653 4167 
C 4704 4173 4730 4224 4730 4282 
C 4730 4352 4672 4352 4646 4352 
C 4557 4352 4442 4352 4352 4352 
L 4051 4352 
C 3654 4352 3450 4352 3443 4352 
C 3405 4352 3328 4352 3328 4231 
C 3328 4167 3379 4167 3424 4167 
C 3808 4167 3834 4020 3834 3905 
C 3834 3848 3834 3828 3808 3739 
L 3238 1474 
z
" transform="scale(0.015625)"/>
       <path id="CMSY10-31" d="M 3251 1730 
C 2906 2166 2829 2262 2630 2422 
C 2272 2710 1914 2825 1587 2825 
C 838 2825 352 2122 352 1374 
C 352 639 826 -70 1562 -70 
C 2298 -70 2829 511 3142 1022 
C 3488 588 3565 492 3763 332 
C 4122 45 4480 -70 4806 -70 
C 5555 -70 6042 633 6042 1380 
C 6042 2115 5568 2825 4832 2825 
C 4096 2825 3565 2242 3251 1730 
z
M 3418 1514 
C 3680 1975 4154 2620 4877 2620 
C 5555 2620 5901 1955 5901 1380 
C 5901 753 5472 236 4909 236 
C 4538 236 4250 505 4115 638 
C 3955 811 3808 1009 3418 1514 
z
M 2976 1240 
C 2714 780 2240 134 1517 134 
C 838 134 493 799 493 1374 
C 493 2000 922 2518 1485 2518 
C 1856 2518 2144 2249 2278 2115 
C 2438 1943 2586 1744 2976 1240 
z
" transform="scale(0.015625)"/>
       <path id="CMMI12-40" d="M 2906 2145 
C 2867 2504 2643 2935 2067 2935 
C 1165 2935 243 2017 243 996 
C 243 604 512 -134 1382 -134 
C 2893 -134 3539 2067 3539 2944 
C 3539 3866 3021 4576 2202 4576 
C 1274 4576 998 3763 998 3590 
C 998 3533 1037 3392 1216 3392 
C 1440 3392 1536 3597 1536 3706 
C 1536 3904 1338 3904 1254 3904 
C 1517 4378 2003 4422 2176 4422 
C 2739 4422 3098 3975 3098 3262 
C 3098 2853 2976 2380 2912 2145 
L 2906 2145 
z
M 1402 38 
C 800 38 698 514 698 784 
C 698 1066 877 1728 973 1965 
C 1056 2158 1421 2807 2086 2807 
C 2669 2807 2803 2299 2803 1953 
C 2803 1477 2387 38 1402 38 
z
" transform="scale(0.015625)"/>
       <path id="CMMI12-79" d="M 1683 -700 
C 1510 -939 1261 -1152 947 -1152 
C 870 -1152 563 -1152 467 -889 
C 486 -895 518 -895 531 -895 
C 723 -895 851 -729 851 -582 
C 851 -435 730 -384 634 -384 
C 531 -384 307 -458 307 -759 
C 307 -1071 582 -1286 947 -1286 
C 1587 -1286 2234 -700 2413 6 
L 3040 2485 
C 3046 2517 3059 2556 3059 2594 
C 3059 2689 2982 2753 2886 2753 
C 2829 2753 2694 2727 2643 2535 
L 2170 658 
C 2138 543 2138 530 2086 460 
C 1958 281 1747 64 1440 64 
C 1082 64 1050 415 1050 588 
C 1050 952 1222 1443 1395 1903 
C 1466 2088 1504 2178 1504 2305 
C 1504 2574 1312 2816 998 2816 
C 410 2816 173 1890 173 1839 
C 173 1814 198 1782 243 1782 
C 301 1782 307 1807 333 1897 
C 486 2433 730 2689 979 2689 
C 1037 2689 1146 2689 1146 2478 
C 1146 2312 1075 2127 979 1884 
C 666 1047 666 837 666 683 
C 666 77 1101 -64 1421 -64 
C 1606 -64 1837 -6 2061 230 
L 2067 224 
C 1971 -147 1907 -392 1683 -700 
z
" transform="scale(0.015625)"/>
       <path id="CMMI12-75" d="M 2182 370 
C 2266 13 2573 -64 2726 -64 
C 2931 -64 3085 70 3187 287 
C 3296 517 3379 894 3379 913 
C 3379 945 3354 971 3315 971 
C 3258 971 3251 939 3226 843 
C 3110 402 2995 64 2739 64 
C 2547 64 2547 275 2547 358 
C 2547 505 2566 568 2630 837 
C 2675 1009 2720 1181 2758 1360 
L 3021 2401 
C 3066 2561 3066 2574 3066 2593 
C 3066 2689 2989 2753 2893 2753 
C 2707 2753 2662 2593 2624 2433 
C 2560 2184 2214 811 2170 588 
C 2163 588 1914 64 1446 64 
C 1114 64 1050 351 1050 588 
C 1050 952 1229 1462 1395 1890 
C 1472 2095 1504 2178 1504 2305 
C 1504 2580 1306 2816 998 2816 
C 410 2816 173 1890 173 1839 
C 173 1814 198 1782 243 1782 
C 301 1782 307 1807 333 1896 
C 486 2441 736 2682 979 2682 
C 1043 2682 1146 2682 1146 2478 
C 1146 2312 1075 2127 979 1884 
C 698 1124 666 881 666 690 
C 666 38 1158 -64 1421 -64 
C 1830 -64 2054 217 2182 370 
z
" transform="scale(0.015625)"/>
      </defs>
      <use xlink:href="#CMMI12-68" transform="scale(0.996264)"/>
      <use xlink:href="#CMMI12-3d" transform="translate(56.154624 0) scale(0.996264)"/>
      <use xlink:href="#CMMI12-55" transform="translate(104.929543 0) scale(0.996264)"/>
      <use xlink:href="#CMSY10-31" transform="translate(171.181662 -14.943915) scale(0.697382)"/>
      <use xlink:href="#CMMI12-40" transform="translate(241.418168 0) scale(0.996264)"/>
      <use xlink:href="#CMMI12-79" transform="translate(292.914297 -14.943915) scale(0.697382)"/>
      <use xlink:href="#CMMI12-75" transform="translate(329.209404 0) scale(0.996264)"/>
     </g>
    </g>
   </g>
   <g id="matplotlib.axis_2">
    <g id="ytick_1">
     <g id="line2d_11">
      <path d="M 51.630255 202.817541 
L 309.664647 202.817541 
" clip-path="url(#p2480d63d8f)" style="fill: none; stroke-dasharray: 0.8,1.32; stroke-dashoffset: 0; stroke: #b0b0b0; stroke-width: 0.8"/>
     </g>
     <g id="line2d_12">
      <defs>
       <path id="m7857ce9b62" d="M 0 0 
L -3.5 0 
" style="stroke: #000000; stroke-width: 0.8"/>
      </defs>
      <g>
       <use xlink:href="#m7857ce9b62" x="51.630255" y="202.817541" style="stroke: #000000; stroke-width: 0.8"/>
      </g>
     </g>
     <g id="text_7">
      <!-- $\mathdefault{−1.0}$ -->
      <g transform="translate(24.151432 206.27679) scale(0.1 -0.1)">
       <defs>
        <path id="CMMI12-3a" d="M 1178 307 
C 1178 492 1024 619 870 619 
C 685 619 557 466 557 313 
C 557 128 710 0 864 0 
C 1050 0 1178 153 1178 307 
z
" transform="scale(0.015625)"/>
       </defs>
       <use xlink:href="#CMSY10-0" transform="scale(0.996264)"/>
       <use xlink:href="#CMR17-31" transform="translate(77.487468 0) scale(0.996264)"/>
       <use xlink:href="#CMMI12-3a" transform="translate(123.177945 0) scale(0.996264)"/>
       <use xlink:href="#CMR17-30" transform="translate(150.275122 0) scale(0.996264)"/>
      </g>
     </g>
    </g>
    <g id="ytick_2">
     <g id="line2d_13">
      <path d="M 51.630255 158.189963 
L 309.664647 158.189963 
" clip-path="url(#p2480d63d8f)" style="fill: none; stroke-dasharray: 0.8,1.32; stroke-dashoffset: 0; stroke: #b0b0b0; stroke-width: 0.8"/>
     </g>
     <g id="line2d_14">
      <g>
       <use xlink:href="#m7857ce9b62" x="51.630255" y="158.189963" style="stroke: #000000; stroke-width: 0.8"/>
      </g>
     </g>
     <g id="text_8">
      <!-- $\mathdefault{−0.5}$ -->
      <g transform="translate(24.151432 161.649213) scale(0.1 -0.1)">
       <defs>
        <path id="CMR17-35" d="M 730 3692 
C 794 3666 1056 3584 1325 3584 
C 1920 3584 2246 3911 2432 4100 
C 2432 4157 2432 4192 2394 4192 
C 2387 4192 2374 4192 2323 4163 
C 2099 4058 1837 3973 1517 3973 
C 1325 3973 1037 3999 723 4139 
C 653 4171 640 4171 634 4171 
C 602 4171 595 4164 595 4037 
L 595 2203 
C 595 2089 595 2057 659 2057 
C 691 2057 704 2070 736 2114 
C 941 2401 1222 2522 1542 2522 
C 1766 2522 2246 2382 2246 1289 
C 2246 1085 2246 715 2054 421 
C 1894 159 1645 25 1370 25 
C 947 25 518 320 403 814 
C 429 807 480 795 506 795 
C 589 795 749 840 749 1038 
C 749 1210 627 1280 506 1280 
C 358 1280 262 1190 262 1011 
C 262 454 704 -128 1382 -128 
C 2042 -128 2669 440 2669 1264 
C 2669 2030 2170 2624 1549 2624 
C 1222 2624 947 2503 730 2274 
L 730 3692 
z
" transform="scale(0.015625)"/>
       </defs>
       <use xlink:href="#CMSY10-0" transform="scale(0.996264)"/>
       <use xlink:href="#CMR17-30" transform="translate(77.487468 0) scale(0.996264)"/>
       <use xlink:href="#CMMI12-3a" transform="translate(123.177945 0) scale(0.996264)"/>
       <use xlink:href="#CMR17-35" transform="translate(150.275122 0) scale(0.996264)"/>
      </g>
     </g>
    </g>
    <g id="ytick_3">
     <g id="line2d_15">
      <path d="M 51.630255 113.562386 
L 309.664647 113.562386 
" clip-path="url(#p2480d63d8f)" style="fill: none; stroke-dasharray: 0.8,1.32; stroke-dashoffset: 0; stroke: #b0b0b0; stroke-width: 0.8"/>
     </g>
     <g id="line2d_16">
      <g>
       <use xlink:href="#m7857ce9b62" x="51.630255" y="113.562386" style="stroke: #000000; stroke-width: 0.8"/>
      </g>
     </g>
     <g id="text_9">
      <!-- $\mathdefault{0.0}$ -->
      <g transform="translate(31.900176 117.021635) scale(0.1 -0.1)">
       <use xlink:href="#CMR17-30" transform="scale(0.996264)"/>
       <use xlink:href="#CMMI12-3a" transform="translate(45.690477 0) scale(0.996264)"/>
       <use xlink:href="#CMR17-30" transform="translate(72.787654 0) scale(0.996264)"/>
      </g>
     </g>
    </g>
    <g id="ytick_4">
     <g id="line2d_17">
      <path d="M 51.630255 68.934808 
L 309.664647 68.934808 
" clip-path="url(#p2480d63d8f)" style="fill: none; stroke-dasharray: 0.8,1.32; stroke-dashoffset: 0; stroke: #b0b0b0; stroke-width: 0.8"/>
     </g>
     <g id="line2d_18">
      <g>
       <use xlink:href="#m7857ce9b62" x="51.630255" y="68.934808" style="stroke: #000000; stroke-width: 0.8"/>
      </g>
     </g>
     <g id="text_10">
      <!-- $\mathdefault{0.5}$ -->
      <g transform="translate(31.900176 72.394057) scale(0.1 -0.1)">
       <use xlink:href="#CMR17-30" transform="scale(0.996264)"/>
       <use xlink:href="#CMMI12-3a" transform="translate(45.690477 0) scale(0.996264)"/>
       <use xlink:href="#CMR17-35" transform="translate(72.787654 0) scale(0.996264)"/>
      </g>
     </g>
    </g>
    <g id="ytick_5">
     <g id="line2d_19">
      <path d="M 51.630255 24.30723 
L 309.664647 24.30723 
" clip-path="url(#p2480d63d8f)" style="fill: none; stroke-dasharray: 0.8,1.32; stroke-dashoffset: 0; stroke: #b0b0b0; stroke-width: 0.8"/>
     </g>
     <g id="line2d_20">
      <g>
       <use xlink:href="#m7857ce9b62" x="51.630255" y="24.30723" style="stroke: #000000; stroke-width: 0.8"/>
      </g>
     </g>
     <g id="text_11">
      <!-- $\mathdefault{1.0}$ -->
      <g transform="translate(31.900176 27.766479) scale(0.1 -0.1)">
       <use xlink:href="#CMR17-31" transform="scale(0.996264)"/>
       <use xlink:href="#CMMI12-3a" transform="translate(45.690477 0) scale(0.996264)"/>
       <use xlink:href="#CMR17-30" transform="translate(72.787654 0) scale(0.996264)"/>
      </g>
     </g>
    </g>
    <g id="text_12">
     <!-- $y  / (h/2)$ -->
     <g transform="translate(16.913574 134.979236) rotate(-90) scale(0.13 -0.13)">
      <defs>
       <path id="CMR17-28" d="M 1958 -1561 
C 1958 -1555 1958 -1542 1939 -1523 
C 1645 -1224 858 -407 858 1581 
C 858 3569 1632 4379 1946 4697 
C 1946 4704 1958 4717 1958 4736 
C 1958 4755 1939 4768 1914 4768 
C 1843 4768 1299 4296 986 3594 
C 666 2887 576 2199 576 1588 
C 576 1128 621 351 1005 -471 
C 1312 -1135 1837 -1600 1914 -1600 
C 1946 -1600 1958 -1587 1958 -1561 
z
" transform="scale(0.015625)"/>
       <path id="CMR17-29" d="M 1683 1581 
C 1683 2040 1638 2817 1254 3639 
C 947 4303 422 4768 346 4768 
C 326 4768 301 4761 301 4729 
C 301 4717 307 4710 314 4697 
C 621 4378 1402 3568 1402 1584 
C 1402 -407 627 -1217 314 -1537 
C 307 -1549 301 -1556 301 -1568 
C 301 -1600 326 -1600 346 -1600 
C 416 -1600 960 -1128 1274 -426 
C 1594 281 1683 969 1683 1581 
z
" transform="scale(0.015625)"/>
      </defs>
      <use xlink:href="#CMMI12-79" transform="scale(0.996264)"/>
      <use xlink:href="#CMMI12-3d" transform="translate(51.138781 0) scale(0.996264)"/>
      <use xlink:href="#CMR17-28" transform="translate(99.913699 0) scale(0.996264)"/>
      <use xlink:href="#CMMI12-68" transform="translate(135.194467 0) scale(0.996264)"/>
      <use xlink:href="#CMMI12-3d" transform="translate(191.349091 0) scale(0.996264)"/>
      <use xlink:href="#CMR17-32" transform="translate(240.12401 0) scale(0.996264)"/>
      <use xlink:href="#CMR17-29" transform="translate(285.814487 0) scale(0.996264)"/>
     </g>
    </g>
   </g>
   <g id="line2d_21">
    <path d="M 281.180268 202.817541 
L 180.647423 158.189963 
L 180.647423 113.562386 
L 180.647423 68.934808 
L 80.114577 24.30723 
" clip-path="url(#p2480d63d8f)" style="fill: none; stroke: #1f77b4; stroke-opacity: 0.5; stroke-width: 5; stroke-linecap: square"/>
   </g>
   <g id="line2d_22">
    <path d="M 261.073695 202.817541 
L 261.073695 184.96651 
M 219.438245 184.96651 
L 219.438245 165.852838 
M 180.647423 165.852838 
L 180.647423 76.597692 
M 149.065458 76.597692 
L 149.065458 33.232746 
M 90.167861 33.232746 
L 90.167861 24.30723 
" clip-path="url(#p2480d63d8f)" style="fill: none; stroke: #ff7f0e; stroke-width: 1.5; stroke-linecap: square"/>
    <defs>
     <path id="m34b26dbd89" d="M 0 2.5 
C 0.663008 2.5 1.29895 2.236584 1.767767 1.767767 
C 2.236584 1.29895 2.5 0.663008 2.5 0 
C 2.5 -0.663008 2.236584 -1.29895 1.767767 -1.767767 
C 1.29895 -2.236584 0.663008 -2.5 0 -2.5 
C -0.663008 -2.5 -1.29895 -2.236584 -1.767767 -1.767767 
C -2.236584 -1.29895 -2.5 -0.663008 -2.5 0 
C -2.5 0.663008 -2.236584 1.29895 -1.767767 1.767767 
C -1.29895 2.236584 -0.663008 2.5 0 2.5 
z
" style="stroke: #ff7f0e"/>
    </defs>
    <g clip-path="url(#p2480d63d8f)">
     <use xlink:href="#m34b26dbd89" x="261.073695" y="202.817541" style="fill: #ff7f0e; stroke: #ff7f0e"/>
     <use xlink:href="#m34b26dbd89" x="261.073695" y="184.96651" style="fill: #ff7f0e; stroke: #ff7f0e"/>
     <use xlink:href="#m34b26dbd89" x="219.438245" y="184.96651" style="fill: #ff7f0e; stroke: #ff7f0e"/>
     <use xlink:href="#m34b26dbd89" x="219.438245" y="165.852838" style="fill: #ff7f0e; stroke: #ff7f0e"/>
     <use xlink:href="#m34b26dbd89" x="180.647423" y="165.852838" style="fill: #ff7f0e; stroke: #ff7f0e"/>
     <use xlink:href="#m34b26dbd89" x="180.647423" y="76.597692" style="fill: #ff7f0e; stroke: #ff7f0e"/>
     <use xlink:href="#m34b26dbd89" x="149.065458" y="76.597692" style="fill: #ff7f0e; stroke: #ff7f0e"/>
     <use xlink:href="#m34b26dbd89" x="149.065458" y="33.232746" style="fill: #ff7f0e; stroke: #ff7f0e"/>
     <use xlink:href="#m34b26dbd89" x="90.167861" y="33.232746" style="fill: #ff7f0e; stroke: #ff7f0e"/>
     <use xlink:href="#m34b26dbd89" x="90.167861" y="24.30723" style="fill: #ff7f0e; stroke: #ff7f0e"/>
    </g>
   </g>
   <g id="line2d_23">
    <defs>
     <path id="mcd1ec6f87e" d="M -4 4 
L 4 -4 
M -4 -4 
L 4 4 
" style="stroke: #ff7f0e"/>
    </defs>
    <g clip-path="url(#p2480d63d8f)">
     <use xlink:href="#mcd1ec6f87e" x="261.073695" y="193.892025" style="fill: #ff7f0e; stroke: #ff7f0e"/>
     <use xlink:href="#mcd1ec6f87e" x="219.438245" y="175.409674" style="fill: #ff7f0e; stroke: #ff7f0e"/>
     <use xlink:href="#mcd1ec6f87e" x="180.647423" y="121.225265" style="fill: #ff7f0e; stroke: #ff7f0e"/>
     <use xlink:href="#mcd1ec6f87e" x="149.065458" y="54.915219" style="fill: #ff7f0e; stroke: #ff7f0e"/>
     <use xlink:href="#mcd1ec6f87e" x="90.167861" y="28.769988" style="fill: #ff7f0e; stroke: #ff7f0e"/>
    </g>
   </g>
   <g id="line2d_24">
    <path d="M 297.935811 210.255452 
L 163.891939 150.752168 
" clip-path="url(#p2480d63d8f)" style="fill: none; stroke-dasharray: 5.55,2.4; stroke-dashoffset: 0; stroke: #000000; stroke-width: 1.5"/>
   </g>
   <g id="line2d_25">
    <defs>
     <path id="m0a3bfdc6d6" d="M -3 3 
L 3 -3 
M -3 -3 
L 3 3 
" style="stroke: #000000"/>
    </defs>
    <g clip-path="url(#p2480d63d8f)">
     <use xlink:href="#m0a3bfdc6d6" x="219.438245" y="175.409674" style="stroke: #000000"/>
     <use xlink:href="#m0a3bfdc6d6" x="261.073695" y="193.892025" style="stroke: #000000"/>
    </g>
   </g>
   <g id="line2d_26">
    <defs>
     <path id="mc1dccca546" d="M -0 4.949747 
L 4.949747 0 
L 0 -4.949747 
L -4.949747 -0 
z
" style="stroke: #d62728; stroke-linejoin: miter"/>
    </defs>
    <g clip-path="url(#p2480d63d8f)">
     <use xlink:href="#mc1dccca546" x="180.647423" y="158.190078" style="fill: #d62728; stroke: #d62728; stroke-linejoin: miter"/>
    </g>
   </g>
   <g id="line2d_27">
    <path d="M 51.630255 158.190078 
L 309.664647 158.190078 
" clip-path="url(#p2480d63d8f)" style="fill: none; stroke-dasharray: 1.5,2.475; stroke-dashoffset: 0; stroke: #2ca02c; stroke-opacity: 0.5; stroke-width: 1.5"/>
   </g>
   <g id="line2d_28">
    <path d="M 197.402899 76.372691 
L 63.359091 16.869307 
" clip-path="url(#p2480d63d8f)" style="fill: none; stroke-dasharray: 5.55,2.4; stroke-dashoffset: 0; stroke: #000000; stroke-width: 1.5"/>
   </g>
   <g id="line2d_29">
    <g clip-path="url(#p2480d63d8f)">
     <use xlink:href="#m0a3bfdc6d6" x="149.065458" y="54.915219" style="stroke: #000000"/>
     <use xlink:href="#m0a3bfdc6d6" x="90.167861" y="28.769988" style="stroke: #000000"/>
    </g>
   </g>
   <g id="line2d_30">
    <g clip-path="url(#p2480d63d8f)">
     <use xlink:href="#mc1dccca546" x="180.647423" y="68.934768" style="fill: #d62728; stroke: #d62728; stroke-linejoin: miter"/>
    </g>
   </g>
   <g id="line2d_31">
    <path d="M 51.630255 68.934768 
L 309.664647 68.934768 
" clip-path="url(#p2480d63d8f)" style="fill: none; stroke-dasharray: 1.5,2.475; stroke-dashoffset: 0; stroke: #2ca02c; stroke-opacity: 0.5; stroke-width: 1.5"/>
   </g>
   <g id="line2d_32">
    <defs>
     <path id="m8497d083a2" d="M 0 2.5 
C 0.663008 2.5 1.29895 2.236584 1.767767 1.767767 
C 2.236584 1.29895 2.5 0.663008 2.5 0 
C 2.5 -0.663008 2.236584 -1.29895 1.767767 -1.767767 
C 1.29895 -2.236584 0.663008 -2.5 0 -2.5 
C -0.663008 -2.5 -1.29895 -2.236584 -1.767767 -1.767767 
C -2.236584 -1.29895 -2.5 -0.663008 -2.5 0 
C -2.5 0.663008 -2.236584 1.29895 -1.767767 1.767767 
C -1.29895 2.236584 -0.663008 2.5 0 2.5 
z
" style="stroke: #2ca02c"/>
    </defs>
    <g clip-path="url(#p2480d63d8f)">
     <use xlink:href="#m8497d083a2" x="219.438245" y="165.852838" style="fill: #2ca02c; stroke: #2ca02c"/>
     <use xlink:href="#m8497d083a2" x="180.647423" y="165.852838" style="fill: #2ca02c; stroke: #2ca02c"/>
     <use xlink:href="#m8497d083a2" x="180.647423" y="76.597692" style="fill: #2ca02c; stroke: #2ca02c"/>
     <use xlink:href="#m8497d083a2" x="149.065458" y="76.597692" style="fill: #2ca02c; stroke: #2ca02c"/>
    </g>
   </g>
   <g id="patch_3">
    <path d="M 51.630255 219.924759 
L 51.630255 7.2 
" style="fill: none; stroke: #000000; stroke-width: 0.8; stroke-linejoin: miter; stroke-linecap: square"/>
   </g>
   <g id="patch_4">
    <path d="M 309.664647 219.924759 
L 309.664647 7.2 
" style="fill: none; stroke: #000000; stroke-width: 0.8; stroke-linejoin: miter; stroke-linecap: square"/>
   </g>
   <g id="patch_5">
    <path d="M 51.630255 219.924759 
L 309.664647 219.924759 
" style="fill: none; stroke: #000000; stroke-width: 0.8; stroke-linejoin: miter; stroke-linecap: square"/>
   </g>
   <g id="patch_6">
    <path d="M 51.630255 7.2 
L 309.664647 7.2 
" style="fill: none; stroke: #000000; stroke-width: 0.8; stroke-linejoin: miter; stroke-linecap: square"/>
   </g>
   <g id="legend_1">
    <g id="patch_7">
     <path d="M 59.330255 214.424759 
L 162.96269 214.424759 
Q 165.16269 214.424759 165.16269 212.224759 
L 165.16269 136.670286 
Q 165.16269 134.470286 162.96269 134.470286 
L 59.330255 134.470286 
Q 57.130255 134.470286 57.130255 136.670286 
L 57.130255 212.224759 
Q 57.130255 214.424759 59.330255 214.424759 
z
" style="fill: #ffffff; opacity: 0.8; stroke: #cccccc; stroke-linejoin: miter"/>
    </g>
    <g id="line2d_33">
     <path d="M 61.530255 142.720286 
L 72.530255 142.720286 
L 83.530255 142.720286 
" style="fill: none; stroke: #1f77b4; stroke-opacity: 0.5; stroke-width: 5; stroke-linecap: square"/>
    </g>
    <g id="text_13">
     <!-- Analytical -->
     <g transform="translate(92.330255 146.570286) scale(0.11 -0.11)">
      <defs>
       <path id="CMR17-41" d="M 2323 4378 
C 2291 4461 2278 4480 2214 4480 
C 2150 4480 2138 4461 2106 4378 
L 749 566 
C 627 223 371 153 147 153 
L 147 -13 
C 262 0 518 0 640 0 
C 800 0 1056 0 1210 -13 
L 1210 153 
C 909 153 864 361 864 439 
C 864 497 877 530 890 569 
L 1229 1536 
L 2906 1536 
L 3290 442 
C 3322 365 3322 352 3322 327 
C 3322 153 3046 153 2925 153 
L 2925 0 
C 3110 0 3443 0 3642 0 
C 3808 0 4128 0 4282 -13 
L 4282 153 
C 3942 153 3827 153 3744 387 
L 2323 4378 
z
M 2067 3893 
L 2848 1702 
L 1286 1702 
L 2067 3893 
z
" transform="scale(0.015625)"/>
       <path id="CMR17-6e" d="M 2656 1933 
C 2656 2259 2592 2790 1837 2790 
C 1331 2790 1069 2400 973 2144 
L 966 2144 
L 966 2790 
L 211 2720 
L 211 2554 
C 589 2554 646 2515 646 2208 
L 646 428 
C 646 184 621 153 211 153 
L 211 -13 
C 365 0 646 0 813 0 
C 979 0 1267 0 1421 -13 
L 1421 153 
C 1011 153 986 178 986 428 
L 986 1658 
C 986 2247 1344 2688 1792 2688 
C 2266 2688 2317 2266 2317 1958 
L 2317 428 
C 2317 184 2291 153 1882 153 
L 1882 -13 
C 2035 0 2317 0 2483 0 
C 2650 0 2938 0 3091 -13 
L 3091 153 
C 2682 153 2656 178 2656 428 
L 2656 1933 
z
" transform="scale(0.015625)"/>
       <path id="CMR17-61" d="M 2304 1653 
C 2304 2072 2304 2294 2035 2543 
C 1798 2752 1523 2816 1306 2816 
C 800 2816 435 2407 435 1971 
C 435 1728 627 1728 666 1728 
C 749 1728 896 1778 896 1954 
C 896 2112 774 2181 666 2181 
C 640 2181 608 2174 589 2168 
C 723 2592 1069 2714 1293 2714 
C 1613 2714 1965 2429 1965 1885 
L 1965 1600 
C 1587 1600 1133 1549 774 1357 
C 371 1133 256 813 256 570 
C 256 77 832 -64 1171 -64 
C 1523 -64 1850 139 1990 511 
C 2003 233 2182 -18 2464 -18 
C 2598 -18 2938 70 2938 567 
L 2938 920 
L 2822 920 
L 2822 562 
C 2822 178 2650 128 2566 128 
C 2304 128 2304 458 2304 738 
L 2304 1653 
z
M 1965 870 
C 1965 317 1568 38 1216 38 
C 896 38 646 275 646 570 
C 646 761 730 1100 1101 1305 
C 1408 1478 1760 1504 1965 1504 
L 1965 870 
z
" transform="scale(0.015625)"/>
       <path id="CMR17-6c" d="M 979 4396 
L 218 4326 
L 218 4160 
C 595 4160 653 4122 653 3817 
L 653 426 
C 653 184 627 153 218 153 
L 218 -13 
C 371 0 653 0 813 0 
C 979 0 1261 0 1414 -13 
L 1414 153 
C 1005 153 979 178 979 426 
L 979 4396 
z
" transform="scale(0.015625)"/>
       <path id="CMR17-79" d="M 2496 2197 
C 2656 2586 2944 2586 3034 2586 
L 3034 2752 
C 2912 2752 2752 2752 2630 2752 
C 2496 2752 2285 2752 2157 2758 
L 2157 2592 
C 2400 2573 2406 2394 2406 2343 
C 2406 2280 2394 2248 2362 2171 
L 1664 449 
L 902 2306 
C 870 2382 870 2426 870 2433 
C 870 2573 1018 2586 1171 2586 
L 1171 2758 
C 1018 2752 742 2752 582 2752 
C 410 2752 205 2752 64 2758 
L 64 2586 
C 410 2586 448 2554 531 2350 
L 1485 15 
C 1197 -738 1030 -1178 627 -1178 
C 557 -1178 397 -1159 282 -1044 
C 429 -1031 493 -942 493 -833 
C 493 -725 416 -629 288 -629 
C 147 -629 77 -725 77 -840 
C 77 -1095 339 -1280 627 -1280 
C 998 -1280 1229 -922 1357 -604 
L 2496 2197 
z
" transform="scale(0.015625)"/>
       <path id="CMR17-74" d="M 966 2560 
L 1862 2560 
L 1862 2725 
L 966 2725 
L 966 3904 
L 851 3904 
C 838 3245 614 2668 70 2668 
L 70 2560 
L 627 2560 
L 627 771 
C 627 650 627 -64 1370 -64 
C 1747 -64 1965 306 1965 777 
L 1965 1140 
L 1850 1140 
L 1850 783 
C 1850 344 1677 51 1408 51 
C 1222 51 966 178 966 758 
L 966 2560 
z
" transform="scale(0.015625)"/>
       <path id="CMR17-69" d="M 992 3909 
C 992 4049 877 4170 730 4170 
C 589 4170 467 4056 467 3909 
C 467 3769 582 3648 730 3648 
C 870 3648 992 3763 992 3909 
z
M 243 2706 
L 243 2541 
C 602 2541 653 2502 653 2197 
L 653 427 
C 653 184 627 153 218 153 
L 218 -13 
C 371 0 646 0 806 0 
C 960 0 1222 0 1370 -13 
L 1370 153 
C 992 153 979 191 979 420 
L 979 2776 
L 243 2706 
z
" transform="scale(0.015625)"/>
       <path id="CMR17-63" d="M 2234 2240 
C 2112 2240 1933 2240 1933 2017 
C 1933 1838 2080 1787 2163 1787 
C 2208 1787 2394 1807 2394 2024 
C 2394 2467 1958 2803 1466 2803 
C 787 2803 211 2178 211 1363 
C 211 516 813 -64 1466 -64 
C 2259 -64 2458 677 2458 748 
C 2458 774 2451 793 2406 793 
C 2362 793 2355 787 2330 703 
C 2163 180 1798 51 1523 51 
C 1114 51 621 427 621 1369 
C 621 2338 1094 2688 1472 2688 
C 1722 2688 2093 2573 2234 2240 
z
" transform="scale(0.015625)"/>
      </defs>
      <use xlink:href="#CMR17-41" transform="scale(0.996264)"/>
      <use xlink:href="#CMR17-6e" transform="translate(69.07243 0) scale(0.996264)"/>
      <use xlink:href="#CMR17-61" transform="translate(119.9678 0) scale(0.996264)"/>
      <use xlink:href="#CMR17-6c" transform="translate(165.658277 0) scale(0.996264)"/>
      <use xlink:href="#CMR17-79" transform="translate(190.529335 0) scale(0.996264)"/>
      <use xlink:href="#CMR17-74" transform="translate(238.822251 0) scale(0.996264)"/>
      <use xlink:href="#CMR17-69" transform="translate(274.103019 0) scale(0.996264)"/>
      <use xlink:href="#CMR17-63" transform="translate(298.974077 0) scale(0.996264)"/>
      <use xlink:href="#CMR17-61" transform="translate(339.459738 0) scale(0.996264)"/>
      <use xlink:href="#CMR17-6c" transform="translate(385.150215 0) scale(0.996264)"/>
     </g>
    </g>
    <g id="line2d_34">
     <path d="M 61.530255 158.05118 
L 72.530255 158.05118 
L 83.530255 158.05118 
" style="fill: none; stroke: #ff7f0e; stroke-width: 1.5; stroke-linecap: square"/>
     <g>
      <use xlink:href="#m34b26dbd89" x="72.530255" y="158.05118" style="fill: #ff7f0e; stroke: #ff7f0e"/>
     </g>
    </g>
    <g id="text_14">
     <!-- Numerical -->
     <g transform="translate(92.330255 161.90118) scale(0.11 -0.11)">
      <defs>
       <path id="CMR17-4e" d="M 1312 4250 
C 1267 4320 1261 4320 1139 4320 
L 326 4320 
L 326 4160 
L 448 4160 
C 704 4160 819 4129 838 4122 
L 838 610 
C 838 451 838 153 326 153 
L 326 -13 
C 474 0 742 0 902 0 
C 1062 0 1331 0 1478 -13 
L 1478 153 
C 966 153 966 451 966 610 
L 966 4033 
C 1011 3995 1011 3982 1056 3919 
L 3430 76 
C 3475 0 3494 0 3526 0 
C 3590 0 3590 19 3590 139 
L 3590 3705 
C 3590 3863 3590 4160 4102 4160 
L 4102 4326 
C 3955 4320 3686 4320 3526 4320 
C 3366 4320 3098 4320 2950 4326 
L 2950 4160 
C 3462 4160 3462 3862 3462 3703 
L 3462 763 
L 1312 4250 
z
" transform="scale(0.015625)"/>
       <path id="CMR17-75" d="M 1882 2693 
L 1882 2528 
C 2259 2528 2317 2489 2317 2186 
L 2317 1032 
C 2317 500 2029 38 1555 38 
C 1030 38 986 348 986 678 
L 986 2763 
L 211 2693 
L 211 2528 
C 467 2528 640 2528 646 2274 
L 646 1058 
C 646 633 646 361 813 183 
C 896 101 1056 -64 1517 -64 
C 2061 -64 2272 377 2323 506 
L 2330 506 
L 2330 -63 
L 3091 -63 
L 3091 128 
C 2714 128 2656 166 2656 473 
L 2656 2763 
L 1882 2693 
z
" transform="scale(0.015625)"/>
       <path id="CMR17-6d" d="M 4326 1933 
C 4326 2252 4269 2790 3507 2790 
C 3072 2790 2771 2496 2656 2151 
L 2650 2151 
C 2573 2676 2195 2790 1837 2790 
C 1331 2790 1069 2400 973 2144 
L 966 2144 
L 966 2790 
L 211 2720 
L 211 2554 
C 589 2554 646 2515 646 2208 
L 646 428 
C 646 184 621 153 211 153 
L 211 -13 
C 365 0 646 0 813 0 
C 979 0 1267 0 1421 -13 
L 1421 153 
C 1011 153 986 178 986 428 
L 986 1658 
C 986 2247 1344 2688 1792 2688 
C 2266 2688 2317 2266 2317 1958 
L 2317 428 
C 2317 184 2291 153 1882 153 
L 1882 -13 
C 2035 0 2317 0 2483 0 
C 2650 0 2938 0 3091 -13 
L 3091 153 
C 2682 153 2656 178 2656 428 
L 2656 1658 
C 2656 2247 3014 2688 3462 2688 
C 3936 2688 3987 2266 3987 1958 
L 3987 428 
C 3987 184 3962 153 3552 153 
L 3552 -13 
C 3706 0 3987 0 4154 0 
C 4320 0 4608 0 4762 -13 
L 4762 153 
C 4352 153 4326 178 4326 428 
L 4326 1933 
z
" transform="scale(0.015625)"/>
       <path id="CMR17-65" d="M 2438 1472 
C 2464 1498 2464 1511 2464 1576 
C 2464 2238 2118 2816 1389 2816 
C 710 2816 173 2169 173 1383 
C 173 551 781 -64 1459 -64 
C 2176 -64 2458 607 2458 740 
C 2458 784 2419 784 2406 784 
C 2362 784 2355 771 2330 696 
C 2189 265 1837 51 1504 51 
C 1229 51 954 203 781 480 
C 582 803 582 1176 582 1472 
L 2438 1472 
z
M 589 1568 
C 634 2505 1126 2714 1382 2714 
C 1818 2714 2112 2297 2118 1568 
L 589 1568 
z
" transform="scale(0.015625)"/>
       <path id="CMR17-72" d="M 960 1497 
C 960 2112 1222 2688 1702 2688 
C 1747 2688 1792 2682 1837 2662 
C 1837 2662 1696 2617 1696 2452 
C 1696 2298 1818 2234 1914 2234 
C 1990 2234 2131 2279 2131 2458 
C 2131 2663 1926 2790 1709 2790 
C 1222 2790 1011 2317 947 2093 
L 941 2093 
L 941 2790 
L 198 2720 
L 198 2554 
C 576 2554 634 2515 634 2208 
L 634 428 
C 634 184 608 153 198 153 
L 198 -13 
C 352 0 646 0 813 0 
C 998 0 1325 0 1498 -13 
L 1498 153 
C 1037 153 960 153 960 440 
L 960 1497 
z
" transform="scale(0.015625)"/>
      </defs>
      <use xlink:href="#CMR17-4e" transform="scale(0.996264)"/>
      <use xlink:href="#CMR17-75" transform="translate(69.07243 0) scale(0.996264)"/>
      <use xlink:href="#CMR17-6d" transform="translate(119.9678 0) scale(0.996264)"/>
      <use xlink:href="#CMR17-65" transform="translate(196.887389 0) scale(0.996264)"/>
      <use xlink:href="#CMR17-72" transform="translate(237.37305 0) scale(0.996264)"/>
      <use xlink:href="#CMR17-69" transform="translate(272.653818 0) scale(0.996264)"/>
      <use xlink:href="#CMR17-63" transform="translate(297.524876 0) scale(0.996264)"/>
      <use xlink:href="#CMR17-61" transform="translate(338.010537 0) scale(0.996264)"/>
      <use xlink:href="#CMR17-6c" transform="translate(383.701014 0) scale(0.996264)"/>
     </g>
    </g>
    <g id="line2d_35">
     <path d="M 61.530255 173.382075 
L 72.530255 173.382075 
L 83.530255 173.382075 
" style="fill: none; stroke-dasharray: 5.55,2.4; stroke-dashoffset: 0; stroke: #000000; stroke-width: 1.5"/>
    </g>
    <g id="text_15">
     <!-- Reconstructed -->
     <g transform="translate(92.330255 177.232075) scale(0.11 -0.11)">
      <defs>
       <path id="CMR17-52" d="M 2509 2146 
C 3117 2268 3629 2676 3629 3186 
C 3629 3785 2950 4326 2054 4326 
L 333 4326 
L 333 4160 
C 774 4160 845 4160 845 3873 
L 845 415 
C 845 128 774 128 333 128 
L 333 -26 
C 518 -26 851 -26 1050 -26 
C 1248 -26 1581 -26 1766 -26 
L 1766 128 
C 1325 128 1254 128 1254 417 
L 1254 2112 
L 2003 2112 
C 2368 2112 2573 1964 2662 1881 
C 2918 1632 2918 1459 2918 1024 
C 2918 595 2918 377 3110 160 
C 3354 -102 3680 -128 3821 -128 
C 4294 -128 4365 396 4365 503 
C 4365 540 4365 585 4307 585 
C 4256 585 4250 547 4250 522 
C 4218 112 4032 -26 3834 -26 
C 3482 -26 3443 375 3405 764 
C 3386 898 3373 993 3360 1133 
C 3322 1452 3270 1917 2509 2146 
z
M 1984 2214 
L 1254 2214 
L 1254 3913 
C 1254 4129 1267 4160 1523 4160 
L 1990 4160 
C 2522 4160 3142 3977 3142 3190 
C 3142 2372 2464 2214 1984 2214 
z
" transform="scale(0.015625)"/>
       <path id="CMR17-6f" d="M 2758 1356 
C 2758 2176 2163 2816 1466 2816 
C 768 2816 173 2176 173 1356 
C 173 551 768 -64 1466 -64 
C 2163 -64 2758 551 2758 1356 
z
M 1466 51 
C 1165 51 909 230 762 480 
C 602 767 582 1126 582 1408 
C 582 1677 595 2010 762 2298 
C 890 2509 1139 2714 1466 2714 
C 1754 2714 1997 2554 2150 2330 
C 2349 2029 2349 1607 2349 1408 
C 2349 1158 2336 775 2163 467 
C 1984 173 1709 51 1466 51 
z
" transform="scale(0.015625)"/>
       <path id="CMR17-73" d="M 1978 2697 
C 1978 2813 1971 2819 1933 2819 
C 1907 2819 1901 2813 1824 2717 
C 1805 2691 1747 2626 1728 2601 
C 1523 2819 1235 2819 1126 2819 
C 416 2819 160 2447 160 2076 
C 160 1498 813 1365 998 1325 
C 1402 1243 1542 1217 1677 1101 
C 1760 1025 1901 884 1901 654 
C 1901 384 1747 38 1158 38 
C 602 38 403 460 288 1021 
C 269 1110 269 1117 218 1117 
C 166 1117 160 1110 160 983 
L 160 63 
C 160 -51 166 -58 205 -58 
C 237 -58 243 -51 275 0 
C 314 57 410 211 448 276 
C 576 103 800 -64 1158 -64 
C 1792 -64 2131 283 2131 784 
C 2131 1112 1958 1285 1875 1362 
C 1683 1561 1459 1606 1190 1657 
C 838 1735 390 1825 390 2217 
C 390 2383 480 2737 1126 2737 
C 1811 2737 1850 2094 1862 1888 
C 1869 1856 1901 1849 1920 1849 
C 1978 1849 1978 1869 1978 1978 
L 1978 2697 
z
" transform="scale(0.015625)"/>
       <path id="CMR17-64" d="M 1869 4326 
L 1869 4160 
C 2246 4160 2304 4122 2304 3820 
L 2304 2345 
C 2278 2377 2016 2790 1498 2790 
C 845 2790 211 2208 211 1364 
C 211 525 806 -64 1434 -64 
C 1978 -64 2259 337 2291 380 
L 2291 -63 
L 3066 -63 
L 3066 128 
C 2688 128 2630 166 2630 473 
L 2630 4396 
L 1869 4326 
z
M 2291 755 
C 2291 563 2176 390 2029 262 
C 1811 70 1594 38 1472 38 
C 1286 38 621 134 621 1356 
C 621 2612 1363 2688 1530 2688 
C 1824 2688 2061 2522 2208 2291 
C 2291 2157 2291 2138 2291 2023 
L 2291 755 
z
" transform="scale(0.015625)"/>
      </defs>
      <use xlink:href="#CMR17-52" transform="scale(0.996264)"/>
      <use xlink:href="#CMR17-65" transform="translate(67.791102 0) scale(0.996264)"/>
      <use xlink:href="#CMR17-63" transform="translate(108.276762 0) scale(0.996264)"/>
      <use xlink:href="#CMR17-6f" transform="translate(148.762423 0) scale(0.996264)"/>
      <use xlink:href="#CMR17-6e" transform="translate(194.4529 0) scale(0.996264)"/>
      <use xlink:href="#CMR17-73" transform="translate(245.34827 0) scale(0.996264)"/>
      <use xlink:href="#CMR17-74" transform="translate(281.149607 0) scale(0.996264)"/>
      <use xlink:href="#CMR17-72" transform="translate(316.430375 0) scale(0.996264)"/>
      <use xlink:href="#CMR17-75" transform="translate(351.711143 0) scale(0.996264)"/>
      <use xlink:href="#CMR17-63" transform="translate(402.606513 0) scale(0.996264)"/>
      <use xlink:href="#CMR17-74" transform="translate(443.092173 0) scale(0.996264)"/>
      <use xlink:href="#CMR17-65" transform="translate(478.372941 0) scale(0.996264)"/>
      <use xlink:href="#CMR17-64" transform="translate(518.858602 0) scale(0.996264)"/>
     </g>
    </g>
    <g id="line2d_36">
     <g>
      <use xlink:href="#mc1dccca546" x="72.530255" y="188.712969" style="fill: #d62728; stroke: #d62728; stroke-linejoin: miter"/>
     </g>
    </g>
    <g id="text_16">
     <!-- Root -->
     <g transform="translate(92.330255 192.562969) scale(0.11 -0.11)">
      <use xlink:href="#CMR17-52" transform="scale(0.996264)"/>
      <use xlink:href="#CMR17-6f" transform="translate(67.791102 0) scale(0.996264)"/>
      <use xlink:href="#CMR17-6f" transform="translate(116.084018 0) scale(0.996264)"/>
      <use xlink:href="#CMR17-74" transform="translate(161.774495 0) scale(0.996264)"/>
     </g>
    </g>
    <g id="line2d_37">
     <g>
      <use xlink:href="#m8497d083a2" x="72.530255" y="204.043864" style="fill: #2ca02c; stroke: #2ca02c"/>
     </g>
    </g>
    <g id="text_17">
     <!-- Interface -->
     <g transform="translate(92.330255 207.893864) scale(0.11 -0.11)">
      <defs>
       <path id="CMR17-49" d="M 1261 3905 
C 1261 4192 1338 4192 1798 4192 
L 1798 4352 
C 1594 4352 1267 4352 1050 4352 
C 832 4352 506 4352 301 4352 
L 301 4192 
C 762 4192 838 4192 838 3905 
L 838 447 
C 838 160 762 160 301 160 
L 301 0 
C 506 0 832 0 1050 0 
C 1267 0 1594 0 1798 0 
L 1798 160 
C 1338 160 1261 160 1261 447 
L 1261 3905 
z
" transform="scale(0.015625)"/>
       <path id="CMR17-66" d="M 979 2560 
L 1709 2560 
L 1709 2725 
L 966 2725 
L 966 3494 
C 966 4022 1235 4352 1510 4352 
C 1594 4352 1690 4327 1754 4282 
C 1702 4269 1568 4225 1568 4067 
C 1568 3901 1696 3850 1786 3850 
C 1875 3850 2003 3901 2003 4067 
C 2003 4308 1773 4454 1517 4454 
C 1152 4454 653 4156 653 3481 
L 653 2725 
L 141 2725 
L 141 2560 
L 653 2560 
L 653 427 
C 653 184 627 153 218 153 
L 218 -13 
C 371 0 666 0 832 0 
C 1018 0 1344 0 1517 -13 
L 1517 153 
C 1056 153 979 153 979 439 
L 979 2560 
z
" transform="scale(0.015625)"/>
      </defs>
      <use xlink:href="#CMR17-49" transform="scale(0.996264)"/>
      <use xlink:href="#CMR17-6e" transform="translate(32.638409 0) scale(0.996264)"/>
      <use xlink:href="#CMR17-74" transform="translate(80.931325 0) scale(0.996264)"/>
      <use xlink:href="#CMR17-65" transform="translate(116.212093 0) scale(0.996264)"/>
      <use xlink:href="#CMR17-72" transform="translate(156.697753 0) scale(0.996264)"/>
      <use xlink:href="#CMR17-66" transform="translate(191.978521 0) scale(0.996264)"/>
      <use xlink:href="#CMR17-61" transform="translate(219.452034 0) scale(0.996264)"/>
      <use xlink:href="#CMR17-63" transform="translate(265.142511 0) scale(0.996264)"/>
      <use xlink:href="#CMR17-65" transform="translate(305.628171 0) scale(0.996264)"/>
     </g>
    </g>
   </g>
  </g>
  <g id="axes_2">
   <g id="patch_8">
    <path d="M 319.165127 219.924759 
L 577.19952 219.924759 
L 577.19952 7.2 
L 319.165127 7.2 
z
" style="fill: #ffffff"/>
   </g>
   <g id="matplotlib.axis_3">
    <g id="xtick_6">
     <g id="line2d_38">
      <path d="M 347.64945 219.924759 
L 347.64945 7.2 
" clip-path="url(#p9cce7d24d3)" style="fill: none; stroke-dasharray: 0.8,1.32; stroke-dashoffset: 0; stroke: #b0b0b0; stroke-width: 0.8"/>
     </g>
     <g id="line2d_39">
      <g>
       <use xlink:href="#mce131f881e" x="347.64945" y="219.924759" style="stroke: #000000; stroke-width: 0.8"/>
      </g>
     </g>
     <g id="text_18">
      <!-- $\mathdefault{−2}$ -->
      <g transform="translate(341.28441 233.843257) scale(0.1 -0.1)">
       <use xlink:href="#CMSY10-0" transform="scale(0.996264)"/>
       <use xlink:href="#CMR17-32" transform="translate(77.487468 0) scale(0.996264)"/>
      </g>
     </g>
    </g>
    <g id="xtick_7">
     <g id="line2d_40">
      <path d="M 397.915873 219.924759 
L 397.915873 7.2 
" clip-path="url(#p9cce7d24d3)" style="fill: none; stroke-dasharray: 0.8,1.32; stroke-dashoffset: 0; stroke: #b0b0b0; stroke-width: 0.8"/>
     </g>
     <g id="line2d_41">
      <g>
       <use xlink:href="#mce131f881e" x="397.915873" y="219.924759" style="stroke: #000000; stroke-width: 0.8"/>
      </g>
     </g>
     <g id="text_19">
      <!-- $\mathdefault{−1}$ -->
      <g transform="translate(391.550833 233.843257) scale(0.1 -0.1)">
       <use xlink:href="#CMSY10-0" transform="scale(0.996264)"/>
       <use xlink:href="#CMR17-31" transform="translate(77.487468 0) scale(0.996264)"/>
      </g>
     </g>
    </g>
    <g id="xtick_8">
     <g id="line2d_42">
      <path d="M 448.182295 219.924759 
L 448.182295 7.2 
" clip-path="url(#p9cce7d24d3)" style="fill: none; stroke-dasharray: 0.8,1.32; stroke-dashoffset: 0; stroke: #b0b0b0; stroke-width: 0.8"/>
     </g>
     <g id="line2d_43">
      <g>
       <use xlink:href="#mce131f881e" x="448.182295" y="219.924759" style="stroke: #000000; stroke-width: 0.8"/>
      </g>
     </g>
     <g id="text_20">
      <!-- $\mathdefault{0}$ -->
      <g transform="translate(445.691628 233.843257) scale(0.1 -0.1)">
       <use xlink:href="#CMR17-30" transform="scale(0.996264)"/>
      </g>
     </g>
    </g>
    <g id="xtick_9">
     <g id="line2d_44">
      <path d="M 498.448718 219.924759 
L 498.448718 7.2 
" clip-path="url(#p9cce7d24d3)" style="fill: none; stroke-dasharray: 0.8,1.32; stroke-dashoffset: 0; stroke: #b0b0b0; stroke-width: 0.8"/>
     </g>
     <g id="line2d_45">
      <g>
       <use xlink:href="#mce131f881e" x="498.448718" y="219.924759" style="stroke: #000000; stroke-width: 0.8"/>
      </g>
     </g>
     <g id="text_21">
      <!-- $\mathdefault{1}$ -->
      <g transform="translate(495.95805 233.843257) scale(0.1 -0.1)">
       <use xlink:href="#CMR17-31" transform="scale(0.996264)"/>
      </g>
     </g>
    </g>
    <g id="xtick_10">
     <g id="line2d_46">
      <path d="M 548.715141 219.924759 
L 548.715141 7.2 
" clip-path="url(#p9cce7d24d3)" style="fill: none; stroke-dasharray: 0.8,1.32; stroke-dashoffset: 0; stroke: #b0b0b0; stroke-width: 0.8"/>
     </g>
     <g id="line2d_47">
      <g>
       <use xlink:href="#mce131f881e" x="548.715141" y="219.924759" style="stroke: #000000; stroke-width: 0.8"/>
      </g>
     </g>
     <g id="text_22">
      <!-- $\mathdefault{2}$ -->
      <g transform="translate(546.224473 233.843257) scale(0.1 -0.1)">
       <use xlink:href="#CMR17-32" transform="scale(0.996264)"/>
      </g>
     </g>
    </g>
    <g id="text_23">
     <!-- $h / U_{\infty} \partial_y u $ -->
     <g transform="translate(422.485383 249.49401) scale(0.13 -0.13)">
      <use xlink:href="#CMMI12-68" transform="scale(0.996264)"/>
      <use xlink:href="#CMMI12-3d" transform="translate(56.154624 0) scale(0.996264)"/>
      <use xlink:href="#CMMI12-55" transform="translate(104.929543 0) scale(0.996264)"/>
      <use xlink:href="#CMSY10-31" transform="translate(171.181662 -14.943915) scale(0.697382)"/>
      <use xlink:href="#CMMI12-40" transform="translate(241.418168 0) scale(0.996264)"/>
      <use xlink:href="#CMMI12-79" transform="translate(292.914297 -14.943915) scale(0.697382)"/>
      <use xlink:href="#CMMI12-75" transform="translate(329.209404 0) scale(0.996264)"/>
     </g>
    </g>
   </g>
   <g id="matplotlib.axis_4">
    <g id="ytick_6">
     <g id="line2d_48">
      <path d="M 319.165127 202.817541 
L 577.19952 202.817541 
" clip-path="url(#p9cce7d24d3)" style="fill: none; stroke-dasharray: 0.8,1.32; stroke-dashoffset: 0; stroke: #b0b0b0; stroke-width: 0.8"/>
     </g>
     <g id="line2d_49">
      <g>
       <use xlink:href="#m7857ce9b62" x="319.165127" y="202.817541" style="stroke: #000000; stroke-width: 0.8"/>
      </g>
     </g>
    </g>
    <g id="ytick_7">
     <g id="line2d_50">
      <path d="M 319.165127 158.189963 
L 577.19952 158.189963 
" clip-path="url(#p9cce7d24d3)" style="fill: none; stroke-dasharray: 0.8,1.32; stroke-dashoffset: 0; stroke: #b0b0b0; stroke-width: 0.8"/>
     </g>
     <g id="line2d_51">
      <g>
       <use xlink:href="#m7857ce9b62" x="319.165127" y="158.189963" style="stroke: #000000; stroke-width: 0.8"/>
      </g>
     </g>
    </g>
    <g id="ytick_8">
     <g id="line2d_52">
      <path d="M 319.165127 113.562386 
L 577.19952 113.562386 
" clip-path="url(#p9cce7d24d3)" style="fill: none; stroke-dasharray: 0.8,1.32; stroke-dashoffset: 0; stroke: #b0b0b0; stroke-width: 0.8"/>
     </g>
     <g id="line2d_53">
      <g>
       <use xlink:href="#m7857ce9b62" x="319.165127" y="113.562386" style="stroke: #000000; stroke-width: 0.8"/>
      </g>
     </g>
    </g>
    <g id="ytick_9">
     <g id="line2d_54">
      <path d="M 319.165127 68.934808 
L 577.19952 68.934808 
" clip-path="url(#p9cce7d24d3)" style="fill: none; stroke-dasharray: 0.8,1.32; stroke-dashoffset: 0; stroke: #b0b0b0; stroke-width: 0.8"/>
     </g>
     <g id="line2d_55">
      <g>
       <use xlink:href="#m7857ce9b62" x="319.165127" y="68.934808" style="stroke: #000000; stroke-width: 0.8"/>
      </g>
     </g>
    </g>
    <g id="ytick_10">
     <g id="line2d_56">
      <path d="M 319.165127 24.30723 
L 577.19952 24.30723 
" clip-path="url(#p9cce7d24d3)" style="fill: none; stroke-dasharray: 0.8,1.32; stroke-dashoffset: 0; stroke: #b0b0b0; stroke-width: 0.8"/>
     </g>
     <g id="line2d_57">
      <g>
       <use xlink:href="#m7857ce9b62" x="319.165127" y="24.30723" style="stroke: #000000; stroke-width: 0.8"/>
      </g>
     </g>
    </g>
   </g>
   <g id="line2d_58">
    <path d="M 319.165127 158.190078 
L 577.19952 158.190078 
" clip-path="url(#p9cce7d24d3)" style="fill: none; stroke-dasharray: 1.5,2.475; stroke-dashoffset: 0; stroke: #2ca02c; stroke-opacity: 0.5; stroke-width: 1.5"/>
   </g>
   <g id="line2d_59">
    <path d="M 319.165127 68.934768 
L 577.19952 68.934768 
" clip-path="url(#p9cce7d24d3)" style="fill: none; stroke-dasharray: 1.5,2.475; stroke-dashoffset: 0; stroke: #2ca02c; stroke-opacity: 0.5; stroke-width: 1.5"/>
   </g>
   <g id="line2d_60">
    <path d="M 548.715141 202.817541 
L 448.182295 158.189963 
L 448.182295 113.562386 
L 448.182295 68.934808 
L 347.64945 24.30723 
" clip-path="url(#p9cce7d24d3)" style="fill: none; stroke: #1f77b4; stroke-opacity: 0.5; stroke-width: 5; stroke-linecap: square"/>
   </g>
   <g id="line2d_61">
    <path d="M 528.608618 202.817541 
L 528.608618 184.96651 
M 478.342392 184.96651 
L 478.342392 158.190078 
M 448.182295 158.190078 
L 448.182295 68.934768 
M 407.96899 68.934768 
L 407.96899 33.232746 
M 357.702784 33.232746 
L 357.702784 24.30723 
" clip-path="url(#p9cce7d24d3)" style="fill: none; stroke: #ff7f0e; stroke-width: 1.5; stroke-linecap: square"/>
    <g clip-path="url(#p9cce7d24d3)">
     <use xlink:href="#m34b26dbd89" x="528.608618" y="202.817541" style="fill: #ff7f0e; stroke: #ff7f0e"/>
     <use xlink:href="#m34b26dbd89" x="528.608618" y="184.96651" style="fill: #ff7f0e; stroke: #ff7f0e"/>
     <use xlink:href="#m34b26dbd89" x="478.342392" y="184.96651" style="fill: #ff7f0e; stroke: #ff7f0e"/>
     <use xlink:href="#m34b26dbd89" x="478.342392" y="158.190078" style="fill: #ff7f0e; stroke: #ff7f0e"/>
     <use xlink:href="#m34b26dbd89" x="448.182295" y="158.190078" style="fill: #ff7f0e; stroke: #ff7f0e"/>
     <use xlink:href="#m34b26dbd89" x="448.182295" y="68.934768" style="fill: #ff7f0e; stroke: #ff7f0e"/>
     <use xlink:href="#m34b26dbd89" x="407.96899" y="68.934768" style="fill: #ff7f0e; stroke: #ff7f0e"/>
     <use xlink:href="#m34b26dbd89" x="407.96899" y="33.232746" style="fill: #ff7f0e; stroke: #ff7f0e"/>
     <use xlink:href="#m34b26dbd89" x="357.702784" y="33.232746" style="fill: #ff7f0e; stroke: #ff7f0e"/>
     <use xlink:href="#m34b26dbd89" x="357.702784" y="24.30723" style="fill: #ff7f0e; stroke: #ff7f0e"/>
    </g>
   </g>
   <g id="line2d_62">
    <g clip-path="url(#p9cce7d24d3)">
     <use xlink:href="#mcd1ec6f87e" x="528.608618" y="193.892025" style="fill: #ff7f0e; stroke: #ff7f0e"/>
     <use xlink:href="#mcd1ec6f87e" x="478.342392" y="171.578294" style="fill: #ff7f0e; stroke: #ff7f0e"/>
     <use xlink:href="#mcd1ec6f87e" x="448.182295" y="113.562423" style="fill: #ff7f0e; stroke: #ff7f0e"/>
     <use xlink:href="#mcd1ec6f87e" x="407.96899" y="51.083757" style="fill: #ff7f0e; stroke: #ff7f0e"/>
     <use xlink:href="#mcd1ec6f87e" x="357.702784" y="28.769988" style="fill: #ff7f0e; stroke: #ff7f0e"/>
    </g>
   </g>
   <g id="line2d_63">
    <g clip-path="url(#p9cce7d24d3)">
     <use xlink:href="#m8497d083a2" x="478.342392" y="158.190078" style="fill: #2ca02c; stroke: #2ca02c"/>
     <use xlink:href="#m8497d083a2" x="448.182295" y="158.190078" style="fill: #2ca02c; stroke: #2ca02c"/>
     <use xlink:href="#m8497d083a2" x="448.182295" y="68.934768" style="fill: #2ca02c; stroke: #2ca02c"/>
     <use xlink:href="#m8497d083a2" x="407.96899" y="68.934768" style="fill: #2ca02c; stroke: #2ca02c"/>
    </g>
   </g>
   <g id="patch_9">
    <path d="M 319.165127 219.924759 
L 319.165127 7.2 
" style="fill: none; stroke: #000000; stroke-width: 0.8; stroke-linejoin: miter; stroke-linecap: square"/>
   </g>
   <g id="patch_10">
    <path d="M 577.19952 219.924759 
L 577.19952 7.2 
" style="fill: none; stroke: #000000; stroke-width: 0.8; stroke-linejoin: miter; stroke-linecap: square"/>
   </g>
   <g id="patch_11">
    <path d="M 319.165127 219.924759 
L 577.19952 219.924759 
" style="fill: none; stroke: #000000; stroke-width: 0.8; stroke-linejoin: miter; stroke-linecap: square"/>
   </g>
   <g id="patch_12">
    <path d="M 319.165127 7.2 
L 577.19952 7.2 
" style="fill: none; stroke: #000000; stroke-width: 0.8; stroke-linejoin: miter; stroke-linecap: square"/>
   </g>
   <g id="legend_2">
    <g id="patch_13">
     <path d="M 326.865127 214.424759 
L 411.380302 214.424759 
Q 413.580302 214.424759 413.580302 212.224759 
L 413.580302 167.332075 
Q 413.580302 165.132075 411.380302 165.132075 
L 326.865127 165.132075 
Q 324.665127 165.132075 324.665127 167.332075 
L 324.665127 212.224759 
Q 324.665127 214.424759 326.865127 214.424759 
z
" style="fill: #ffffff; opacity: 0.8; stroke: #cccccc; stroke-linejoin: miter"/>
    </g>
    <g id="line2d_64">
     <path d="M 329.065127 173.382075 
L 340.065127 173.382075 
L 351.065127 173.382075 
" style="fill: none; stroke: #1f77b4; stroke-opacity: 0.5; stroke-width: 5; stroke-linecap: square"/>
    </g>
    <g id="text_24">
     <!-- Analytical -->
     <g transform="translate(359.865127 177.232075) scale(0.11 -0.11)">
      <use xlink:href="#CMR17-41" transform="scale(0.996264)"/>
      <use xlink:href="#CMR17-6e" transform="translate(69.07243 0) scale(0.996264)"/>
      <use xlink:href="#CMR17-61" transform="translate(119.9678 0) scale(0.996264)"/>
      <use xlink:href="#CMR17-6c" transform="translate(165.658277 0) scale(0.996264)"/>
      <use xlink:href="#CMR17-79" transform="translate(190.529335 0) scale(0.996264)"/>
      <use xlink:href="#CMR17-74" transform="translate(238.822251 0) scale(0.996264)"/>
      <use xlink:href="#CMR17-69" transform="translate(274.103019 0) scale(0.996264)"/>
      <use xlink:href="#CMR17-63" transform="translate(298.974077 0) scale(0.996264)"/>
      <use xlink:href="#CMR17-61" transform="translate(339.459738 0) scale(0.996264)"/>
      <use xlink:href="#CMR17-6c" transform="translate(385.150215 0) scale(0.996264)"/>
     </g>
    </g>
    <g id="line2d_65">
     <path d="M 329.065127 188.712969 
L 340.065127 188.712969 
L 351.065127 188.712969 
" style="fill: none; stroke: #ff7f0e; stroke-width: 1.5; stroke-linecap: square"/>
     <g>
      <use xlink:href="#m34b26dbd89" x="340.065127" y="188.712969" style="fill: #ff7f0e; stroke: #ff7f0e"/>
     </g>
    </g>
    <g id="text_25">
     <!-- Numerical -->
     <g transform="translate(359.865127 192.562969) scale(0.11 -0.11)">
      <use xlink:href="#CMR17-4e" transform="scale(0.996264)"/>
      <use xlink:href="#CMR17-75" transform="translate(69.07243 0) scale(0.996264)"/>
      <use xlink:href="#CMR17-6d" transform="translate(119.9678 0) scale(0.996264)"/>
      <use xlink:href="#CMR17-65" transform="translate(196.887389 0) scale(0.996264)"/>
      <use xlink:href="#CMR17-72" transform="translate(237.37305 0) scale(0.996264)"/>
      <use xlink:href="#CMR17-69" transform="translate(272.653818 0) scale(0.996264)"/>
      <use xlink:href="#CMR17-63" transform="translate(297.524876 0) scale(0.996264)"/>
      <use xlink:href="#CMR17-61" transform="translate(338.010537 0) scale(0.996264)"/>
      <use xlink:href="#CMR17-6c" transform="translate(383.701014 0) scale(0.996264)"/>
     </g>
    </g>
    <g id="line2d_66">
     <g>
      <use xlink:href="#m8497d083a2" x="340.065127" y="204.043864" style="fill: #2ca02c; stroke: #2ca02c"/>
     </g>
    </g>
    <g id="text_26">
     <!-- Interface -->
     <g transform="translate(359.865127 207.893864) scale(0.11 -0.11)">
      <use xlink:href="#CMR17-49" transform="scale(0.996264)"/>
      <use xlink:href="#CMR17-6e" transform="translate(32.638409 0) scale(0.996264)"/>
      <use xlink:href="#CMR17-74" transform="translate(80.931325 0) scale(0.996264)"/>
      <use xlink:href="#CMR17-65" transform="translate(116.212093 0) scale(0.996264)"/>
      <use xlink:href="#CMR17-72" transform="translate(156.697753 0) scale(0.996264)"/>
      <use xlink:href="#CMR17-66" transform="translate(191.978521 0) scale(0.996264)"/>
      <use xlink:href="#CMR17-61" transform="translate(219.452034 0) scale(0.996264)"/>
      <use xlink:href="#CMR17-63" transform="translate(265.142511 0) scale(0.996264)"/>
      <use xlink:href="#CMR17-65" transform="translate(305.628171 0) scale(0.996264)"/>
     </g>
    </g>
   </g>
  </g>
 </g>
 <defs>
  <clipPath id="p2480d63d8f">
   <rect x="51.630255" y="7.2" width="258.034393" height="212.724759"/>
  </clipPath>
  <clipPath id="p9cce7d24d3">
   <rect x="319.165127" y="7.2" width="258.034393" height="212.724759"/>
  </clipPath>
 </defs>
</svg>
