<?xml version="1.0" encoding="UTF-8" standalone="no"?>
<!-- Created with Inkscape (http://www.inkscape.org/) -->

<svg
   xmlns:dc="http://purl.org/dc/elements/1.1/"
   xmlns:cc="http://creativecommons.org/ns#"
   xmlns:rdf="http://www.w3.org/1999/02/22-rdf-syntax-ns#"
   xmlns:svg="http://www.w3.org/2000/svg"
   xmlns="http://www.w3.org/2000/svg"
   version="1.1"
   width="478.27975"
   height="499.034"
   id="svg2">
  <defs
     id="defs4">
    <path
       d="M 163.25267,469.79967 360.62165,307.03434"
       id="path3903-8"
       style="fill:none;stroke:#000000;stroke-width:1px;stroke-linecap:butt;stroke-linejoin:miter;stroke-opacity:1" />
  </defs>
  <metadata
     id="metadata7">
    <rdf:RDF>
      <cc:Work
         rdf:about="">
        <dc:format>image/svg+xml</dc:format>
        <dc:type
           rdf:resource="http://purl.org/dc/dcmitype/StillImage" />
        <dc:title></dc:title>
      </cc:Work>
    </rdf:RDF>
  </metadata>
  <g
     transform="translate(-123.18449,-284.07324)"
     id="layer1">
    <path
       d="m 595.46425,738.75104 -431.71158,0 0,-431.71158"
       id="rect2987"
       style="color:#000000;fill:none;stroke:#000000;stroke-width:2;stroke-linecap:butt;stroke-linejoin:miter;stroke-miterlimit:4;stroke-opacity:1;stroke-dashoffset:0;marker:none;visibility:visible;display:inline;overflow:visible;enable-background:accumulate" />
    <path
       d="M 163.25267,469.79967 360.62165,307.03434"
       id="path3903"
       style="fill:none;stroke:#000000;stroke-width:1px;stroke-linecap:butt;stroke-linejoin:miter;stroke-opacity:1" />
    <path
       d="M 163.25267,469.79967 C 360.1437,306.82268 583.05496,311.00921 583.05496,311.00921"
       id="path3758-4"
       style="fill:none;stroke:#000000;stroke-width:1px;stroke-linecap:butt;stroke-linejoin:miter;stroke-opacity:1" />
    <path
       d="M 163.25267,739.25104 586.44046,390.25851"
       id="path3907"
       style="fill:none;stroke:#000000;stroke-width:1px;stroke-linecap:butt;stroke-linejoin:miter;stroke-opacity:1" />
    <path
       d="M 163.25267,739.25104 C 391.17882,551.30585 589.0096,554.65713 589.0096,554.65713"
       id="path3758-4-5"
       style="fill:none;stroke:#000000;stroke-width:1px;stroke-linecap:butt;stroke-linejoin:miter;stroke-opacity:1" />
    <path
       d="M 163.25267,739.25104 C 359.90122,575.43428 376.82495,427.62476 376.82495,427.62476"
       id="path3758-4-5-1"
       style="fill:none;stroke:#000000;stroke-width:1px;stroke-linecap:butt;stroke-linejoin:miter;stroke-opacity:1" />
    <g
       id="ShearRatePerSecond"
       style="font-size:20px;font-style:normal;font-variant:normal;font-weight:normal;font-stretch:normal;line-height:125%;letter-spacing:0px;word-spacing:0px;fill:#000000;fill-opacity:1;stroke:none;font-family:Sans;-inkscape-font-specification:Sans">
      <path
         d="m 380.53456,756.19318 0,2.30859 c -0.89845,-0.42967 -1.74611,-0.74998 -2.54297,-0.96094 -0.79688,-0.21092 -1.56642,-0.31639 -2.30859,-0.3164 -1.28907,10e-6 -2.28517,0.25001 -2.98829,0.75 -0.69531,0.50001 -1.04297,1.21095 -1.04296,2.13281 -10e-6,0.77345 0.23046,1.35939 0.6914,1.75781 0.46875,0.39064 1.35156,0.70704 2.64844,0.94922 l 1.42969,0.29297 c 1.76561,0.33595 3.06639,0.9297 3.90234,1.78125 0.84374,0.84376 1.26561,1.97657 1.26563,3.39844 -2e-5,1.69531 -0.57033,2.98047 -1.71094,3.85547 -1.13283,0.875 -2.79689,1.31249 -4.99219,1.3125 -0.82813,-10e-6 -1.71094,-0.0938 -2.64844,-0.28125 -0.92969,-0.1875 -1.89453,-0.46485 -2.89453,-0.83204 l 0,-2.4375 c 0.96094,0.53907 1.90234,0.94532 2.82422,1.21875 0.92187,0.27344 1.82812,0.41016 2.71875,0.41016 1.35155,0 2.39452,-0.26562 3.12891,-0.79687 0.73436,-0.53125 1.10155,-1.28906 1.10156,-2.27344 -10e-6,-0.85937 -0.26564,-1.53125 -0.79688,-2.01563 -0.52344,-0.48437 -1.38672,-0.84765 -2.58984,-1.08984 l -1.44141,-0.28125 c -1.76563,-0.35156 -3.04297,-0.90234 -3.83203,-1.65234 -0.78906,-0.74999 -1.18359,-1.79296 -1.18359,-3.12891 0,-1.54686 0.54297,-2.76561 1.62891,-3.65625 1.09374,-0.89061 2.59765,-1.33592 4.51171,-1.33594 0.82031,2e-5 1.65625,0.0742 2.50782,0.22266 0.85155,0.14845 1.72264,0.37111 2.61328,0.66797"
         id="path3044"
         style="font-size:24px;text-align:end;text-anchor:end" />
      <path
         d="m 396.09706,765.19318 0,7.92187 -2.15625,0 0,-7.85156 c -10e-6,-1.24218 -0.2422,-2.17187 -0.72656,-2.78906 -0.48439,-0.61718 -1.21095,-0.92577 -2.17969,-0.92578 -1.16407,1e-5 -2.08204,0.3711 -2.75391,1.11328 -0.67188,0.74219 -1.00781,1.75391 -1.00781,3.03515 l 0,7.41797 -2.16797,0 0,-18.23437 2.16797,0 0,7.14843 c 0.51562,-0.78905 1.12109,-1.37889 1.81641,-1.76953 0.70311,-0.39061 1.51171,-0.58592 2.42578,-0.58593 1.5078,1e-5 2.64842,0.46876 3.42187,1.40625 0.77343,0.92969 1.16015,2.30079 1.16016,4.11328"
         id="path3046"
         style="font-size:24px;text-align:end;text-anchor:end" />
      <path
         d="m 411.64784,766.01349 0,1.05469 -9.91406,0 c 0.0937,1.48438 0.53906,2.61719 1.33593,3.39843 0.80469,0.77344 1.92187,1.16016 3.35157,1.16016 0.82811,0 1.62889,-0.10156 2.40234,-0.30469 0.78124,-0.20312 1.55468,-0.50781 2.32031,-0.91406 l 0,2.03906 c -0.77345,0.32813 -1.56641,0.57813 -2.3789,0.75 -0.81251,0.17188 -1.63673,0.25781 -2.47266,0.25782 -2.09376,-10e-6 -3.75391,-0.60938 -4.98047,-1.82813 -1.21875,-1.21875 -1.82812,-2.86718 -1.82812,-4.94531 0,-2.14843 0.57812,-3.85155 1.73437,-5.10938 1.16406,-1.26561 2.73047,-1.89842 4.69922,-1.89843 1.76562,1e-5 3.16015,0.57032 4.18359,1.71093 1.03124,1.13283 1.54687,2.67579 1.54688,4.62891 m -2.15625,-0.63281 c -0.0156,-1.17968 -0.34767,-2.12109 -0.99609,-2.82422 -0.64064,-0.70312 -1.4922,-1.05468 -2.55469,-1.05469 -1.20313,1e-5 -2.16798,0.33986 -2.89453,1.01953 -0.71876,0.6797 -1.13282,1.63673 -1.24219,2.8711 l 7.6875,-0.0117"
         id="path3048"
         style="font-size:24px;text-align:end;text-anchor:end" />
      <path
         d="m 421.15175,766.5174 c -1.7422,0 -2.94923,0.19922 -3.6211,0.59765 -0.67188,0.39844 -1.00781,1.07813 -1.00781,2.03906 0,0.76563 0.25,1.37501 0.75,1.82813 0.50781,0.44531 1.19531,0.66797 2.0625,0.66797 1.1953,0 2.15233,-0.42188 2.87109,-1.26563 0.72656,-0.85156 1.08984,-1.98046 1.08985,-3.38672 l 0,-0.48046 -2.14453,0 m 4.30078,-0.89063 0,7.48828 -2.15625,0 0,-1.99219 c -0.4922,0.79688 -1.10548,1.38672 -1.83985,1.76954 -0.73438,0.37499 -1.63282,0.56249 -2.69531,0.5625 -1.34375,-10e-6 -2.41406,-0.375 -3.21094,-1.125 -0.78906,-0.75782 -1.18359,-1.76953 -1.18359,-3.03516 0,-1.47656 0.49219,-2.58984 1.47656,-3.33984 0.99219,-0.75 2.46875,-1.125 4.42969,-1.125 l 3.02344,0 0,-0.21094 c -1e-5,-0.99218 -0.32814,-1.7578 -0.98438,-2.29688 -0.64844,-0.54686 -1.56251,-0.8203 -2.74219,-0.82031 -0.75,1e-5 -1.48047,0.0899 -2.1914,0.26953 -0.71094,0.1797 -1.39454,0.44923 -2.05078,0.8086 l 0,-1.99219 c 0.78906,-0.30468 1.55468,-0.53124 2.29687,-0.67969 0.74218,-0.15624 1.46484,-0.23436 2.16797,-0.23437 1.89843,1e-5 3.3164,0.4922 4.25391,1.47656 0.93749,0.98438 1.40623,2.47657 1.40625,4.47656"
         id="path3050"
         style="font-size:24px;text-align:end;text-anchor:end" />
      <path
         d="m 437.51112,762.00568 c -0.2422,-0.14062 -0.50782,-0.24218 -0.79687,-0.30469 -0.28126,-0.0703 -0.59376,-0.10546 -0.9375,-0.10547 -1.21876,1e-5 -2.15626,0.39845 -2.8125,1.19531 -0.64845,0.78907 -0.97266,1.92579 -0.97266,3.41016 l 0,6.91406 -2.16797,0 0,-13.125 2.16797,0 0,2.03906 c 0.45312,-0.79686 1.04296,-1.3867 1.76953,-1.76953 0.72656,-0.39061 1.60937,-0.58592 2.64844,-0.58593 0.14843,1e-5 0.31249,0.0117 0.49219,0.0352 0.17967,0.0156 0.37889,0.043 0.59765,0.082 l 0.0117,2.21485"
         id="path3052"
         style="font-size:24px;text-align:end;text-anchor:end" />
      <path
         d="m 455.04237,762.00568 c -0.2422,-0.14062 -0.50782,-0.24218 -0.79687,-0.30469 -0.28126,-0.0703 -0.59376,-0.10546 -0.9375,-0.10547 -1.21876,1e-5 -2.15626,0.39845 -2.8125,1.19531 -0.64845,0.78907 -0.97266,1.92579 -0.97266,3.41016 l 0,6.91406 -2.16797,0 0,-13.125 2.16797,0 0,2.03906 c 0.45312,-0.79686 1.04296,-1.3867 1.76953,-1.76953 0.72656,-0.39061 1.60937,-0.58592 2.64844,-0.58593 0.14843,1e-5 0.31249,0.0117 0.49219,0.0352 0.17967,0.0156 0.37889,0.043 0.59765,0.082 l 0.0117,2.21485"
         id="path3054"
         style="font-size:24px;text-align:end;text-anchor:end" />
      <path
         d="m 463.29237,766.5174 c -1.74219,0 -2.94922,0.19922 -3.62109,0.59765 -0.67188,0.39844 -1.00782,1.07813 -1.00782,2.03906 0,0.76563 0.25,1.37501 0.75,1.82813 0.50781,0.44531 1.19531,0.66797 2.0625,0.66797 1.19531,0 2.15234,-0.42188 2.8711,-1.26563 0.72655,-0.85156 1.08983,-1.98046 1.08984,-3.38672 l 0,-0.48046 -2.14453,0 m 4.30078,-0.89063 0,7.48828 -2.15625,0 0,-1.99219 c -0.4922,0.79688 -1.10548,1.38672 -1.83984,1.76954 -0.73438,0.37499 -1.63282,0.56249 -2.69531,0.5625 -1.34376,-10e-6 -2.41407,-0.375 -3.21094,-1.125 -0.78907,-0.75782 -1.1836,-1.76953 -1.1836,-3.03516 0,-1.47656 0.49219,-2.58984 1.47657,-3.33984 0.99218,-0.75 2.46874,-1.125 4.42968,-1.125 l 3.02344,0 0,-0.21094 c -10e-6,-0.99218 -0.32813,-1.7578 -0.98437,-2.29688 -0.64845,-0.54686 -1.56251,-0.8203 -2.74219,-0.82031 -0.75001,1e-5 -1.48047,0.0899 -2.19141,0.26953 -0.71094,0.1797 -1.39453,0.44923 -2.05078,0.8086 l 0,-1.99219 c 0.78906,-0.30468 1.55469,-0.53124 2.29688,-0.67969 0.74218,-0.15624 1.46483,-0.23436 2.16797,-0.23437 1.89842,1e-5 3.31639,0.4922 4.2539,1.47656 0.93749,0.98438 1.40624,2.47657 1.40625,4.47656"
         id="path3056"
         style="font-size:24px;text-align:end;text-anchor:end" />
      <path
         d="m 474.17909,756.26349 0,3.72656 4.44141,0 0,1.67578 -4.44141,0 0,7.125 c 0,1.07032 0.14453,1.75782 0.43359,2.0625 0.29687,0.30469 0.89453,0.45704 1.79297,0.45703 l 2.21485,0 0,1.80469 -2.21485,0 c -1.66407,0 -2.8125,-0.30859 -3.44531,-0.92578 -0.63282,-0.625 -0.94922,-1.75781 -0.94922,-3.39844 l 0,-7.125 -1.58203,0 0,-1.67578 1.58203,0 0,-3.72656 2.16797,0"
         id="path3058"
         style="font-size:24px;text-align:end;text-anchor:end" />
      <path
         d="m 492.69471,766.01349 0,1.05469 -9.91406,0 c 0.0937,1.48438 0.53906,2.61719 1.33594,3.39843 0.80468,0.77344 1.92187,1.16016 3.35156,1.16016 0.82812,0 1.6289,-0.10156 2.40235,-0.30469 0.78123,-0.20312 1.55467,-0.50781 2.32031,-0.91406 l 0,2.03906 c -0.77345,0.32813 -1.56642,0.57813 -2.37891,0.75 -0.81251,0.17188 -1.63673,0.25781 -2.47265,0.25782 -2.09376,-10e-6 -3.75391,-0.60938 -4.98047,-1.82813 -1.21875,-1.21875 -1.82813,-2.86718 -1.82813,-4.94531 0,-2.14843 0.57813,-3.85155 1.73438,-5.10938 1.16406,-1.26561 2.73046,-1.89842 4.69922,-1.89843 1.76561,1e-5 3.16014,0.57032 4.18359,1.71093 1.03124,1.13283 1.54686,2.67579 1.54687,4.62891 m -2.15625,-0.63281 c -0.0156,-1.17968 -0.34766,-2.12109 -0.99609,-2.82422 -0.64063,-0.70312 -1.4922,-1.05468 -2.55469,-1.05469 -1.20313,1e-5 -2.16797,0.33986 -2.89453,1.01953 -0.71875,0.6797 -1.13281,1.63673 -1.24219,2.8711 l 7.6875,-0.0117"
         id="path3060"
         style="font-size:24px;text-align:end;text-anchor:end" />
      <path
         d="m 509.05409,754.90411 c -1.04688,1.7969 -1.82422,3.57424 -2.33203,5.33204 -0.50782,1.75782 -0.76172,3.53907 -0.76172,5.34375 0,1.80469 0.2539,3.59375 0.76172,5.36718 0.51562,1.76563 1.29296,3.54297 2.33203,5.33203 l -1.875,0 c -1.17188,-1.83594 -2.05078,-3.64062 -2.63672,-5.41406 -0.57813,-1.77343 -0.86719,-3.53515 -0.86719,-5.28515 0,-1.74218 0.28906,-3.49609 0.86719,-5.26172 0.57812,-1.76561 1.45703,-3.5703 2.63672,-5.41407 l 1.875,0"
         id="path3062"
         style="font-size:24px;text-align:end;text-anchor:end" />
      <path
         d="m 515.21815,762.05255 2.8711,8.10938 4.10156,-10.17188 2.28515,0 -5.30859,13.125 0,4.99219 -2.15625,0 0,-4.99219 -3.44531,-9.79687 c -0.34375,-0.98437 -0.88672,-1.47655 -1.62891,-1.47657 l -0.57422,0 0,-1.85156 0.82032,0 c 1.53906,10e-6 2.55077,0.68751 3.03515,2.0625"
         id="path3064"
         style="font-size:24px;text-align:end;text-anchor:end" />
      <path
         d="m 516.98768,754.88068 2.15625,0 0,2.73047 -2.15625,0 0,-2.73047 m 1.10157,4.79297 0,0"
         id="path3066"
         style="font-size:24px;text-align:end;text-anchor:end" />
      <path
         d="m 527.11268,754.90411 1.875,0 c 1.17187,1.84377 2.04687,3.64846 2.625,5.41407 0.58593,1.76563 0.8789,3.51954 0.87891,5.26172 -10e-6,1.75 -0.29298,3.51172 -0.87891,5.28515 -0.57813,1.77344 -1.45313,3.57812 -2.625,5.41406 l -1.875,0 c 1.03906,-1.78906 1.8125,-3.5664 2.32032,-5.33203 0.51562,-1.77343 0.77343,-3.56249 0.77343,-5.36718 0,-1.80468 -0.25781,-3.58593 -0.77343,-5.34375 -0.50782,-1.7578 -1.28126,-3.53514 -2.32032,-5.33204"
         id="path3069"
         style="font-size:24px;text-align:end;text-anchor:end" />
      <path
         d="m 544.26893,754.88068 4.96875,0 0,1.67578 -2.8125,0 0,18.04687 2.8125,0 0,1.67578 -4.96875,0 0,-21.39843"
         id="path3071"
         style="font-size:24px;text-align:end;text-anchor:end" />
      <path
         d="m 562.21034,760.37677 0,2.03906 c -0.60939,-0.31249 -1.2422,-0.54686 -1.89844,-0.70312 -0.65626,-0.15624 -1.33594,-0.23437 -2.03906,-0.23438 -1.07032,10e-6 -1.87501,0.16408 -2.41406,0.49219 -0.53126,0.32814 -0.79688,0.82032 -0.79688,1.47656 0,0.50001 0.1914,0.89454 0.57422,1.1836 0.38281,0.28125 1.15234,0.55079 2.30859,0.80859 l 0.73829,0.16406 c 1.53124,0.32813 2.61717,0.79298 3.25781,1.39453 0.64843,0.59376 0.97264,1.42579 0.97265,2.4961 -10e-6,1.21875 -0.48438,2.18359 -1.45312,2.89453 -0.96095,0.71094 -2.28516,1.0664 -3.97266,1.06641 -0.70313,-10e-6 -1.4375,-0.0703 -2.20312,-0.21094 -0.75782,-0.13281 -1.5586,-0.33594 -2.40235,-0.60938 l 0,-2.22656 c 0.79688,0.41406 1.58203,0.72656 2.35547,0.9375 0.77344,0.20313 1.53906,0.30469 2.29688,0.30469 1.01562,0 1.79687,-0.17188 2.34375,-0.51563 0.54686,-0.35156 0.8203,-0.84374 0.82031,-1.47656 -10e-6,-0.58593 -0.19923,-1.03515 -0.59766,-1.34766 -0.39063,-0.31249 -1.25391,-0.61327 -2.58984,-0.90234 l -0.75,-0.17578 c -1.33594,-0.28125 -2.30078,-0.71093 -2.89453,-1.28906 -0.59375,-0.58593 -0.89063,-1.38671 -0.89063,-2.40235 0,-1.23436 0.4375,-2.18749 1.3125,-2.85937 0.875,-0.67186 2.11719,-1.0078 3.72657,-1.00781 0.79687,1e-5 1.54686,0.0586 2.25,0.17578 0.70311,0.1172 1.35155,0.29298 1.94531,0.52734"
         id="path3073"
         style="font-size:24px;text-align:end;text-anchor:end" />
      <path
         d="m 564.85879,758.61713 4.10572,0 0,1.24924 -4.10572,0 0,-1.24924"
         id="path3075"
         style="font-size:65.00091553%;baseline-shift:super" />
      <path
         d="m 571.66865,762.22011 2.5137,0 0,-8.6761 -2.73461,0.54845 0,-1.40159 2.71938,-0.54844 1.53869,0 0,10.07768 2.51371,0 0,1.29494 -6.55087,0 0,-1.29494"
         id="path3077"
         style="font-size:65.00091553%;baseline-shift:super" />
      <path
         d="m 586.96759,754.88068 0,21.39843 -4.96875,0 0,-1.67578 2.80078,0 0,-18.04687 -2.80078,0 0,-1.67578 4.96875,0"
         id="path3079"
         style="font-size:24px;text-align:end;text-anchor:end" />
    </g>
    <text
       x="-317.26303"
       y="146.41887"
       transform="matrix(0,-1,1,0,0,0)"
       id="text3836-1"
       xml:space="preserve"
       style="font-size:20px;font-style:normal;font-variant:normal;font-weight:normal;font-stretch:normal;line-height:125%;letter-spacing:0px;word-spacing:0px;fill:#000000;fill-opacity:1;stroke:none;font-family:Sans;-inkscape-font-specification:Sans"><tspan
         x="-317.26303"
         y="146.41887"
         id="tspan3838-5"
         style="font-size:24px;text-align:end;text-anchor:end">Shear stress (τ) [Pa]</tspan></text>
    <g
       id="BinghamPseudoplastic"
       style="font-size:20px;font-style:normal;font-variant:normal;font-weight:normal;font-stretch:normal;line-height:125%;letter-spacing:0px;word-spacing:0px;fill:#000000;fill-opacity:1;stroke:none;font-family:Linux Libertine O;-inkscape-font-specification:Linux Libertine O">
      <path
         d="m 353.89015,343.42226 1.8756,5.00169 2.96261,-1.11095 c 0.99363,-0.3726 1.6516,-0.85227 1.97394,-1.439 0.32612,-0.5951 0.33032,-1.31632 0.0126,-2.16366 -0.32004,-0.85342 -0.79628,-1.391 -1.42872,-1.61276 -0.62864,-0.23011 -1.43978,-0.15887 -2.4334,0.21372 l -2.96262,1.11096 m -2.10532,-5.61433 1.54299,4.11473 2.73401,-1.02523 c 0.9022,-0.3383 1.50988,-0.75739 1.82307,-1.25726 0.31698,-0.50823 0.34518,-1.10982 0.0846,-1.80477 -0.25831,-0.68882 -0.67397,-1.12049 -1.24698,-1.295 -0.56692,-0.17677 -1.30148,-0.096 -2.20367,0.24229 l -2.73401,1.02524 m -2.41626,-0.82525 4.71824,-1.7693 c 1.40815,-0.52803 2.60294,-0.64232 3.58438,-0.34287 0.98144,0.29948 1.67446,0.98871 2.07907,2.06767 0.31316,0.83515 0.36726,1.57275 0.16229,2.21281 -0.20499,0.64007 -0.66257,1.16279 -1.37273,1.56815 0.98143,-0.14552 1.83866,-10e-4 2.5717,0.43321 0.73683,0.42597 1.27898,1.10223 1.62644,2.0288 0.45718,1.21919 0.39583,2.31645 -0.18404,3.29179 -0.57989,0.97534 -1.63486,1.74989 -3.16493,2.32365 l -4.90111,1.83788 -5.11931,-13.65179"
         id="path3027"
         style="font-style:normal;font-variant:normal;font-weight:normal;font-stretch:normal;font-family:Sans;-inkscape-font-specification:Sans" />
      <path
         d="m 363.6552,335.57319 1.69073,-0.60844 3.70355,10.29139 -1.69073,0.60844 -3.70355,-10.29139 m -1.44174,-4.00629 1.69073,-0.60844 0.77047,2.14098 -1.69073,0.60844 -0.77047,-2.14098"
         id="path3029"
         style="font-style:normal;font-variant:normal;font-weight:normal;font-stretch:normal;font-family:Sans;-inkscape-font-specification:Sans" />
      <path
         d="m 379.09724,334.74825 2.15707,6.23921 -1.69824,0.58713 -2.13793,-6.18383 c -0.33824,-0.97832 -0.78214,-1.64459 -1.33167,-1.9988 -0.54956,-0.35419 -1.20582,-0.3994 -1.96879,-0.13563 -0.91681,0.31698 -1.53875,0.85921 -1.86582,1.62668 -0.32707,0.7675 -0.31617,1.65579 0.0327,2.66489 l 2.01986,5.84233 -1.70748,0.59032 -3.57384,-10.33714 1.70747,-0.59032 0.55523,1.60595 c 0.19124,-0.76185 0.50749,-1.39127 0.94875,-1.88827 0.44741,-0.49909 1.03107,-0.87309 1.75098,-1.122 1.18754,-0.41055 2.21352,-0.35195 3.07795,0.1758 0.8623,0.52162 1.54021,1.49618 2.03375,2.92368"
         id="path3031"
         style="font-style:normal;font-variant:normal;font-weight:normal;font-stretch:normal;font-family:Sans;-inkscape-font-specification:Sans" />
      <path
         d="m 389.89222,332.2502 c -0.40393,-1.23784 -0.97382,-2.11335 -1.70968,-2.62655 -0.72968,-0.5152 -1.55561,-0.62234 -2.4778,-0.32143 -0.91601,0.29891 -1.51979,0.87258 -1.81134,1.72101 -0.28536,0.84644 -0.22608,1.88857 0.17784,3.12641 0.4019,1.23167 0.96769,2.1051 1.69736,2.6203 0.73586,0.5132 1.5618,0.62034 2.47781,0.32144 0.92219,-0.30092 1.52597,-0.87459 1.81134,-1.72102 0.29154,-0.84844 0.23636,-1.88849 -0.16553,-3.12016 m 3.023,3.47179 c 0.57759,1.77012 0.61374,3.21358 0.10844,4.33037 -0.5033,1.12299 -1.56573,1.94905 -3.1873,2.47819 -0.60036,0.1959 -1.18183,0.33427 -1.74439,0.41512 -0.56055,0.087 -1.12179,0.11951 -1.6837,0.0974 l -0.54226,-1.66181 c 0.59018,0.10874 1.15096,0.14832 1.68233,0.11875 0.53135,-0.0296 1.05079,-0.12717 1.55832,-0.29278 1.12024,-0.36555 1.86295,-0.93319 2.22813,-1.70294 0.36718,-0.76355 0.3579,-1.7364 -0.0278,-2.91854 l -0.27567,-0.84483 c -0.15286,0.72785 -0.45522,1.33329 -0.90709,1.8163 -0.45189,0.48302 -1.06156,0.84975 -1.82902,1.10017 -1.27499,0.41604 -2.46094,0.26544 -3.55786,-0.4518 -1.09693,-0.71724 -1.90693,-1.87736 -2.43001,-3.48038 -0.52509,-1.6092 -0.55626,-3.02689 -0.0935,-4.25308 0.46276,-1.22617 1.33164,-2.04728 2.60662,-2.46333 0.76747,-0.25041 1.4761,-0.31387 2.12591,-0.19035 0.6498,0.12354 1.25106,0.43411 1.80379,0.93172 l -0.515,-1.57826 1.70823,-0.55741 2.97186,9.10747"
         id="path3033"
         style="font-style:normal;font-variant:normal;font-weight:normal;font-stretch:normal;font-family:Sans;-inkscape-font-specification:Sans" />
      <path
         d="m 403.73406,326.87852 1.9384,6.31057 -1.71767,0.52761 -1.92119,-6.25455 c -0.30396,-0.98952 -0.72437,-1.67085 -1.26123,-2.04399 -0.53688,-0.37312 -1.19117,-0.44116 -1.96287,-0.20413 -0.9273,0.28485 -1.56775,0.80508 -1.92136,1.56069 -0.35361,0.75564 -0.37366,1.64377 -0.0602,2.66441 l 1.8151,5.90915 -1.727,0.53048 -4.46176,-14.5255 1.727,-0.53048 1.74915,5.69445 c 0.21767,-0.75473 0.55566,-1.37275 1.01396,-1.85407 0.46453,-0.4832 1.06086,-0.83664 1.78901,-1.06032 1.20112,-0.36893 2.22443,-0.27462 3.06996,0.28292 0.84359,0.55135 1.48715,1.54894 1.93065,2.99276"
         id="path3035"
         style="font-style:normal;font-variant:normal;font-weight:normal;font-stretch:normal;font-family:Sans;-inkscape-font-specification:Sans" />
      <path
         d="m 412.49339,325.46859 c -1.3949,0.40256 -2.31529,0.84096 -2.76117,1.3152 -0.44588,0.47427 -0.55781,1.09608 -0.33577,1.86546 0.1769,0.61301 0.51786,1.04315 1.02289,1.29042 0.50948,0.23921 1.11138,0.25863 1.8057,0.0583 0.95704,-0.27619 1.62582,-0.8351 2.00634,-1.67673 0.38496,-0.84968 0.41499,-1.83749 0.0901,-2.96343 l -0.11102,-0.38469 -1.71704,0.49551 m 3.23768,-1.70682 1.73023,5.99557 -1.72643,0.49822 -0.46031,-1.59506 c -0.20996,0.75175 -0.5647,1.36572 -1.06422,1.8419 -0.50135,0.46993 -1.17737,0.82765 -2.02806,1.07315 -1.07589,0.31048 -2.01949,0.25754 -2.83081,-0.15883 -0.80687,-0.42443 -1.35652,-1.14332 -1.64896,-2.15665 -0.34117,-1.18222 -0.20432,-2.18731 0.41053,-3.01526 0.62111,-0.82974 1.71669,-1.47116 3.28674,-1.92425 l 2.42074,-0.69859 -0.0487,-0.16889 c -0.22926,-0.7944 -0.66888,-1.33159 -1.31886,-1.61157 -0.64554,-0.28802 -1.44057,-0.29575 -2.3851,-0.0232 -0.6005,0.17331 -1.16459,0.41402 -1.69229,0.72215 -0.5277,0.30814 -1.01275,0.6819 -1.45515,1.12126 l -0.46031,-1.59507 c 0.56137,-0.42626 1.12203,-0.78456 1.68197,-1.07491 0.55813,-0.29658 1.11868,-0.52611 1.68165,-0.68858 1.52,-0.43864 2.76903,-0.3722 3.74711,0.19932 0.97805,0.57155 1.69815,1.65797 2.16027,3.25928"
         id="path3037"
         style="font-style:normal;font-variant:normal;font-weight:normal;font-stretch:normal;font-family:Sans;-inkscape-font-specification:Sans" />
      <path
         d="m 427.13998,317.96368 c 0.22725,-0.89546 0.5937,-1.60895 1.09935,-2.14046 0.50564,-0.53149 1.16749,-0.90572 1.98557,-1.1227 1.10124,-0.29206 2.05342,-0.13036 2.85654,0.48509 0.80142,0.60919 1.39073,1.62487 1.76794,3.04705 l 1.69234,6.38095 -1.74627,0.46314 -1.67732,-6.32432 c -0.26872,-1.01314 -0.64751,-1.71757 -1.13637,-2.11329 -0.48888,-0.3957 -1.10145,-0.49592 -1.8377,-0.30066 -0.89989,0.23868 -1.53171,0.72618 -1.89545,1.46252 -0.36377,0.73635 -0.40879,1.62054 -0.13507,2.65256 l 1.5847,5.97506 -1.74627,0.46315 -1.67732,-6.32432 c -0.27038,-1.01944 -0.64917,-1.72387 -1.13637,-2.1133 -0.48888,-0.3957 -1.10774,-0.49425 -1.85658,-0.29565 -0.8873,0.23534 -1.51199,0.72432 -1.87407,1.46695 -0.36376,0.73635 -0.40961,1.61739 -0.13757,2.64312 l 1.5847,5.97507 -1.74627,0.46314 -2.80388,-10.572 1.74627,-0.46314 0.4356,1.64244 c 0.22454,-0.7533 0.57281,-1.35757 1.0448,-1.8128 0.47199,-0.45521 1.0887,-0.78379 1.85014,-0.98575 0.76773,-0.2036 1.47078,-0.18126 2.10915,0.067 0.64466,0.24664 1.19446,0.70701 1.64941,1.38113"
         id="path3039"
         style="font-style:normal;font-variant:normal;font-weight:normal;font-stretch:normal;font-family:Sans;-inkscape-font-specification:Sans" />
      <path
         d="m 447.75161,320.21781 1.31382,5.65003 -1.75969,0.40919 -3.41948,-14.70532 1.75969,-0.40918 0.37601,1.61701 c 0.22034,-0.71964 0.57413,-1.29653 1.06138,-1.73068 0.49211,-0.44194 1.12816,-0.75361 1.90813,-0.93499 1.29361,-0.30079 2.46252,-0.0312 3.50674,0.80881 1.05055,0.83855 1.77046,2.09486 2.15975,3.76893 0.38928,1.67409 0.29752,3.11914 -0.27527,4.33516 -0.56647,1.21455 -1.49651,1.97223 -2.79011,2.27304 -0.77998,0.18137 -1.48754,0.18548 -2.12268,0.0123 -0.63029,-0.18095 -1.20305,-0.54573 -1.71829,-1.09433 m 5.08959,-5.10374 c -0.29934,-1.28726 -0.80012,-2.23359 -1.50235,-2.83897 -0.69738,-0.61319 -1.50897,-0.81214 -2.43479,-0.59687 -0.92582,0.21529 -1.56954,0.75266 -1.93115,1.61209 -0.35675,0.85164 -0.38546,1.92109 -0.0861,3.20835 0.29934,1.28728 0.79769,2.23751 1.49506,2.8507 0.70223,0.60538 1.51626,0.80043 2.44209,0.58514 0.92581,-0.21528 1.56709,-0.74873 1.92385,-1.60037 0.36161,-0.85944 0.39275,-1.93279 0.0934,-3.22007"
         id="path3041"
         style="font-style:normal;font-variant:normal;font-weight:normal;font-stretch:normal;font-family:Sans;-inkscape-font-specification:Sans" />
      <path
         d="m 463.49464,307.49941 0.35842,1.66099 c -0.55132,-0.14743 -1.108,-0.22711 -1.67003,-0.23905 -0.56204,-0.0119 -1.12943,0.0439 -1.70218,0.16751 -0.87186,0.18814 -1.49851,0.46323 -1.87994,0.82526 -0.37507,0.36068 -0.50493,0.8083 -0.38958,1.34286 0.0879,0.4073 0.31316,0.69503 0.6758,0.8632 0.36127,0.16182 1.0355,0.24611 2.02268,0.25287 l 0.63023,0.004 c 1.305,-0.002 2.2713,0.1859 2.89889,0.5633 0.63257,0.36969 1.04292,0.99046 1.23107,1.86231 0.21422,0.99278 -0.0108,1.86387 -0.6749,2.61327 -0.6578,0.74803 -1.674,1.27035 -3.04861,1.56698 -0.57275,0.12359 -1.18332,0.19541 -1.8317,0.21544 -0.64065,0.025 -1.32866,3.1e-4 -2.06403,-0.0741 l -0.39138,-1.81372 c 0.7219,0.19722 1.41641,0.31376 2.08352,0.34963 0.66573,0.0295 1.30725,-0.0223 1.92455,-0.15555 0.82731,-0.17852 1.43349,-0.45585 1.81855,-0.832 0.38367,-0.3825 0.51989,-0.83149 0.40866,-1.34698 -0.103,-0.47729 -0.34424,-0.80819 -0.72373,-0.99272 -0.37313,-0.18589 -1.12922,-0.27915 -2.26825,-0.27979 l -0.64184,-0.0114 c -1.13767,0.006 -1.99915,-0.17468 -2.58443,-0.54125 -0.58665,-0.37292 -0.96924,-0.97304 -1.14777,-1.80036 -0.21697,-1.00549 -0.0281,-1.85879 0.56653,-2.55991 0.59466,-0.70109 1.54747,-1.19309 2.85844,-1.476 0.64912,-0.14006 1.27036,-0.22416 1.86371,-0.25231 0.59335,-0.0281 1.15246,10e-4 1.67732,0.0876"
         id="path3043"
         style="font-style:normal;font-variant:normal;font-weight:normal;font-stretch:normal;font-family:Sans;-inkscape-font-specification:Sans" />
      <path
         d="m 477.24381,309.51347 0.17179,0.86195 -8.10235,1.61487 c 0.3184,1.19785 0.86685,2.05112 1.64536,2.5598 0.78362,0.50103 1.75964,0.6351 2.92807,0.40222 0.67679,-0.13489 1.31469,-0.34833 1.91371,-0.64032 0.60539,-0.29325 1.18786,-0.66824 1.74741,-1.12497 l 0.33213,1.66644 c -0.57866,0.39415 -1.186,0.72763 -1.82202,1.00044 -0.63603,0.27281 -1.29563,0.4773 -1.9788,0.61346 -1.71114,0.34104 -3.16718,0.11344 -4.36811,-0.6828 -1.19456,-0.79752 -1.96108,-2.04546 -2.29958,-3.74383 -0.34995,-1.75582 -0.15489,-3.24188 0.58519,-4.45819 0.74519,-1.22394 1.92227,-1.99626 3.53125,-2.31695 1.44297,-0.28758 2.67555,-0.0486 3.69777,0.71683 1.02731,0.75783 1.70003,1.93485 2.01818,3.53105 m -1.86529,-0.16595 c -0.20493,-0.96155 -0.62963,-1.67684 -1.27409,-2.14587 -0.6381,-0.47027 -1.39131,-0.61888 -2.25964,-0.44583 -0.98327,0.19599 -1.71644,0.63089 -2.19951,1.3047 -0.4767,0.67257 -0.65921,1.52216 -0.54753,2.54877 l 6.28077,-1.26177"
         id="path3045"
         style="font-style:normal;font-variant:normal;font-weight:normal;font-stretch:normal;font-family:Sans;-inkscape-font-specification:Sans" />
      <path
         d="m 480.4681,310.53399 -1.17986,-6.51512 1.76811,-0.3202 1.16768,6.44786 c 0.18446,1.01859 0.52169,1.74817 1.01169,2.18873 0.48883,0.43417 1.13043,0.57932 1.92481,0.43546 0.95452,-0.17286 1.65214,-0.61347 2.09287,-1.32183 0.44712,-0.70952 0.57555,-1.58959 0.3853,-2.64022 l -1.10503,-6.10192 1.76812,-0.3202 1.94903,10.76245 -1.76812,0.3202 -0.29932,-1.65281 c -0.31089,0.73117 -0.7224,1.30853 -1.23454,1.73209 -0.50691,0.416 -1.13512,0.69187 -1.88464,0.8276 -1.2364,0.22391 -2.24452,0.009 -3.02436,-0.64324 -0.77984,-0.65273 -1.30375,-1.71901 -1.57174,-3.19885 m 3.22227,-7.58029 0,0"
         id="path3047"
         style="font-style:normal;font-variant:normal;font-weight:normal;font-stretch:normal;font-family:Sans;-inkscape-font-specification:Sans" />
      <path
         d="m 499.65901,302.18671 -0.94864,-5.84144 1.77364,-0.28804 2.43579,14.99882 -1.77363,0.28803 -0.26299,-1.61941 c -0.26837,0.70316 -0.66295,1.25862 -1.18374,1.66638 -0.51542,0.4003 -1.17155,0.66515 -1.9684,0.79456 -1.30453,0.21186 -2.4526,-0.13595 -3.44422,-1.04342 -0.9852,-0.9085 -1.61555,-2.21102 -1.89107,-3.90755 -0.27551,-1.69651 -0.0897,-3.13157 0.55733,-4.30517 0.65349,-1.17462 1.6325,-1.86786 2.93702,-2.07972 0.79685,-0.1294 1.5036,-0.0826 2.12025,0.14045 0.62202,0.21559 1.17157,0.61443 1.64866,1.19651 m -5.43178,4.7505 c 0.21185,1.30453 0.64499,2.2862 1.29943,2.94502 0.65982,0.65136 1.45884,0.90085 2.39708,0.74848 0.93822,-0.15237 1.61723,-0.64189 2.03702,-1.46857 0.41874,-0.8331 0.52218,-1.90192 0.31033,-3.20645 -0.21186,-1.30451 -0.64769,-2.28245 -1.3075,-2.93381 -0.66087,-0.65777 -1.46042,-0.91048 -2.39864,-0.75812 -0.93823,0.15238 -1.61672,0.64512 -2.03546,1.47821 -0.41336,0.82565 -0.51412,1.89073 -0.30226,3.19524"
         id="path3049"
         style="font-style:normal;font-variant:normal;font-weight:normal;font-stretch:normal;font-family:Sans;-inkscape-font-specification:Sans" />
      <path
         d="m 509.52483,300.29632 c -0.95375,0.13707 -1.65401,0.61918 -2.10079,1.44634 -0.4477,0.82074 -0.57849,1.87874 -0.39235,3.17402 0.18614,1.2953 0.6068,2.27735 1.26199,2.94616 0.66069,0.66144 1.47113,0.92317 2.43133,0.78519 0.94729,-0.13613 1.64433,-0.61778 2.09112,-1.44496 0.44677,-0.82716 0.57755,-1.88517 0.39235,-3.17402 -0.1843,-1.28239 -0.60726,-2.25753 -1.26887,-2.92543 -0.66256,-0.67432 -1.46749,-0.94342 -2.41478,-0.8073 m -0.2167,-1.50795 c 1.5466,-0.22224 2.83357,0.10585 3.8609,0.98426 1.02732,0.87844 1.66877,2.20695 1.92438,3.98555 0.25466,1.77216 0.0133,3.22755 -0.7242,4.36616 -0.7384,1.13217 -1.8809,1.80938 -3.4275,2.03163 -1.55306,0.22318 -2.84325,-0.10444 -3.87057,-0.98287 -1.02181,-0.88579 -1.66005,-2.21477 -1.91471,-3.98693 -0.2556,-1.7786 -0.0174,-3.23352 0.71453,-4.36477 0.73839,-1.13216 1.88411,-1.80983 3.43717,-2.03303"
         id="path3051"
         style="font-style:normal;font-variant:normal;font-weight:normal;font-stretch:normal;font-family:Sans;-inkscape-font-specification:Sans" />
      <path
         d="m 520.4686,306.91068 0.71646,5.75637 -1.79281,0.22314 -1.86473,-14.98205 1.7928,-0.22315 0.20505,1.64745 c 0.2943,-0.69269 0.70642,-1.22947 1.23635,-1.61035 0.53559,-0.38812 1.20071,-0.63164 1.99536,-0.73056 1.31795,-0.16402 2.45231,0.2262 3.40307,1.17068 0.95721,0.94369 1.54196,2.26833 1.75426,3.97391 0.21227,1.7056 -0.0299,3.13316 -0.7266,4.28269 -0.69024,1.14874 -1.69433,1.80513 -3.01227,1.96916 -0.79466,0.0989 -1.49878,0.0291 -2.11236,-0.20945 -0.60794,-0.2458 -1.13946,-0.66842 -1.59458,-1.26784 m 5.59486,-4.54418 c -0.16325,-1.31149 -0.56244,-2.30494 -1.1976,-2.98037 -0.62951,-0.68268 -1.41588,-0.96532 -2.35912,-0.84793 -0.94324,0.11741 -1.63957,0.5846 -2.08898,1.40156 -0.44375,0.80971 -0.58401,1.87031 -0.42078,3.1818 0.16324,1.3115 0.55961,2.30859 1.18911,2.99127 0.63516,0.67542 1.42436,0.95443 2.36761,0.83703 0.94323,-0.1174 1.63673,-0.58095 2.08049,-1.39066 0.44941,-0.81697 0.59249,-1.8812 0.42927,-3.1927"
         id="path3053"
         style="font-style:normal;font-variant:normal;font-weight:normal;font-stretch:normal;font-family:Sans;-inkscape-font-specification:Sans" />
      <path
         d="m 529.98491,292.12171 1.78612,-0.19631 1.66006,15.10436 -1.78612,0.19631 -1.66006,-15.10436"
         id="path3055"
         style="font-style:normal;font-variant:normal;font-weight:normal;font-stretch:normal;font-family:Sans;-inkscape-font-specification:Sans" />
      <path
         d="m 541.69569,300.6677 c -1.44533,0.13727 -2.43098,0.39764 -2.95698,0.78112 -0.52599,0.38348 -0.75114,0.97382 -0.67542,1.77101 0.0603,0.63516 0.31573,1.121 0.76623,1.45752 0.45637,0.32942 1.04426,0.45997 1.76368,0.39164 0.99163,-0.0942 1.75234,-0.51956 2.28215,-1.27617 0.53565,-0.7637 0.74808,-1.72886 0.6373,-2.89549 l -0.0379,-0.3986 -1.7791,0.16897 m 3.49776,-1.07772 0.58999,6.21228 -1.78883,0.16989 -0.15696,-1.65272 c -0.34554,0.69987 -0.80785,1.23752 -1.38692,1.61297 -0.5797,0.36896 -1.31027,0.59529 -2.19171,0.67901 -1.11478,0.10587 -2.03226,-0.1209 -2.75243,-0.68032 -0.71432,-0.56651 -1.12133,-1.37475 -1.22105,-2.42471 -0.11634,-1.22496 0.20427,-2.18731 0.96182,-2.88707 0.76402,-0.70037 1.95943,-1.12781 3.58623,-1.28231 l 2.50824,-0.23822 -0.0166,-0.17499 c -0.0782,-0.82311 -0.41072,-1.43242 -0.99761,-1.82793 -0.58104,-0.40259 -1.36089,-0.55742 -2.33955,-0.46448 -0.62221,0.0591 -1.22112,0.19119 -1.79676,0.39626 -0.57564,0.20509 -1.12151,0.48256 -1.63762,0.83239 l -0.15696,-1.65272 c 0.6306,-0.31493 1.24791,-0.56321 1.85194,-0.74484 0.6034,-0.18809 1.19676,-0.30984 1.78008,-0.36525 1.57494,-0.14956 2.79006,0.14704 3.64538,0.8898 0.8553,0.74279 1.36174,1.94377 1.51933,3.60296"
         id="path3057"
         style="font-style:normal;font-variant:normal;font-weight:normal;font-stretch:normal;font-family:Sans;-inkscape-font-specification:Sans" />
      <path
         d="m 555.78212,294.37919 0.1265,1.69451 c -0.5258,-0.22188 -1.06622,-0.37739 -1.62126,-0.46654 -0.55506,-0.0891 -1.12474,-0.11187 -1.70905,-0.0683 -0.88945,0.0664 -1.54799,0.25267 -1.9756,0.55879 -0.42112,0.30564 -0.61133,0.73114 -0.57061,1.27649 0.031,0.41552 0.21456,0.7315 0.55062,0.94796 0.33557,0.20999 0.99179,0.38623 1.96865,0.52874 l 0.62371,0.0905 c 1.29285,0.17769 2.22412,0.49661 2.79383,0.95677 0.57569,0.45319 0.89674,1.12451 0.96315,2.01396 0.0756,1.01281 -0.26706,1.84467 -1.028,2.49557 -0.75446,0.65042 -1.83286,1.02798 -3.2352,1.13267 -0.58431,0.0436 -1.19896,0.0307 -1.84393,-0.0386 -0.638,-0.0634 -1.31606,-0.18247 -2.0342,-0.35736 l -0.13814,-1.85032 c 0.68791,0.29466 1.35978,0.50564 2.01561,0.63295 0.65534,0.12082 1.29789,0.15772 1.92765,0.1107 0.844,-0.063 1.48257,-0.25431 1.91572,-0.5739 0.43265,-0.32608 0.62934,-0.75207 0.59009,-1.27795 -0.0364,-0.48692 -0.22978,-0.84787 -0.58027,-1.08285 -0.34402,-0.23546 -1.08008,-0.43185 -2.2082,-0.58919 l -0.63417,-0.0995 c -1.12764,-0.15084 -1.95611,-0.44806 -2.48539,-0.89166 -0.52977,-0.45008 -0.82616,-1.09713 -0.88917,-1.94114 -0.0766,-1.02578 0.22786,-1.84499 0.91332,-2.45763 0.68545,-0.61262 1.6969,-0.96885 3.03432,-1.06871 0.66222,-0.0494 1.28912,-0.0473 1.8807,0.006 0.59158,0.0538 1.14135,0.15962 1.64932,0.31754"
         id="path3059"
         style="font-style:normal;font-variant:normal;font-weight:normal;font-stretch:normal;font-family:Sans;-inkscape-font-specification:Sans" />
      <path
         d="m 561.13424,290.62138 0.17512,3.10053 3.69528,-0.20871 0.0788,1.39426 -3.69529,0.20871 0.33482,5.92805 c 0.0503,0.89051 0.20285,1.45573 0.45767,1.69564 0.26132,0.23956 0.76573,0.33822 1.51324,0.296 l 1.84277,-0.10407 0.0848,1.50151 -1.84276,0.10408 c -1.38452,0.0782 -2.35453,-0.12459 -2.91003,-0.60836 -0.55588,-0.49027 -0.87236,-1.41791 -0.94946,-2.78292 l -0.33481,-5.92805 -1.31626,0.0743 -0.0788,-1.39426 1.31626,-0.0743 -0.17511,-3.10052 1.80376,-0.10188"
         id="path3061"
         style="font-style:normal;font-variant:normal;font-weight:normal;font-stretch:normal;font-family:Sans;-inkscape-font-specification:Sans" />
      <path
         d="m 567.64577,293.40151 1.79534,-0.0741 0.4509,10.9282 -1.79535,0.0741 -0.45089,-10.9282 m -0.17553,-4.25419 1.79534,-0.0741 0.0938,2.27346 -1.79535,0.0741 -0.0938,-2.27345"
         id="path3063"
         style="font-style:normal;font-variant:normal;font-weight:normal;font-stretch:normal;font-family:Sans;-inkscape-font-specification:Sans" />
      <path
         d="m 581.53369,293.45492 0.0263,1.67948 c -0.51214,-0.27196 -1.0264,-0.47227 -1.54279,-0.60093 -0.51,-0.13526 -1.02538,-0.19881 -1.54614,-0.19067 -1.16523,0.0182 -2.06426,0.40345 -2.6971,1.15562 -0.63294,0.74568 -0.93897,1.78576 -0.91808,3.12022 0.0209,1.33448 0.35936,2.36772 1.01543,3.09973 0.65596,0.7255 1.56655,1.07913 2.73178,1.06089 0.52076,-0.008 1.03395,-0.0845 1.53957,-0.22919 0.51201,-0.15126 1.0197,-0.37082 1.52308,-0.65868 l 0.026,1.65995 c -0.49759,0.24219 -1.0156,0.4261 -1.55406,0.55173 -0.53196,0.12553 -1.10064,0.19303 -1.70602,0.2025 -1.64694,0.0258 -2.96347,-0.47126 -3.9496,-1.49111 -0.98613,-1.01985 -1.49295,-2.40857 -1.52046,-4.16617 -0.0279,-1.78363 0.43835,-3.19409 1.3988,-4.23139 0.96696,-1.03739 2.3032,-1.56943 4.00872,-1.59613 0.55331,-0.009 1.09453,0.0415 1.62365,0.15039 0.529,0.10242 1.04265,0.26368 1.54096,0.48376"
         id="path3065"
         style="font-style:normal;font-variant:normal;font-weight:normal;font-stretch:normal;font-family:Sans;-inkscape-font-specification:Sans" />
    </g>
    <g
       id="Dilatant"
       style="font-size:20px;font-style:normal;font-variant:normal;font-weight:normal;font-stretch:normal;text-align:end;line-height:125%;letter-spacing:0px;word-spacing:0px;text-anchor:end;fill:#000000;fill-opacity:1;stroke:none;font-family:Sans;-inkscape-font-specification:Sans">
      <path
         d="m 335.99681,491.66495 10.43416,4.43579 0.93224,-2.19288 c 0.78705,-1.85136 0.94329,-3.38373 0.46872,-4.59712 -0.47202,-1.21935 -1.61274,-2.21365 -3.42217,-2.98289 -1.79744,-0.76411 -3.29596,-0.89182 -4.49556,-0.38311 -1.20304,0.5002 -2.19808,1.67598 -2.98515,3.52733 l -0.93224,2.19288 m -2.26365,1.18119 1.58557,-3.72969 c 1.10546,-2.60029 2.45894,-4.27806 4.06045,-5.03332 1.59553,-0.75777 3.54366,-0.64762 5.84438,0.33045 2.31271,0.98319 3.75149,2.31643 4.31634,3.9997 0.56484,1.6833 0.29709,3.8191 -0.80326,6.40741 l -1.58557,3.72969 -13.41791,-5.70424"
         id="path3068" />
      <path
         d="m 342.80609,480.55468 0.66116,-1.67082 10.1702,4.02441 -0.66115,1.67082 -10.17021,-4.02441 m -3.95911,-1.56664 0.66115,-1.67082 2.11577,0.83722 -0.66116,1.67082 -2.11576,-0.83722"
         id="path3070" />
      <path
         d="m 340.74984,474.11427 0.63762,-1.67994 14.20647,5.39202 -0.63762,1.67994 -14.20647,-5.39202"
         id="path3072" />
      <path
         d="m 353.33155,467.96079 c -0.48268,1.36925 -0.66053,2.37308 -0.53354,3.01151 0.127,0.63844 0.56812,1.09077 1.32334,1.357 0.60173,0.21213 1.14992,0.18448 1.64457,-0.0829 0.49068,-0.27572 0.85614,-0.75436 1.09641,-1.43591 0.33116,-0.93942 0.26475,-1.80846 -0.19924,-2.60712 -0.46797,-0.80695 -1.25456,-1.40524 -2.35977,-1.79486 l -0.37761,-0.13312 -0.59416,1.68545 m 0.49159,-3.62686 5.88526,2.07468 -0.59741,1.69466 -1.56571,-0.55195 c 0.48992,0.60761 0.78358,1.25303 0.88098,1.93625 0.0913,0.68107 -0.0103,1.43912 -0.30467,2.27417 -0.3723,1.05609 -0.96356,1.79338 -1.77378,2.21188 -0.8142,0.41019 -1.71865,0.43996 -2.71334,0.0893 -1.16047,-0.40908 -1.89907,-1.10435 -2.21579,-2.08579 -0.31455,-0.98758 -0.20018,-2.25195 0.34311,-3.79311 l 0.83766,-2.37621 -0.16578,-0.0584 c -0.77978,-0.27488 -1.47242,-0.22912 -2.07791,0.13728 -0.60945,0.35812 -1.0776,1.00075 -1.40445,1.92789 -0.20778,0.58946 -0.33955,1.18845 -0.39531,1.79697 -0.0557,0.60853 -0.0333,1.22046 0.0673,1.83579 l -1.56571,-0.55195 c -0.0208,-0.70455 0.0132,-1.36905 0.10218,-1.99349 0.0828,-0.62659 0.22165,-1.21619 0.41645,-1.7688 0.52598,-1.49203 1.30566,-2.47009 2.33904,-2.93418 1.0334,-0.46407 2.33602,-0.41905 3.90787,0.13505"
         id="path3074" />
      <path
         d="m 347.96742,457.098 2.95744,0.94737 1.12909,-3.52475 1.32991,0.42602 -1.12909,3.52474 5.65448,1.81131 c 0.84941,0.2721 1.43176,0.33218 1.74704,0.18023 0.31728,-0.15814 0.59012,-0.59372 0.81852,-1.30674 l 0.56305,-1.75772 1.43222,0.45879 -0.56306,1.75772 c -0.42303,1.32062 -0.95989,2.15358 -1.61057,2.49888 -0.65688,0.34333 -1.63633,0.30645 -2.93834,-0.11063 l -5.65448,-1.81131 -0.40218,1.25551 -1.32992,-0.42601 0.40219,-1.25552 -2.95744,-0.94736 0.55114,-1.72053"
         id="path3076" />
      <path
         d="m 359.18442,449.51796 c -0.39772,1.39629 -0.5136,2.40915 -0.34766,3.03858 0.16596,0.62944 0.634,1.05384 1.40415,1.27321 0.61361,0.17479 1.15907,0.11353 1.63637,-0.18375 0.47283,-0.30533 0.80822,-0.8055 1.00619,-1.50051 0.27288,-0.95799 0.15324,-1.82131 -0.3589,-2.58998 -0.51663,-0.7767 -1.33846,-1.32557 -2.46551,-1.64661 l -0.38507,-0.10968 -0.48957,1.71874 m 0.26802,-3.6502 6.00152,1.70949 -0.49225,1.72813 -1.59665,-0.45479 c 0.5263,0.57639 0.85903,1.20256 0.99819,1.87851 0.13289,0.67419 0.0781,1.43705 -0.16449,2.28858 -0.30676,1.07696 -0.85165,1.84916 -1.63465,2.3166 -0.78749,0.4594 -1.6884,0.54464 -2.70274,0.25571 -1.1834,-0.33708 -1.96328,-0.9857 -2.33966,-1.94585 -0.37458,-0.9664 -0.33804,-2.2354 0.10961,-3.80701 l 0.69022,-2.42315 -0.16906,-0.0481 c -0.79519,-0.2265 -1.48371,-0.1383 -2.06556,0.26458 -0.58632,0.39486 -1.01414,1.06501 -1.28345,2.01047 -0.17121,0.6011 -0.26596,1.20705 -0.28426,1.81784 -0.0183,0.61081 0.0417,1.22021 0.17989,1.8282 l -1.59665,-0.45479 c -0.064,-0.70195 -0.0708,-1.36728 -0.0204,-1.996 0.0442,-0.6305 0.14657,-1.22751 0.30708,-1.79104 0.4334,-1.5215 1.15157,-2.54557 2.15451,-3.07223 1.00296,-0.52663 2.30589,-0.56166 3.90879,-0.1051"
         id="path3078" />
      <path
         d="m 361.95497,433.96598 6.42952,1.4973 -0.40755,1.75004 -6.37245,-1.48401 c -1.00818,-0.23477 -1.8085,-0.21393 -2.40097,0.0625 -0.59247,0.27648 -0.98025,0.80784 -1.16336,1.59408 -0.22001,0.94478 -0.0923,1.75996 0.38304,2.44554 0.47539,0.68559 1.23302,1.14946 2.2729,1.39162 l 6.02054,1.40206 -0.40976,1.75956 -10.65246,-2.48073 0.40976,-1.75956 1.65494,0.3854 c -0.54295,-0.56762 -0.90724,-1.17052 -1.09287,-1.80868 -0.18413,-0.64449 -0.18982,-1.33768 -0.0171,-2.07955 0.285,-1.22376 0.88103,-2.06091 1.7881,-2.51146 0.90074,-0.452 2.08663,-0.50672 3.55768,-0.16415"
         id="path3080" />
      <path
         d="m 355.45338,428.14946 3.05947,0.53255 0.63471,-3.64634 1.37579,0.23948 -0.63471,3.64634 5.84955,1.01822 c 0.87871,0.15296 1.4638,0.13255 1.75525,-0.0612 0.29257,-0.20019 0.50305,-0.66909 0.63144,-1.4067 l 0.31652,-1.81836 1.48163,0.25791 -0.31652,1.81836 c -0.23781,1.36618 -0.65528,2.26493 -1.25241,2.69626 -0.60355,0.43021 -1.5788,0.52809 -2.92573,0.29363 l -5.84954,-1.01821 -0.22609,1.29883 -1.3758,-0.23948 0.22609,-1.29883 -3.05947,-0.53256 0.30982,-1.77987"
         id="path3082" />
    </g>
    <g
       id="Pseudoplastic"
       style="font-size:20px;font-style:normal;font-variant:normal;font-weight:normal;font-stretch:normal;line-height:125%;letter-spacing:0px;word-spacing:0px;fill:#000000;fill-opacity:1;stroke:none;font-family:Sans;-inkscape-font-specification:Sans">
      <path
         d="m 452.26622,558.41224 1.54402,5.25644 2.37992,-0.69908 c 0.88075,-0.2587 1.49465,-0.6867 1.84169,-1.28398 0.34703,-0.59727 0.3967,-1.31755 0.149,-2.16084 -0.24587,-0.83702 -0.67627,-1.41289 -1.29119,-1.72762 -0.61492,-0.31469 -1.36277,-0.34269 -2.24352,-0.084 l -2.37992,0.69908 m -2.34957,-0.99942 4.27261,-1.25504 c 1.56787,-0.46053 2.85617,-0.45218 3.8649,0.025 1.01313,0.46918 1.72062,1.38775 2.12245,2.75572 0.4055,1.38049 0.30901,2.542 -0.28944,3.48454 -0.59222,0.94073 -1.67227,1.64136 -3.24014,2.10189 l -2.37992,0.69908 1.65136,5.62186 -1.89269,0.55595 -4.10913,-13.98905"
         id="path3085" />
      <path
         d="m 469.21439,556.03643 0.45194,1.63802 c -0.55879,-0.11597 -1.11908,-0.16399 -1.68089,-0.14407 -0.56181,0.0199 -1.12513,0.10784 -1.68996,0.26367 -0.8598,0.23723 -1.46986,0.54738 -1.83017,0.93044 -0.35404,0.38134 -0.45833,0.8356 -0.31288,1.36276 0.11082,0.40167 0.35203,0.67618 0.72362,0.82354 0.36985,0.14109 1.04777,0.18705 2.03375,0.13788 l 0.62944,-0.0318 c 1.3028,-0.0758 2.27818,0.0569 2.92614,0.39818 0.65249,0.33326 1.09736,0.92978 1.33459,1.78958 0.27012,0.97905 0.0949,1.86148 -0.52578,2.6473 -0.61437,0.78409 -1.59935,1.36315 -2.95494,1.73717 -0.56484,0.15584 -1.17036,0.26212 -1.81656,0.31885 -0.63821,0.0613 -1.32651,0.0756 -2.06491,0.0429 l -0.4935,-1.78864 c 0.73192,0.156 1.43191,0.23302 2.09998,0.23104 0.66633,-0.008 1.30388,-0.0964 1.91265,-0.26432 0.81587,-0.2251 1.40536,-0.53633 1.76849,-0.93368 0.36139,-0.40362 0.47196,-0.85961 0.33171,-1.36797 -0.12988,-0.47068 -0.38948,-0.7874 -0.77881,-0.95013 -0.38306,-0.16445 -1.14321,-0.21473 -2.28046,-0.15085 l -0.64145,0.025 c -1.13552,0.0702 -2.00583,-0.0611 -2.61094,-0.39398 -0.60683,-0.33909 -1.0228,-0.91657 -1.24791,-1.73244 -0.27359,-0.99159 -0.13339,-1.85422 0.4206,-2.5879 0.55399,-0.73365 1.4774,-1.27883 2.77024,-1.63555 0.64014,-0.17661 1.25562,-0.29577 1.84643,-0.35748 0.5908,-0.0617 1.15066,-0.0642 1.67958,-0.008"
         id="path3087" />
      <path
         d="m 483.0853,557.27774 0.219,0.85118 -8.00114,2.0586 c 0.38389,1.1785 0.9785,2.00027 1.78384,2.46531 0.81002,0.45711 1.79194,0.53724 2.94577,0.24037 0.66833,-0.17195 1.29351,-0.4202 1.87555,-0.74473 0.58832,-0.32615 1.14925,-0.73265 1.6828,-1.2195 l 0.4234,1.64563 c -0.55608,0.42541 -1.14413,0.79183 -1.76416,1.09925 -0.62004,0.30743 -1.26738,0.54793 -1.94202,0.7215 -1.68976,0.43476 -3.15612,0.28769 -4.39908,-0.44122 -1.23666,-0.73052 -2.07075,-1.93436 -2.50226,-3.61151 -0.44611,-1.73389 -0.33318,-3.22843 0.3388,-4.48365 0.67665,-1.26312 1.80942,-2.09908 3.3983,-2.5079 1.42494,-0.36661 2.66881,-0.1959 3.73163,0.51211 1.06748,0.70012 1.80401,1.8383 2.20957,3.41456 m -1.8716,-0.063 c -0.25757,-0.94881 -0.72102,-1.63963 -1.39033,-2.07245 -0.66302,-0.43442 -1.42327,-0.54133 -2.28076,-0.32072 -0.97098,0.24984 -1.67909,0.72445 -2.12433,1.42385 -0.43893,0.69779 -0.57438,1.55614 -0.40634,2.57505 l 6.20176,-1.60573"
         id="path3089" />
      <path
         d="m 486.38365,558.11659 -1.52313,-6.44352 1.74869,-0.41335 1.5074,6.37699 c 0.23813,1.0074 0.61351,1.7181 1.12615,2.13211 0.51113,0.40767 1.15952,0.51866 1.94516,0.33294 0.94403,-0.22315 1.61735,-0.70007 2.01996,-1.43078 0.40893,-0.73219 0.49059,-1.61783 0.24498,-2.65691 l -1.42653,-6.03486 1.74868,-0.41336 2.51609,10.64417 -1.74869,0.41335 -0.3864,-1.63463 c -0.27174,0.74659 -0.65211,1.34493 -1.14111,1.79501 -0.48417,0.44226 -1.0969,0.75099 -1.83818,0.92622 -1.22282,0.28905 -2.24087,0.12831 -3.05417,-0.48222 -0.8133,-0.61053 -1.39294,-1.64758 -1.7389,-3.11116 m 2.81644,-7.74025 0,0"
         id="path3091" />
      <path
         d="m 505.15258,548.77837 -1.24142,-5.78629 1.75689,-0.37694 3.18755,14.85722 -1.75689,0.37694 -0.34416,-1.60412 c -0.23264,0.71577 -0.59876,1.29038 -1.09837,1.72384 -0.49462,0.42573 -1.13659,0.72327 -1.92592,0.89261 -1.29221,0.27724 -2.45633,-0.0123 -3.49237,-0.86876 -1.02967,-0.85777 -1.72477,-2.12691 -2.08532,-3.80742 -0.36055,-1.68051 -0.24723,-3.12309 0.33995,-4.32777 0.59355,-1.20602 1.53643,-1.94765 2.82864,-2.2249 0.78933,-0.16933 1.49753,-0.15814 2.12463,0.0336 0.63208,0.18401 1.20101,0.55468 1.70679,1.11201 m -5.18583,5.01785 c 0.27724,1.29221 0.75924,2.25084 1.44601,2.87589 0.69176,0.61732 1.50232,0.82629 2.4317,0.62689 0.92937,-0.19939 1.58288,-0.72246 1.96053,-1.56923 0.37628,-0.85311 0.42581,-1.92578 0.14858,-3.218 -0.27725,-1.2922 -0.76175,-2.24696 -1.45351,-2.86429 -0.69313,-0.62367 -1.50438,-0.83582 -2.43375,-0.63644 -0.92937,0.1994 -1.5822,0.72566 -1.95848,1.57878 -0.37129,0.8454 -0.41831,1.9142 -0.14108,3.2064"
         id="path3093" />
      <path
         d="m 514.96548,546.40194 c -0.9462,0.18199 -1.62289,0.69667 -2.03007,1.54402 -0.40842,0.84098 -0.48905,1.90398 -0.2419,3.18902 0.24715,1.28504 0.71376,2.24611 1.39982,2.88321 0.69123,0.62948 1.51313,0.85261 2.46573,0.6694 0.9398,-0.18075 1.6133,-0.69481 2.02049,-1.54218 0.40717,-0.84736 0.4878,-1.91036 0.24189,-3.18902 -0.2447,-1.27224 -0.71328,-2.22631 -1.40572,-2.86218 -0.69369,-0.64226 -1.51044,-0.87301 -2.45024,-0.69227 m -0.28773,-1.49602 c 1.53438,-0.29509 2.83541,-0.0282 3.90311,0.80067 1.06769,0.8289 1.77122,2.12561 2.1106,3.89014 0.33814,1.75815 0.1658,3.22332 -0.51702,4.39551 -0.68406,1.1658 -1.79328,1.89626 -3.32765,2.19136 -1.54078,0.29634 -2.84501,0.0301 -3.9127,-0.79882 -1.06253,-0.83651 -1.76287,-2.13384 -2.10101,-3.89198 -0.33937,-1.76453 -0.17023,-3.22909 0.50743,-4.39367 0.68406,-1.16579 1.79647,-1.89686 3.33724,-2.19321"
         id="path3095" />
      <path
         d="m 526.24052,552.49836 0.96696,5.71962 -1.78136,0.30115 -2.5167,-14.88641 1.78136,-0.30116 0.27674,1.63693 c 0.26379,-0.70487 0.6521,-1.25912 1.16491,-1.66276 0.51814,-0.41113 1.17199,-0.68344 1.96158,-0.81693 1.30953,-0.22138 2.45984,0.11897 3.45091,1.02106 0.99747,0.90103 1.63947,2.19889 1.92599,3.89358 0.28649,1.69471 0.10681,3.13148 -0.53904,4.31032 -0.63945,1.17776 -1.61394,1.87734 -2.92348,2.09873 -0.78958,0.13348 -1.49608,0.0945 -2.11948,-0.11708 -0.61808,-0.21905 -1.16755,-0.61806 -1.64839,-1.19705 m 5.39125,-4.78399 c -0.22032,-1.30312 -0.66248,-2.27821 -1.3265,-2.92528 -0.6587,-0.65455 -1.45666,-0.90261 -2.39387,-0.74418 -0.93723,0.15846 -1.61251,0.65559 -2.02584,1.49138 -0.408,0.82831 -0.50185,1.89402 -0.28154,3.19713 0.2203,1.30313 0.6598,2.28197 1.3185,2.93654 0.66402,0.64706 1.46465,0.89137 2.40187,0.73292 0.93722,-0.15845 1.60983,-0.65182 2.01784,-1.48012 0.41332,-0.8358 0.50984,-1.90526 0.28954,-3.20839"
         id="path3097" />
      <path
         d="m 535.17716,537.30758 1.77668,-0.26864 2.27169,15.02455 -1.77668,0.26863 -2.27169,-15.02454"
         id="path3099" />
      <path
         d="m 547.26078,545.384 c -1.43923,0.19086 -2.41453,0.48766 -2.92592,0.89041 -0.51139,0.40276 -0.71445,1.00105 -0.60918,1.79487 0.0839,0.63249 0.35715,1.10851 0.81984,1.42806 0.46829,0.31225 1.06062,0.42087 1.77701,0.32587 0.98745,-0.13094 1.73183,-0.58429 2.23317,-1.36005 0.50692,-0.78307 0.68336,-1.75546 0.52932,-2.91717 l -0.0526,-0.39691 -1.7716,0.23492 m 3.45532,-1.20688 0.82032,6.18608 -1.78128,0.23621 -0.21824,-1.64575 c -0.31931,0.71222 -0.76133,1.26667 -1.32605,1.66336 -0.5656,0.39024 -1.28726,0.64356 -2.16498,0.75995 -1.11008,0.1472 -2.03535,-0.0453 -2.7758,-0.57762 -0.73487,-0.53958 -1.17162,-1.33215 -1.31027,-2.37768 -0.16175,-1.21979 0.12289,-2.19339 0.85393,-2.92081 0.73748,-0.72826 1.91619,-1.1998 3.53613,-1.41462 l 2.49766,-0.33121 -0.0231,-0.17426 c -0.1087,-0.81963 -0.46364,-1.41617 -1.06481,-1.78961 -0.59559,-0.38073 -1.38066,-0.50649 -2.35519,-0.37726 -0.61958,0.0822 -1.21318,0.23641 -1.7808,0.46272 -0.56762,0.22633 -1.10282,0.52387 -1.60557,0.89264 l -0.21824,-1.64575 c 0.61846,-0.33814 1.22613,-0.60917 1.82299,-0.81311 0.596,-0.21037 1.18443,-0.35408 1.76529,-0.43111 1.56829,-0.20796 2.7936,0.0433 3.67591,0.75378 0.8823,0.71051 1.433,1.89186 1.6521,3.54405"
         id="path3101" />
      <path
         d="m 561.2083,538.61171 0.18069,1.68959 c -0.53263,-0.20493 -1.07775,-0.34306 -1.63537,-0.41439 -0.55762,-0.0713 -1.12774,-0.0758 -1.71035,-0.0135 -0.88687,0.0949 -1.5391,0.30211 -1.9567,0.62175 -0.41112,0.31898 -0.5876,0.75035 -0.52945,1.29411 0.0443,0.41431 0.23787,0.72426 0.58069,0.92985 0.34212,0.19913 1.00365,0.35428 1.98457,0.46543 l 0.62629,0.0705 c 1.29788,0.1362 2.23888,0.42515 2.82303,0.86683 0.5899,0.43453 0.93228,1.09523 1.02714,1.98209 0.10799,1.00987 -0.20787,1.85227 -0.94757,2.5272 -0.73325,0.67425 -1.79901,1.08614 -3.19728,1.23568 -0.58262,0.0623 -1.19736,0.0691 -1.84422,0.0204 -0.6397,-0.0429 -1.32123,-0.14024 -2.0446,-0.29205 l -0.19731,-1.84495 c 0.69699,0.27249 1.37527,0.46185 2.03484,0.56809 0.65887,0.0998 1.30227,0.11609 1.93021,0.0489 0.84155,-0.09 1.47367,-0.30164 1.89636,-0.63494 0.42198,-0.33977 0.60494,-0.77183 0.54887,-1.29618 -0.0519,-0.48551 -0.25681,-0.84009 -0.61465,-1.06372 -0.35137,-0.22432 -1.09335,-0.39705 -2.22592,-0.51819 l -0.63704,-0.0792 c -1.13189,-0.11466 -1.96945,-0.3852 -2.51266,-0.81163 -0.54391,-0.43289 -0.86087,-1.07012 -0.95086,-1.91168 -0.10939,-1.02281 0.16867,-1.85134 0.83416,-2.48561 0.66549,-0.63425 1.66501,-1.02269 2.99855,-1.16531 0.6603,-0.0706 1.28694,-0.0885 1.87995,-0.0537 0.59299,0.0348 1.14587,0.12299 1.65863,0.26457"
         id="path3103" />
      <path
         d="m 566.54288,534.69613 0.2587,3.09468 3.68831,-0.30833 0.11633,1.39163 -3.6883,0.30833 0.49462,5.91686 c 0.0743,0.88883 0.24205,1.44972 0.50326,1.68267 0.26768,0.23242 0.77457,0.31744 1.52067,0.25507 l 1.83929,-0.15376 0.12528,1.49868 -1.83929,0.15376 c -1.3819,0.11552 -2.35703,-0.061 -2.92538,-0.52963 -0.5689,-0.47509 -0.9103,-1.39385 -1.02419,-2.75629 l -0.49462,-5.91686 -1.31378,0.10983 -0.11634,-1.39163 1.31378,-0.10983 -0.2587,-3.09468 1.80036,-0.1505"
         id="path3105" />
      <path
         d="m 573.20439,537.30501 1.79322,-0.11443 0.69652,10.9153 -1.79323,0.11443 -0.69651,-10.9153 m -0.27115,-4.24917 1.79323,-0.11443 0.1449,2.27077 -1.79323,0.11443 -0.1449,-2.27077"
         id="path3107" />
      <path
         d="m 587.25146,537.10552 0.05,1.67894 c -0.51594,-0.26469 -1.03298,-0.45771 -1.55114,-0.57907 -0.51186,-0.12803 -1.02808,-0.1843 -1.54868,-0.1688 -1.16485,0.0347 -2.05835,0.43259 -2.68049,1.19363 -0.62234,0.75455 -0.91364,1.79884 -0.8739,3.13288 0.0397,1.33405 0.39279,2.3624 1.05914,3.08506 0.66614,0.71616 1.58164,1.05689 2.7465,1.02219 0.52059,-0.0155 1.03265,-0.0992 1.53617,-0.25093 0.50982,-0.15848 1.01436,-0.3852 1.51362,-0.68014 l 0.0494,1.65942 c -0.49411,0.2492 -1.00948,0.44041 -1.5461,0.57363 -0.53014,0.13304 -1.0978,0.20857 -1.703,0.2266 -1.64641,0.049 -2.96983,-0.42934 -3.97027,-1.43515 -1.00045,-1.00581 -1.52684,-2.38723 -1.57919,-4.14427 -0.0531,-1.78305 0.39317,-3.19996 1.33887,-4.25073 0.95219,-1.05095 2.28078,-1.60182 3.98576,-1.65263 0.55313,-0.0165 1.095,0.026 1.6256,0.12744 0.5304,0.0949 1.04628,0.24891 1.54765,0.46193"
         id="path3109" />
    </g>
    <text
       x="76.876343"
       y="458.72821"
       transform="matrix(0.76728564,-0.6413055,0.6413055,0.76728564,0,0)"
       id="text3038"
       xml:space="preserve"
       style="font-size:20px;font-style:normal;font-variant:normal;font-weight:normal;font-stretch:normal;line-height:125%;letter-spacing:0px;word-spacing:0px;fill:#000000;fill-opacity:1;stroke:none;font-family:sans;-inkscape-font-specification:sans"><tspan
         x="76.876343"
         y="458.72821"
         id="tspan3040"
         style="text-align:end;text-anchor:end">Bingham plastic</tspan></text>
    <text
       x="193.17334"
       y="669.12097"
       transform="matrix(0.76728564,-0.6413055,0.6413055,0.76728564,0,0)"
       id="text3038-1"
       xml:space="preserve"
       style="font-size:20px;font-style:normal;font-variant:normal;font-weight:normal;font-stretch:normal;line-height:125%;letter-spacing:0px;word-spacing:0px;fill:#000000;fill-opacity:1;stroke:none;font-family:sans;-inkscape-font-specification:sans"><tspan
         x="193.17334"
         y="669.12097"
         id="tspan3040-5"
         style="text-align:end;text-anchor:end">Newtonian</tspan></text>
  </g>
</svg>
