<?xml version="1.0" encoding="utf-8" standalone="no"?>
<!DOCTYPE svg PUBLIC "-//W3C//DTD SVG 1.1//EN"
  "http://www.w3.org/Graphics/SVG/1.1/DTD/svg11.dtd">
<svg xmlns:xlink="http://www.w3.org/1999/xlink" width="568.8pt" height="262.8pt" viewBox="0 0 568.8 262.8" xmlns="http://www.w3.org/2000/svg" version="1.1">
 <metadata>
  <rdf:RDF xmlns:dc="http://purl.org/dc/elements/1.1/" xmlns:cc="http://creativecommons.org/ns#" xmlns:rdf="http://www.w3.org/1999/02/22-rdf-syntax-ns#">
   <cc:Work>
    <dc:type rdf:resource="http://purl.org/dc/dcmitype/StillImage"/>
    <dc:date>2023-05-27T00:36:11.392930</dc:date>
    <dc:format>image/svg+xml</dc:format>
    <dc:creator>
     <cc:Agent>
      <dc:title>Matplotlib v3.7.1, https://matplotlib.org/</dc:title>
     </cc:Agent>
    </dc:creator>
   </cc:Work>
  </rdf:RDF>
 </metadata>
 <defs>
  <style type="text/css">*{stroke-linejoin: round; stroke-linecap: butt}</style>
 </defs>
 <g id="figure_1">
  <g id="patch_1">
   <path d="M 0 262.8 
L 568.8 262.8 
L 568.8 0 
L 0 0 
z
" style="fill: #ffffff"/>
  </g>
  <g id="axes_1">
   <g id="patch_2">
    <path d="M 56.61159 222.325239 
L 301.731515 222.325239 
L 301.731515 24.40797 
L 56.61159 24.40797 
z
" style="fill: #ffffff"/>
   </g>
   <g id="PolyCollection_1">
    <defs>
     <path id="m849ed0c3ea" d="M 56.61159 -184.414593 
L 56.61159 -94.452198 
L 301.731515 -94.452198 
L 301.731515 -184.414593 
L 301.731515 -184.414593 
L 56.61159 -184.414593 
z
" style="stroke: #808080; stroke-opacity: 0.25"/>
    </defs>
    <g clip-path="url(#pec44b10bbb)">
     <use xlink:href="#m849ed0c3ea" x="0" y="262.8" style="fill: #808080; fill-opacity: 0.25; stroke: #808080; stroke-opacity: 0.25"/>
    </g>
   </g>
   <g id="matplotlib.axis_1">
    <g id="xtick_1">
     <g id="line2d_1">
      <path d="M 67.753405 222.325239 
L 67.753405 24.40797 
" clip-path="url(#pec44b10bbb)" style="fill: none; stroke-dasharray: 0.8,1.32; stroke-dashoffset: 0; stroke: #b0b0b0; stroke-width: 0.8"/>
     </g>
     <g id="line2d_2">
      <defs>
       <path id="mcb25ada970" d="M 0 0 
L 0 3.5 
" style="stroke: #000000; stroke-width: 0.8"/>
      </defs>
      <g>
       <use xlink:href="#mcb25ada970" x="67.753405" y="222.325239" style="stroke: #000000; stroke-width: 0.8"/>
      </g>
     </g>
     <g id="text_1">
      <!-- $\mathdefault{0.00}$ -->
      <g transform="translate(58.897698 236.243737) scale(0.1 -0.1)">
       <defs>
        <path id="CMR17-30" d="M 2688 2025 
C 2688 2416 2682 3080 2413 3591 
C 2176 4039 1798 4198 1466 4198 
C 1158 4198 768 4058 525 3597 
C 269 3118 243 2524 243 2025 
C 243 1661 250 1106 448 619 
C 723 -39 1216 -128 1466 -128 
C 1760 -128 2208 -7 2470 600 
C 2662 1042 2688 1559 2688 2025 
z
M 1466 -26 
C 1056 -26 813 325 723 812 
C 653 1188 653 1738 653 2096 
C 653 2588 653 2997 736 3387 
C 858 3929 1216 4096 1466 4096 
C 1728 4096 2067 3923 2189 3400 
C 2272 3036 2278 2607 2278 2096 
C 2278 1680 2278 1169 2202 792 
C 2067 95 1690 -26 1466 -26 
z
" transform="scale(0.015625)"/>
        <path id="CMMI12-3a" d="M 1178 307 
C 1178 492 1024 619 870 619 
C 685 619 557 466 557 313 
C 557 128 710 0 864 0 
C 1050 0 1178 153 1178 307 
z
" transform="scale(0.015625)"/>
       </defs>
       <use xlink:href="#CMR17-30" transform="scale(0.996264)"/>
       <use xlink:href="#CMMI12-3a" transform="translate(45.690477 0) scale(0.996264)"/>
       <use xlink:href="#CMR17-30" transform="translate(72.787654 0) scale(0.996264)"/>
       <use xlink:href="#CMR17-30" transform="translate(118.478131 0) scale(0.996264)"/>
      </g>
     </g>
    </g>
    <g id="xtick_2">
     <g id="line2d_3">
      <path d="M 105.546035 222.325239 
L 105.546035 24.40797 
" clip-path="url(#pec44b10bbb)" style="fill: none; stroke-dasharray: 0.8,1.32; stroke-dashoffset: 0; stroke: #b0b0b0; stroke-width: 0.8"/>
     </g>
     <g id="line2d_4">
      <g>
       <use xlink:href="#mcb25ada970" x="105.546035" y="222.325239" style="stroke: #000000; stroke-width: 0.8"/>
      </g>
     </g>
     <g id="text_2">
      <!-- $\mathdefault{0.05}$ -->
      <g transform="translate(96.690327 236.243737) scale(0.1 -0.1)">
       <defs>
        <path id="CMR17-35" d="M 730 3692 
C 794 3666 1056 3584 1325 3584 
C 1920 3584 2246 3911 2432 4100 
C 2432 4157 2432 4192 2394 4192 
C 2387 4192 2374 4192 2323 4163 
C 2099 4058 1837 3973 1517 3973 
C 1325 3973 1037 3999 723 4139 
C 653 4171 640 4171 634 4171 
C 602 4171 595 4164 595 4037 
L 595 2203 
C 595 2089 595 2057 659 2057 
C 691 2057 704 2070 736 2114 
C 941 2401 1222 2522 1542 2522 
C 1766 2522 2246 2382 2246 1289 
C 2246 1085 2246 715 2054 421 
C 1894 159 1645 25 1370 25 
C 947 25 518 320 403 814 
C 429 807 480 795 506 795 
C 589 795 749 840 749 1038 
C 749 1210 627 1280 506 1280 
C 358 1280 262 1190 262 1011 
C 262 454 704 -128 1382 -128 
C 2042 -128 2669 440 2669 1264 
C 2669 2030 2170 2624 1549 2624 
C 1222 2624 947 2503 730 2274 
L 730 3692 
z
" transform="scale(0.015625)"/>
       </defs>
       <use xlink:href="#CMR17-30" transform="scale(0.996264)"/>
       <use xlink:href="#CMMI12-3a" transform="translate(45.690477 0) scale(0.996264)"/>
       <use xlink:href="#CMR17-30" transform="translate(72.787654 0) scale(0.996264)"/>
       <use xlink:href="#CMR17-35" transform="translate(118.478131 0) scale(0.996264)"/>
      </g>
     </g>
    </g>
    <g id="xtick_3">
     <g id="line2d_5">
      <path d="M 143.338664 222.325239 
L 143.338664 24.40797 
" clip-path="url(#pec44b10bbb)" style="fill: none; stroke-dasharray: 0.8,1.32; stroke-dashoffset: 0; stroke: #b0b0b0; stroke-width: 0.8"/>
     </g>
     <g id="line2d_6">
      <g>
       <use xlink:href="#mcb25ada970" x="143.338664" y="222.325239" style="stroke: #000000; stroke-width: 0.8"/>
      </g>
     </g>
     <g id="text_3">
      <!-- $\mathdefault{0.10}$ -->
      <g transform="translate(134.482957 236.243737) scale(0.1 -0.1)">
       <defs>
        <path id="CMR17-31" d="M 1702 4058 
C 1702 4192 1696 4192 1606 4192 
C 1357 3916 979 3827 621 3827 
C 602 3827 570 3827 563 3808 
C 557 3795 557 3782 557 3648 
C 755 3648 1088 3686 1344 3839 
L 1344 461 
C 1344 236 1331 160 781 160 
L 589 160 
L 589 0 
C 896 0 1216 0 1523 0 
C 1830 0 2150 0 2458 0 
L 2458 160 
L 2266 160 
C 1715 160 1702 230 1702 458 
L 1702 4058 
z
" transform="scale(0.015625)"/>
       </defs>
       <use xlink:href="#CMR17-30" transform="scale(0.996264)"/>
       <use xlink:href="#CMMI12-3a" transform="translate(45.690477 0) scale(0.996264)"/>
       <use xlink:href="#CMR17-31" transform="translate(72.787654 0) scale(0.996264)"/>
       <use xlink:href="#CMR17-30" transform="translate(118.478131 0) scale(0.996264)"/>
      </g>
     </g>
    </g>
    <g id="xtick_4">
     <g id="line2d_7">
      <path d="M 181.131294 222.325239 
L 181.131294 24.40797 
" clip-path="url(#pec44b10bbb)" style="fill: none; stroke-dasharray: 0.8,1.32; stroke-dashoffset: 0; stroke: #b0b0b0; stroke-width: 0.8"/>
     </g>
     <g id="line2d_8">
      <g>
       <use xlink:href="#mcb25ada970" x="181.131294" y="222.325239" style="stroke: #000000; stroke-width: 0.8"/>
      </g>
     </g>
     <g id="text_4">
      <!-- $\mathdefault{0.15}$ -->
      <g transform="translate(172.275587 236.243737) scale(0.1 -0.1)">
       <use xlink:href="#CMR17-30" transform="scale(0.996264)"/>
       <use xlink:href="#CMMI12-3a" transform="translate(45.690477 0) scale(0.996264)"/>
       <use xlink:href="#CMR17-31" transform="translate(72.787654 0) scale(0.996264)"/>
       <use xlink:href="#CMR17-35" transform="translate(118.478131 0) scale(0.996264)"/>
      </g>
     </g>
    </g>
    <g id="xtick_5">
     <g id="line2d_9">
      <path d="M 218.923924 222.325239 
L 218.923924 24.40797 
" clip-path="url(#pec44b10bbb)" style="fill: none; stroke-dasharray: 0.8,1.32; stroke-dashoffset: 0; stroke: #b0b0b0; stroke-width: 0.8"/>
     </g>
     <g id="line2d_10">
      <g>
       <use xlink:href="#mcb25ada970" x="218.923924" y="222.325239" style="stroke: #000000; stroke-width: 0.8"/>
      </g>
     </g>
     <g id="text_5">
      <!-- $\mathdefault{0.20}$ -->
      <g transform="translate(210.068217 236.243737) scale(0.1 -0.1)">
       <defs>
        <path id="CMR17-32" d="M 2669 989 
L 2554 989 
C 2490 536 2438 459 2413 420 
C 2381 369 1920 369 1830 369 
L 602 369 
C 832 619 1280 1072 1824 1597 
C 2214 1967 2669 2402 2669 3035 
C 2669 3790 2067 4224 1395 4224 
C 691 4224 262 3604 262 3030 
C 262 2780 448 2748 525 2748 
C 589 2748 781 2787 781 3010 
C 781 3207 614 3264 525 3264 
C 486 3264 448 3258 422 3245 
C 544 3790 915 4058 1306 4058 
C 1862 4058 2227 3617 2227 3035 
C 2227 2479 1901 2000 1536 1584 
L 262 146 
L 262 0 
L 2515 0 
L 2669 989 
z
" transform="scale(0.015625)"/>
       </defs>
       <use xlink:href="#CMR17-30" transform="scale(0.996264)"/>
       <use xlink:href="#CMMI12-3a" transform="translate(45.690477 0) scale(0.996264)"/>
       <use xlink:href="#CMR17-32" transform="translate(72.787654 0) scale(0.996264)"/>
       <use xlink:href="#CMR17-30" transform="translate(118.478131 0) scale(0.996264)"/>
      </g>
     </g>
    </g>
    <g id="xtick_6">
     <g id="line2d_11">
      <path d="M 256.716553 222.325239 
L 256.716553 24.40797 
" clip-path="url(#pec44b10bbb)" style="fill: none; stroke-dasharray: 0.8,1.32; stroke-dashoffset: 0; stroke: #b0b0b0; stroke-width: 0.8"/>
     </g>
     <g id="line2d_12">
      <g>
       <use xlink:href="#mcb25ada970" x="256.716553" y="222.325239" style="stroke: #000000; stroke-width: 0.8"/>
      </g>
     </g>
     <g id="text_6">
      <!-- $\mathdefault{0.25}$ -->
      <g transform="translate(247.860846 236.243737) scale(0.1 -0.1)">
       <use xlink:href="#CMR17-30" transform="scale(0.996264)"/>
       <use xlink:href="#CMMI12-3a" transform="translate(45.690477 0) scale(0.996264)"/>
       <use xlink:href="#CMR17-32" transform="translate(72.787654 0) scale(0.996264)"/>
       <use xlink:href="#CMR17-35" transform="translate(118.478131 0) scale(0.996264)"/>
      </g>
     </g>
    </g>
    <g id="xtick_7">
     <g id="line2d_13">
      <path d="M 294.509183 222.325239 
L 294.509183 24.40797 
" clip-path="url(#pec44b10bbb)" style="fill: none; stroke-dasharray: 0.8,1.32; stroke-dashoffset: 0; stroke: #b0b0b0; stroke-width: 0.8"/>
     </g>
     <g id="line2d_14">
      <g>
       <use xlink:href="#mcb25ada970" x="294.509183" y="222.325239" style="stroke: #000000; stroke-width: 0.8"/>
      </g>
     </g>
     <g id="text_7">
      <!-- $\mathdefault{0.30}$ -->
      <g transform="translate(285.653476 236.243737) scale(0.1 -0.1)">
       <defs>
        <path id="CMR17-33" d="M 1414 2157 
C 1984 2157 2234 1662 2234 1090 
C 2234 320 1824 25 1453 25 
C 1114 25 563 194 390 693 
C 422 680 454 680 486 680 
C 640 680 755 782 755 948 
C 755 1133 614 1216 486 1216 
C 378 1216 211 1165 211 926 
C 211 335 787 -128 1466 -128 
C 2176 -128 2720 430 2720 1085 
C 2720 1707 2208 2157 1600 2227 
C 2086 2328 2554 2756 2554 3329 
C 2554 3820 2048 4179 1472 4179 
C 890 4179 378 3829 378 3329 
C 378 3110 544 3072 627 3072 
C 762 3072 877 3155 877 3321 
C 877 3486 762 3569 627 3569 
C 602 3569 570 3569 544 3557 
C 730 3959 1235 4032 1459 4032 
C 1683 4032 2106 3925 2106 3320 
C 2106 3143 2080 2828 1862 2550 
C 1670 2304 1453 2304 1242 2284 
C 1210 2284 1062 2269 1037 2269 
C 992 2263 966 2257 966 2208 
C 966 2163 973 2157 1101 2157 
L 1414 2157 
z
" transform="scale(0.015625)"/>
       </defs>
       <use xlink:href="#CMR17-30" transform="scale(0.996264)"/>
       <use xlink:href="#CMMI12-3a" transform="translate(45.690477 0) scale(0.996264)"/>
       <use xlink:href="#CMR17-33" transform="translate(72.787654 0) scale(0.996264)"/>
       <use xlink:href="#CMR17-30" transform="translate(118.478131 0) scale(0.996264)"/>
      </g>
     </g>
    </g>
    <g id="text_8">
     <!-- $u(y) / U_{\infty}$ -->
     <g transform="translate(155.171419 251.89449) scale(0.13 -0.13)">
      <defs>
       <path id="CMMI12-75" d="M 2182 370 
C 2266 13 2573 -64 2726 -64 
C 2931 -64 3085 70 3187 287 
C 3296 517 3379 894 3379 913 
C 3379 945 3354 971 3315 971 
C 3258 971 3251 939 3226 843 
C 3110 402 2995 64 2739 64 
C 2547 64 2547 275 2547 358 
C 2547 505 2566 568 2630 837 
C 2675 1009 2720 1181 2758 1360 
L 3021 2401 
C 3066 2561 3066 2574 3066 2593 
C 3066 2689 2989 2753 2893 2753 
C 2707 2753 2662 2593 2624 2433 
C 2560 2184 2214 811 2170 588 
C 2163 588 1914 64 1446 64 
C 1114 64 1050 351 1050 588 
C 1050 952 1229 1462 1395 1890 
C 1472 2095 1504 2178 1504 2305 
C 1504 2580 1306 2816 998 2816 
C 410 2816 173 1890 173 1839 
C 173 1814 198 1782 243 1782 
C 301 1782 307 1807 333 1896 
C 486 2441 736 2682 979 2682 
C 1043 2682 1146 2682 1146 2478 
C 1146 2312 1075 2127 979 1884 
C 698 1124 666 881 666 690 
C 666 38 1158 -64 1421 -64 
C 1830 -64 2054 217 2182 370 
z
" transform="scale(0.015625)"/>
       <path id="CMR17-28" d="M 1958 -1561 
C 1958 -1555 1958 -1542 1939 -1523 
C 1645 -1224 858 -407 858 1581 
C 858 3569 1632 4379 1946 4697 
C 1946 4704 1958 4717 1958 4736 
C 1958 4755 1939 4768 1914 4768 
C 1843 4768 1299 4296 986 3594 
C 666 2887 576 2199 576 1588 
C 576 1128 621 351 1005 -471 
C 1312 -1135 1837 -1600 1914 -1600 
C 1946 -1600 1958 -1587 1958 -1561 
z
" transform="scale(0.015625)"/>
       <path id="CMMI12-79" d="M 1683 -700 
C 1510 -939 1261 -1152 947 -1152 
C 870 -1152 563 -1152 467 -889 
C 486 -895 518 -895 531 -895 
C 723 -895 851 -729 851 -582 
C 851 -435 730 -384 634 -384 
C 531 -384 307 -458 307 -759 
C 307 -1071 582 -1286 947 -1286 
C 1587 -1286 2234 -700 2413 6 
L 3040 2485 
C 3046 2517 3059 2556 3059 2594 
C 3059 2689 2982 2753 2886 2753 
C 2829 2753 2694 2727 2643 2535 
L 2170 658 
C 2138 543 2138 530 2086 460 
C 1958 281 1747 64 1440 64 
C 1082 64 1050 415 1050 588 
C 1050 952 1222 1443 1395 1903 
C 1466 2088 1504 2178 1504 2305 
C 1504 2574 1312 2816 998 2816 
C 410 2816 173 1890 173 1839 
C 173 1814 198 1782 243 1782 
C 301 1782 307 1807 333 1897 
C 486 2433 730 2689 979 2689 
C 1037 2689 1146 2689 1146 2478 
C 1146 2312 1075 2127 979 1884 
C 666 1047 666 837 666 683 
C 666 77 1101 -64 1421 -64 
C 1606 -64 1837 -6 2061 230 
L 2067 224 
C 1971 -147 1907 -392 1683 -700 
z
" transform="scale(0.015625)"/>
       <path id="CMR17-29" d="M 1683 1581 
C 1683 2040 1638 2817 1254 3639 
C 947 4303 422 4768 346 4768 
C 326 4768 301 4761 301 4729 
C 301 4717 307 4710 314 4697 
C 621 4378 1402 3568 1402 1584 
C 1402 -407 627 -1217 314 -1537 
C 307 -1549 301 -1556 301 -1568 
C 301 -1600 326 -1600 346 -1600 
C 416 -1600 960 -1128 1274 -426 
C 1594 281 1683 969 1683 1581 
z
" transform="scale(0.015625)"/>
       <path id="CMMI12-3d" d="M 2746 4562 
C 2746 4569 2784 4666 2784 4678 
C 2784 4755 2720 4800 2669 4800 
C 2637 4800 2579 4800 2528 4659 
L 384 -1363 
C 384 -1370 346 -1465 346 -1478 
C 346 -1555 410 -1600 461 -1600 
C 499 -1600 557 -1593 602 -1459 
L 2746 4562 
z
" transform="scale(0.015625)"/>
       <path id="CMMI12-55" d="M 3238 1474 
C 3014 581 2272 57 1670 57 
C 1210 57 896 363 896 891 
C 896 916 896 1107 966 1387 
L 1594 3887 
C 1651 4103 1664 4167 2118 4167 
C 2234 4167 2298 4167 2298 4282 
C 2298 4352 2240 4352 2202 4352 
C 2086 4352 1952 4352 1830 4352 
L 1075 4352 
C 954 4352 819 4352 698 4352 
C 653 4352 576 4352 576 4231 
C 576 4167 621 4167 742 4167 
C 1126 4167 1126 4116 1126 4046 
C 1126 4008 1082 3824 1050 3715 
L 493 1488 
C 474 1418 435 1246 435 1075 
C 435 374 941 -128 1638 -128 
C 2285 -128 3002 384 3328 1197 
C 3373 1305 3430 1530 3469 1702 
C 3533 1933 3667 2496 3712 2662 
L 3955 3623 
C 4038 3956 4090 4167 4653 4167 
C 4704 4173 4730 4224 4730 4282 
C 4730 4352 4672 4352 4646 4352 
C 4557 4352 4442 4352 4352 4352 
L 4051 4352 
C 3654 4352 3450 4352 3443 4352 
C 3405 4352 3328 4352 3328 4231 
C 3328 4167 3379 4167 3424 4167 
C 3808 4167 3834 4020 3834 3905 
C 3834 3848 3834 3828 3808 3739 
L 3238 1474 
z
" transform="scale(0.015625)"/>
       <path id="CMSY10-31" d="M 3251 1730 
C 2906 2166 2829 2262 2630 2422 
C 2272 2710 1914 2825 1587 2825 
C 838 2825 352 2122 352 1374 
C 352 639 826 -70 1562 -70 
C 2298 -70 2829 511 3142 1022 
C 3488 588 3565 492 3763 332 
C 4122 45 4480 -70 4806 -70 
C 5555 -70 6042 633 6042 1380 
C 6042 2115 5568 2825 4832 2825 
C 4096 2825 3565 2242 3251 1730 
z
M 3418 1514 
C 3680 1975 4154 2620 4877 2620 
C 5555 2620 5901 1955 5901 1380 
C 5901 753 5472 236 4909 236 
C 4538 236 4250 505 4115 638 
C 3955 811 3808 1009 3418 1514 
z
M 2976 1240 
C 2714 780 2240 134 1517 134 
C 838 134 493 799 493 1374 
C 493 2000 922 2518 1485 2518 
C 1856 2518 2144 2249 2278 2115 
C 2438 1943 2586 1744 2976 1240 
z
" transform="scale(0.015625)"/>
      </defs>
      <use xlink:href="#CMMI12-75" transform="scale(0.996264)"/>
      <use xlink:href="#CMR17-28" transform="translate(55.52033 0) scale(0.996264)"/>
      <use xlink:href="#CMMI12-79" transform="translate(90.801097 0) scale(0.996264)"/>
      <use xlink:href="#CMR17-29" transform="translate(141.939878 0) scale(0.996264)"/>
      <use xlink:href="#CMMI12-3d" transform="translate(177.220646 0) scale(0.996264)"/>
      <use xlink:href="#CMMI12-55" transform="translate(225.995565 0) scale(0.996264)"/>
      <use xlink:href="#CMSY10-31" transform="translate(292.247684 -14.943915) scale(0.697382)"/>
     </g>
    </g>
   </g>
   <g id="matplotlib.axis_2">
    <g id="ytick_1">
     <g id="line2d_15">
      <path d="M 56.61159 213.328999 
L 301.731515 213.328999 
" clip-path="url(#pec44b10bbb)" style="fill: none; stroke-dasharray: 0.8,1.32; stroke-dashoffset: 0; stroke: #b0b0b0; stroke-width: 0.8"/>
     </g>
     <g id="line2d_16">
      <defs>
       <path id="mc6f9e3c0b5" d="M 0 0 
L -3.5 0 
" style="stroke: #000000; stroke-width: 0.8"/>
      </defs>
      <g>
       <use xlink:href="#mc6f9e3c0b5" x="56.61159" y="213.328999" style="stroke: #000000; stroke-width: 0.8"/>
      </g>
     </g>
     <g id="text_9">
      <!-- $\mathdefault{−1.00}$ -->
      <g transform="translate(24.151432 216.788248) scale(0.1 -0.1)">
       <defs>
        <path id="CMSY10-0" d="M 4218 1472 
C 4326 1472 4442 1472 4442 1600 
C 4442 1728 4326 1728 4218 1728 
L 755 1728 
C 646 1728 531 1728 531 1600 
C 531 1472 646 1472 755 1472 
L 4218 1472 
z
" transform="scale(0.015625)"/>
       </defs>
       <use xlink:href="#CMSY10-0" transform="scale(0.996264)"/>
       <use xlink:href="#CMR17-31" transform="translate(77.487468 0) scale(0.996264)"/>
       <use xlink:href="#CMMI12-3a" transform="translate(123.177945 0) scale(0.996264)"/>
       <use xlink:href="#CMR17-30" transform="translate(150.275122 0) scale(0.996264)"/>
       <use xlink:href="#CMR17-30" transform="translate(195.965599 0) scale(0.996264)"/>
      </g>
     </g>
    </g>
    <g id="ytick_2">
     <g id="line2d_17">
      <path d="M 56.61159 190.838401 
L 301.731515 190.838401 
" clip-path="url(#pec44b10bbb)" style="fill: none; stroke-dasharray: 0.8,1.32; stroke-dashoffset: 0; stroke: #b0b0b0; stroke-width: 0.8"/>
     </g>
     <g id="line2d_18">
      <g>
       <use xlink:href="#mc6f9e3c0b5" x="56.61159" y="190.838401" style="stroke: #000000; stroke-width: 0.8"/>
      </g>
     </g>
     <g id="text_10">
      <!-- $\mathdefault{−0.75}$ -->
      <g transform="translate(24.151432 194.29765) scale(0.1 -0.1)">
       <defs>
        <path id="CMR17-37" d="M 2886 3941 
L 2886 4081 
L 1382 4081 
C 634 4081 621 4165 595 4288 
L 480 4288 
L 294 3094 
L 410 3094 
C 429 3215 474 3540 550 3661 
C 589 3712 1062 3712 1171 3712 
L 2579 3712 
L 1869 2661 
C 1395 1954 1069 999 1069 165 
C 1069 89 1069 -128 1299 -128 
C 1530 -128 1530 89 1530 171 
L 1530 465 
C 1530 1508 1709 2196 2003 2636 
L 2886 3941 
z
" transform="scale(0.015625)"/>
       </defs>
       <use xlink:href="#CMSY10-0" transform="scale(0.996264)"/>
       <use xlink:href="#CMR17-30" transform="translate(77.487468 0) scale(0.996264)"/>
       <use xlink:href="#CMMI12-3a" transform="translate(123.177945 0) scale(0.996264)"/>
       <use xlink:href="#CMR17-37" transform="translate(150.275122 0) scale(0.996264)"/>
       <use xlink:href="#CMR17-35" transform="translate(195.965599 0) scale(0.996264)"/>
      </g>
     </g>
    </g>
    <g id="ytick_3">
     <g id="line2d_19">
      <path d="M 56.61159 168.347802 
L 301.731515 168.347802 
" clip-path="url(#pec44b10bbb)" style="fill: none; stroke-dasharray: 0.8,1.32; stroke-dashoffset: 0; stroke: #b0b0b0; stroke-width: 0.8"/>
     </g>
     <g id="line2d_20">
      <g>
       <use xlink:href="#mc6f9e3c0b5" x="56.61159" y="168.347802" style="stroke: #000000; stroke-width: 0.8"/>
      </g>
     </g>
     <g id="text_11">
      <!-- $\mathdefault{−0.50}$ -->
      <g transform="translate(24.151432 171.807051) scale(0.1 -0.1)">
       <use xlink:href="#CMSY10-0" transform="scale(0.996264)"/>
       <use xlink:href="#CMR17-30" transform="translate(77.487468 0) scale(0.996264)"/>
       <use xlink:href="#CMMI12-3a" transform="translate(123.177945 0) scale(0.996264)"/>
       <use xlink:href="#CMR17-35" transform="translate(150.275122 0) scale(0.996264)"/>
       <use xlink:href="#CMR17-30" transform="translate(195.965599 0) scale(0.996264)"/>
      </g>
     </g>
    </g>
    <g id="ytick_4">
     <g id="line2d_21">
      <path d="M 56.61159 145.857203 
L 301.731515 145.857203 
" clip-path="url(#pec44b10bbb)" style="fill: none; stroke-dasharray: 0.8,1.32; stroke-dashoffset: 0; stroke: #b0b0b0; stroke-width: 0.8"/>
     </g>
     <g id="line2d_22">
      <g>
       <use xlink:href="#mc6f9e3c0b5" x="56.61159" y="145.857203" style="stroke: #000000; stroke-width: 0.8"/>
      </g>
     </g>
     <g id="text_12">
      <!-- $\mathdefault{−0.25}$ -->
      <g transform="translate(24.151432 149.316452) scale(0.1 -0.1)">
       <use xlink:href="#CMSY10-0" transform="scale(0.996264)"/>
       <use xlink:href="#CMR17-30" transform="translate(77.487468 0) scale(0.996264)"/>
       <use xlink:href="#CMMI12-3a" transform="translate(123.177945 0) scale(0.996264)"/>
       <use xlink:href="#CMR17-32" transform="translate(150.275122 0) scale(0.996264)"/>
       <use xlink:href="#CMR17-35" transform="translate(195.965599 0) scale(0.996264)"/>
      </g>
     </g>
    </g>
    <g id="ytick_5">
     <g id="line2d_23">
      <path d="M 56.61159 123.366604 
L 301.731515 123.366604 
" clip-path="url(#pec44b10bbb)" style="fill: none; stroke-dasharray: 0.8,1.32; stroke-dashoffset: 0; stroke: #b0b0b0; stroke-width: 0.8"/>
     </g>
     <g id="line2d_24">
      <g>
       <use xlink:href="#mc6f9e3c0b5" x="56.61159" y="123.366604" style="stroke: #000000; stroke-width: 0.8"/>
      </g>
     </g>
     <g id="text_13">
      <!-- $\mathdefault{0.00}$ -->
      <g transform="translate(31.900176 126.825854) scale(0.1 -0.1)">
       <use xlink:href="#CMR17-30" transform="scale(0.996264)"/>
       <use xlink:href="#CMMI12-3a" transform="translate(45.690477 0) scale(0.996264)"/>
       <use xlink:href="#CMR17-30" transform="translate(72.787654 0) scale(0.996264)"/>
       <use xlink:href="#CMR17-30" transform="translate(118.478131 0) scale(0.996264)"/>
      </g>
     </g>
    </g>
    <g id="ytick_6">
     <g id="line2d_25">
      <path d="M 56.61159 100.876006 
L 301.731515 100.876006 
" clip-path="url(#pec44b10bbb)" style="fill: none; stroke-dasharray: 0.8,1.32; stroke-dashoffset: 0; stroke: #b0b0b0; stroke-width: 0.8"/>
     </g>
     <g id="line2d_26">
      <g>
       <use xlink:href="#mc6f9e3c0b5" x="56.61159" y="100.876006" style="stroke: #000000; stroke-width: 0.8"/>
      </g>
     </g>
     <g id="text_14">
      <!-- $\mathdefault{0.25}$ -->
      <g transform="translate(31.900176 104.335255) scale(0.1 -0.1)">
       <use xlink:href="#CMR17-30" transform="scale(0.996264)"/>
       <use xlink:href="#CMMI12-3a" transform="translate(45.690477 0) scale(0.996264)"/>
       <use xlink:href="#CMR17-32" transform="translate(72.787654 0) scale(0.996264)"/>
       <use xlink:href="#CMR17-35" transform="translate(118.478131 0) scale(0.996264)"/>
      </g>
     </g>
    </g>
    <g id="ytick_7">
     <g id="line2d_27">
      <path d="M 56.61159 78.385407 
L 301.731515 78.385407 
" clip-path="url(#pec44b10bbb)" style="fill: none; stroke-dasharray: 0.8,1.32; stroke-dashoffset: 0; stroke: #b0b0b0; stroke-width: 0.8"/>
     </g>
     <g id="line2d_28">
      <g>
       <use xlink:href="#mc6f9e3c0b5" x="56.61159" y="78.385407" style="stroke: #000000; stroke-width: 0.8"/>
      </g>
     </g>
     <g id="text_15">
      <!-- $\mathdefault{0.50}$ -->
      <g transform="translate(31.900176 81.844656) scale(0.1 -0.1)">
       <use xlink:href="#CMR17-30" transform="scale(0.996264)"/>
       <use xlink:href="#CMMI12-3a" transform="translate(45.690477 0) scale(0.996264)"/>
       <use xlink:href="#CMR17-35" transform="translate(72.787654 0) scale(0.996264)"/>
       <use xlink:href="#CMR17-30" transform="translate(118.478131 0) scale(0.996264)"/>
      </g>
     </g>
    </g>
    <g id="ytick_8">
     <g id="line2d_29">
      <path d="M 56.61159 55.894808 
L 301.731515 55.894808 
" clip-path="url(#pec44b10bbb)" style="fill: none; stroke-dasharray: 0.8,1.32; stroke-dashoffset: 0; stroke: #b0b0b0; stroke-width: 0.8"/>
     </g>
     <g id="line2d_30">
      <g>
       <use xlink:href="#mc6f9e3c0b5" x="56.61159" y="55.894808" style="stroke: #000000; stroke-width: 0.8"/>
      </g>
     </g>
     <g id="text_16">
      <!-- $\mathdefault{0.75}$ -->
      <g transform="translate(31.900176 59.354057) scale(0.1 -0.1)">
       <use xlink:href="#CMR17-30" transform="scale(0.996264)"/>
       <use xlink:href="#CMMI12-3a" transform="translate(45.690477 0) scale(0.996264)"/>
       <use xlink:href="#CMR17-37" transform="translate(72.787654 0) scale(0.996264)"/>
       <use xlink:href="#CMR17-35" transform="translate(118.478131 0) scale(0.996264)"/>
      </g>
     </g>
    </g>
    <g id="ytick_9">
     <g id="line2d_31">
      <path d="M 56.61159 33.40421 
L 301.731515 33.40421 
" clip-path="url(#pec44b10bbb)" style="fill: none; stroke-dasharray: 0.8,1.32; stroke-dashoffset: 0; stroke: #b0b0b0; stroke-width: 0.8"/>
     </g>
     <g id="line2d_32">
      <g>
       <use xlink:href="#mc6f9e3c0b5" x="56.61159" y="33.40421" style="stroke: #000000; stroke-width: 0.8"/>
      </g>
     </g>
     <g id="text_17">
      <!-- $\mathdefault{1.00}$ -->
      <g transform="translate(31.900176 36.863459) scale(0.1 -0.1)">
       <use xlink:href="#CMR17-31" transform="scale(0.996264)"/>
       <use xlink:href="#CMMI12-3a" transform="translate(45.690477 0) scale(0.996264)"/>
       <use xlink:href="#CMR17-30" transform="translate(72.787654 0) scale(0.996264)"/>
       <use xlink:href="#CMR17-30" transform="translate(118.478131 0) scale(0.996264)"/>
      </g>
     </g>
    </g>
    <g id="text_18">
     <!-- $y  / (h/2)$ -->
     <g transform="translate(16.913574 144.783461) rotate(-90) scale(0.13 -0.13)">
      <defs>
       <path id="CMMI12-68" d="M 1798 4257 
C 1805 4283 1818 4321 1818 4352 
C 1818 4416 1754 4416 1741 4416 
C 1734 4416 1421 4388 1389 4380 
C 1280 4373 1184 4358 1069 4358 
C 909 4345 864 4339 864 4224 
C 864 4160 915 4160 1005 4160 
C 1318 4160 1325 4103 1325 4040 
C 1325 4002 1312 3951 1306 3932 
L 378 248 
C 352 152 352 140 352 101 
C 352 -38 461 -64 525 -64 
C 634 -64 717 19 749 89 
L 1037 1245 
C 1069 1386 1107 1520 1139 1660 
C 1210 1929 1210 1935 1331 2120 
C 1453 2305 1741 2689 2234 2689 
C 2490 2689 2579 2497 2579 2242 
C 2579 1884 2330 1188 2189 805 
C 2131 651 2099 568 2099 453 
C 2099 166 2298 -64 2605 -64 
C 3200 -64 3424 875 3424 913 
C 3424 945 3398 971 3360 971 
C 3302 971 3296 952 3264 843 
C 3117 332 2880 64 2624 64 
C 2560 64 2458 64 2458 269 
C 2458 436 2534 640 2560 710 
C 2675 1018 2963 1773 2963 2145 
C 2963 2528 2739 2816 2253 2816 
C 1888 2816 1568 2644 1306 2312 
L 1798 4257 
z
" transform="scale(0.015625)"/>
      </defs>
      <use xlink:href="#CMMI12-79" transform="scale(0.996264)"/>
      <use xlink:href="#CMMI12-3d" transform="translate(51.138781 0) scale(0.996264)"/>
      <use xlink:href="#CMR17-28" transform="translate(99.913699 0) scale(0.996264)"/>
      <use xlink:href="#CMMI12-68" transform="translate(135.194467 0) scale(0.996264)"/>
      <use xlink:href="#CMMI12-3d" transform="translate(191.349091 0) scale(0.996264)"/>
      <use xlink:href="#CMR17-32" transform="translate(240.12401 0) scale(0.996264)"/>
      <use xlink:href="#CMR17-29" transform="translate(285.814487 0) scale(0.996264)"/>
     </g>
    </g>
   </g>
   <g id="line2d_33">
    <path d="M 67.753405 213.328999 
L 92.860288 210.234293 
L 116.17828 207.139586 
L 137.707381 204.04488 
L 157.44759 200.950174 
L 175.398908 197.855467 
L 191.561334 194.760761 
L 205.934869 191.666055 
L 218.519512 188.571348 
L 229.315264 185.476642 
L 238.322125 182.381935 
L 245.540094 179.287229 
L 250.969171 176.192523 
L 254.609357 173.097816 
L 256.460652 170.00311 
L 256.716553 166.908404 
L 256.716553 163.813697 
L 256.716553 160.718991 
L 256.716553 157.624284 
L 256.716553 154.529578 
L 256.716553 151.434872 
L 256.716553 148.340165 
L 256.716553 145.245459 
L 256.716553 142.150752 
L 256.716553 139.056046 
L 256.716553 135.96134 
L 256.716553 135.96134 
L 256.716553 135.45755 
L 256.716553 134.953761 
L 256.716553 134.449971 
L 256.716553 133.946182 
L 256.716553 133.442393 
L 256.716553 132.938603 
L 256.716553 132.434814 
L 256.716553 131.931024 
L 256.716553 131.427235 
L 256.716553 130.923446 
L 256.716553 130.419656 
L 256.716553 129.915867 
L 256.716553 129.412077 
L 256.716553 128.908288 
L 256.716553 128.404499 
L 256.716553 127.900709 
L 256.716553 127.39692 
L 256.716553 126.89313 
L 256.716553 126.389341 
L 256.716553 125.885551 
L 256.716553 125.381762 
L 256.716553 124.877973 
L 256.716553 124.374183 
L 256.716553 123.870394 
L 256.716553 123.366604 
L 256.716553 123.366604 
L 256.716553 122.862815 
L 256.716553 122.359026 
L 256.716553 121.855236 
L 256.716553 121.351447 
L 256.716553 120.847657 
L 256.716553 120.343868 
L 256.716553 119.840079 
L 256.716553 119.336289 
L 256.716553 118.8325 
L 256.716553 118.32871 
L 256.716553 117.824921 
L 256.716553 117.321131 
L 256.716553 116.817342 
L 256.716553 116.313553 
L 256.716553 115.809763 
L 256.716553 115.305974 
L 256.716553 114.802184 
L 256.716553 114.298395 
L 256.716553 113.794606 
L 256.716553 113.290816 
L 256.716553 112.787027 
L 256.716553 112.283237 
L 256.716553 111.779448 
L 256.716553 111.275659 
L 256.716553 110.771869 
L 256.716553 110.771869 
L 256.716553 107.677163 
L 256.716553 104.582456 
L 256.716553 101.48775 
L 256.716553 98.393044 
L 256.716553 95.298337 
L 256.716553 92.203631 
L 256.716553 89.108924 
L 256.716553 86.014218 
L 256.716553 82.919512 
L 256.716553 79.824805 
L 256.460652 76.730099 
L 254.609357 73.635393 
L 250.969171 70.540686 
L 245.540094 67.44598 
L 238.322125 64.351273 
L 229.315264 61.256567 
L 218.519512 58.161861 
L 205.934869 55.067154 
L 191.561334 51.972448 
L 175.398908 48.877742 
L 157.44759 45.783035 
L 137.707381 42.688329 
L 116.17828 39.593622 
L 92.860288 36.498916 
L 67.753405 33.40421 
" clip-path="url(#pec44b10bbb)" style="fill: none; stroke: #1f77b4; stroke-opacity: 0.5; stroke-width: 5; stroke-linecap: square"/>
   </g>
   <g id="line2d_34">
    <path d="M 67.753405 213.328999 
L 89.788352 210.234293 
L 110.676653 207.139586 
L 130.418309 204.04488 
L 149.013319 200.950174 
L 166.461684 197.855467 
L 182.763404 194.760761 
L 197.918478 191.666055 
L 211.926906 188.571348 
L 224.788689 185.476642 
L 236.503827 182.381935 
L 247.072319 179.287229 
L 256.494165 176.192523 
L 264.769366 173.097816 
L 271.897922 170.00311 
L 277.879832 166.908404 
L 282.715096 163.813697 
L 286.403716 160.718991 
L 288.945689 157.624284 
L 290.341017 154.529578 
L 290.5897 151.434872 
L 289.691737 148.340165 
L 287.647128 145.245459 
L 284.455875 142.150752 
L 280.117975 139.056046 
L 274.63343 135.96134 
L 274.63343 135.96134 
L 274.63343 135.45755 
L 274.63343 134.953761 
L 274.63343 134.449971 
L 274.63343 133.946182 
L 274.63343 133.442393 
L 274.63343 132.938603 
L 274.63343 132.434814 
L 274.63343 131.931024 
L 274.63343 131.427235 
L 274.63343 130.923446 
L 274.63343 130.419656 
L 274.63343 129.915867 
L 274.63343 129.412077 
L 274.63343 128.908288 
L 274.63343 128.404499 
L 274.63343 127.900709 
L 274.63343 127.39692 
L 274.63343 126.89313 
L 274.63343 126.389341 
L 274.63343 125.885551 
L 274.63343 125.381762 
L 274.63343 124.877973 
L 274.63343 124.374183 
L 274.63343 123.870394 
L 274.63343 123.366604 
L 274.63343 123.366604 
L 274.63343 122.862815 
L 274.63343 122.359026 
L 274.63343 121.855236 
L 274.63343 121.351447 
L 274.63343 120.847657 
L 274.63343 120.343868 
L 274.63343 119.840079 
L 274.63343 119.336289 
L 274.63343 118.8325 
L 274.63343 118.32871 
L 274.63343 117.824921 
L 274.63343 117.321131 
L 274.63343 116.817342 
L 274.63343 116.313553 
L 274.63343 115.809763 
L 274.63343 115.305974 
L 274.63343 114.802184 
L 274.63343 114.298395 
L 274.63343 113.794606 
L 274.63343 113.290816 
L 274.63343 112.787027 
L 274.63343 112.283237 
L 274.63343 111.779448 
L 274.63343 111.275659 
L 274.63343 110.771869 
L 274.63343 110.771869 
L 280.117975 107.677163 
L 284.455875 104.582456 
L 287.647128 101.48775 
L 289.691737 98.393044 
L 290.5897 95.298337 
L 290.341017 92.203631 
L 288.945689 89.108924 
L 286.403716 86.014218 
L 282.715096 82.919512 
L 277.879832 79.824805 
L 271.897922 76.730099 
L 264.769366 73.635393 
L 256.494165 70.540686 
L 247.072319 67.44598 
L 236.503827 64.351273 
L 224.788689 61.256567 
L 211.926906 58.161861 
L 197.918478 55.067154 
L 182.763404 51.972448 
L 166.461684 48.877742 
L 149.013319 45.783035 
L 130.418309 42.688329 
L 110.676653 39.593622 
L 89.788352 36.498916 
L 67.753405 33.40421 
" clip-path="url(#pec44b10bbb)" style="fill: none; stroke: #ff7f0e; stroke-width: 1.5; stroke-linecap: square"/>
   </g>
   <g id="line2d_35"/>
   <g id="line2d_36">
    <defs>
     <path id="m871f1027ba" d="M 0 3 
C 0.795609 3 1.55874 2.683901 2.12132 2.12132 
C 2.683901 1.55874 3 0.795609 3 0 
C 3 -0.795609 2.683901 -1.55874 2.12132 -2.12132 
C 1.55874 -2.683901 0.795609 -3 0 -3 
C -0.795609 -3 -1.55874 -2.683901 -2.12132 -2.12132 
C -2.683901 -1.55874 -3 -0.795609 -3 0 
C -3 0.795609 -2.683901 1.55874 -2.12132 2.12132 
C -1.55874 2.683901 -0.795609 3 0 3 
z
" style="stroke: #ff7f0e"/>
    </defs>
    <g clip-path="url(#pec44b10bbb)">
     <use xlink:href="#m871f1027ba" x="67.753405" y="213.328999" style="fill: #ff7f0e; stroke: #ff7f0e"/>
     <use xlink:href="#m871f1027ba" x="274.63343" y="135.96134" style="fill: #ff7f0e; stroke: #ff7f0e"/>
     <use xlink:href="#m871f1027ba" x="274.63343" y="123.366604" style="fill: #ff7f0e; stroke: #ff7f0e"/>
     <use xlink:href="#m871f1027ba" x="274.63343" y="110.771869" style="fill: #ff7f0e; stroke: #ff7f0e"/>
     <use xlink:href="#m871f1027ba" x="67.753405" y="33.40421" style="fill: #ff7f0e; stroke: #ff7f0e"/>
    </g>
   </g>
   <g id="line2d_37">
    <defs>
     <path id="m7a716cd7d4" d="M 0 1.5 
C 0.397805 1.5 0.77937 1.341951 1.06066 1.06066 
C 1.341951 0.77937 1.5 0.397805 1.5 0 
C 1.5 -0.397805 1.341951 -0.77937 1.06066 -1.06066 
C 0.77937 -1.341951 0.397805 -1.5 0 -1.5 
C -0.397805 -1.5 -0.77937 -1.341951 -1.06066 -1.06066 
C -1.341951 -0.77937 -1.5 -0.397805 -1.5 0 
C -1.5 0.397805 -1.341951 0.77937 -1.06066 1.06066 
C -0.77937 1.341951 -0.397805 1.5 0 1.5 
z
" style="stroke: #ff7f0e"/>
    </defs>
    <g clip-path="url(#pec44b10bbb)">
     <use xlink:href="#m7a716cd7d4" x="260.775096" y="174.645169" style="fill: #ff7f0e; stroke: #ff7f0e"/>
     <use xlink:href="#m7a716cd7d4" x="274.63343" y="129.663972" style="fill: #ff7f0e; stroke: #ff7f0e"/>
     <use xlink:href="#m7a716cd7d4" x="274.63343" y="117.069237" style="fill: #ff7f0e; stroke: #ff7f0e"/>
     <use xlink:href="#m7a716cd7d4" x="260.775096" y="72.088039" style="fill: #ff7f0e; stroke: #ff7f0e"/>
    </g>
   </g>
   <g id="patch_3">
    <path d="M 56.61159 222.325239 
L 56.61159 24.40797 
" style="fill: none; stroke: #000000; stroke-width: 0.8; stroke-linejoin: miter; stroke-linecap: square"/>
   </g>
   <g id="patch_4">
    <path d="M 301.731515 222.325239 
L 301.731515 24.40797 
" style="fill: none; stroke: #000000; stroke-width: 0.8; stroke-linejoin: miter; stroke-linecap: square"/>
   </g>
   <g id="patch_5">
    <path d="M 56.61159 222.325239 
L 301.731515 222.325239 
" style="fill: none; stroke: #000000; stroke-width: 0.8; stroke-linejoin: miter; stroke-linecap: square"/>
   </g>
   <g id="patch_6">
    <path d="M 56.61159 24.40797 
L 301.731515 24.40797 
" style="fill: none; stroke: #000000; stroke-width: 0.8; stroke-linejoin: miter; stroke-linecap: square"/>
   </g>
   <g id="text_19">
    <!-- Velocity profile -->
    <g transform="translate(131.008923 18.40797) scale(0.15 -0.15)">
     <defs>
      <path id="CMR17-56" d="M 3776 3745 
C 3834 3886 3936 4160 4365 4160 
L 4365 4332 
C 4218 4319 4051 4319 3891 4319 
C 3738 4319 3475 4319 3328 4332 
L 3328 4160 
C 3648 4160 3661 3936 3661 3898 
C 3661 3827 3642 3783 3622 3732 
L 2362 446 
L 1043 3886 
C 1024 3931 1011 3963 1011 3994 
C 1011 4160 1267 4160 1402 4160 
L 1402 4319 
C 1197 4319 896 4319 685 4319 
C 518 4319 218 4319 64 4332 
L 64 4160 
C 435 4160 506 4135 582 3931 
L 2106 -26 
C 2138 -115 2144 -128 2214 -128 
C 2285 -128 2291 -115 2323 -26 
L 3776 3745 
z
" transform="scale(0.015625)"/>
      <path id="CMR17-65" d="M 2438 1472 
C 2464 1498 2464 1511 2464 1576 
C 2464 2238 2118 2816 1389 2816 
C 710 2816 173 2169 173 1383 
C 173 551 781 -64 1459 -64 
C 2176 -64 2458 607 2458 740 
C 2458 784 2419 784 2406 784 
C 2362 784 2355 771 2330 696 
C 2189 265 1837 51 1504 51 
C 1229 51 954 203 781 480 
C 582 803 582 1176 582 1472 
L 2438 1472 
z
M 589 1568 
C 634 2505 1126 2714 1382 2714 
C 1818 2714 2112 2297 2118 1568 
L 589 1568 
z
" transform="scale(0.015625)"/>
      <path id="CMR17-6c" d="M 979 4396 
L 218 4326 
L 218 4160 
C 595 4160 653 4122 653 3817 
L 653 426 
C 653 184 627 153 218 153 
L 218 -13 
C 371 0 653 0 813 0 
C 979 0 1261 0 1414 -13 
L 1414 153 
C 1005 153 979 178 979 426 
L 979 4396 
z
" transform="scale(0.015625)"/>
      <path id="CMR17-6f" d="M 2758 1356 
C 2758 2176 2163 2816 1466 2816 
C 768 2816 173 2176 173 1356 
C 173 551 768 -64 1466 -64 
C 2163 -64 2758 551 2758 1356 
z
M 1466 51 
C 1165 51 909 230 762 480 
C 602 767 582 1126 582 1408 
C 582 1677 595 2010 762 2298 
C 890 2509 1139 2714 1466 2714 
C 1754 2714 1997 2554 2150 2330 
C 2349 2029 2349 1607 2349 1408 
C 2349 1158 2336 775 2163 467 
C 1984 173 1709 51 1466 51 
z
" transform="scale(0.015625)"/>
      <path id="CMR17-63" d="M 2234 2240 
C 2112 2240 1933 2240 1933 2017 
C 1933 1838 2080 1787 2163 1787 
C 2208 1787 2394 1807 2394 2024 
C 2394 2467 1958 2803 1466 2803 
C 787 2803 211 2178 211 1363 
C 211 516 813 -64 1466 -64 
C 2259 -64 2458 677 2458 748 
C 2458 774 2451 793 2406 793 
C 2362 793 2355 787 2330 703 
C 2163 180 1798 51 1523 51 
C 1114 51 621 427 621 1369 
C 621 2338 1094 2688 1472 2688 
C 1722 2688 2093 2573 2234 2240 
z
" transform="scale(0.015625)"/>
      <path id="CMR17-69" d="M 992 3909 
C 992 4049 877 4170 730 4170 
C 589 4170 467 4056 467 3909 
C 467 3769 582 3648 730 3648 
C 870 3648 992 3763 992 3909 
z
M 243 2706 
L 243 2541 
C 602 2541 653 2502 653 2197 
L 653 427 
C 653 184 627 153 218 153 
L 218 -13 
C 371 0 646 0 806 0 
C 960 0 1222 0 1370 -13 
L 1370 153 
C 992 153 979 191 979 420 
L 979 2776 
L 243 2706 
z
" transform="scale(0.015625)"/>
      <path id="CMR17-74" d="M 966 2560 
L 1862 2560 
L 1862 2725 
L 966 2725 
L 966 3904 
L 851 3904 
C 838 3245 614 2668 70 2668 
L 70 2560 
L 627 2560 
L 627 771 
C 627 650 627 -64 1370 -64 
C 1747 -64 1965 306 1965 777 
L 1965 1140 
L 1850 1140 
L 1850 783 
C 1850 344 1677 51 1408 51 
C 1222 51 966 178 966 758 
L 966 2560 
z
" transform="scale(0.015625)"/>
      <path id="CMR17-79" d="M 2496 2197 
C 2656 2586 2944 2586 3034 2586 
L 3034 2752 
C 2912 2752 2752 2752 2630 2752 
C 2496 2752 2285 2752 2157 2758 
L 2157 2592 
C 2400 2573 2406 2394 2406 2343 
C 2406 2280 2394 2248 2362 2171 
L 1664 449 
L 902 2306 
C 870 2382 870 2426 870 2433 
C 870 2573 1018 2586 1171 2586 
L 1171 2758 
C 1018 2752 742 2752 582 2752 
C 410 2752 205 2752 64 2758 
L 64 2586 
C 410 2586 448 2554 531 2350 
L 1485 15 
C 1197 -738 1030 -1178 627 -1178 
C 557 -1178 397 -1159 282 -1044 
C 429 -1031 493 -942 493 -833 
C 493 -725 416 -629 288 -629 
C 147 -629 77 -725 77 -840 
C 77 -1095 339 -1280 627 -1280 
C 998 -1280 1229 -922 1357 -604 
L 2496 2197 
z
" transform="scale(0.015625)"/>
      <path id="CMR17-70" d="M 1408 -1063 
C 998 -1063 973 -1037 973 -789 
L 973 402 
C 1158 134 1427 -38 1766 -38 
C 2406 -38 3053 523 3053 1388 
C 3053 2191 2496 2802 1837 2802 
C 1453 2802 1139 2592 960 2338 
L 960 2802 
L 198 2732 
L 198 2567 
C 576 2567 634 2528 634 2223 
L 634 -789 
C 634 -1031 608 -1063 198 -1063 
L 198 -1228 
C 352 -1216 634 -1216 800 -1216 
C 966 -1216 1254 -1216 1408 -1228 
L 1408 -1063 
z
M 973 2012 
C 973 2102 973 2235 1222 2471 
C 1254 2497 1472 2688 1792 2688 
C 2259 2688 2643 2108 2643 1382 
C 2643 656 2234 64 1728 64 
C 1498 64 1248 172 1056 472 
C 973 612 973 650 973 752 
L 973 2012 
z
" transform="scale(0.015625)"/>
      <path id="CMR17-72" d="M 960 1497 
C 960 2112 1222 2688 1702 2688 
C 1747 2688 1792 2682 1837 2662 
C 1837 2662 1696 2617 1696 2452 
C 1696 2298 1818 2234 1914 2234 
C 1990 2234 2131 2279 2131 2458 
C 2131 2663 1926 2790 1709 2790 
C 1222 2790 1011 2317 947 2093 
L 941 2093 
L 941 2790 
L 198 2720 
L 198 2554 
C 576 2554 634 2515 634 2208 
L 634 428 
C 634 184 608 153 198 153 
L 198 -13 
C 352 0 646 0 813 0 
C 998 0 1325 0 1498 -13 
L 1498 153 
C 1037 153 960 153 960 440 
L 960 1497 
z
" transform="scale(0.015625)"/>
      <path id="CMR17-c" d="M 2554 2764 
C 2400 2764 1926 2764 1805 2739 
C 1766 2725 1754 2725 1677 2725 
L 947 2725 
L 947 3469 
C 947 4073 1434 4352 1818 4352 
C 1939 4352 2214 4320 2355 4101 
C 2291 4101 2086 4101 2086 3878 
C 2086 3725 2189 3648 2317 3648 
C 2432 3648 2547 3712 2547 3885 
C 2547 4205 2240 4454 1843 4454 
C 1338 4454 634 4168 634 3469 
L 634 2725 
L 122 2725 
L 122 2560 
L 634 2560 
L 634 427 
C 634 184 608 153 198 153 
L 198 -13 
C 352 0 634 0 794 0 
C 960 0 1242 0 1395 -13 
L 1395 153 
C 986 153 960 178 960 427 
L 960 2560 
L 1901 2560 
C 2176 2560 2227 2502 2227 2222 
L 2227 427 
C 2227 184 2202 153 1792 153 
L 1792 -13 
C 1946 0 2227 0 2387 0 
C 2554 0 2835 0 2989 -13 
L 2989 153 
C 2579 153 2554 178 2554 427 
L 2554 2764 
z
" transform="scale(0.015625)"/>
     </defs>
     <use xlink:href="#CMR17-56" transform="scale(0.996264)"/>
     <use xlink:href="#CMR17-65" transform="translate(61.265174 0) scale(0.996264)"/>
     <use xlink:href="#CMR17-6c" transform="translate(101.750835 0) scale(0.996264)"/>
     <use xlink:href="#CMR17-6f" transform="translate(126.621893 0) scale(0.996264)"/>
     <use xlink:href="#CMR17-63" transform="translate(174.914809 0) scale(0.996264)"/>
     <use xlink:href="#CMR17-69" transform="translate(215.40047 0) scale(0.996264)"/>
     <use xlink:href="#CMR17-74" transform="translate(240.271528 0) scale(0.996264)"/>
     <use xlink:href="#CMR17-79" transform="translate(272.949842 0) scale(0.996264)"/>
     <use xlink:href="#CMR17-70" transform="translate(351.318724 0) scale(0.996264)"/>
     <use xlink:href="#CMR17-72" transform="translate(402.214094 0) scale(0.996264)"/>
     <use xlink:href="#CMR17-6f" transform="translate(437.494862 0) scale(0.996264)"/>
     <use xlink:href="#CMR17-c" transform="translate(483.185339 0) scale(0.996264)"/>
     <use xlink:href="#CMR17-6c" transform="translate(532.927562 0) scale(0.996264)"/>
     <use xlink:href="#CMR17-65" transform="translate(557.798621 0) scale(0.996264)"/>
    </g>
   </g>
   <g id="legend_1">
    <g id="patch_7">
     <path d="M 64.31159 140.347499 
L 165.63045 140.347499 
Q 167.83045 140.347499 167.83045 138.147499 
L 167.83045 108.58571 
Q 167.83045 106.38571 165.63045 106.38571 
L 64.31159 106.38571 
Q 62.11159 106.38571 62.11159 108.58571 
L 62.11159 138.147499 
Q 62.11159 140.347499 64.31159 140.347499 
z
" style="fill: #ffffff; opacity: 0.8; stroke: #cccccc; stroke-linejoin: miter"/>
    </g>
    <g id="line2d_38">
     <path d="M 66.51159 114.63571 
L 77.51159 114.63571 
L 88.51159 114.63571 
" style="fill: none; stroke: #1f77b4; stroke-opacity: 0.5; stroke-width: 5; stroke-linecap: square"/>
    </g>
    <g id="text_20">
     <!-- Analytical -->
     <g transform="translate(97.31159 118.48571) scale(0.11 -0.11)">
      <defs>
       <path id="CMR17-41" d="M 2323 4378 
C 2291 4461 2278 4480 2214 4480 
C 2150 4480 2138 4461 2106 4378 
L 749 566 
C 627 223 371 153 147 153 
L 147 -13 
C 262 0 518 0 640 0 
C 800 0 1056 0 1210 -13 
L 1210 153 
C 909 153 864 361 864 439 
C 864 497 877 530 890 569 
L 1229 1536 
L 2906 1536 
L 3290 442 
C 3322 365 3322 352 3322 327 
C 3322 153 3046 153 2925 153 
L 2925 0 
C 3110 0 3443 0 3642 0 
C 3808 0 4128 0 4282 -13 
L 4282 153 
C 3942 153 3827 153 3744 387 
L 2323 4378 
z
M 2067 3893 
L 2848 1702 
L 1286 1702 
L 2067 3893 
z
" transform="scale(0.015625)"/>
       <path id="CMR17-6e" d="M 2656 1933 
C 2656 2259 2592 2790 1837 2790 
C 1331 2790 1069 2400 973 2144 
L 966 2144 
L 966 2790 
L 211 2720 
L 211 2554 
C 589 2554 646 2515 646 2208 
L 646 428 
C 646 184 621 153 211 153 
L 211 -13 
C 365 0 646 0 813 0 
C 979 0 1267 0 1421 -13 
L 1421 153 
C 1011 153 986 178 986 428 
L 986 1658 
C 986 2247 1344 2688 1792 2688 
C 2266 2688 2317 2266 2317 1958 
L 2317 428 
C 2317 184 2291 153 1882 153 
L 1882 -13 
C 2035 0 2317 0 2483 0 
C 2650 0 2938 0 3091 -13 
L 3091 153 
C 2682 153 2656 178 2656 428 
L 2656 1933 
z
" transform="scale(0.015625)"/>
       <path id="CMR17-61" d="M 2304 1653 
C 2304 2072 2304 2294 2035 2543 
C 1798 2752 1523 2816 1306 2816 
C 800 2816 435 2407 435 1971 
C 435 1728 627 1728 666 1728 
C 749 1728 896 1778 896 1954 
C 896 2112 774 2181 666 2181 
C 640 2181 608 2174 589 2168 
C 723 2592 1069 2714 1293 2714 
C 1613 2714 1965 2429 1965 1885 
L 1965 1600 
C 1587 1600 1133 1549 774 1357 
C 371 1133 256 813 256 570 
C 256 77 832 -64 1171 -64 
C 1523 -64 1850 139 1990 511 
C 2003 233 2182 -18 2464 -18 
C 2598 -18 2938 70 2938 567 
L 2938 920 
L 2822 920 
L 2822 562 
C 2822 178 2650 128 2566 128 
C 2304 128 2304 458 2304 738 
L 2304 1653 
z
M 1965 870 
C 1965 317 1568 38 1216 38 
C 896 38 646 275 646 570 
C 646 761 730 1100 1101 1305 
C 1408 1478 1760 1504 1965 1504 
L 1965 870 
z
" transform="scale(0.015625)"/>
      </defs>
      <use xlink:href="#CMR17-41" transform="scale(0.996264)"/>
      <use xlink:href="#CMR17-6e" transform="translate(69.07243 0) scale(0.996264)"/>
      <use xlink:href="#CMR17-61" transform="translate(119.9678 0) scale(0.996264)"/>
      <use xlink:href="#CMR17-6c" transform="translate(165.658277 0) scale(0.996264)"/>
      <use xlink:href="#CMR17-79" transform="translate(190.529335 0) scale(0.996264)"/>
      <use xlink:href="#CMR17-74" transform="translate(238.822251 0) scale(0.996264)"/>
      <use xlink:href="#CMR17-69" transform="translate(274.103019 0) scale(0.996264)"/>
      <use xlink:href="#CMR17-63" transform="translate(298.974077 0) scale(0.996264)"/>
      <use xlink:href="#CMR17-61" transform="translate(339.459738 0) scale(0.996264)"/>
      <use xlink:href="#CMR17-6c" transform="translate(385.150215 0) scale(0.996264)"/>
     </g>
    </g>
    <g id="line2d_39">
     <path d="M 66.51159 129.966604 
L 77.51159 129.966604 
L 88.51159 129.966604 
" style="fill: none; stroke: #ff7f0e; stroke-width: 1.5; stroke-linecap: square"/>
     <g>
      <use xlink:href="#m871f1027ba" x="77.51159" y="129.966604" style="fill: #ff7f0e; stroke: #ff7f0e"/>
     </g>
    </g>
    <g id="text_21">
     <!-- FEM solution -->
     <g transform="translate(97.31159 133.816604) scale(0.11 -0.11)">
      <defs>
       <path id="CMR17-46" d="M 3482 4325 
L 326 4325 
L 326 4160 
C 768 4160 838 4160 838 3874 
L 838 446 
C 838 160 768 160 326 160 
L 326 0 
C 512 0 870 0 1069 0 
C 1331 0 1638 0 1901 0 
L 1901 160 
L 1760 160 
C 1274 160 1261 223 1261 452 
L 1261 2075 
L 1837 2075 
C 2432 2075 2490 1865 2490 1332 
L 2605 1332 
L 2605 2987 
L 2490 2987 
C 2490 2450 2432 2240 1837 2240 
L 1261 2240 
L 1261 3911 
C 1261 4128 1274 4160 1530 4160 
L 2355 4160 
C 3322 4160 3430 3765 3520 2916 
L 3635 2916 
L 3482 4325 
z
" transform="scale(0.015625)"/>
       <path id="CMR17-45" d="M 3885 1615 
L 3770 1615 
C 3629 676 3546 166 2419 166 
L 1530 166 
C 1274 166 1261 197 1261 414 
L 1261 2176 
L 1862 2176 
C 2464 2176 2522 1960 2522 1430 
L 2637 1430 
L 2637 3081 
L 2522 3081 
C 2522 2557 2464 2342 1862 2342 
L 1261 2342 
L 1261 3913 
C 1261 4128 1274 4160 1530 4160 
L 2406 4160 
C 3398 4160 3514 3769 3603 2929 
L 3718 2929 
L 3565 4325 
L 326 4325 
L 326 4160 
C 768 4160 838 4160 838 3874 
L 838 451 
C 838 166 768 166 326 166 
L 326 0 
L 3654 0 
L 3885 1615 
z
" transform="scale(0.015625)"/>
       <path id="CMR17-4d" d="M 1338 4224 
C 1299 4320 1293 4320 1158 4320 
L 339 4320 
L 339 4160 
C 781 4160 851 4160 851 3875 
L 851 610 
C 851 451 851 153 339 153 
L 339 -13 
C 486 0 755 0 915 0 
C 1075 0 1344 0 1491 -13 
L 1491 153 
C 979 153 979 451 979 610 
L 979 4135 
L 986 4135 
L 2490 89 
C 2515 25 2528 -13 2579 -13 
C 2630 -13 2643 25 2669 89 
L 4186 4166 
L 4192 4166 
L 4192 438 
C 4192 153 4122 153 3680 153 
L 3680 -13 
C 3853 0 4198 0 4384 0 
C 4570 0 4922 0 5094 -13 
L 5094 153 
C 4653 153 4582 153 4582 438 
L 4582 3875 
C 4582 4160 4653 4160 5094 4160 
L 5094 4320 
L 4282 4320 
C 4147 4320 4141 4314 4102 4218 
L 2720 502 
L 1338 4224 
z
" transform="scale(0.015625)"/>
       <path id="CMR17-73" d="M 1978 2697 
C 1978 2813 1971 2819 1933 2819 
C 1907 2819 1901 2813 1824 2717 
C 1805 2691 1747 2626 1728 2601 
C 1523 2819 1235 2819 1126 2819 
C 416 2819 160 2447 160 2076 
C 160 1498 813 1365 998 1325 
C 1402 1243 1542 1217 1677 1101 
C 1760 1025 1901 884 1901 654 
C 1901 384 1747 38 1158 38 
C 602 38 403 460 288 1021 
C 269 1110 269 1117 218 1117 
C 166 1117 160 1110 160 983 
L 160 63 
C 160 -51 166 -58 205 -58 
C 237 -58 243 -51 275 0 
C 314 57 410 211 448 276 
C 576 103 800 -64 1158 -64 
C 1792 -64 2131 283 2131 784 
C 2131 1112 1958 1285 1875 1362 
C 1683 1561 1459 1606 1190 1657 
C 838 1735 390 1825 390 2217 
C 390 2383 480 2737 1126 2737 
C 1811 2737 1850 2094 1862 1888 
C 1869 1856 1901 1849 1920 1849 
C 1978 1849 1978 1869 1978 1978 
L 1978 2697 
z
" transform="scale(0.015625)"/>
       <path id="CMR17-75" d="M 1882 2693 
L 1882 2528 
C 2259 2528 2317 2489 2317 2186 
L 2317 1032 
C 2317 500 2029 38 1555 38 
C 1030 38 986 348 986 678 
L 986 2763 
L 211 2693 
L 211 2528 
C 467 2528 640 2528 646 2274 
L 646 1058 
C 646 633 646 361 813 183 
C 896 101 1056 -64 1517 -64 
C 2061 -64 2272 377 2323 506 
L 2330 506 
L 2330 -63 
L 3091 -63 
L 3091 128 
C 2714 128 2656 166 2656 473 
L 2656 2763 
L 1882 2693 
z
" transform="scale(0.015625)"/>
      </defs>
      <use xlink:href="#CMR17-46" transform="scale(0.996264)"/>
      <use xlink:href="#CMR17-45" transform="translate(59.983847 0) scale(0.996264)"/>
      <use xlink:href="#CMR17-4d" transform="translate(122.570147 0) scale(0.996264)"/>
      <use xlink:href="#CMR17-73" transform="translate(237.333054 0) scale(0.996264)"/>
      <use xlink:href="#CMR17-6f" transform="translate(273.134392 0) scale(0.996264)"/>
      <use xlink:href="#CMR17-6c" transform="translate(318.824869 0) scale(0.996264)"/>
      <use xlink:href="#CMR17-75" transform="translate(343.695927 0) scale(0.996264)"/>
      <use xlink:href="#CMR17-74" transform="translate(394.591297 0) scale(0.996264)"/>
      <use xlink:href="#CMR17-69" transform="translate(429.872065 0) scale(0.996264)"/>
      <use xlink:href="#CMR17-6f" transform="translate(454.743123 0) scale(0.996264)"/>
      <use xlink:href="#CMR17-6e" transform="translate(500.4336 0) scale(0.996264)"/>
     </g>
    </g>
   </g>
  </g>
  <g id="axes_2">
   <g id="patch_8">
    <path d="M 316.480076 222.325239 
L 561.6 222.325239 
L 561.6 24.40797 
L 316.480076 24.40797 
z
" style="fill: #ffffff"/>
   </g>
   <g id="PolyCollection_2">
    <defs>
     <path id="me0e426952b" d="M 316.480076 -184.414593 
L 316.480076 -94.452198 
L 561.6 -94.452198 
L 561.6 -184.414593 
L 561.6 -184.414593 
L 316.480076 -184.414593 
z
" style="stroke: #808080; stroke-opacity: 0.25"/>
    </defs>
    <g clip-path="url(#p2ebe55995e)">
     <use xlink:href="#me0e426952b" x="0" y="262.8" style="fill: #808080; fill-opacity: 0.25; stroke: #808080; stroke-opacity: 0.25"/>
    </g>
   </g>
   <g id="matplotlib.axis_3">
    <g id="xtick_8">
     <g id="line2d_40">
      <path d="M 324.546417 222.325239 
L 324.546417 24.40797 
" clip-path="url(#p2ebe55995e)" style="fill: none; stroke-dasharray: 0.8,1.32; stroke-dashoffset: 0; stroke: #b0b0b0; stroke-width: 0.8"/>
     </g>
     <g id="line2d_41">
      <g>
       <use xlink:href="#mcb25ada970" x="324.546417" y="222.325239" style="stroke: #000000; stroke-width: 0.8"/>
      </g>
     </g>
     <g id="text_22">
      <!-- $\mathdefault{−0.5}$ -->
      <g transform="translate(314.307006 236.243737) scale(0.1 -0.1)">
       <use xlink:href="#CMSY10-0" transform="scale(0.996264)"/>
       <use xlink:href="#CMR17-30" transform="translate(77.487468 0) scale(0.996264)"/>
       <use xlink:href="#CMMI12-3a" transform="translate(123.177945 0) scale(0.996264)"/>
       <use xlink:href="#CMR17-35" transform="translate(150.275122 0) scale(0.996264)"/>
      </g>
     </g>
    </g>
    <g id="xtick_9">
     <g id="line2d_42">
      <path d="M 369.728771 222.325239 
L 369.728771 24.40797 
" clip-path="url(#p2ebe55995e)" style="fill: none; stroke-dasharray: 0.8,1.32; stroke-dashoffset: 0; stroke: #b0b0b0; stroke-width: 0.8"/>
     </g>
     <g id="line2d_43">
      <g>
       <use xlink:href="#mcb25ada970" x="369.728771" y="222.325239" style="stroke: #000000; stroke-width: 0.8"/>
      </g>
     </g>
     <g id="text_23">
      <!-- $\mathdefault{0.0}$ -->
      <g transform="translate(363.363731 236.243737) scale(0.1 -0.1)">
       <use xlink:href="#CMR17-30" transform="scale(0.996264)"/>
       <use xlink:href="#CMMI12-3a" transform="translate(45.690477 0) scale(0.996264)"/>
       <use xlink:href="#CMR17-30" transform="translate(72.787654 0) scale(0.996264)"/>
      </g>
     </g>
    </g>
    <g id="xtick_10">
     <g id="line2d_44">
      <path d="M 414.911124 222.325239 
L 414.911124 24.40797 
" clip-path="url(#p2ebe55995e)" style="fill: none; stroke-dasharray: 0.8,1.32; stroke-dashoffset: 0; stroke: #b0b0b0; stroke-width: 0.8"/>
     </g>
     <g id="line2d_45">
      <g>
       <use xlink:href="#mcb25ada970" x="414.911124" y="222.325239" style="stroke: #000000; stroke-width: 0.8"/>
      </g>
     </g>
     <g id="text_24">
      <!-- $\mathdefault{0.5}$ -->
      <g transform="translate(408.546085 236.243737) scale(0.1 -0.1)">
       <use xlink:href="#CMR17-30" transform="scale(0.996264)"/>
       <use xlink:href="#CMMI12-3a" transform="translate(45.690477 0) scale(0.996264)"/>
       <use xlink:href="#CMR17-35" transform="translate(72.787654 0) scale(0.996264)"/>
      </g>
     </g>
    </g>
    <g id="xtick_11">
     <g id="line2d_46">
      <path d="M 460.093478 222.325239 
L 460.093478 24.40797 
" clip-path="url(#p2ebe55995e)" style="fill: none; stroke-dasharray: 0.8,1.32; stroke-dashoffset: 0; stroke: #b0b0b0; stroke-width: 0.8"/>
     </g>
     <g id="line2d_47">
      <g>
       <use xlink:href="#mcb25ada970" x="460.093478" y="222.325239" style="stroke: #000000; stroke-width: 0.8"/>
      </g>
     </g>
     <g id="text_25">
      <!-- $\mathdefault{1.0}$ -->
      <g transform="translate(453.728439 236.243737) scale(0.1 -0.1)">
       <use xlink:href="#CMR17-31" transform="scale(0.996264)"/>
       <use xlink:href="#CMMI12-3a" transform="translate(45.690477 0) scale(0.996264)"/>
       <use xlink:href="#CMR17-30" transform="translate(72.787654 0) scale(0.996264)"/>
      </g>
     </g>
    </g>
    <g id="xtick_12">
     <g id="line2d_48">
      <path d="M 505.275832 222.325239 
L 505.275832 24.40797 
" clip-path="url(#p2ebe55995e)" style="fill: none; stroke-dasharray: 0.8,1.32; stroke-dashoffset: 0; stroke: #b0b0b0; stroke-width: 0.8"/>
     </g>
     <g id="line2d_49">
      <g>
       <use xlink:href="#mcb25ada970" x="505.275832" y="222.325239" style="stroke: #000000; stroke-width: 0.8"/>
      </g>
     </g>
     <g id="text_26">
      <!-- $\mathdefault{1.5}$ -->
      <g transform="translate(498.910792 236.243737) scale(0.1 -0.1)">
       <use xlink:href="#CMR17-31" transform="scale(0.996264)"/>
       <use xlink:href="#CMMI12-3a" transform="translate(45.690477 0) scale(0.996264)"/>
       <use xlink:href="#CMR17-35" transform="translate(72.787654 0) scale(0.996264)"/>
      </g>
     </g>
    </g>
    <g id="xtick_13">
     <g id="line2d_50">
      <path d="M 550.458185 222.325239 
L 550.458185 24.40797 
" clip-path="url(#p2ebe55995e)" style="fill: none; stroke-dasharray: 0.8,1.32; stroke-dashoffset: 0; stroke: #b0b0b0; stroke-width: 0.8"/>
     </g>
     <g id="line2d_51">
      <g>
       <use xlink:href="#mcb25ada970" x="550.458185" y="222.325239" style="stroke: #000000; stroke-width: 0.8"/>
      </g>
     </g>
     <g id="text_27">
      <!-- $\mathdefault{2.0}$ -->
      <g transform="translate(544.093146 236.243737) scale(0.1 -0.1)">
       <use xlink:href="#CMR17-32" transform="scale(0.996264)"/>
       <use xlink:href="#CMMI12-3a" transform="translate(45.690477 0) scale(0.996264)"/>
       <use xlink:href="#CMR17-30" transform="translate(72.787654 0) scale(0.996264)"/>
      </g>
     </g>
    </g>
    <g id="text_28">
     <!-- $h / U_{\infty} \partial_y u $ -->
     <g transform="translate(413.343097 251.89449) scale(0.13 -0.13)">
      <defs>
       <path id="CMMI12-40" d="M 2906 2145 
C 2867 2504 2643 2935 2067 2935 
C 1165 2935 243 2017 243 996 
C 243 604 512 -134 1382 -134 
C 2893 -134 3539 2067 3539 2944 
C 3539 3866 3021 4576 2202 4576 
C 1274 4576 998 3763 998 3590 
C 998 3533 1037 3392 1216 3392 
C 1440 3392 1536 3597 1536 3706 
C 1536 3904 1338 3904 1254 3904 
C 1517 4378 2003 4422 2176 4422 
C 2739 4422 3098 3975 3098 3262 
C 3098 2853 2976 2380 2912 2145 
L 2906 2145 
z
M 1402 38 
C 800 38 698 514 698 784 
C 698 1066 877 1728 973 1965 
C 1056 2158 1421 2807 2086 2807 
C 2669 2807 2803 2299 2803 1953 
C 2803 1477 2387 38 1402 38 
z
" transform="scale(0.015625)"/>
      </defs>
      <use xlink:href="#CMMI12-68" transform="scale(0.996264)"/>
      <use xlink:href="#CMMI12-3d" transform="translate(56.154624 0) scale(0.996264)"/>
      <use xlink:href="#CMMI12-55" transform="translate(104.929543 0) scale(0.996264)"/>
      <use xlink:href="#CMSY10-31" transform="translate(171.181662 -14.943915) scale(0.697382)"/>
      <use xlink:href="#CMMI12-40" transform="translate(241.418168 0) scale(0.996264)"/>
      <use xlink:href="#CMMI12-79" transform="translate(292.914297 -14.943915) scale(0.697382)"/>
      <use xlink:href="#CMMI12-75" transform="translate(329.209404 0) scale(0.996264)"/>
     </g>
    </g>
   </g>
   <g id="matplotlib.axis_4">
    <g id="ytick_10">
     <g id="line2d_52">
      <path d="M 316.480076 213.328999 
L 561.6 213.328999 
" clip-path="url(#p2ebe55995e)" style="fill: none; stroke-dasharray: 0.8,1.32; stroke-dashoffset: 0; stroke: #b0b0b0; stroke-width: 0.8"/>
     </g>
     <g id="line2d_53">
      <g>
       <use xlink:href="#mc6f9e3c0b5" x="316.480076" y="213.328999" style="stroke: #000000; stroke-width: 0.8"/>
      </g>
     </g>
    </g>
    <g id="ytick_11">
     <g id="line2d_54">
      <path d="M 316.480076 190.838401 
L 561.6 190.838401 
" clip-path="url(#p2ebe55995e)" style="fill: none; stroke-dasharray: 0.8,1.32; stroke-dashoffset: 0; stroke: #b0b0b0; stroke-width: 0.8"/>
     </g>
     <g id="line2d_55">
      <g>
       <use xlink:href="#mc6f9e3c0b5" x="316.480076" y="190.838401" style="stroke: #000000; stroke-width: 0.8"/>
      </g>
     </g>
    </g>
    <g id="ytick_12">
     <g id="line2d_56">
      <path d="M 316.480076 168.347802 
L 561.6 168.347802 
" clip-path="url(#p2ebe55995e)" style="fill: none; stroke-dasharray: 0.8,1.32; stroke-dashoffset: 0; stroke: #b0b0b0; stroke-width: 0.8"/>
     </g>
     <g id="line2d_57">
      <g>
       <use xlink:href="#mc6f9e3c0b5" x="316.480076" y="168.347802" style="stroke: #000000; stroke-width: 0.8"/>
      </g>
     </g>
    </g>
    <g id="ytick_13">
     <g id="line2d_58">
      <path d="M 316.480076 145.857203 
L 561.6 145.857203 
" clip-path="url(#p2ebe55995e)" style="fill: none; stroke-dasharray: 0.8,1.32; stroke-dashoffset: 0; stroke: #b0b0b0; stroke-width: 0.8"/>
     </g>
     <g id="line2d_59">
      <g>
       <use xlink:href="#mc6f9e3c0b5" x="316.480076" y="145.857203" style="stroke: #000000; stroke-width: 0.8"/>
      </g>
     </g>
    </g>
    <g id="ytick_14">
     <g id="line2d_60">
      <path d="M 316.480076 123.366604 
L 561.6 123.366604 
" clip-path="url(#p2ebe55995e)" style="fill: none; stroke-dasharray: 0.8,1.32; stroke-dashoffset: 0; stroke: #b0b0b0; stroke-width: 0.8"/>
     </g>
     <g id="line2d_61">
      <g>
       <use xlink:href="#mc6f9e3c0b5" x="316.480076" y="123.366604" style="stroke: #000000; stroke-width: 0.8"/>
      </g>
     </g>
    </g>
    <g id="ytick_15">
     <g id="line2d_62">
      <path d="M 316.480076 100.876006 
L 561.6 100.876006 
" clip-path="url(#p2ebe55995e)" style="fill: none; stroke-dasharray: 0.8,1.32; stroke-dashoffset: 0; stroke: #b0b0b0; stroke-width: 0.8"/>
     </g>
     <g id="line2d_63">
      <g>
       <use xlink:href="#mc6f9e3c0b5" x="316.480076" y="100.876006" style="stroke: #000000; stroke-width: 0.8"/>
      </g>
     </g>
    </g>
    <g id="ytick_16">
     <g id="line2d_64">
      <path d="M 316.480076 78.385407 
L 561.6 78.385407 
" clip-path="url(#p2ebe55995e)" style="fill: none; stroke-dasharray: 0.8,1.32; stroke-dashoffset: 0; stroke: #b0b0b0; stroke-width: 0.8"/>
     </g>
     <g id="line2d_65">
      <g>
       <use xlink:href="#mc6f9e3c0b5" x="316.480076" y="78.385407" style="stroke: #000000; stroke-width: 0.8"/>
      </g>
     </g>
    </g>
    <g id="ytick_17">
     <g id="line2d_66">
      <path d="M 316.480076 55.894808 
L 561.6 55.894808 
" clip-path="url(#p2ebe55995e)" style="fill: none; stroke-dasharray: 0.8,1.32; stroke-dashoffset: 0; stroke: #b0b0b0; stroke-width: 0.8"/>
     </g>
     <g id="line2d_67">
      <g>
       <use xlink:href="#mc6f9e3c0b5" x="316.480076" y="55.894808" style="stroke: #000000; stroke-width: 0.8"/>
      </g>
     </g>
    </g>
    <g id="ytick_18">
     <g id="line2d_68">
      <path d="M 316.480076 33.40421 
L 561.6 33.40421 
" clip-path="url(#p2ebe55995e)" style="fill: none; stroke-dasharray: 0.8,1.32; stroke-dashoffset: 0; stroke: #b0b0b0; stroke-width: 0.8"/>
     </g>
     <g id="line2d_69">
      <g>
       <use xlink:href="#mc6f9e3c0b5" x="316.480076" y="33.40421" style="stroke: #000000; stroke-width: 0.8"/>
      </g>
     </g>
    </g>
   </g>
   <g id="line2d_70">
    <path d="M 550.458185 213.328999 
L 369.728771 168.347802 
L 369.728771 123.366604 
L 369.728771 78.385407 
L 550.458185 33.40421 
" clip-path="url(#p2ebe55995e)" style="fill: none; stroke: #1f77b4; stroke-opacity: 0.5; stroke-width: 5; stroke-linecap: square"/>
   </g>
   <g id="line2d_71">
    <defs>
     <path id="m4ed0c94065" d="M -5 5 
L 5 -5 
M -5 -5 
L 5 5 
" style="stroke: #d62728"/>
    </defs>
    <g clip-path="url(#p2ebe55995e)">
     <use xlink:href="#m4ed0c94065" x="484.766908" y="196.979289" style="fill: #d62728; stroke: #d62728"/>
     <use xlink:href="#m4ed0c94065" x="369.728771" y="152.31105" style="fill: #d62728; stroke: #d62728"/>
     <use xlink:href="#m4ed0c94065" x="369.728771" y="133.299759" style="fill: #d62728; stroke: #d62728"/>
     <use xlink:href="#m4ed0c94065" x="369.728771" y="126.028185" style="fill: #d62728; stroke: #d62728"/>
     <use xlink:href="#m4ed0c94065" x="369.728771" y="120.705024" style="fill: #d62728; stroke: #d62728"/>
     <use xlink:href="#m4ed0c94065" x="369.728771" y="113.43345" style="fill: #d62728; stroke: #d62728"/>
     <use xlink:href="#m4ed0c94065" x="369.728771" y="94.422159" style="fill: #d62728; stroke: #d62728"/>
     <use xlink:href="#m4ed0c94065" x="484.766908" y="49.75392" style="fill: #d62728; stroke: #d62728"/>
    </g>
   </g>
   <g id="line2d_72">
    <path d="M 526.873788 213.328999 
L 518.903712 210.234293 
L 510.933636 207.139586 
L 502.96356 204.04488 
L 494.993484 200.950174 
L 487.023409 197.855467 
L 479.053333 194.760761 
L 471.083257 191.666055 
L 463.113181 188.571348 
L 455.143105 185.476642 
L 447.173029 182.381935 
L 439.202953 179.287229 
L 431.232877 176.192523 
L 423.262801 173.097816 
L 415.292725 170.00311 
L 407.322649 166.908404 
L 399.352574 163.813697 
L 391.382498 160.718991 
L 383.412422 157.624284 
L 375.442346 154.529578 
L 371.985272 151.434872 
L 379.955348 148.340165 
L 387.925424 145.245459 
L 395.895499 142.150752 
L 403.865575 139.056046 
L 411.835651 135.96134 
M 369.728771 135.96134 
L 369.728771 135.45755 
L 369.728771 134.953761 
L 369.728771 134.449971 
L 369.728771 133.946182 
L 369.728771 133.442393 
L 369.728771 132.938603 
L 369.728771 132.434814 
L 369.728771 131.931024 
L 369.728771 131.427235 
L 369.728771 130.923446 
L 369.728771 130.419656 
L 369.728771 129.915867 
L 369.728771 129.412077 
L 369.728771 128.908288 
L 369.728771 128.404499 
L 369.728771 127.900709 
L 369.728771 127.39692 
L 369.728771 126.89313 
L 369.728771 126.389341 
L 369.728771 125.885551 
L 369.728771 125.381762 
L 369.728771 124.877973 
L 369.728771 124.374183 
L 369.728771 123.870394 
L 369.728771 123.366604 
M 369.728771 123.366604 
L 369.728771 122.862815 
L 369.728771 122.359026 
L 369.728771 121.855236 
L 369.728771 121.351447 
L 369.728771 120.847657 
L 369.728771 120.343868 
L 369.728771 119.840079 
L 369.728771 119.336289 
L 369.728771 118.8325 
L 369.728771 118.32871 
L 369.728771 117.824921 
L 369.728771 117.321131 
L 369.728771 116.817342 
L 369.728771 116.313553 
L 369.728771 115.809763 
L 369.728771 115.305974 
L 369.728771 114.802184 
L 369.728771 114.298395 
L 369.728771 113.794606 
L 369.728771 113.290816 
L 369.728771 112.787027 
L 369.728771 112.283237 
L 369.728771 111.779448 
L 369.728771 111.275659 
L 369.728771 110.771869 
M 411.835651 110.771869 
L 403.865575 107.677163 
L 395.895499 104.582456 
L 387.925424 101.48775 
L 379.955348 98.393044 
L 371.985272 95.298337 
L 375.442346 92.203631 
L 383.412422 89.108924 
L 391.382498 86.014218 
L 399.352574 82.919512 
L 407.322649 79.824805 
L 415.292725 76.730099 
L 423.262801 73.635393 
L 431.232877 70.540686 
L 439.202953 67.44598 
L 447.173029 64.351273 
L 455.143105 61.256567 
L 463.113181 58.161861 
L 471.083257 55.067154 
L 479.053333 51.972448 
L 487.023409 48.877742 
L 494.993484 45.783035 
L 502.96356 42.688329 
L 510.933636 39.593622 
L 518.903712 36.498916 
L 526.873788 33.40421 
" clip-path="url(#p2ebe55995e)" style="fill: none; stroke: #ff7f0e; stroke-width: 3; stroke-linecap: square"/>
   </g>
   <g id="line2d_73">
    <path d="M 526.873788 213.328999 
L 327.62189 135.96134 
M 369.728771 135.96134 
L 369.728771 123.366604 
M 369.728771 123.366604 
L 369.728771 110.771869 
M 327.62189 110.771869 
L 526.873788 33.40421 
" clip-path="url(#p2ebe55995e)" style="fill: none; stroke-dasharray: 5.55,2.4; stroke-dashoffset: 0; stroke: #2ca02c; stroke-width: 1.5"/>
   </g>
   <g id="patch_9">
    <path d="M 316.480076 222.325239 
L 316.480076 24.40797 
" style="fill: none; stroke: #000000; stroke-width: 0.8; stroke-linejoin: miter; stroke-linecap: square"/>
   </g>
   <g id="patch_10">
    <path d="M 561.6 222.325239 
L 561.6 24.40797 
" style="fill: none; stroke: #000000; stroke-width: 0.8; stroke-linejoin: miter; stroke-linecap: square"/>
   </g>
   <g id="patch_11">
    <path d="M 316.480076 222.325239 
L 561.6 222.325239 
" style="fill: none; stroke: #000000; stroke-width: 0.8; stroke-linejoin: miter; stroke-linecap: square"/>
   </g>
   <g id="patch_12">
    <path d="M 316.480076 24.40797 
L 561.6 24.40797 
" style="fill: none; stroke: #000000; stroke-width: 0.8; stroke-linejoin: miter; stroke-linecap: square"/>
   </g>
   <g id="text_29">
    <!-- Strain rate norm profile - - $\dot\gamma(u)$ -->
    <g transform="translate(340.441026 18.40797) scale(0.15 -0.15)">
     <defs>
      <path id="CMR17-53" d="M 2803 4290 
C 2803 4404 2797 4411 2758 4411 
C 2720 4411 2707 4385 2682 4328 
L 2490 3907 
C 2246 4257 1875 4416 1472 4416 
C 819 4416 294 3901 294 3253 
C 294 3056 339 2776 557 2510 
C 794 2218 1018 2167 1530 2033 
C 1722 1982 2042 1899 2106 1874 
C 2470 1722 2662 1341 2662 985 
C 2662 527 2336 38 1779 38 
C 1094 38 454 419 410 1311 
C 403 1413 397 1419 352 1419 
C 301 1419 294 1413 294 1285 
L 294 -1 
C 294 -115 301 -122 339 -122 
C 384 -122 397 -90 486 108 
C 493 127 493 140 614 381 
C 934 -39 1472 -128 1779 -128 
C 2477 -128 2970 451 2970 1124 
C 2970 1454 2848 1708 2778 1823 
C 2509 2230 2221 2306 1914 2382 
C 1869 2402 1856 2402 1498 2490 
C 1152 2579 1005 2624 845 2796 
C 666 2992 602 3196 602 3399 
C 602 3812 934 4263 1478 4263 
C 2157 4263 2579 3786 2675 2993 
C 2694 2878 2701 2872 2746 2872 
C 2803 2872 2803 2891 2803 2999 
L 2803 4290 
z
" transform="scale(0.015625)"/>
      <path id="CMR17-6d" d="M 4326 1933 
C 4326 2252 4269 2790 3507 2790 
C 3072 2790 2771 2496 2656 2151 
L 2650 2151 
C 2573 2676 2195 2790 1837 2790 
C 1331 2790 1069 2400 973 2144 
L 966 2144 
L 966 2790 
L 211 2720 
L 211 2554 
C 589 2554 646 2515 646 2208 
L 646 428 
C 646 184 621 153 211 153 
L 211 -13 
C 365 0 646 0 813 0 
C 979 0 1267 0 1421 -13 
L 1421 153 
C 1011 153 986 178 986 428 
L 986 1658 
C 986 2247 1344 2688 1792 2688 
C 2266 2688 2317 2266 2317 1958 
L 2317 428 
C 2317 184 2291 153 1882 153 
L 1882 -13 
C 2035 0 2317 0 2483 0 
C 2650 0 2938 0 3091 -13 
L 3091 153 
C 2682 153 2656 178 2656 428 
L 2656 1658 
C 2656 2247 3014 2688 3462 2688 
C 3936 2688 3987 2266 3987 1958 
L 3987 428 
C 3987 184 3962 153 3552 153 
L 3552 -13 
C 3706 0 3987 0 4154 0 
C 4320 0 4608 0 4762 -13 
L 4762 153 
C 4352 153 4326 178 4326 428 
L 4326 1933 
z
" transform="scale(0.015625)"/>
      <path id="CMR17-7b" d="M 2970 1664 
L 2970 1766 
L -38 1766 
L -38 1664 
L 2970 1664 
z
" transform="scale(0.015625)"/>
      <path id="CMR17-5f" d="M 1056 3909 
C 1056 4062 934 4170 800 4170 
C 646 4170 538 4049 538 3909 
C 538 3756 659 3648 794 3648 
C 947 3648 1056 3769 1056 3909 
z
" transform="scale(0.015625)"/>
      <path id="CMMI12-d" d="M 2419 760 
C 2406 1071 2394 1561 2150 2133 
C 2022 2452 1805 2788 1338 2788 
C 550 2788 122 1790 122 1625 
C 122 1567 166 1567 186 1567 
C 243 1567 243 1580 275 1663 
C 410 2057 819 2368 1261 2368 
C 2150 2368 2278 1383 2278 754 
C 2278 352 2234 220 2195 92 
C 2074 -302 1862 -1090 1862 -1268 
C 1862 -1319 1882 -1376 1933 -1376 
C 2029 -1376 2086 -1166 2157 -912 
C 2310 -353 2349 -73 2381 181 
C 2400 334 2765 1384 3270 2382 
C 3315 2483 3405 2655 3405 2674 
C 3405 2680 3398 2725 3341 2725 
C 3328 2725 3296 2725 3283 2699 
C 3270 2687 3046 2254 2854 1822 
C 2758 1606 2630 1320 2419 760 
z
" transform="scale(0.015625)"/>
     </defs>
     <use xlink:href="#CMR17-53" transform="scale(0.996264)"/>
     <use xlink:href="#CMR17-74" transform="translate(50.89537 0) scale(0.996264)"/>
     <use xlink:href="#CMR17-72" transform="translate(86.176138 0) scale(0.996264)"/>
     <use xlink:href="#CMR17-61" transform="translate(121.456905 0) scale(0.996264)"/>
     <use xlink:href="#CMR17-69" transform="translate(167.147382 0) scale(0.996264)"/>
     <use xlink:href="#CMR17-6e" transform="translate(192.018441 0) scale(0.996264)"/>
     <use xlink:href="#CMR17-72" transform="translate(272.989777 0) scale(0.996264)"/>
     <use xlink:href="#CMR17-61" transform="translate(308.270545 0) scale(0.996264)"/>
     <use xlink:href="#CMR17-74" transform="translate(353.961022 0) scale(0.996264)"/>
     <use xlink:href="#CMR17-65" transform="translate(389.24179 0) scale(0.996264)"/>
     <use xlink:href="#CMR17-6e" transform="translate(459.803417 0) scale(0.996264)"/>
     <use xlink:href="#CMR17-6f" transform="translate(510.698786 0) scale(0.996264)"/>
     <use xlink:href="#CMR17-72" transform="translate(556.389264 0) scale(0.996264)"/>
     <use xlink:href="#CMR17-6d" transform="translate(591.670031 0) scale(0.996264)"/>
     <use xlink:href="#CMR17-70" transform="translate(698.665588 0) scale(0.996264)"/>
     <use xlink:href="#CMR17-72" transform="translate(749.560957 0) scale(0.996264)"/>
     <use xlink:href="#CMR17-6f" transform="translate(784.841725 0) scale(0.996264)"/>
     <use xlink:href="#CMR17-c" transform="translate(830.532202 0) scale(0.996264)"/>
     <use xlink:href="#CMR17-6c" transform="translate(880.274426 0) scale(0.996264)"/>
     <use xlink:href="#CMR17-65" transform="translate(905.145484 0) scale(0.996264)"/>
     <use xlink:href="#CMR17-7b" transform="translate(975.707111 0) scale(0.996264)"/>
     <use xlink:href="#CMR17-5f" transform="translate(1067.047309 0.006461) scale(0.996264)"/>
     <use xlink:href="#CMMI12-d" transform="translate(1051.473554 0) scale(0.996264)"/>
     <use xlink:href="#CMR17-28" transform="translate(1107.492122 0) scale(0.996264)"/>
     <use xlink:href="#CMMI12-75" transform="translate(1142.77289 0) scale(0.996264)"/>
     <use xlink:href="#CMR17-29" transform="translate(1198.29322 0) scale(0.996264)"/>
    </g>
   </g>
   <g id="legend_2">
    <g id="patch_13">
     <path d="M 425.183788 155.678394 
L 553.9 155.678394 
Q 556.1 155.678394 556.1 153.478394 
L 556.1 93.254815 
Q 556.1 91.054815 553.9 91.054815 
L 425.183788 91.054815 
Q 422.983788 91.054815 422.983788 93.254815 
L 422.983788 153.478394 
Q 422.983788 155.678394 425.183788 155.678394 
z
" style="fill: #ffffff; opacity: 0.8; stroke: #cccccc; stroke-linejoin: miter"/>
    </g>
    <g id="line2d_74">
     <path d="M 427.383788 99.304815 
L 438.383788 99.304815 
L 449.383788 99.304815 
" style="fill: none; stroke: #1f77b4; stroke-opacity: 0.5; stroke-width: 5; stroke-linecap: square"/>
    </g>
    <g id="text_30">
     <!-- Analytical -->
     <g transform="translate(458.183788 103.154815) scale(0.11 -0.11)">
      <use xlink:href="#CMR17-41" transform="scale(0.996264)"/>
      <use xlink:href="#CMR17-6e" transform="translate(69.07243 0) scale(0.996264)"/>
      <use xlink:href="#CMR17-61" transform="translate(119.9678 0) scale(0.996264)"/>
      <use xlink:href="#CMR17-6c" transform="translate(165.658277 0) scale(0.996264)"/>
      <use xlink:href="#CMR17-79" transform="translate(190.529335 0) scale(0.996264)"/>
      <use xlink:href="#CMR17-74" transform="translate(238.822251 0) scale(0.996264)"/>
      <use xlink:href="#CMR17-69" transform="translate(274.103019 0) scale(0.996264)"/>
      <use xlink:href="#CMR17-63" transform="translate(298.974077 0) scale(0.996264)"/>
      <use xlink:href="#CMR17-61" transform="translate(339.459738 0) scale(0.996264)"/>
      <use xlink:href="#CMR17-6c" transform="translate(385.150215 0) scale(0.996264)"/>
     </g>
    </g>
    <g id="line2d_75">
     <g>
      <use xlink:href="#m4ed0c94065" x="438.383788" y="114.63571" style="fill: #d62728; stroke: #d62728"/>
     </g>
    </g>
    <g id="text_31">
     <!-- Gauss pt -->
     <g transform="translate(458.183788 118.48571) scale(0.11 -0.11)">
      <defs>
       <path id="CMR17-47" d="M 3974 1233 
C 3974 1473 3994 1505 4390 1505 
L 4390 1670 
C 4237 1664 3891 1664 3718 1664 
C 3539 1664 3040 1664 2797 1664 
L 2797 1505 
L 2989 1505 
C 3539 1505 3552 1434 3552 1201 
L 3552 774 
C 3552 63 2720 63 2522 63 
C 1862 63 781 511 781 2160 
C 781 3808 1843 4250 2464 4250 
C 3187 4250 3712 3626 3834 2741 
C 3846 2664 3846 2651 3904 2651 
C 3974 2651 3974 2664 3974 2779 
L 3974 4288 
C 3974 4402 3968 4409 3930 4409 
C 3904 4409 3898 4402 3853 4326 
L 3571 3791 
C 3258 4187 2874 4416 2381 4416 
C 1286 4416 294 3456 294 2148 
C 294 845 1267 -128 2394 -128 
C 2912 -128 3418 56 3616 417 
C 3725 158 3904 -20 3936 -20 
C 3968 -20 3974 -13 3974 100 
L 3974 1233 
z
" transform="scale(0.015625)"/>
      </defs>
      <use xlink:href="#CMR17-47" transform="scale(0.996264)"/>
      <use xlink:href="#CMR17-61" transform="translate(72.355346 0) scale(0.996264)"/>
      <use xlink:href="#CMR17-75" transform="translate(118.045823 0) scale(0.996264)"/>
      <use xlink:href="#CMR17-73" transform="translate(168.941193 0) scale(0.996264)"/>
      <use xlink:href="#CMR17-73" transform="translate(204.74253 0) scale(0.996264)"/>
      <use xlink:href="#CMR17-70" transform="translate(270.619834 0) scale(0.996264)"/>
      <use xlink:href="#CMR17-74" transform="translate(321.515204 0) scale(0.996264)"/>
     </g>
    </g>
    <g id="line2d_76">
     <path d="M 427.383788 129.966604 
L 438.383788 129.966604 
L 449.383788 129.966604 
" style="fill: none; stroke: #ff7f0e; stroke-width: 3; stroke-linecap: square"/>
    </g>
    <g id="text_32">
     <!-- FEM solution -->
     <g transform="translate(458.183788 133.816604) scale(0.11 -0.11)">
      <use xlink:href="#CMR17-46" transform="scale(0.996264)"/>
      <use xlink:href="#CMR17-45" transform="translate(59.983847 0) scale(0.996264)"/>
      <use xlink:href="#CMR17-4d" transform="translate(122.570147 0) scale(0.996264)"/>
      <use xlink:href="#CMR17-73" transform="translate(237.333054 0) scale(0.996264)"/>
      <use xlink:href="#CMR17-6f" transform="translate(273.134392 0) scale(0.996264)"/>
      <use xlink:href="#CMR17-6c" transform="translate(318.824869 0) scale(0.996264)"/>
      <use xlink:href="#CMR17-75" transform="translate(343.695927 0) scale(0.996264)"/>
      <use xlink:href="#CMR17-74" transform="translate(394.591297 0) scale(0.996264)"/>
      <use xlink:href="#CMR17-69" transform="translate(429.872065 0) scale(0.996264)"/>
      <use xlink:href="#CMR17-6f" transform="translate(454.743123 0) scale(0.996264)"/>
      <use xlink:href="#CMR17-6e" transform="translate(500.4336 0) scale(0.996264)"/>
     </g>
    </g>
    <g id="line2d_77">
     <path d="M 427.383788 145.297499 
L 438.383788 145.297499 
L 449.383788 145.297499 
" style="fill: none; stroke-dasharray: 5.55,2.4; stroke-dashoffset: 0; stroke: #2ca02c; stroke-width: 1.5"/>
    </g>
    <g id="text_33">
     <!-- Seen by quadrature -->
     <g transform="translate(458.183788 149.147499) scale(0.11 -0.11)">
      <defs>
       <path id="CMR17-62" d="M 960 4396 
L 198 4326 
L 198 4160 
C 576 4160 634 4122 634 3817 
L 634 -13 
L 749 -13 
L 934 441 
C 1120 141 1395 -64 1766 -64 
C 2406 -64 3053 500 3053 1370 
C 3053 2188 2477 2790 1830 2790 
C 1434 2790 1152 2579 960 2330 
L 960 4396 
z
M 973 2004 
C 973 2118 973 2138 1062 2272 
C 1312 2657 1670 2688 1792 2688 
C 1984 2688 2643 2585 2643 1376 
C 2643 108 1888 38 1734 38 
C 1536 38 1248 114 1043 486 
C 973 608 973 621 973 735 
L 973 2004 
z
" transform="scale(0.015625)"/>
       <path id="CMR17-71" d="M 2630 2802 
L 2528 2802 
L 2336 2172 
C 2189 2509 1920 2802 1491 2802 
C 838 2802 211 2223 211 1383 
C 211 548 800 -38 1440 -38 
C 1933 -38 2208 338 2291 478 
L 2291 -789 
C 2291 -1031 2266 -1063 1856 -1063 
L 1856 -1228 
C 2010 -1216 2291 -1216 2458 -1216 
C 2624 -1216 2912 -1216 3066 -1228 
L 3066 -1063 
C 2656 -1063 2630 -1037 2630 -789 
L 2630 2802 
z
M 2304 886 
C 2304 612 2074 357 2054 338 
C 1856 115 1626 64 1472 64 
C 992 64 621 669 621 1375 
C 621 2121 1043 2688 1536 2688 
C 2048 2688 2304 2108 2304 1777 
L 2304 886 
z
" transform="scale(0.015625)"/>
       <path id="CMR17-64" d="M 1869 4326 
L 1869 4160 
C 2246 4160 2304 4122 2304 3820 
L 2304 2345 
C 2278 2377 2016 2790 1498 2790 
C 845 2790 211 2208 211 1364 
C 211 525 806 -64 1434 -64 
C 1978 -64 2259 337 2291 380 
L 2291 -63 
L 3066 -63 
L 3066 128 
C 2688 128 2630 166 2630 473 
L 2630 4396 
L 1869 4326 
z
M 2291 755 
C 2291 563 2176 390 2029 262 
C 1811 70 1594 38 1472 38 
C 1286 38 621 134 621 1356 
C 621 2612 1363 2688 1530 2688 
C 1824 2688 2061 2522 2208 2291 
C 2291 2157 2291 2138 2291 2023 
L 2291 755 
z
" transform="scale(0.015625)"/>
      </defs>
      <use xlink:href="#CMR17-53" transform="scale(0.996264)"/>
      <use xlink:href="#CMR17-65" transform="translate(50.89537 0) scale(0.996264)"/>
      <use xlink:href="#CMR17-65" transform="translate(91.38103 0) scale(0.996264)"/>
      <use xlink:href="#CMR17-6e" transform="translate(131.866691 0) scale(0.996264)"/>
      <use xlink:href="#CMR17-62" transform="translate(212.838027 0) scale(0.996264)"/>
      <use xlink:href="#CMR17-79" transform="translate(261.130943 0) scale(0.996264)"/>
      <use xlink:href="#CMR17-71" transform="translate(339.499825 0) scale(0.996264)"/>
      <use xlink:href="#CMR17-75" transform="translate(387.792741 0) scale(0.996264)"/>
      <use xlink:href="#CMR17-61" transform="translate(438.688111 0) scale(0.996264)"/>
      <use xlink:href="#CMR17-64" transform="translate(484.378588 0) scale(0.996264)"/>
      <use xlink:href="#CMR17-72" transform="translate(535.273957 0) scale(0.996264)"/>
      <use xlink:href="#CMR17-61" transform="translate(570.554725 0) scale(0.996264)"/>
      <use xlink:href="#CMR17-74" transform="translate(616.245202 0) scale(0.996264)"/>
      <use xlink:href="#CMR17-75" transform="translate(651.52597 0) scale(0.996264)"/>
      <use xlink:href="#CMR17-72" transform="translate(702.42134 0) scale(0.996264)"/>
      <use xlink:href="#CMR17-65" transform="translate(737.702108 0) scale(0.996264)"/>
     </g>
    </g>
   </g>
  </g>
 </g>
 <defs>
  <clipPath id="pec44b10bbb">
   <rect x="56.61159" y="24.40797" width="245.119924" height="197.917269"/>
  </clipPath>
  <clipPath id="p2ebe55995e">
   <rect x="316.480076" y="24.40797" width="245.119924" height="197.917269"/>
  </clipPath>
 </defs>
</svg>
