<?xml version="1.0" encoding="utf-8" standalone="no"?>
<!DOCTYPE svg PUBLIC "-//W3C//DTD SVG 1.1//EN"
  "http://www.w3.org/Graphics/SVG/1.1/DTD/svg11.dtd">
<svg xmlns:xlink="http://www.w3.org/1999/xlink" width="584.39952pt" height="224.39952pt" viewBox="0 0 584.39952 224.39952" xmlns="http://www.w3.org/2000/svg" version="1.1">
 <metadata>
  <rdf:RDF xmlns:dc="http://purl.org/dc/elements/1.1/" xmlns:cc="http://creativecommons.org/ns#" xmlns:rdf="http://www.w3.org/1999/02/22-rdf-syntax-ns#">
   <cc:Work>
    <dc:type rdf:resource="http://purl.org/dc/dcmitype/StillImage"/>
    <dc:date>2023-03-13T14:56:22.139217</dc:date>
    <dc:format>image/svg+xml</dc:format>
    <dc:creator>
     <cc:Agent>
      <dc:title>Matplotlib v3.5.1, https://matplotlib.org/</dc:title>
     </cc:Agent>
    </dc:creator>
   </cc:Work>
  </rdf:RDF>
 </metadata>
 <defs>
  <style type="text/css">*{stroke-linejoin: round; stroke-linecap: butt}</style>
 </defs>
 <g id="figure_1">
  <g id="patch_1">
   <path d="M 0 224.39952 
L 584.39952 224.39952 
L 584.39952 -0 
L 0 -0 
z
" style="fill: #ffffff"/>
  </g>
  <g id="axes_1">
   <g id="patch_2">
    <path d="M 26.930079 201.343843 
L 297.314559 201.343843 
L 297.314559 24.269588 
L 26.930079 24.269588 
z
" style="fill: #ffffff"/>
   </g>
   <g id="matplotlib.axis_1">
    <g id="xtick_1">
     <g id="line2d_1">
      <path d="M 39.220283 201.343843 
L 39.220283 24.269588 
" clip-path="url(#p473e0f1eeb)" style="fill: none; stroke-dasharray: 0.8,1.32; stroke-dashoffset: 0; stroke: #b0b0b0; stroke-width: 0.8"/>
     </g>
     <g id="line2d_2">
      <defs>
       <path id="md64a1574f4" d="M 0 0 
L 0 3.5 
" style="stroke: #000000; stroke-width: 0.8"/>
      </defs>
      <g>
       <use xlink:href="#md64a1574f4" x="39.220283" y="201.343843" style="stroke: #000000; stroke-width: 0.8"/>
      </g>
     </g>
     <g id="text_1">
      <!-- $\mathdefault{−1.00}$ -->
      <g transform="translate(26.490204 215.262342)scale(0.1 -0.1)">
       <defs>
        <path id="CMSY10-0" d="M 4218 1472 
C 4326 1472 4442 1472 4442 1600 
C 4442 1728 4326 1728 4218 1728 
L 755 1728 
C 646 1728 531 1728 531 1600 
C 531 1472 646 1472 755 1472 
L 4218 1472 
z
" transform="scale(0.015625)"/>
        <path id="CMR17-31" d="M 1702 4083 
C 1702 4217 1696 4224 1606 4224 
C 1357 3927 979 3833 621 3820 
C 602 3820 570 3820 563 3808 
C 557 3795 557 3782 557 3648 
C 755 3648 1088 3686 1344 3839 
L 1344 467 
C 1344 243 1331 166 781 166 
L 589 166 
L 589 0 
C 896 6 1216 12 1523 12 
C 1830 12 2150 6 2458 0 
L 2458 166 
L 2266 166 
C 1715 166 1702 236 1702 467 
L 1702 4083 
z
" transform="scale(0.015625)"/>
        <path id="CMMI12-3a" d="M 1178 307 
C 1178 492 1024 620 870 620 
C 685 620 557 467 557 313 
C 557 128 710 0 864 0 
C 1050 0 1178 153 1178 307 
z
" transform="scale(0.015625)"/>
        <path id="CMR17-30" d="M 2688 2038 
C 2688 2430 2682 3099 2413 3613 
C 2176 4063 1798 4224 1466 4224 
C 1158 4224 768 4082 525 3620 
C 269 3137 243 2539 243 2038 
C 243 1671 250 1112 448 623 
C 723 -39 1216 -128 1466 -128 
C 1760 -128 2208 -7 2470 604 
C 2662 1048 2688 1568 2688 2038 
z
M 1466 -26 
C 1056 -26 813 328 723 816 
C 653 1196 653 1749 653 2109 
C 653 2604 653 3015 736 3407 
C 858 3954 1216 4121 1466 4121 
C 1728 4121 2067 3947 2189 3420 
C 2272 3054 2278 2623 2278 2109 
C 2278 1691 2278 1176 2202 797 
C 2067 96 1690 -26 1466 -26 
z
" transform="scale(0.015625)"/>
       </defs>
       <use xlink:href="#CMSY10-0" transform="scale(0.996264)"/>
       <use xlink:href="#CMR17-31" transform="translate(77.487468 0)scale(0.996264)"/>
       <use xlink:href="#CMMI12-3a" transform="translate(123.177945 0)scale(0.996264)"/>
       <use xlink:href="#CMR17-30" transform="translate(150.275122 0)scale(0.996264)"/>
       <use xlink:href="#CMR17-30" transform="translate(195.965599 0)scale(0.996264)"/>
      </g>
     </g>
    </g>
    <g id="xtick_2">
     <g id="line2d_3">
      <path d="M 69.945792 201.343843 
L 69.945792 24.269588 
" clip-path="url(#p473e0f1eeb)" style="fill: none; stroke-dasharray: 0.8,1.32; stroke-dashoffset: 0; stroke: #b0b0b0; stroke-width: 0.8"/>
     </g>
     <g id="line2d_4">
      <g>
       <use xlink:href="#md64a1574f4" x="69.945792" y="201.343843" style="stroke: #000000; stroke-width: 0.8"/>
      </g>
     </g>
     <g id="text_2">
      <!-- $\mathdefault{−0.75}$ -->
      <g transform="translate(57.215713 215.262342)scale(0.1 -0.1)">
       <defs>
        <path id="CMR17-37" d="M 2886 3955 
L 2886 4096 
L 1382 4096 
C 634 4096 621 4166 595 4288 
L 480 4288 
L 294 3104 
L 410 3104 
C 429 3226 474 3552 550 3673 
C 589 3724 1062 3724 1171 3724 
L 2579 3724 
L 1869 2670 
C 1395 1961 1069 1003 1069 166 
C 1069 89 1069 -128 1299 -128 
C 1530 -128 1530 89 1530 172 
L 1530 466 
C 1530 1514 1709 2204 2003 2644 
L 2886 3955 
z
" transform="scale(0.015625)"/>
        <path id="CMR17-35" d="M 730 3750 
C 794 3724 1056 3641 1325 3641 
C 1920 3641 2246 3961 2432 4140 
C 2432 4191 2432 4224 2394 4224 
C 2387 4224 2374 4224 2323 4198 
C 2099 4102 1837 4032 1517 4032 
C 1325 4032 1037 4055 723 4191 
C 653 4224 640 4224 634 4224 
C 602 4224 595 4217 595 4090 
L 595 2231 
C 595 2113 595 2080 659 2080 
C 691 2080 704 2093 736 2139 
C 941 2435 1222 2560 1542 2560 
C 1766 2560 2246 2415 2246 1293 
C 2246 1087 2246 716 2054 422 
C 1894 159 1645 25 1370 25 
C 947 25 518 319 403 812 
C 429 806 480 793 506 793 
C 589 793 749 838 749 1036 
C 749 1209 627 1280 506 1280 
C 358 1280 262 1190 262 1011 
C 262 454 704 -128 1382 -128 
C 2042 -128 2669 441 2669 1267 
C 2669 2054 2170 2662 1549 2662 
C 1222 2662 947 2540 730 2304 
L 730 3750 
z
" transform="scale(0.015625)"/>
       </defs>
       <use xlink:href="#CMSY10-0" transform="scale(0.996264)"/>
       <use xlink:href="#CMR17-30" transform="translate(77.487468 0)scale(0.996264)"/>
       <use xlink:href="#CMMI12-3a" transform="translate(123.177945 0)scale(0.996264)"/>
       <use xlink:href="#CMR17-37" transform="translate(150.275122 0)scale(0.996264)"/>
       <use xlink:href="#CMR17-35" transform="translate(195.965599 0)scale(0.996264)"/>
      </g>
     </g>
    </g>
    <g id="xtick_3">
     <g id="line2d_5">
      <path d="M 100.671301 201.343843 
L 100.671301 24.269588 
" clip-path="url(#p473e0f1eeb)" style="fill: none; stroke-dasharray: 0.8,1.32; stroke-dashoffset: 0; stroke: #b0b0b0; stroke-width: 0.8"/>
     </g>
     <g id="line2d_6">
      <g>
       <use xlink:href="#md64a1574f4" x="100.671301" y="201.343843" style="stroke: #000000; stroke-width: 0.8"/>
      </g>
     </g>
     <g id="text_3">
      <!-- $\mathdefault{−0.50}$ -->
      <g transform="translate(87.941222 215.262342)scale(0.1 -0.1)">
       <use xlink:href="#CMSY10-0" transform="scale(0.996264)"/>
       <use xlink:href="#CMR17-30" transform="translate(77.487468 0)scale(0.996264)"/>
       <use xlink:href="#CMMI12-3a" transform="translate(123.177945 0)scale(0.996264)"/>
       <use xlink:href="#CMR17-35" transform="translate(150.275122 0)scale(0.996264)"/>
       <use xlink:href="#CMR17-30" transform="translate(195.965599 0)scale(0.996264)"/>
      </g>
     </g>
    </g>
    <g id="xtick_4">
     <g id="line2d_7">
      <path d="M 131.39681 201.343843 
L 131.39681 24.269588 
" clip-path="url(#p473e0f1eeb)" style="fill: none; stroke-dasharray: 0.8,1.32; stroke-dashoffset: 0; stroke: #b0b0b0; stroke-width: 0.8"/>
     </g>
     <g id="line2d_8">
      <g>
       <use xlink:href="#md64a1574f4" x="131.39681" y="201.343843" style="stroke: #000000; stroke-width: 0.8"/>
      </g>
     </g>
     <g id="text_4">
      <!-- $\mathdefault{−0.25}$ -->
      <g transform="translate(118.666731 215.262342)scale(0.1 -0.1)">
       <defs>
        <path id="CMR17-32" d="M 2669 990 
L 2554 990 
C 2490 537 2438 460 2413 422 
C 2381 371 1920 371 1830 371 
L 602 371 
C 832 620 1280 1073 1824 1596 
C 2214 1966 2669 2400 2669 3033 
C 2669 3788 2067 4224 1395 4224 
C 691 4224 262 3603 262 3027 
C 262 2777 448 2745 525 2745 
C 589 2745 781 2783 781 3007 
C 781 3206 614 3264 525 3264 
C 486 3264 448 3257 422 3244 
C 544 3788 915 4057 1306 4057 
C 1862 4057 2227 3616 2227 3033 
C 2227 2477 1901 1998 1536 1583 
L 262 147 
L 262 0 
L 2515 0 
L 2669 990 
z
" transform="scale(0.015625)"/>
       </defs>
       <use xlink:href="#CMSY10-0" transform="scale(0.996264)"/>
       <use xlink:href="#CMR17-30" transform="translate(77.487468 0)scale(0.996264)"/>
       <use xlink:href="#CMMI12-3a" transform="translate(123.177945 0)scale(0.996264)"/>
       <use xlink:href="#CMR17-32" transform="translate(150.275122 0)scale(0.996264)"/>
       <use xlink:href="#CMR17-35" transform="translate(195.965599 0)scale(0.996264)"/>
      </g>
     </g>
    </g>
    <g id="xtick_5">
     <g id="line2d_9">
      <path d="M 162.122319 201.343843 
L 162.122319 24.269588 
" clip-path="url(#p473e0f1eeb)" style="fill: none; stroke-dasharray: 0.8,1.32; stroke-dashoffset: 0; stroke: #b0b0b0; stroke-width: 0.8"/>
     </g>
     <g id="line2d_10">
      <g>
       <use xlink:href="#md64a1574f4" x="162.122319" y="201.343843" style="stroke: #000000; stroke-width: 0.8"/>
      </g>
     </g>
     <g id="text_5">
      <!-- $\mathdefault{0.00}$ -->
      <g transform="translate(153.266612 215.262342)scale(0.1 -0.1)">
       <use xlink:href="#CMR17-30" transform="scale(0.996264)"/>
       <use xlink:href="#CMMI12-3a" transform="translate(45.690477 0)scale(0.996264)"/>
       <use xlink:href="#CMR17-30" transform="translate(72.787654 0)scale(0.996264)"/>
       <use xlink:href="#CMR17-30" transform="translate(118.478131 0)scale(0.996264)"/>
      </g>
     </g>
    </g>
    <g id="xtick_6">
     <g id="line2d_11">
      <path d="M 192.847828 201.343843 
L 192.847828 24.269588 
" clip-path="url(#p473e0f1eeb)" style="fill: none; stroke-dasharray: 0.8,1.32; stroke-dashoffset: 0; stroke: #b0b0b0; stroke-width: 0.8"/>
     </g>
     <g id="line2d_12">
      <g>
       <use xlink:href="#md64a1574f4" x="192.847828" y="201.343843" style="stroke: #000000; stroke-width: 0.8"/>
      </g>
     </g>
     <g id="text_6">
      <!-- $\mathdefault{0.25}$ -->
      <g transform="translate(183.992121 215.262342)scale(0.1 -0.1)">
       <use xlink:href="#CMR17-30" transform="scale(0.996264)"/>
       <use xlink:href="#CMMI12-3a" transform="translate(45.690477 0)scale(0.996264)"/>
       <use xlink:href="#CMR17-32" transform="translate(72.787654 0)scale(0.996264)"/>
       <use xlink:href="#CMR17-35" transform="translate(118.478131 0)scale(0.996264)"/>
      </g>
     </g>
    </g>
    <g id="xtick_7">
     <g id="line2d_13">
      <path d="M 223.573338 201.343843 
L 223.573338 24.269588 
" clip-path="url(#p473e0f1eeb)" style="fill: none; stroke-dasharray: 0.8,1.32; stroke-dashoffset: 0; stroke: #b0b0b0; stroke-width: 0.8"/>
     </g>
     <g id="line2d_14">
      <g>
       <use xlink:href="#md64a1574f4" x="223.573338" y="201.343843" style="stroke: #000000; stroke-width: 0.8"/>
      </g>
     </g>
     <g id="text_7">
      <!-- $\mathdefault{0.50}$ -->
      <g transform="translate(214.71763 215.262342)scale(0.1 -0.1)">
       <use xlink:href="#CMR17-30" transform="scale(0.996264)"/>
       <use xlink:href="#CMMI12-3a" transform="translate(45.690477 0)scale(0.996264)"/>
       <use xlink:href="#CMR17-35" transform="translate(72.787654 0)scale(0.996264)"/>
       <use xlink:href="#CMR17-30" transform="translate(118.478131 0)scale(0.996264)"/>
      </g>
     </g>
    </g>
    <g id="xtick_8">
     <g id="line2d_15">
      <path d="M 254.298847 201.343843 
L 254.298847 24.269588 
" clip-path="url(#p473e0f1eeb)" style="fill: none; stroke-dasharray: 0.8,1.32; stroke-dashoffset: 0; stroke: #b0b0b0; stroke-width: 0.8"/>
     </g>
     <g id="line2d_16">
      <g>
       <use xlink:href="#md64a1574f4" x="254.298847" y="201.343843" style="stroke: #000000; stroke-width: 0.8"/>
      </g>
     </g>
     <g id="text_8">
      <!-- $\mathdefault{0.75}$ -->
      <g transform="translate(245.44314 215.262342)scale(0.1 -0.1)">
       <use xlink:href="#CMR17-30" transform="scale(0.996264)"/>
       <use xlink:href="#CMMI12-3a" transform="translate(45.690477 0)scale(0.996264)"/>
       <use xlink:href="#CMR17-37" transform="translate(72.787654 0)scale(0.996264)"/>
       <use xlink:href="#CMR17-35" transform="translate(118.478131 0)scale(0.996264)"/>
      </g>
     </g>
    </g>
    <g id="xtick_9">
     <g id="line2d_17">
      <path d="M 285.024356 201.343843 
L 285.024356 24.269588 
" clip-path="url(#p473e0f1eeb)" style="fill: none; stroke-dasharray: 0.8,1.32; stroke-dashoffset: 0; stroke: #b0b0b0; stroke-width: 0.8"/>
     </g>
     <g id="line2d_18">
      <g>
       <use xlink:href="#md64a1574f4" x="285.024356" y="201.343843" style="stroke: #000000; stroke-width: 0.8"/>
      </g>
     </g>
     <g id="text_9">
      <!-- $\mathdefault{1.00}$ -->
      <g transform="translate(276.168649 215.262342)scale(0.1 -0.1)">
       <use xlink:href="#CMR17-31" transform="scale(0.996264)"/>
       <use xlink:href="#CMMI12-3a" transform="translate(45.690477 0)scale(0.996264)"/>
       <use xlink:href="#CMR17-30" transform="translate(72.787654 0)scale(0.996264)"/>
       <use xlink:href="#CMR17-30" transform="translate(118.478131 0)scale(0.996264)"/>
      </g>
     </g>
    </g>
   </g>
   <g id="matplotlib.axis_2">
    <g id="ytick_1">
     <g id="line2d_19">
      <path d="M 26.930079 175.409127 
L 297.314559 175.409127 
" clip-path="url(#p473e0f1eeb)" style="fill: none; stroke-dasharray: 0.8,1.32; stroke-dashoffset: 0; stroke: #b0b0b0; stroke-width: 0.8"/>
     </g>
     <g id="line2d_20">
      <defs>
       <path id="mfa080423e1" d="M 0 0 
L -3.5 0 
" style="stroke: #000000; stroke-width: 0.8"/>
      </defs>
      <g>
       <use xlink:href="#mfa080423e1" x="26.930079" y="175.409127" style="stroke: #000000; stroke-width: 0.8"/>
      </g>
     </g>
     <g id="text_10">
      <!-- $\mathdefault{0.0}$ -->
      <g transform="translate(7.2 178.868376)scale(0.1 -0.1)">
       <use xlink:href="#CMR17-30" transform="scale(0.996264)"/>
       <use xlink:href="#CMMI12-3a" transform="translate(45.690477 0)scale(0.996264)"/>
       <use xlink:href="#CMR17-30" transform="translate(72.787654 0)scale(0.996264)"/>
      </g>
     </g>
    </g>
    <g id="ytick_2">
     <g id="line2d_21">
      <path d="M 26.930079 146.790985 
L 297.314559 146.790985 
" clip-path="url(#p473e0f1eeb)" style="fill: none; stroke-dasharray: 0.8,1.32; stroke-dashoffset: 0; stroke: #b0b0b0; stroke-width: 0.8"/>
     </g>
     <g id="line2d_22">
      <g>
       <use xlink:href="#mfa080423e1" x="26.930079" y="146.790985" style="stroke: #000000; stroke-width: 0.8"/>
      </g>
     </g>
     <g id="text_11">
      <!-- $\mathdefault{0.2}$ -->
      <g transform="translate(7.2 150.250234)scale(0.1 -0.1)">
       <use xlink:href="#CMR17-30" transform="scale(0.996264)"/>
       <use xlink:href="#CMMI12-3a" transform="translate(45.690477 0)scale(0.996264)"/>
       <use xlink:href="#CMR17-32" transform="translate(72.787654 0)scale(0.996264)"/>
      </g>
     </g>
    </g>
    <g id="ytick_3">
     <g id="line2d_23">
      <path d="M 26.930079 118.172843 
L 297.314559 118.172843 
" clip-path="url(#p473e0f1eeb)" style="fill: none; stroke-dasharray: 0.8,1.32; stroke-dashoffset: 0; stroke: #b0b0b0; stroke-width: 0.8"/>
     </g>
     <g id="line2d_24">
      <g>
       <use xlink:href="#mfa080423e1" x="26.930079" y="118.172843" style="stroke: #000000; stroke-width: 0.8"/>
      </g>
     </g>
     <g id="text_12">
      <!-- $\mathdefault{0.4}$ -->
      <g transform="translate(7.2 121.632092)scale(0.1 -0.1)">
       <defs>
        <path id="CMR17-34" d="M 2150 4147 
C 2150 4281 2144 4288 2029 4288 
L 128 1254 
L 128 1088 
L 1779 1088 
L 1779 460 
C 1779 230 1766 166 1318 166 
L 1197 166 
L 1197 0 
C 1402 12 1747 12 1965 12 
C 2182 12 2528 12 2733 0 
L 2733 166 
L 2611 166 
C 2163 166 2150 230 2150 460 
L 2150 1088 
L 2803 1088 
L 2803 1254 
L 2150 1254 
L 2150 4147 
z
M 1798 3723 
L 1798 1254 
L 256 1254 
L 1798 3723 
z
" transform="scale(0.015625)"/>
       </defs>
       <use xlink:href="#CMR17-30" transform="scale(0.996264)"/>
       <use xlink:href="#CMMI12-3a" transform="translate(45.690477 0)scale(0.996264)"/>
       <use xlink:href="#CMR17-34" transform="translate(72.787654 0)scale(0.996264)"/>
      </g>
     </g>
    </g>
    <g id="ytick_4">
     <g id="line2d_25">
      <path d="M 26.930079 89.554701 
L 297.314559 89.554701 
" clip-path="url(#p473e0f1eeb)" style="fill: none; stroke-dasharray: 0.8,1.32; stroke-dashoffset: 0; stroke: #b0b0b0; stroke-width: 0.8"/>
     </g>
     <g id="line2d_26">
      <g>
       <use xlink:href="#mfa080423e1" x="26.930079" y="89.554701" style="stroke: #000000; stroke-width: 0.8"/>
      </g>
     </g>
     <g id="text_13">
      <!-- $\mathdefault{0.6}$ -->
      <g transform="translate(7.2 93.013951)scale(0.1 -0.1)">
       <defs>
        <path id="CMR17-36" d="M 678 2198 
C 678 3712 1395 4076 1811 4076 
C 1946 4076 2272 4049 2400 3782 
C 2298 3782 2106 3782 2106 3558 
C 2106 3385 2246 3328 2336 3328 
C 2394 3328 2566 3353 2566 3571 
C 2566 3987 2246 4224 1805 4224 
C 1043 4224 243 3411 243 2011 
C 243 257 966 -128 1478 -128 
C 2099 -128 2688 431 2688 1295 
C 2688 2101 2170 2688 1517 2688 
C 1126 2688 838 2430 678 1979 
L 678 2198 
z
M 1478 25 
C 691 25 691 1212 691 1450 
C 691 1914 909 2585 1504 2585 
C 1613 2585 1926 2585 2138 2140 
C 2253 1889 2253 1624 2253 1302 
C 2253 954 2253 696 2118 438 
C 1978 173 1773 25 1478 25 
z
" transform="scale(0.015625)"/>
       </defs>
       <use xlink:href="#CMR17-30" transform="scale(0.996264)"/>
       <use xlink:href="#CMMI12-3a" transform="translate(45.690477 0)scale(0.996264)"/>
       <use xlink:href="#CMR17-36" transform="translate(72.787654 0)scale(0.996264)"/>
      </g>
     </g>
    </g>
    <g id="ytick_5">
     <g id="line2d_27">
      <path d="M 26.930079 60.93656 
L 297.314559 60.93656 
" clip-path="url(#p473e0f1eeb)" style="fill: none; stroke-dasharray: 0.8,1.32; stroke-dashoffset: 0; stroke: #b0b0b0; stroke-width: 0.8"/>
     </g>
     <g id="line2d_28">
      <g>
       <use xlink:href="#mfa080423e1" x="26.930079" y="60.93656" style="stroke: #000000; stroke-width: 0.8"/>
      </g>
     </g>
     <g id="text_14">
      <!-- $\mathdefault{0.8}$ -->
      <g transform="translate(7.2 64.395809)scale(0.1 -0.1)">
       <defs>
        <path id="CMR17-38" d="M 1741 2289 
C 2144 2494 2554 2803 2554 3298 
C 2554 3884 1990 4224 1472 4224 
C 890 4224 378 3800 378 3215 
C 378 3054 416 2777 666 2533 
C 730 2469 998 2276 1171 2154 
C 883 2006 211 1652 211 945 
C 211 282 838 -128 1459 -128 
C 2144 -128 2720 366 2720 1022 
C 2720 1607 2330 1877 2074 2051 
L 1741 2289 
z
M 902 2855 
C 851 2887 595 3086 595 3388 
C 595 3781 998 4076 1459 4076 
C 1965 4076 2336 3716 2336 3298 
C 2336 2700 1670 2359 1638 2359 
C 1632 2359 1626 2359 1574 2398 
L 902 2855 
z
M 2080 1536 
C 2176 1466 2483 1253 2483 861 
C 2483 385 2010 25 1472 25 
C 890 25 448 443 448 951 
C 448 1459 838 1884 1280 2083 
L 2080 1536 
z
" transform="scale(0.015625)"/>
       </defs>
       <use xlink:href="#CMR17-30" transform="scale(0.996264)"/>
       <use xlink:href="#CMMI12-3a" transform="translate(45.690477 0)scale(0.996264)"/>
       <use xlink:href="#CMR17-38" transform="translate(72.787654 0)scale(0.996264)"/>
      </g>
     </g>
    </g>
    <g id="ytick_6">
     <g id="line2d_29">
      <path d="M 26.930079 32.318418 
L 297.314559 32.318418 
" clip-path="url(#p473e0f1eeb)" style="fill: none; stroke-dasharray: 0.8,1.32; stroke-dashoffset: 0; stroke: #b0b0b0; stroke-width: 0.8"/>
     </g>
     <g id="line2d_30">
      <g>
       <use xlink:href="#mfa080423e1" x="26.930079" y="32.318418" style="stroke: #000000; stroke-width: 0.8"/>
      </g>
     </g>
     <g id="text_15">
      <!-- $\mathdefault{1.0}$ -->
      <g transform="translate(7.2 35.777667)scale(0.1 -0.1)">
       <use xlink:href="#CMR17-31" transform="scale(0.996264)"/>
       <use xlink:href="#CMMI12-3a" transform="translate(45.690477 0)scale(0.996264)"/>
       <use xlink:href="#CMR17-30" transform="translate(72.787654 0)scale(0.996264)"/>
      </g>
     </g>
    </g>
   </g>
   <g id="line2d_31">
    <path d="M 39.220283 32.318418 
L 285.024356 175.409127 
L 285.024356 175.409127 
" clip-path="url(#p473e0f1eeb)" style="fill: none; stroke: #1f77b4; stroke-width: 1.5; stroke-linecap: square"/>
   </g>
   <g id="line2d_32">
    <path d="M 39.220283 175.409127 
L 285.024356 32.318418 
L 285.024356 32.318418 
" clip-path="url(#p473e0f1eeb)" style="fill: none; stroke: #ff7f0e; stroke-width: 1.5; stroke-linecap: square"/>
   </g>
   <g id="line2d_33">
    <defs>
     <path id="mbea4830cb1" d="M 0 3 
C 0.795609 3 1.55874 2.683901 2.12132 2.12132 
C 2.683901 1.55874 3 0.795609 3 0 
C 3 -0.795609 2.683901 -1.55874 2.12132 -2.12132 
C 1.55874 -2.683901 0.795609 -3 0 -3 
C -0.795609 -3 -1.55874 -2.683901 -2.12132 -2.12132 
C -2.683901 -1.55874 -3 -0.795609 -3 0 
C -3 0.795609 -2.683901 1.55874 -2.12132 2.12132 
C -1.55874 2.683901 -0.795609 3 0 3 
z
" style="stroke: #1f77b4"/>
    </defs>
    <g clip-path="url(#p473e0f1eeb)">
     <use xlink:href="#mbea4830cb1" x="39.220283" y="32.318418" style="fill: #1f77b4; stroke: #1f77b4"/>
     <use xlink:href="#mbea4830cb1" x="285.024356" y="175.409127" style="fill: #1f77b4; stroke: #1f77b4"/>
    </g>
   </g>
   <g id="line2d_34">
    <defs>
     <path id="m3154c21477" d="M 0 3 
C 0.795609 3 1.55874 2.683901 2.12132 2.12132 
C 2.683901 1.55874 3 0.795609 3 0 
C 3 -0.795609 2.683901 -1.55874 2.12132 -2.12132 
C 1.55874 -2.683901 0.795609 -3 0 -3 
C -0.795609 -3 -1.55874 -2.683901 -2.12132 -2.12132 
C -2.683901 -1.55874 -3 -0.795609 -3 0 
C -3 0.795609 -2.683901 1.55874 -2.12132 2.12132 
C -1.55874 2.683901 -0.795609 3 0 3 
z
" style="stroke: #ff7f0e"/>
    </defs>
    <g clip-path="url(#p473e0f1eeb)">
     <use xlink:href="#m3154c21477" x="39.220283" y="175.409127" style="fill: #ff7f0e; stroke: #ff7f0e"/>
     <use xlink:href="#m3154c21477" x="285.024356" y="32.318418" style="fill: #ff7f0e; stroke: #ff7f0e"/>
    </g>
   </g>
   <g id="line2d_35">
    <defs>
     <path id="m84dceecde4" d="M 0 10 
L 0 -10 
" style="stroke: #000000"/>
    </defs>
    <g clip-path="url(#p473e0f1eeb)">
     <use xlink:href="#m84dceecde4" x="39.220283" y="175.409127" style="stroke: #000000"/>
     <use xlink:href="#m84dceecde4" x="285.024356" y="175.409127" style="stroke: #000000"/>
    </g>
   </g>
   <g id="line2d_36">
    <path d="M 39.220283 175.409127 
L 285.024356 175.409127 
" clip-path="url(#p473e0f1eeb)" style="fill: none; stroke: #000000; stroke-opacity: 0.5; stroke-width: 4; stroke-linecap: square"/>
    <defs>
     <path id="m54cbdbb341" d="M 0 3 
C 0.795609 3 1.55874 2.683901 2.12132 2.12132 
C 2.683901 1.55874 3 0.795609 3 0 
C 3 -0.795609 2.683901 -1.55874 2.12132 -2.12132 
C 1.55874 -2.683901 0.795609 -3 0 -3 
C -0.795609 -3 -1.55874 -2.683901 -2.12132 -2.12132 
C -2.683901 -1.55874 -3 -0.795609 -3 0 
C -3 0.795609 -2.683901 1.55874 -2.12132 2.12132 
C -1.55874 2.683901 -0.795609 3 0 3 
z
" style="stroke: #000000; stroke-opacity: 0.5"/>
    </defs>
    <g clip-path="url(#p473e0f1eeb)">
     <use xlink:href="#m54cbdbb341" x="39.220283" y="175.409127" style="fill-opacity: 0.5; stroke: #000000; stroke-opacity: 0.5"/>
     <use xlink:href="#m54cbdbb341" x="285.024356" y="175.409127" style="fill-opacity: 0.5; stroke: #000000; stroke-opacity: 0.5"/>
    </g>
   </g>
   <g id="patch_3">
    <path d="M 26.930079 201.343843 
L 26.930079 24.269588 
" style="fill: none; stroke: #000000; stroke-width: 0.8; stroke-linejoin: miter; stroke-linecap: square"/>
   </g>
   <g id="patch_4">
    <path d="M 297.314559 201.343843 
L 297.314559 24.269588 
" style="fill: none; stroke: #000000; stroke-width: 0.8; stroke-linejoin: miter; stroke-linecap: square"/>
   </g>
   <g id="patch_5">
    <path d="M 26.930079 201.343843 
L 297.314559 201.343843 
" style="fill: none; stroke: #000000; stroke-width: 0.8; stroke-linejoin: miter; stroke-linecap: square"/>
   </g>
   <g id="patch_6">
    <path d="M 26.930079 24.269588 
L 297.314559 24.269588 
" style="fill: none; stroke: #000000; stroke-width: 0.8; stroke-linejoin: miter; stroke-linecap: square"/>
   </g>
   <g id="text_16">
    <!-- Linear -->
    <g transform="translate(142.427886 18.269588)scale(0.16 -0.16)">
     <defs>
      <path id="CMSS17-4c" d="M 1670 416 
C 1594 416 1517 409 1440 409 
L 1101 409 
L 1101 4416 
L 563 4416 
L 563 0 
L 3002 0 
L 3002 416 
L 1670 416 
z
" transform="scale(0.015625)"/>
      <path id="CMSS17-69" d="M 979 4224 
L 442 4224 
L 442 3686 
L 979 3686 
L 979 4224 
z
M 947 2752 
L 474 2752 
L 474 0 
L 947 0 
L 947 2752 
z
" transform="scale(0.015625)"/>
      <path id="CMSS17-6e" d="M 2618 1878 
C 2618 2283 2522 2816 1798 2816 
C 1389 2816 1120 2604 941 2386 
L 941 2783 
L 474 2783 
L 474 0 
L 960 0 
L 960 1556 
C 960 1962 1114 2425 1549 2425 
C 2112 2425 2131 2045 2131 1826 
L 2131 0 
L 2618 0 
L 2618 1878 
z
" transform="scale(0.015625)"/>
      <path id="CMSS17-65" d="M 2502 1375 
C 2502 1587 2490 2001 2285 2347 
C 2061 2713 1696 2816 1421 2816 
C 755 2816 192 2184 192 1363 
C 192 579 774 -64 1510 -64 
C 1798 -64 2150 19 2470 249 
C 2470 275 2458 414 2451 421 
C 2451 433 2432 629 2432 655 
C 2125 408 1773 326 1517 326 
C 1107 326 666 667 646 1375 
L 2502 1375 
z
M 698 1728 
C 781 2086 1062 2425 1421 2425 
C 1517 2425 1965 2412 2080 1728 
L 698 1728 
z
" transform="scale(0.015625)"/>
      <path id="CMSS17-61" d="M 2406 1789 
C 2406 2399 1978 2816 1402 2816 
C 1120 2816 813 2764 461 2559 
L 499 2133 
C 659 2250 934 2438 1395 2438 
C 1722 2438 1920 2185 1920 1782 
L 1920 1536 
C 896 1504 256 1209 256 711 
C 256 452 416 -64 947 -64 
C 1043 -64 1562 -52 1933 224 
L 1933 -13 
L 2406 -13 
L 2406 1789 
z
M 1920 824 
C 1920 711 1920 559 1728 446 
C 1562 339 1350 326 1261 326 
C 941 326 723 503 723 723 
C 723 1165 1722 1209 1920 1216 
L 1920 824 
z
" transform="scale(0.015625)"/>
      <path id="CMSS17-72" d="M 954 1369 
C 954 1974 1395 2379 1958 2392 
L 1958 2816 
C 1549 2809 1165 2604 934 2270 
L 934 2783 
L 480 2783 
L 480 0 
L 954 0 
L 954 1369 
z
" transform="scale(0.015625)"/>
     </defs>
     <use xlink:href="#CMSS17-4c" transform="scale(0.996264)"/>
     <use xlink:href="#CMSS17-69" transform="translate(50.687105 0)scale(0.996264)"/>
     <use xlink:href="#CMSS17-6e" transform="translate(72.867828 0)scale(0.996264)"/>
     <use xlink:href="#CMSS17-65" transform="translate(121.072772 0)scale(0.996264)"/>
     <use xlink:href="#CMSS17-61" transform="translate(162.711594 0)scale(0.996264)"/>
     <use xlink:href="#CMSS17-72" transform="translate(205.03106 0)scale(0.996264)"/>
    </g>
   </g>
   <g id="legend_1">
    <g id="patch_7">
     <path d="M 229.61456 134.418744 
L 287.514559 134.418744 
Q 290.314559 134.418744 290.314559 131.618744 
L 290.314559 93.994687 
Q 290.314559 91.194687 287.514559 91.194687 
L 229.61456 91.194687 
Q 226.81456 91.194687 226.81456 93.994687 
L 226.81456 131.618744 
Q 226.81456 134.418744 229.61456 134.418744 
z
" style="fill: #ffffff; opacity: 0.8; stroke: #cccccc; stroke-linejoin: miter"/>
    </g>
    <g id="line2d_37">
     <path d="M 232.41456 101.694687 
L 246.41456 101.694687 
L 260.41456 101.694687 
" style="fill: none; stroke: #1f77b4; stroke-width: 1.5; stroke-linecap: square"/>
    </g>
    <g id="text_17">
     <!-- $\phi_1$ -->
     <g transform="translate(271.61456 106.594687)scale(0.14 -0.14)">
      <defs>
       <path id="CMMI12-1e" d="M 2752 4358 
C 2752 4416 2707 4416 2688 4416 
C 2630 4416 2624 4403 2598 4294 
L 2253 2924 
C 2234 2841 2227 2835 2221 2828 
C 2214 2816 2170 2809 2157 2809 
C 1107 2720 301 1863 301 1071 
C 301 387 832 -32 1498 -71 
C 1446 -266 1402 -467 1350 -662 
C 1261 -995 1210 -1204 1210 -1229 
C 1210 -1242 1210 -1280 1274 -1280 
C 1293 -1280 1318 -1280 1331 -1255 
C 1344 -1242 1382 -1089 1408 -1008 
L 1645 -71 
C 2739 -13 3571 875 3571 1673 
C 3571 2313 3085 2771 2374 2816 
L 2752 4358 
z
M 2336 2688 
C 2758 2662 3181 2428 3181 1806 
C 3181 1090 2675 140 1677 64 
L 2336 2688 
z
M 1530 57 
C 1216 76 691 241 691 938 
C 691 1737 1274 2624 2195 2681 
L 1530 57 
z
" transform="scale(0.015625)"/>
      </defs>
      <use xlink:href="#CMMI12-1e" transform="scale(0.996264)"/>
      <use xlink:href="#CMR17-31" transform="translate(57.73418 -14.943915)scale(0.697382)"/>
     </g>
    </g>
    <g id="line2d_38">
     <path d="M 232.41456 121.206716 
L 246.41456 121.206716 
L 260.41456 121.206716 
" style="fill: none; stroke: #ff7f0e; stroke-width: 1.5; stroke-linecap: square"/>
    </g>
    <g id="text_18">
     <!-- $\phi_2$ -->
     <g transform="translate(271.61456 126.106716)scale(0.14 -0.14)">
      <use xlink:href="#CMMI12-1e" transform="scale(0.996264)"/>
      <use xlink:href="#CMR17-32" transform="translate(57.73418 -14.943915)scale(0.697382)"/>
     </g>
    </g>
   </g>
  </g>
  <g id="axes_2">
   <g id="patch_8">
    <path d="M 306.815039 201.343843 
L 577.19952 201.343843 
L 577.19952 24.269588 
L 306.815039 24.269588 
z
" style="fill: #ffffff"/>
   </g>
   <g id="matplotlib.axis_3">
    <g id="xtick_10">
     <g id="line2d_39">
      <path d="M 319.105243 201.343843 
L 319.105243 24.269588 
" clip-path="url(#p869ff97f7a)" style="fill: none; stroke-dasharray: 0.8,1.32; stroke-dashoffset: 0; stroke: #b0b0b0; stroke-width: 0.8"/>
     </g>
     <g id="line2d_40">
      <g>
       <use xlink:href="#md64a1574f4" x="319.105243" y="201.343843" style="stroke: #000000; stroke-width: 0.8"/>
      </g>
     </g>
     <g id="text_19">
      <!-- $\mathdefault{−1.00}$ -->
      <g transform="translate(306.375164 215.262342)scale(0.1 -0.1)">
       <use xlink:href="#CMSY10-0" transform="scale(0.996264)"/>
       <use xlink:href="#CMR17-31" transform="translate(77.487468 0)scale(0.996264)"/>
       <use xlink:href="#CMMI12-3a" transform="translate(123.177945 0)scale(0.996264)"/>
       <use xlink:href="#CMR17-30" transform="translate(150.275122 0)scale(0.996264)"/>
       <use xlink:href="#CMR17-30" transform="translate(195.965599 0)scale(0.996264)"/>
      </g>
     </g>
    </g>
    <g id="xtick_11">
     <g id="line2d_41">
      <path d="M 349.830752 201.343843 
L 349.830752 24.269588 
" clip-path="url(#p869ff97f7a)" style="fill: none; stroke-dasharray: 0.8,1.32; stroke-dashoffset: 0; stroke: #b0b0b0; stroke-width: 0.8"/>
     </g>
     <g id="line2d_42">
      <g>
       <use xlink:href="#md64a1574f4" x="349.830752" y="201.343843" style="stroke: #000000; stroke-width: 0.8"/>
      </g>
     </g>
     <g id="text_20">
      <!-- $\mathdefault{−0.75}$ -->
      <g transform="translate(337.100673 215.262342)scale(0.1 -0.1)">
       <use xlink:href="#CMSY10-0" transform="scale(0.996264)"/>
       <use xlink:href="#CMR17-30" transform="translate(77.487468 0)scale(0.996264)"/>
       <use xlink:href="#CMMI12-3a" transform="translate(123.177945 0)scale(0.996264)"/>
       <use xlink:href="#CMR17-37" transform="translate(150.275122 0)scale(0.996264)"/>
       <use xlink:href="#CMR17-35" transform="translate(195.965599 0)scale(0.996264)"/>
      </g>
     </g>
    </g>
    <g id="xtick_12">
     <g id="line2d_43">
      <path d="M 380.556261 201.343843 
L 380.556261 24.269588 
" clip-path="url(#p869ff97f7a)" style="fill: none; stroke-dasharray: 0.8,1.32; stroke-dashoffset: 0; stroke: #b0b0b0; stroke-width: 0.8"/>
     </g>
     <g id="line2d_44">
      <g>
       <use xlink:href="#md64a1574f4" x="380.556261" y="201.343843" style="stroke: #000000; stroke-width: 0.8"/>
      </g>
     </g>
     <g id="text_21">
      <!-- $\mathdefault{−0.50}$ -->
      <g transform="translate(367.826182 215.262342)scale(0.1 -0.1)">
       <use xlink:href="#CMSY10-0" transform="scale(0.996264)"/>
       <use xlink:href="#CMR17-30" transform="translate(77.487468 0)scale(0.996264)"/>
       <use xlink:href="#CMMI12-3a" transform="translate(123.177945 0)scale(0.996264)"/>
       <use xlink:href="#CMR17-35" transform="translate(150.275122 0)scale(0.996264)"/>
       <use xlink:href="#CMR17-30" transform="translate(195.965599 0)scale(0.996264)"/>
      </g>
     </g>
    </g>
    <g id="xtick_13">
     <g id="line2d_45">
      <path d="M 411.281771 201.343843 
L 411.281771 24.269588 
" clip-path="url(#p869ff97f7a)" style="fill: none; stroke-dasharray: 0.8,1.32; stroke-dashoffset: 0; stroke: #b0b0b0; stroke-width: 0.8"/>
     </g>
     <g id="line2d_46">
      <g>
       <use xlink:href="#md64a1574f4" x="411.281771" y="201.343843" style="stroke: #000000; stroke-width: 0.8"/>
      </g>
     </g>
     <g id="text_22">
      <!-- $\mathdefault{−0.25}$ -->
      <g transform="translate(398.551692 215.262342)scale(0.1 -0.1)">
       <use xlink:href="#CMSY10-0" transform="scale(0.996264)"/>
       <use xlink:href="#CMR17-30" transform="translate(77.487468 0)scale(0.996264)"/>
       <use xlink:href="#CMMI12-3a" transform="translate(123.177945 0)scale(0.996264)"/>
       <use xlink:href="#CMR17-32" transform="translate(150.275122 0)scale(0.996264)"/>
       <use xlink:href="#CMR17-35" transform="translate(195.965599 0)scale(0.996264)"/>
      </g>
     </g>
    </g>
    <g id="xtick_14">
     <g id="line2d_47">
      <path d="M 442.00728 201.343843 
L 442.00728 24.269588 
" clip-path="url(#p869ff97f7a)" style="fill: none; stroke-dasharray: 0.8,1.32; stroke-dashoffset: 0; stroke: #b0b0b0; stroke-width: 0.8"/>
     </g>
     <g id="line2d_48">
      <g>
       <use xlink:href="#md64a1574f4" x="442.00728" y="201.343843" style="stroke: #000000; stroke-width: 0.8"/>
      </g>
     </g>
     <g id="text_23">
      <!-- $\mathdefault{0.00}$ -->
      <g transform="translate(433.151573 215.262342)scale(0.1 -0.1)">
       <use xlink:href="#CMR17-30" transform="scale(0.996264)"/>
       <use xlink:href="#CMMI12-3a" transform="translate(45.690477 0)scale(0.996264)"/>
       <use xlink:href="#CMR17-30" transform="translate(72.787654 0)scale(0.996264)"/>
       <use xlink:href="#CMR17-30" transform="translate(118.478131 0)scale(0.996264)"/>
      </g>
     </g>
    </g>
    <g id="xtick_15">
     <g id="line2d_49">
      <path d="M 472.732789 201.343843 
L 472.732789 24.269588 
" clip-path="url(#p869ff97f7a)" style="fill: none; stroke-dasharray: 0.8,1.32; stroke-dashoffset: 0; stroke: #b0b0b0; stroke-width: 0.8"/>
     </g>
     <g id="line2d_50">
      <g>
       <use xlink:href="#md64a1574f4" x="472.732789" y="201.343843" style="stroke: #000000; stroke-width: 0.8"/>
      </g>
     </g>
     <g id="text_24">
      <!-- $\mathdefault{0.25}$ -->
      <g transform="translate(463.877082 215.262342)scale(0.1 -0.1)">
       <use xlink:href="#CMR17-30" transform="scale(0.996264)"/>
       <use xlink:href="#CMMI12-3a" transform="translate(45.690477 0)scale(0.996264)"/>
       <use xlink:href="#CMR17-32" transform="translate(72.787654 0)scale(0.996264)"/>
       <use xlink:href="#CMR17-35" transform="translate(118.478131 0)scale(0.996264)"/>
      </g>
     </g>
    </g>
    <g id="xtick_16">
     <g id="line2d_51">
      <path d="M 503.458298 201.343843 
L 503.458298 24.269588 
" clip-path="url(#p869ff97f7a)" style="fill: none; stroke-dasharray: 0.8,1.32; stroke-dashoffset: 0; stroke: #b0b0b0; stroke-width: 0.8"/>
     </g>
     <g id="line2d_52">
      <g>
       <use xlink:href="#md64a1574f4" x="503.458298" y="201.343843" style="stroke: #000000; stroke-width: 0.8"/>
      </g>
     </g>
     <g id="text_25">
      <!-- $\mathdefault{0.50}$ -->
      <g transform="translate(494.602591 215.262342)scale(0.1 -0.1)">
       <use xlink:href="#CMR17-30" transform="scale(0.996264)"/>
       <use xlink:href="#CMMI12-3a" transform="translate(45.690477 0)scale(0.996264)"/>
       <use xlink:href="#CMR17-35" transform="translate(72.787654 0)scale(0.996264)"/>
       <use xlink:href="#CMR17-30" transform="translate(118.478131 0)scale(0.996264)"/>
      </g>
     </g>
    </g>
    <g id="xtick_17">
     <g id="line2d_53">
      <path d="M 534.183807 201.343843 
L 534.183807 24.269588 
" clip-path="url(#p869ff97f7a)" style="fill: none; stroke-dasharray: 0.8,1.32; stroke-dashoffset: 0; stroke: #b0b0b0; stroke-width: 0.8"/>
     </g>
     <g id="line2d_54">
      <g>
       <use xlink:href="#md64a1574f4" x="534.183807" y="201.343843" style="stroke: #000000; stroke-width: 0.8"/>
      </g>
     </g>
     <g id="text_26">
      <!-- $\mathdefault{0.75}$ -->
      <g transform="translate(525.3281 215.262342)scale(0.1 -0.1)">
       <use xlink:href="#CMR17-30" transform="scale(0.996264)"/>
       <use xlink:href="#CMMI12-3a" transform="translate(45.690477 0)scale(0.996264)"/>
       <use xlink:href="#CMR17-37" transform="translate(72.787654 0)scale(0.996264)"/>
       <use xlink:href="#CMR17-35" transform="translate(118.478131 0)scale(0.996264)"/>
      </g>
     </g>
    </g>
    <g id="xtick_18">
     <g id="line2d_55">
      <path d="M 564.909316 201.343843 
L 564.909316 24.269588 
" clip-path="url(#p869ff97f7a)" style="fill: none; stroke-dasharray: 0.8,1.32; stroke-dashoffset: 0; stroke: #b0b0b0; stroke-width: 0.8"/>
     </g>
     <g id="line2d_56">
      <g>
       <use xlink:href="#md64a1574f4" x="564.909316" y="201.343843" style="stroke: #000000; stroke-width: 0.8"/>
      </g>
     </g>
     <g id="text_27">
      <!-- $\mathdefault{1.00}$ -->
      <g transform="translate(556.053609 215.262342)scale(0.1 -0.1)">
       <use xlink:href="#CMR17-31" transform="scale(0.996264)"/>
       <use xlink:href="#CMMI12-3a" transform="translate(45.690477 0)scale(0.996264)"/>
       <use xlink:href="#CMR17-30" transform="translate(72.787654 0)scale(0.996264)"/>
       <use xlink:href="#CMR17-30" transform="translate(118.478131 0)scale(0.996264)"/>
      </g>
     </g>
    </g>
   </g>
   <g id="matplotlib.axis_4">
    <g id="ytick_7">
     <g id="line2d_57">
      <path d="M 306.815039 175.409127 
L 577.19952 175.409127 
" clip-path="url(#p869ff97f7a)" style="fill: none; stroke-dasharray: 0.8,1.32; stroke-dashoffset: 0; stroke: #b0b0b0; stroke-width: 0.8"/>
     </g>
     <g id="line2d_58">
      <g>
       <use xlink:href="#mfa080423e1" x="306.815039" y="175.409127" style="stroke: #000000; stroke-width: 0.8"/>
      </g>
     </g>
    </g>
    <g id="ytick_8">
     <g id="line2d_59">
      <path d="M 306.815039 146.790985 
L 577.19952 146.790985 
" clip-path="url(#p869ff97f7a)" style="fill: none; stroke-dasharray: 0.8,1.32; stroke-dashoffset: 0; stroke: #b0b0b0; stroke-width: 0.8"/>
     </g>
     <g id="line2d_60">
      <g>
       <use xlink:href="#mfa080423e1" x="306.815039" y="146.790985" style="stroke: #000000; stroke-width: 0.8"/>
      </g>
     </g>
    </g>
    <g id="ytick_9">
     <g id="line2d_61">
      <path d="M 306.815039 118.172843 
L 577.19952 118.172843 
" clip-path="url(#p869ff97f7a)" style="fill: none; stroke-dasharray: 0.8,1.32; stroke-dashoffset: 0; stroke: #b0b0b0; stroke-width: 0.8"/>
     </g>
     <g id="line2d_62">
      <g>
       <use xlink:href="#mfa080423e1" x="306.815039" y="118.172843" style="stroke: #000000; stroke-width: 0.8"/>
      </g>
     </g>
    </g>
    <g id="ytick_10">
     <g id="line2d_63">
      <path d="M 306.815039 89.554701 
L 577.19952 89.554701 
" clip-path="url(#p869ff97f7a)" style="fill: none; stroke-dasharray: 0.8,1.32; stroke-dashoffset: 0; stroke: #b0b0b0; stroke-width: 0.8"/>
     </g>
     <g id="line2d_64">
      <g>
       <use xlink:href="#mfa080423e1" x="306.815039" y="89.554701" style="stroke: #000000; stroke-width: 0.8"/>
      </g>
     </g>
    </g>
    <g id="ytick_11">
     <g id="line2d_65">
      <path d="M 306.815039 60.93656 
L 577.19952 60.93656 
" clip-path="url(#p869ff97f7a)" style="fill: none; stroke-dasharray: 0.8,1.32; stroke-dashoffset: 0; stroke: #b0b0b0; stroke-width: 0.8"/>
     </g>
     <g id="line2d_66">
      <g>
       <use xlink:href="#mfa080423e1" x="306.815039" y="60.93656" style="stroke: #000000; stroke-width: 0.8"/>
      </g>
     </g>
    </g>
    <g id="ytick_12">
     <g id="line2d_67">
      <path d="M 306.815039 32.318418 
L 577.19952 32.318418 
" clip-path="url(#p869ff97f7a)" style="fill: none; stroke-dasharray: 0.8,1.32; stroke-dashoffset: 0; stroke: #b0b0b0; stroke-width: 0.8"/>
     </g>
     <g id="line2d_68">
      <g>
       <use xlink:href="#mfa080423e1" x="306.815039" y="32.318418" style="stroke: #000000; stroke-width: 0.8"/>
      </g>
     </g>
    </g>
   </g>
   <g id="line2d_69">
    <path d="M 319.105243 32.318418 
L 326.516421 45.001138 
L 332.692403 55.172607 
L 338.868385 64.982745 
L 345.044366 74.431552 
L 351.220348 83.519028 
L 357.39633 92.245172 
L 363.572312 100.609986 
L 369.748293 108.613469 
L 375.924275 116.255621 
L 382.100257 123.536441 
L 388.276239 130.455931 
L 394.45222 137.014089 
L 400.628202 143.210917 
L 406.804184 149.046413 
L 412.980166 154.520579 
L 419.156147 159.633413 
L 424.096933 163.463522 
L 429.037718 167.062379 
L 433.978503 170.429985 
L 438.919289 173.566338 
L 443.860074 176.47144 
L 448.80086 179.14529 
L 453.741645 181.587888 
L 458.68243 183.799234 
L 463.623216 185.779328 
L 468.564001 187.52817 
L 473.504787 189.04576 
L 478.445572 190.332099 
L 483.386357 191.387186 
L 488.327143 192.21102 
L 493.267928 192.803603 
L 498.208714 193.164934 
L 503.149499 193.295014 
L 508.090284 193.193841 
L 513.03107 192.861416 
L 517.971855 192.29774 
L 522.912641 191.502812 
L 527.853426 190.476631 
L 532.794211 189.219199 
L 537.734997 187.730515 
L 542.675782 186.01058 
L 547.616567 184.059392 
L 552.557353 181.876952 
L 557.498138 179.463261 
L 562.438924 176.818318 
L 564.909316 175.409127 
L 564.909316 175.409127 
" clip-path="url(#p869ff97f7a)" style="fill: none; stroke: #1f77b4; stroke-width: 1.5; stroke-linecap: square"/>
   </g>
   <g id="line2d_70">
    <path d="M 319.105243 175.409127 
L 324.046029 178.169696 
L 328.986814 180.699013 
L 333.927599 182.997079 
L 338.868385 185.063892 
L 343.80917 186.899454 
L 348.749955 188.503764 
L 353.690741 189.876822 
L 358.631526 191.018628 
L 363.572312 191.929182 
L 368.513097 192.608485 
L 373.453882 193.056535 
L 378.394668 193.273334 
L 383.335453 193.25888 
L 388.276239 193.013175 
L 393.217024 192.536218 
L 398.157809 191.828009 
L 403.098595 190.888549 
L 408.03938 189.717836 
L 412.980166 188.315872 
L 417.920951 186.682655 
L 422.861736 184.818187 
L 427.802522 182.722467 
L 432.743307 180.395495 
L 437.684093 177.837271 
L 442.624878 175.047796 
L 447.565663 172.027068 
L 452.506449 168.775089 
L 457.447234 165.291857 
L 462.388019 161.577374 
L 467.328805 157.631639 
L 472.26959 153.454652 
L 478.445572 147.908221 
L 484.621554 142.000458 
L 490.797535 135.731364 
L 496.973517 129.100939 
L 503.149499 122.109184 
L 509.325481 114.756097 
L 515.501462 107.041679 
L 521.677444 98.96593 
L 527.853426 90.52885 
L 534.029408 81.730439 
L 540.205389 72.570697 
L 546.381371 63.049624 
L 552.557353 53.16722 
L 558.733335 42.923484 
L 564.909316 32.318418 
L 564.909316 32.318418 
" clip-path="url(#p869ff97f7a)" style="fill: none; stroke: #ff7f0e; stroke-width: 1.5; stroke-linecap: square"/>
   </g>
   <g id="line2d_71">
    <path d="M 319.105243 175.409127 
L 324.046029 164.135598 
L 328.986814 153.324573 
L 333.927599 142.976052 
L 338.868385 133.090034 
L 343.80917 123.66652 
L 348.749955 114.70551 
L 353.690741 106.207004 
L 358.631526 98.171002 
L 363.572312 90.597503 
L 368.513097 83.486508 
L 373.453882 76.838017 
L 378.394668 70.652029 
L 382.100257 66.316056 
L 385.805846 62.240242 
L 389.511435 58.424586 
L 393.217024 54.869089 
L 396.922613 51.57375 
L 400.628202 48.538569 
L 404.333791 45.763546 
L 408.03938 43.248682 
L 411.744969 40.993977 
L 415.450558 38.999429 
L 419.156147 37.26504 
L 422.861736 35.790809 
L 426.567325 34.576737 
L 430.272914 33.622823 
L 433.978503 32.929068 
L 437.684093 32.49547 
L 441.389682 32.322031 
L 445.095271 32.408751 
L 448.80086 32.755629 
L 452.506449 33.362665 
L 456.212038 34.229859 
L 459.917627 35.357212 
L 463.623216 36.744723 
L 467.328805 38.392393 
L 471.034394 40.300221 
L 474.739983 42.468207 
L 478.445572 44.896352 
L 482.151161 47.584655 
L 485.85675 50.533116 
L 489.562339 53.741736 
L 493.267928 57.210514 
L 496.973517 60.93945 
L 500.679106 64.928545 
L 504.384695 69.177798 
L 508.090284 73.68721 
L 513.03107 80.104449 
L 517.971855 86.984192 
L 522.912641 94.326439 
L 527.853426 102.13119 
L 532.794211 110.398444 
L 537.734997 119.128202 
L 542.675782 128.320464 
L 547.616567 137.97523 
L 552.557353 148.092499 
L 557.498138 158.672272 
L 562.438924 169.714549 
L 564.909316 175.409127 
L 564.909316 175.409127 
" clip-path="url(#p869ff97f7a)" style="fill: none; stroke: #2ca02c; stroke-width: 1.5; stroke-linecap: square"/>
   </g>
   <g id="line2d_72">
    <g clip-path="url(#p869ff97f7a)">
     <use xlink:href="#mbea4830cb1" x="319.105243" y="32.318418" style="fill: #1f77b4; stroke: #1f77b4"/>
     <use xlink:href="#mbea4830cb1" x="442.00728" y="175.409127" style="fill: #1f77b4; stroke: #1f77b4"/>
     <use xlink:href="#mbea4830cb1" x="564.909316" y="175.409127" style="fill: #1f77b4; stroke: #1f77b4"/>
    </g>
   </g>
   <g id="line2d_73">
    <defs>
     <path id="me17ec1387e" d="M 0 3 
C 0.795609 3 1.55874 2.683901 2.12132 2.12132 
C 2.683901 1.55874 3 0.795609 3 0 
C 3 -0.795609 2.683901 -1.55874 2.12132 -2.12132 
C 1.55874 -2.683901 0.795609 -3 0 -3 
C -0.795609 -3 -1.55874 -2.683901 -2.12132 -2.12132 
C -2.683901 -1.55874 -3 -0.795609 -3 0 
C -3 0.795609 -2.683901 1.55874 -2.12132 2.12132 
C -1.55874 2.683901 -0.795609 3 0 3 
z
" style="stroke: #2ca02c"/>
    </defs>
    <g clip-path="url(#p869ff97f7a)">
     <use xlink:href="#me17ec1387e" x="319.105243" y="175.409127" style="fill: #2ca02c; stroke: #2ca02c"/>
     <use xlink:href="#me17ec1387e" x="442.00728" y="32.318418" style="fill: #2ca02c; stroke: #2ca02c"/>
     <use xlink:href="#me17ec1387e" x="564.909316" y="175.409127" style="fill: #2ca02c; stroke: #2ca02c"/>
    </g>
   </g>
   <g id="line2d_74">
    <g clip-path="url(#p869ff97f7a)">
     <use xlink:href="#m3154c21477" x="319.105243" y="175.409127" style="fill: #ff7f0e; stroke: #ff7f0e"/>
     <use xlink:href="#m3154c21477" x="442.00728" y="175.409127" style="fill: #ff7f0e; stroke: #ff7f0e"/>
     <use xlink:href="#m3154c21477" x="564.909316" y="32.318418" style="fill: #ff7f0e; stroke: #ff7f0e"/>
    </g>
   </g>
   <g id="line2d_75">
    <g clip-path="url(#p869ff97f7a)">
     <use xlink:href="#m84dceecde4" x="319.105243" y="175.409127" style="stroke: #000000"/>
     <use xlink:href="#m84dceecde4" x="564.909316" y="175.409127" style="stroke: #000000"/>
    </g>
   </g>
   <g id="line2d_76">
    <path d="M 319.105243 175.409127 
L 442.00728 175.409127 
L 564.909316 175.409127 
" clip-path="url(#p869ff97f7a)" style="fill: none; stroke: #000000; stroke-opacity: 0.5; stroke-width: 4; stroke-linecap: square"/>
    <g clip-path="url(#p869ff97f7a)">
     <use xlink:href="#m54cbdbb341" x="319.105243" y="175.409127" style="fill-opacity: 0.5; stroke: #000000; stroke-opacity: 0.5"/>
     <use xlink:href="#m54cbdbb341" x="442.00728" y="175.409127" style="fill-opacity: 0.5; stroke: #000000; stroke-opacity: 0.5"/>
     <use xlink:href="#m54cbdbb341" x="564.909316" y="175.409127" style="fill-opacity: 0.5; stroke: #000000; stroke-opacity: 0.5"/>
    </g>
   </g>
   <g id="patch_9">
    <path d="M 306.815039 201.343843 
L 306.815039 24.269588 
" style="fill: none; stroke: #000000; stroke-width: 0.8; stroke-linejoin: miter; stroke-linecap: square"/>
   </g>
   <g id="patch_10">
    <path d="M 577.19952 201.343843 
L 577.19952 24.269588 
" style="fill: none; stroke: #000000; stroke-width: 0.8; stroke-linejoin: miter; stroke-linecap: square"/>
   </g>
   <g id="patch_11">
    <path d="M 306.815039 201.343843 
L 577.19952 201.343843 
" style="fill: none; stroke: #000000; stroke-width: 0.8; stroke-linejoin: miter; stroke-linecap: square"/>
   </g>
   <g id="patch_12">
    <path d="M 306.815039 24.269588 
L 577.19952 24.269588 
" style="fill: none; stroke: #000000; stroke-width: 0.8; stroke-linejoin: miter; stroke-linecap: square"/>
   </g>
   <g id="text_28">
    <!-- Quadratic -->
    <g transform="translate(409.998042 18.269588)scale(0.16 -0.16)">
     <defs>
      <path id="CMSS17-51" d="M 3200 211 
C 3981 848 4096 1711 4096 2201 
C 4096 3541 3219 4544 2214 4544 
C 1210 4544 333 3535 333 2201 
C 333 855 1222 -128 2214 -128 
C 2438 -128 2630 -77 2765 -26 
L 3302 -832 
L 3930 -832 
L 3200 211 
z
M 2528 326 
C 2438 294 2330 275 2214 275 
C 1523 275 858 1003 858 2201 
C 858 3393 1517 4140 2214 4140 
C 2918 4140 3571 3386 3571 2201 
C 3571 1789 3507 1099 2950 571 
L 2490 1222 
L 1939 1222 
L 2528 326 
z
" transform="scale(0.015625)"/>
      <path id="CMSS17-75" d="M 2618 2752 
L 2131 2752 
L 2131 976 
C 2131 500 1786 307 1421 307 
C 998 307 960 448 960 712 
L 960 2752 
L 474 2752 
L 474 680 
C 474 179 646 -64 1088 -64 
C 1306 -64 1798 -13 2144 307 
L 2144 -13 
L 2618 -13 
L 2618 2752 
z
" transform="scale(0.015625)"/>
      <path id="CMSS17-64" d="M 2611 4416 
L 2138 4416 
L 2138 2495 
C 1939 2662 1613 2816 1254 2816 
C 672 2816 211 2179 211 1375 
C 211 572 666 -64 1235 -64 
C 1677 -64 1971 172 2125 307 
L 2125 -13 
L 2611 -13 
L 2611 4416 
z
M 2125 851 
C 2125 760 2125 663 1926 488 
C 1798 378 1645 326 1498 326 
C 1152 326 698 585 698 1369 
C 698 2185 1210 2425 1562 2425 
C 1798 2425 1990 2308 2125 2114 
L 2125 851 
z
" transform="scale(0.015625)"/>
      <path id="CMSS17-74" d="M 1069 2380 
L 1901 2380 
L 1901 2752 
L 1069 2752 
L 1069 3520 
L 614 3520 
L 614 2752 
L 109 2752 
L 109 2380 
L 602 2380 
L 602 751 
C 602 384 685 -64 1107 -64 
C 1427 -64 1722 25 2003 172 
L 1901 551 
C 1747 416 1562 339 1363 339 
C 1082 339 1069 699 1069 860 
L 1069 2380 
z
" transform="scale(0.015625)"/>
      <path id="CMSS17-63" d="M 2464 2540 
C 2464 2585 2170 2713 2093 2739 
C 1882 2816 1613 2816 1542 2816 
C 710 2816 211 2092 211 1363 
C 211 595 768 -64 1517 -64 
C 1946 -64 2253 76 2502 243 
L 2464 665 
C 2189 454 1869 339 1523 339 
C 1024 339 698 774 698 1369 
C 698 1830 909 2412 1549 2412 
C 1901 2412 2099 2342 2394 2143 
L 2464 2540 
z
" transform="scale(0.015625)"/>
     </defs>
     <use xlink:href="#CMSS17-51" transform="scale(0.996264)"/>
     <use xlink:href="#CMSS17-75" transform="translate(69.024255 0)scale(0.996264)"/>
     <use xlink:href="#CMSS17-61" transform="translate(117.229198 0)scale(0.996264)"/>
     <use xlink:href="#CMSS17-64" transform="translate(162.151119 0)scale(0.996264)"/>
     <use xlink:href="#CMSS17-72" transform="translate(210.356062 0)scale(0.996264)"/>
     <use xlink:href="#CMSS17-61" transform="translate(242.265835 0)scale(0.996264)"/>
     <use xlink:href="#CMSS17-74" transform="translate(287.187755 0)scale(0.996264)"/>
     <use xlink:href="#CMSS17-69" transform="translate(321.019322 0)scale(0.996264)"/>
     <use xlink:href="#CMSS17-63" transform="translate(343.200045 0)scale(0.996264)"/>
    </g>
   </g>
   <g id="legend_2">
    <g id="patch_13">
     <path d="M 509.499521 144.174758 
L 567.39952 144.174758 
Q 570.19952 144.174758 570.19952 141.374758 
L 570.19952 84.238673 
Q 570.19952 81.438673 567.39952 81.438673 
L 509.499521 81.438673 
Q 506.699521 81.438673 506.699521 84.238673 
L 506.699521 141.374758 
Q 506.699521 144.174758 509.499521 144.174758 
z
" style="fill: #ffffff; opacity: 0.8; stroke: #cccccc; stroke-linejoin: miter"/>
    </g>
    <g id="line2d_77">
     <path d="M 512.299521 91.938673 
L 526.299521 91.938673 
L 540.299521 91.938673 
" style="fill: none; stroke: #1f77b4; stroke-width: 1.5; stroke-linecap: square"/>
    </g>
    <g id="text_29">
     <!-- $\phi_1$ -->
     <g transform="translate(551.499521 96.838673)scale(0.14 -0.14)">
      <use xlink:href="#CMMI12-1e" transform="scale(0.996264)"/>
      <use xlink:href="#CMR17-31" transform="translate(57.73418 -14.943915)scale(0.697382)"/>
     </g>
    </g>
    <g id="line2d_78">
     <path d="M 512.299521 111.450702 
L 526.299521 111.450702 
L 540.299521 111.450702 
" style="fill: none; stroke: #ff7f0e; stroke-width: 1.5; stroke-linecap: square"/>
    </g>
    <g id="text_30">
     <!-- $\phi_2$ -->
     <g transform="translate(551.499521 116.350702)scale(0.14 -0.14)">
      <use xlink:href="#CMMI12-1e" transform="scale(0.996264)"/>
      <use xlink:href="#CMR17-32" transform="translate(57.73418 -14.943915)scale(0.697382)"/>
     </g>
    </g>
    <g id="line2d_79">
     <path d="M 512.299521 130.96273 
L 526.299521 130.96273 
L 540.299521 130.96273 
" style="fill: none; stroke: #2ca02c; stroke-width: 1.5; stroke-linecap: square"/>
    </g>
    <g id="text_31">
     <!-- $\phi_3$ -->
     <g transform="translate(551.499521 135.86273)scale(0.14 -0.14)">
      <defs>
       <path id="CMR17-33" d="M 1414 2176 
C 1984 2176 2234 1673 2234 1094 
C 2234 322 1824 25 1453 25 
C 1114 25 563 193 390 691 
C 422 678 454 678 486 678 
C 640 678 755 780 755 947 
C 755 1132 614 1216 486 1216 
C 378 1216 211 1164 211 927 
C 211 335 787 -128 1466 -128 
C 2176 -128 2720 432 2720 1087 
C 2720 1718 2208 2176 1600 2246 
C 2086 2347 2554 2776 2554 3353 
C 2554 3856 2048 4224 1472 4224 
C 890 4224 378 3862 378 3347 
C 378 3123 544 3084 627 3084 
C 762 3084 877 3167 877 3334 
C 877 3500 762 3584 627 3584 
C 602 3584 570 3584 544 3571 
C 730 3999 1235 4076 1459 4076 
C 1683 4076 2106 3966 2106 3347 
C 2106 3167 2080 2851 1862 2574 
C 1670 2329 1453 2316 1242 2297 
C 1210 2297 1062 2284 1037 2284 
C 992 2278 966 2272 966 2227 
C 966 2182 973 2176 1101 2176 
L 1414 2176 
z
" transform="scale(0.015625)"/>
      </defs>
      <use xlink:href="#CMMI12-1e" transform="scale(0.996264)"/>
      <use xlink:href="#CMR17-33" transform="translate(57.73418 -14.943915)scale(0.697382)"/>
     </g>
    </g>
   </g>
  </g>
 </g>
 <defs>
  <clipPath id="p473e0f1eeb">
   <rect x="26.930079" y="24.269588" width="270.384481" height="177.074255"/>
  </clipPath>
  <clipPath id="p869ff97f7a">
   <rect x="306.815039" y="24.269588" width="270.384481" height="177.074255"/>
  </clipPath>
 </defs>
</svg>
